<svg xmlns="http://www.w3.org/2000/svg" viewBox="0 0 147.4 147.4"><defs><style>.cls-1{fill:#e87818;}.cls-2{fill:#201b18;}.cls-3{fill:none;stroke:#201b18;stroke-linecap:round;stroke-linejoin:round;stroke-width:0.9px;}.cls-4{fill:#1d1d1b;}</style></defs><title>G11_08_03</title><g id="Mobile"><g id="g107"><path id="path109" class="cls-1" d="M4.25,77.74l73.86,73.64,73.54-73.64L78.11,4,4.25,77.74" transform="translate(-4.25 -3.98)"/></g><g id="g111"><path id="path113" class="cls-2" d="M89.23,31.43,65.82,57.15,90.08,32.28l-.85-.85" transform="translate(-4.25 -3.98)"/></g><g id="g115"><path id="path117" class="cls-2" d="M105.9,47.29,67.53,57.15l38.8-9-.43-.86" transform="translate(-4.25 -3.98)"/></g><g id="g119"><path id="path121" class="cls-2" d="M105.48,61,69.56,59.73l36.77,1.71-.85-.43" transform="translate(-4.25 -3.98)"/></g><g id="g123"><path id="path125" class="cls-2" d="M90.08,40.86,68.39,56.3,90.08,42.57V40.86" transform="translate(-4.25 -3.98)"/></g><g id="g127"><path id="path129" class="cls-2" d="M80.25,67.87,68.81,61.44l11.87,7.29-.43-.86" transform="translate(-4.25 -3.98)"/></g><g id="g131"><path id="path133" class="cls-2" d="M95.22,41.72l-.43,1.71,1.71.86L97.78,43l2.57,1.72v-3l-1.71-3-.86,2.57H95.64l-.42.43" transform="translate(-4.25 -3.98)"/></g><g id="g135"><path id="path137" class="cls-2" d="M81.53,58.44,82,60.16l2.14-.43.85.85h2.57l1.71-1.71-2.57-1.29-2.13-.85L83.24,58l-1.71.43" transform="translate(-4.25 -3.98)"/></g><g id="g139"><path id="path141" class="cls-2" d="M87.09,47.72l.86-.86,2.56,2.58L86.66,49l.43-.86v-.43" transform="translate(-4.25 -3.98)"/></g><g id="g143"><path id="path145" class="cls-2" d="M76,40.43l-.43,1.72.85.85h.43l.86-1.28v-.86l-.43-1.29-.43.43-.43-.43-.42.86" transform="translate(-4.25 -3.98)"/></g><g id="g147"><path id="path149" class="cls-2" d="M111,51.15,68.39,58.44l42.65-6V51.15" transform="translate(-4.25 -3.98)"/></g><g id="g151"><path id="path153" class="cls-2" d="M77.69,70,67.53,62.3l10.58,8.58L77.69,70" transform="translate(-4.25 -3.98)"/></g><g id="g155"><path id="path157" class="cls-2" d="M83.24,49.86l-12.82,6,12.82-5.15v-.86" transform="translate(-4.25 -3.98)"/></g><g id="g159"><path id="path161" class="cls-2" d="M56.84,59.73l3,.85,2.57-2.14,3.42,3,2.57-1.71V58L70,59.3l.43.86.85.42h.43c-2.85,8.43-13.38,7.86-15.29-.85h.43" transform="translate(-4.25 -3.98)"/></g><g id="g163"><path id="path165" class="cls-2" d="M70.84,52.87,68,50.29l-3.85-.85-2.56.42L59,51.58l-1.71,1.71-.86,2.58,1.29,1.28,3-.42,3.42,1.71,1.71-2.14L65,54.15l2.56.43L68,52.87h2.88" transform="translate(-4.25 -3.98)"/></g><g id="g167"><path id="path169" class="cls-2" d="M37.17,66.59,59.83,61,37.17,66.16v.43" transform="translate(-4.25 -3.98)"/></g><g id="g171"><path id="path173" class="cls-2" d="M37.6,58.87l20.95.86L37.17,58.44l.43.43" transform="translate(-4.25 -3.98)"/></g><g id="g175"><path id="path177" class="cls-2" d="M46.58,68.73,59,61.44,46.58,68.3v.43" transform="translate(-4.25 -3.98)"/></g><g id="g179"><path id="path181" class="cls-2" d="M52.14,55,59,58.44l-7.27-3.86.43.43" transform="translate(-4.25 -3.98)"/></g><g id="g183"><path id="path185" class="cls-2" d="M48.29,57.15l10.26,1.72-9.83-2.14-.43.42" transform="translate(-4.25 -3.98)"/></g><g id="g187"><path id="path189" class="cls-2" d="M43.59,70l.43-.86-1.29-.43-.43.43L41,68.3,40.59,70l1.29,1.71.42-1.28h.86l.43-.43" transform="translate(-4.25 -3.98)"/></g><g id="g191"><path id="path193" class="cls-2" d="M51.28,60.58V59.3L50,59.73l-.43-.86H47.86L47,60.16l1.28.85,1.71.43.43-.86h.85" transform="translate(-4.25 -3.98)"/></g><g id="g195"><path id="path197" class="cls-2" d="M48.29,65.73l-.85.43-1.29-1.29h2.14v.86" transform="translate(-4.25 -3.98)"/></g><g id="g199"><path id="path201" class="cls-2" d="M56.84,68.73l.43-1.28L56.41,67H55.13L53.85,68.3l.85.86.86-.43.43.43.85-.43" transform="translate(-4.25 -3.98)"/></g><g id="g203"><path id="path205" class="cls-2" d="M30.33,64.44,59,60.58,30.33,64v.43" transform="translate(-4.25 -3.98)"/></g><g id="g207"><path id="path209" class="cls-2" d="M53.85,53.72l6,4.29-6.41-4.72.43.43" transform="translate(-4.25 -3.98)"/></g><g id="g211"><path id="path213" class="cls-2" d="M50.43,64.44l7.69-2.57L50.43,64v.43" transform="translate(-4.25 -3.98)"/></g><g id="g215"><path id="path217" class="cls-2" d="M73,49.44l-1.71,1.28.43.86,1.71-.86L73.84,52l3-2.57,1.28-2.58L75.55,49H73.84l-.86.43" transform="translate(-4.25 -3.98)"/></g><g id="g219"><path id="path221" class="cls-2" d="M66.68,36.14,67.1,34l.86.43.43-1.29h.74L70,35.71,68.81,37,68,38.29l-.43-1.72-.85-.43" transform="translate(-4.25 -3.98)"/></g><g id="g223"><path id="path225" class="cls-2" d="M40.59,61l.86-.43L44,62.3l-3.85-.43v-.43l.42-.43" transform="translate(-4.25 -3.98)"/></g><g id="g227"><path id="path229" class="cls-2" d="M74.69,64,76.4,65.3l2.57.43,2.14.43V64.87L80.25,64l-3-.85-.43.43-1.71-.43-.43.85" transform="translate(-4.25 -3.98)"/></g><g id="g231"><path id="path233" class="cls-2" d="M46.58,74.74l14.54-13.3L45.73,73.88l.85.86" transform="translate(-4.25 -3.98)"/></g><g id="g235"><path id="path237" class="cls-2" d="M81.53,71.3,65.82,59.73l15.29,12,.42-.43" transform="translate(-4.25 -3.98)"/></g><g id="g239"><path id="path241" class="cls-2" d="M86.66,63.59,69.13,61,86.24,65.3l.42-1.71" transform="translate(-4.25 -3.98)"/></g><g id="g243"><path id="path245" class="cls-2" d="M76,36.14l-7.59,15,8.44-14.58L76,36.14" transform="translate(-4.25 -3.98)"/></g><g id="g247"><path id="path249" class="cls-2" d="M71.27,31.85l-4.59,18,5.45-17.58-.86-.43" transform="translate(-4.25 -3.98)"/></g><g id="g251"><path id="path253" class="cls-2" d="M76.4,22.85,66.68,50.29l1.71.86,9.72-27.44-1.71-.86" transform="translate(-4.25 -3.98)"/></g><g id="g255"><path id="path257" class="cls-2" d="M76.79,115l1.71-2.57L79.78,115l1.28-.85L79.35,112l2.57-.86-.43-1.28-2.56.85v-2.57H77.64v2.57l-2.13-.85-.43,1.28,2.14.86-1.29,2.15.86.85" transform="translate(-4.25 -3.98)"/></g><g id="g263"><path id="path265" class="cls-2" d="M77.76,119.76l-.86,2.14-2.56.43v1.72h3v8.57h2.56V119.76H77.76" transform="translate(-4.25 -3.98)"/></g><path id="path273" class="cls-3" d="M13.76,77.63,78.22,142l64.13-64.32L78.22,13.42Z" transform="translate(-4.25 -3.98)"/><path class="cls-4" d="M74.35,97.59a1.24,1.24,0,0,0,1.37-1h.84v7.94H75.31v-6h-1Z" transform="translate(-4.25 -3.98)"/><path class="cls-4" d="M79.27,103.33v1.2H78.06v-1.2Z" transform="translate(-4.25 -3.98)"/><path class="cls-4" d="M82,97.64c-.4,0-.65.21-.65.78v.85H80.17V98.5c0-1.27.64-2,1.86-2s1.86.73,1.86,2c0,2.49-2.48,3.42-2.48,4.73a1,1,0,0,0,0,.17h2.36v1.13H80.17v-1c0-2.33,2.47-2.72,2.47-5C82.64,97.83,82.4,97.64,82,97.64Z" transform="translate(-4.25 -3.98)"/></g></svg>