<svg id="Livello_1" data-name="Livello 1" xmlns="http://www.w3.org/2000/svg" xmlns:xlink="http://www.w3.org/1999/xlink" viewBox="0 0 145.73 145.73"><defs><style>.cls-1{fill:#ea504f;}.cls-2{fill:#878786;}.cls-3{fill:#4f4f4e;}.cls-4{fill:#282826;}.cls-5{fill:#232728;}.cls-6{fill:#4d4c4c;}.cls-7{fill:#2f3031;}.cls-8{fill:#202223;}.cls-9{fill:#181919;}.cls-10{fill:#6c6c6c;}.cls-11{fill:#575754;}.cls-12{fill:#36a9e1;fill-rule:evenodd;}.cls-13{opacity:0.2;fill:url(#Sfumatura_senza_nome_3);}.cls-14{fill:none;stroke:#eaeaea;stroke-miterlimit:10;stroke-width:4px;}</style><linearGradient id="Sfumatura_senza_nome_3" x1="-690.47" y1="38.44" x2="-690.47" y2="72.95" gradientTransform="matrix(-1, 0, 0, 1, -627.51, 0)" gradientUnits="userSpaceOnUse"><stop offset="0" stop-color="#fff"/><stop offset="1" stop-opacity="0"/></linearGradient></defs><title>G11_09_01</title><circle class="cls-1" cx="72.87" cy="72.87" r="70.87"/><rect class="cls-2" x="68.05" y="73.09" width="9.56" height="39.02"/><rect class="cls-3" x="63.99" y="95.73" width="17.66" height="8.09"/><rect class="cls-4" x="65.48" y="96.77" width="1.06" height="6.01"/><rect class="cls-4" x="67.19" y="96.77" width="1.06" height="6.01"/><rect class="cls-4" x="68.89" y="96.77" width="1.06" height="6.01"/><rect class="cls-4" x="70.59" y="96.77" width="1.06" height="6.01"/><rect class="cls-4" x="72.29" y="96.77" width="1.06" height="6.01"/><rect class="cls-4" x="73.99" y="96.77" width="1.06" height="6.01"/><rect class="cls-4" x="75.7" y="96.77" width="1.06" height="6.01"/><rect class="cls-4" x="77.4" y="96.77" width="1.06" height="6.01"/><rect class="cls-4" x="79.1" y="96.77" width="1.06" height="6.01"/><rect class="cls-4" x="66.55" y="103.82" width="12.55" height="8.52" rx="1.7" ry="1.7"/><rect class="cls-3" x="63.99" y="66.86" width="17.66" height="8.08"/><rect class="cls-4" x="65.48" y="67.89" width="1.06" height="6.01"/><rect class="cls-4" x="67.19" y="67.89" width="1.06" height="6.01"/><rect class="cls-4" x="68.89" y="67.89" width="1.06" height="6.01"/><rect class="cls-4" x="70.59" y="67.89" width="1.06" height="6.01"/><rect class="cls-4" x="72.29" y="67.89" width="1.06" height="6.01"/><rect class="cls-4" x="73.99" y="67.89" width="1.06" height="6.01"/><rect class="cls-4" x="75.7" y="67.89" width="1.06" height="6.01"/><rect class="cls-4" x="77.4" y="67.89" width="1.06" height="6.01"/><rect class="cls-4" x="79.1" y="67.89" width="1.06" height="6.01"/><path class="cls-5" d="M107.2,30.1a1.78,1.78,0,0,1-1.78,1.78H99.6a1.78,1.78,0,0,1-1.77-1.78h0a1.77,1.77,0,0,1,1.77-1.77h5.82a1.77,1.77,0,0,1,1.78,1.77Z" transform="translate(-5.09 -5.09)"/><rect class="cls-6" x="37.12" y="26.18" width="71.41" height="40.68" rx="5.52" ry="5.52"/><path class="cls-6" d="M88.36,19.06H67.07L59.64,31.27H96.1Z" transform="translate(-5.09 -5.09)"/><path class="cls-7" d="M109.61,58a8,8,0,1,1-8-8A8,8,0,0,1,109.61,58Z" transform="translate(-5.09 -5.09)"/><path class="cls-8" d="M102.13,58l5.38-5.41c-.18-.19-.37-.38-.56-.55l-5.38,5.4L96.16,52a7.27,7.27,0,0,0-.55.56L101,58l-5.37,5.41a7.4,7.4,0,0,0,.56.56l5.38-5.41,5.4,5.38c.2-.18.38-.37.56-.56Z" transform="translate(-5.09 -5.09)"/><path class="cls-9" d="M105.27,58a3.7,3.7,0,1,1-3.7-3.7A3.69,3.69,0,0,1,105.27,58Z" transform="translate(-5.09 -5.09)"/><path class="cls-7" d="M99,38.74a1.33,1.33,0,1,1-1.33-1.34A1.34,1.34,0,0,1,99,38.74Z" transform="translate(-5.09 -5.09)"/><path class="cls-7" d="M102.9,38.74a1.33,1.33,0,1,1-1.33-1.34A1.33,1.33,0,0,1,102.9,38.74Z" transform="translate(-5.09 -5.09)"/><path class="cls-7" d="M106.85,38.74a1.33,1.33,0,1,1-1.33-1.34A1.34,1.34,0,0,1,106.85,38.74Z" transform="translate(-5.09 -5.09)"/><path class="cls-10" d="M100.72,44.94a2.47,2.47,0,1,1-2.47-2.47A2.46,2.46,0,0,1,100.72,44.94Z" transform="translate(-5.09 -5.09)"/><path class="cls-11" d="M100.19,44.94A1.94,1.94,0,1,1,98.25,43,1.94,1.94,0,0,1,100.19,44.94Z" transform="translate(-5.09 -5.09)"/><path class="cls-10" d="M107.37,44.94a2.47,2.47,0,1,1-2.47-2.47A2.47,2.47,0,0,1,107.37,44.94Z" transform="translate(-5.09 -5.09)"/><path class="cls-11" d="M106.83,44.94A1.94,1.94,0,1,1,104.9,43,1.93,1.93,0,0,1,106.83,44.94Z" transform="translate(-5.09 -5.09)"/><path class="cls-12" d="M48.37,36.93H90.48c.08,0,.15,0,.15.06V67.32s-.07.06-.15.06H48.37c-.08,0-.15,0-.15-.06V37S48.29,36.93,48.37,36.93Z" transform="translate(-5.09 -5.09)"/><path class="cls-13" d="M48.84,67.37h11.6L77.69,36.93H48.84c-.34,0-.62.15-.62.34V67C48.22,67.22,48.5,67.37,48.84,67.37Z" transform="translate(-5.09 -5.09)"/><path class="cls-3" d="M80.51,112.65H75.3v.06l-9.17,35.11c1.68.28,3.38.51,5.1.67l4.07-15.85v16.11c.88,0,1.76.07,2.65.07s1.7,0,2.55-.07v-16.2l4.1,15.95c1.7-.16,3.39-.38,5.05-.66Z" transform="translate(-5.09 -5.09)"/><circle class="cls-14" cx="72.87" cy="72.87" r="70.87"/></svg>