<svg xmlns="http://www.w3.org/2000/svg" viewBox="0 0 186.85 128.07"><defs><style>.cls-1{fill:#ad1917;}.cls-2{fill:#ea504e;}.cls-3{fill:#e6332a;}.cls-4{fill:#e41b13;}.cls-5{fill:#454544;}.cls-6{fill:#f9b233;}.cls-7{fill:#be1622;}.cls-8{fill:#f39200;}.cls-9{fill:#d41116;}.cls-10{fill:none;}.cls-11{fill:#ef8c29;}.cls-12{fill:#d37811;}.cls-13{fill:#95c11f;}.cls-14{fill:#8cb225;}</style></defs><title>G11_01</title><g id="Tiles"><polygon class="cls-1" points="186.85 70.13 186.85 74.9 96.8 128.07 96.8 123.29 186.85 70.13"/><polygon class="cls-2" points="96.8 123.29 96.8 128.07 0 71.66 0 66.89 96.8 123.29"/><polygon class="cls-3" points="96.65 123.2 0 66.89 90.82 14.68 186.85 70.13 96.8 123.29 96.65 123.2"/></g><g id="Criminal"><path class="cls-4" d="M122.59,75.73l-1-.3A6.34,6.34,0,0,1,122.59,75.73Z" transform="translate(-2.34 -31.61)"/><path class="cls-5" d="M134.08,74.73a1.5,1.5,0,0,1-1,0c-1.17-.36-1.82-2-1.47-3.78s1.55-2.86,2.71-2.52a1.86,1.86,0,0,1,.89.61,3.94,3.94,0,0,1,.61,3.16A3.2,3.2,0,0,1,134.08,74.73Z" transform="translate(-2.34 -31.61)"/><path class="cls-6" d="M146.32,87.12c.09-.54.17-1.08.23-1.62.1-.73.17-1.47.22-2.19,0-.31,0-.62,0-.93a1.26,1.26,0,0,0,0-.16,25.75,25.75,0,0,0-.37-6.15,7.72,7.72,0,0,0-1-4.2,17.42,17.42,0,0,0-3.13-5.8,9.4,9.4,0,0,0-4.65-3.16c-4.3-1.19-8.78,1.51-12,6.58a26.37,26.37,0,0,0-2,3.75c-.35.8-.67,1.66-1,2.54q-.3,1-.57,2c-.13.49-.25,1-.36,1.49a32.63,32.63,0,0,0,.5,16.24,19.07,19.07,0,0,0,2,4.54,10.77,10.77,0,0,0,5.25,4.61C136.64,107.23,144.24,99.22,146.32,87.12ZM129,70.17c.46-2.27,2.05-3.74,3.57-3.31a18.92,18.92,0,0,1,2.29.67s0,0,0,0c1.37.61,2.11,2.69,1.7,4.85s-1.92,3.66-3.4,3.4h0a14.53,14.53,0,0,1-2.22-.69C129.36,74.69,128.51,72.45,129,70.17Z" transform="translate(-2.34 -31.61)"/><path class="cls-7" d="M130.89,75.15c-1.53-.46-2.38-2.7-1.91-5s2.05-3.74,3.57-3.31a18.92,18.92,0,0,1,2.29.67s0,0,0,0c1.37.61,2.11,2.69,1.7,4.85s-1.92,3.66-3.4,3.4h0A14.53,14.53,0,0,1,130.89,75.15Zm2.23-.4a1.5,1.5,0,0,0,1,0,3.2,3.2,0,0,0,1.78-2.51,3.94,3.94,0,0,0-.61-3.16,1.86,1.86,0,0,0-.89-.61c-1.16-.34-2.37.78-2.71,2.52S132,74.39,133.12,74.75Z" transform="translate(-2.34 -31.61)"/><path class="cls-8" d="M140.62,103.25c4.17-4.08,6.84-10.48,7.68-17.19.08-.55.14-1.1.19-1.66l0-.54a31.15,31.15,0,0,0,.08-3.2,30.16,30.16,0,0,0-2.1-10.74A19.59,19.59,0,0,0,145.06,67a15.76,15.76,0,0,0-2.61-3.38,11.3,11.3,0,0,0-4.58-2.83l-.66-.18c-3.47-.82-7.28.3-10.69,3.59A16.15,16.15,0,0,0,124.9,66a21.63,21.63,0,0,0-2.39,3.53,27.24,27.24,0,0,0-2,4.31c-.16.43-.32.87-.45,1.32s-.36,1.2-.52,1.82a34.71,34.71,0,0,0,.26,18.91,23.66,23.66,0,0,0,1.42,3.5,17.24,17.24,0,0,0,2.51,3.81,12.27,12.27,0,0,0,4.5,3.35l.71.27C132.71,108,136.91,107,140.62,103.25Zm-19-27.82a6.34,6.34,0,0,1,1,.3Zm.2,3.82c.11-.5.23-1,.36-1.49q.27-1,.57-2c.29-.88.61-1.74,1-2.54a26.37,26.37,0,0,1,2-3.75c3.23-5.07,7.71-7.77,12-6.58a9.4,9.4,0,0,1,4.65,3.16,17.42,17.42,0,0,1,3.13,5.8,27.45,27.45,0,0,1,1,4.2,31.54,31.54,0,0,1,.37,6.15c0,.22,0,.45,0,.5,0,.32,0,.28,0,.59-.05.72-.12,1.46-.22,2.19-.06.54-.14,1.08-.23,1.62-2.08,12.1-9.68,20.11-16.72,17.52a10.77,10.77,0,0,1-5.25-4.61,19.07,19.07,0,0,1-2-4.54A32.63,32.63,0,0,1,121.81,79.25Z" transform="translate(-2.34 -31.61)"/><path class="cls-9" d="M102,51l-.87-.23A6.14,6.14,0,0,1,102,51Z" transform="translate(-2.34 -31.61)"/><path class="cls-9" d="M124.37,57.07l-1-.26A6.44,6.44,0,0,1,124.37,57.07Z" transform="translate(-2.34 -31.61)"/><path class="cls-4" d="M95,55.33l-.22.81A3.13,3.13,0,0,1,95,55.33Z" transform="translate(-2.34 -31.61)"/><path class="cls-9" d="M71.86,72l-.25.84A5.16,5.16,0,0,1,71.86,72Z" transform="translate(-2.34 -31.61)"/><path class="cls-9" d="M77.74,52.2l-.23.79A3.84,3.84,0,0,1,77.74,52.2Z" transform="translate(-2.34 -31.61)"/><path class="cls-10" d="M124.37,57.07a6.44,6.44,0,0,0-1-.26Z" transform="translate(-2.34 -31.61)"/><path class="cls-10" d="M102,51a6.14,6.14,0,0,0-.87-.23Z" transform="translate(-2.34 -31.61)"/><path class="cls-6" d="M100.09,50.54a14.73,14.73,0,0,0-11.7,3.4,21.37,21.37,0,0,0-4.65,5.93A31.91,31.91,0,0,0,80,73l18.74,6.54a38.11,38.11,0,0,1,1.09-7.38c.11-.44.23-.89.36-1.32.19-.63.38-1.26.6-1.88.16-.44.31-.88.48-1.31a31.17,31.17,0,0,1,1.76-3.73A24,24,0,0,1,107.5,58,12.85,12.85,0,0,1,115,54.5l-12.29-3.37L102,51l-.87-.23A9.44,9.44,0,0,0,100.09,50.54Z" transform="translate(-2.34 -31.61)"/><path class="cls-11" d="M99.78,89.52A29.1,29.1,0,0,1,99,85.76a33.55,33.55,0,0,1-.25-6.27L80,73a24.92,24.92,0,0,0,.79,8.2,1.87,1.87,0,0,1,.07.22c2.66,9,9.26,10.89,9.53,10.95l-.09.08,6.22,2.31,2.76,1,4.47,1.67a19.64,19.64,0,0,1-3.51-6.33C100.09,90.57,99.93,90.05,99.78,89.52Z" transform="translate(-2.34 -31.61)"/><path class="cls-11" d="M78,81.72a30.39,30.39,0,0,1-.51-9.66L61.87,66.6a27.35,27.35,0,0,0,.18,8.64c.88,4.6,3,7.63,5.79,8.79l.54.2,10.6,4,2.41.89A14.59,14.59,0,0,1,79.46,86,20.92,20.92,0,0,1,78,81.72Z" transform="translate(-2.34 -31.61)"/><path class="cls-6" d="M78.78,65.35A33.7,33.7,0,0,1,83,56.07,23.48,23.48,0,0,1,86.41,52a12.58,12.58,0,0,1,7-3.35L83.78,46l-3.74-1-.52-.14c-2.73-.64-5.94.41-9,3.3C66,52.31,62.76,59.51,61.87,66.6L77.5,72.06A37.31,37.31,0,0,1,78.78,65.35Z" transform="translate(-2.34 -31.61)"/><path class="cls-11" d="M123.77,103.16a17.24,17.24,0,0,1-2.51-3.81,23.66,23.66,0,0,1-1.42-3.5,32.06,32.06,0,0,1-1.44-9.5l-16.84-5.88c0,.1,0,.21,0,.32a28,28,0,0,0,.53,5.36,22,22,0,0,0,.72,2.79c3.28,9.86,10.65,12,10.95,12a.32.32,0,0,1-.08.09l6.88,2.56,3,1.13,4.69,1.74A12.27,12.27,0,0,1,123.77,103.16Z" transform="translate(-2.34 -31.61)"/><path class="cls-6" d="M122.24,56.61a15.67,15.67,0,0,0-12.52,3.48,21.77,21.77,0,0,0-5.21,7.18,25.79,25.79,0,0,0-1,2.48,9.67,9.67,0,0,0-.36,1c-.1.28-.18.56-.27.85a32.42,32.42,0,0,0-1.3,8.84l16.84,5.88a36.44,36.44,0,0,1,1.18-9.41c.16-.62.33-1.22.52-1.82s.29-.89.45-1.32a27.24,27.24,0,0,1,2-4.31A21.63,21.63,0,0,1,124.9,66a16.15,16.15,0,0,1,1.62-1.78c3.41-3.29,7.22-4.41,10.69-3.59L125,57.26l-.67-.19-1-.26C123.09,56.74,122.7,56.67,122.24,56.61Z" transform="translate(-2.34 -31.61)"/><path class="cls-12" d="M90.42,92.32c-.27-.06-6.87-1.93-9.53-10.95a1.87,1.87,0,0,0-.07-.22A24.92,24.92,0,0,1,80,73l-2.53-.89A30.39,30.39,0,0,0,78,81.72,20.92,20.92,0,0,0,79.46,86a14.59,14.59,0,0,0,1.93,3.11,10.84,10.84,0,0,0,4.14,3.18l.68.26c2.65,1,3.84.16,4.12-.11Z" transform="translate(-2.34 -31.61)"/><path class="cls-8" d="M83,56.07a33.7,33.7,0,0,0-4.21,9.28,37.31,37.31,0,0,0-1.28,6.71L80,73a31.91,31.91,0,0,1,3.71-13.08,21.37,21.37,0,0,1,4.65-5.93,14.73,14.73,0,0,1,11.7-3.4,9.44,9.44,0,0,1,1.07.18A6.14,6.14,0,0,1,102,51s.2-.8-1.67-1.6l-.33-.13a15.71,15.71,0,0,0-2.85-.75,18.23,18.23,0,0,0-3.73.14,12.58,12.58,0,0,0-7,3.35A23.48,23.48,0,0,0,83,56.07Z" transform="translate(-2.34 -31.61)"/><path class="cls-12" d="M113.74,101c-.3-.06-7.67-2.19-10.95-12a22,22,0,0,1-.72-2.79,28,28,0,0,1-.53-5.36c0-.11,0-.22,0-.32l-2.79-1A33.55,33.55,0,0,0,99,85.76a29.1,29.1,0,0,0,.76,3.76c.15.53.31,1,.49,1.56a19.64,19.64,0,0,0,3.51,6.33,13,13,0,0,0,4.65,3.45l.76.28c2.9,1.09,4.16.21,4.47-.06A.32.32,0,0,0,113.74,101Z" transform="translate(-2.34 -31.61)"/><path class="cls-8" d="M103.06,63.87a31.17,31.17,0,0,0-1.76,3.73c-.17.43-.32.87-.48,1.31-.22.62-.41,1.25-.6,1.88-.13.43-.25.88-.36,1.32a38.11,38.11,0,0,0-1.09,7.38A2.43,2.43,0,0,0,100,80.83a1.66,1.66,0,0,0,1.55-.36,32.42,32.42,0,0,1,1.3-8.84c.09-.29.17-.57.27-.85a9.67,9.67,0,0,1,.36-1,25.79,25.79,0,0,1,1-2.48,21.77,21.77,0,0,1,5.21-7.18,15.67,15.67,0,0,1,12.52-3.48c.46.06.85.13,1.17.2a6.44,6.44,0,0,1,1,.26s.18-.84-1.88-1.71l-.37-.14a17.1,17.1,0,0,0-3.14-.83,19.61,19.61,0,0,0-4,.11A12.85,12.85,0,0,0,107.5,58,24,24,0,0,0,103.06,63.87Z" transform="translate(-2.34 -31.61)"/><path class="cls-5" d="M65.55,45.36a1.35,1.35,0,0,1,.3.84c0,1.08-1.45,1.95-3.23,1.95s-3.25-.86-3.25-1.95a1.34,1.34,0,0,1,.35-.88,4.41,4.41,0,0,1,5.83,0Z" transform="translate(-2.34 -31.61)"/><path class="cls-6" d="M73.52,33.11c-.51,0-1,0-1.53,0-.7,0-1.39.07-2.07.14-.3,0-.58.06-.88.1,0-.06,0-.07-.15,0a33.49,33.49,0,0,0-5.63,1.21,6.72,6.72,0,0,0-3.71,1.47,15.14,15.14,0,0,0-4.77,3.58A7.1,7.1,0,0,0,53,44.25c0,4,4,7.57,10,9.52a33.61,33.61,0,0,0,4.26,1c.88.16,1.81.28,2.75.37.67.06,1.37.1,2.07.13.51,0,1,0,1.54,0A30.79,30.79,0,0,0,88.39,51.9a14.43,14.43,0,0,0,3.39-2.54,7.43,7.43,0,0,0,2.34-5.15C94.12,38.07,84.89,33.1,73.52,33.11ZM62.62,50.66c-2.37,0-4.29-1.15-4.29-2.58a13.9,13.9,0,0,1,0-2.14l0,0c.21-1.3,2-2.31,4.25-2.31s4.07,1,4.25,2.37a.13.13,0,0,1,0,.05,12.88,12.88,0,0,1,0,2.06C66.9,49.5,65,50.66,62.62,50.66Z" transform="translate(-2.34 -31.61)"/><path class="cls-7" d="M66.9,48.08c0,1.42-1.92,2.58-4.28,2.58s-4.29-1.15-4.29-2.58a13.9,13.9,0,0,1,0-2.14l0,0c.21-1.3,2-2.31,4.25-2.31s4.07,1,4.25,2.37a.13.13,0,0,1,0,.05A12.88,12.88,0,0,1,66.9,48.08ZM65.85,46.2a1.35,1.35,0,0,0-.3-.84,4.41,4.41,0,0,0-5.83,0,1.34,1.34,0,0,0-.35.88c0,1.09,1.45,1.95,3.25,1.95S65.85,47.28,65.85,46.2Z" transform="translate(-2.34 -31.61)"/><path class="cls-8" d="M89.48,35.44c-4.8-2.77-11.21-4-17.49-3.8-.53,0-1,0-1.57.08l-.51.05c-1,.09-2,.22-3,.38a29,29,0,0,0-9.56,3.32,19,19,0,0,0-2.47,1.68,12.77,12.77,0,0,0-2.61,2.79,8.57,8.57,0,0,0-1.56,4.49v.62c.13,3.25,2.35,6.48,6.66,9a18.19,18.19,0,0,0,2.25,1.13,26.82,26.82,0,0,0,4.21,1.48,31.83,31.83,0,0,0,4.82.93c.47.06.95.11,1.43.15s1.27.08,1.91.1c6.28.23,12.69-1,17.48-3.82a18.46,18.46,0,0,0,2.67-1.86,12.37,12.37,0,0,0,2.53-2.8A8.47,8.47,0,0,0,96.15,45v-.62C96,41.13,93.8,37.89,89.48,35.44ZM69.94,56.26a4.17,4.17,0,0,1,0-.94Zm3.61-.92c-.52,0-1,0-1.54,0-.7,0-1.4-.07-2.07-.13-.94-.09-1.87-.21-2.75-.37a33.61,33.61,0,0,1-4.26-1c-6-2-10-5.48-10-9.52a7.1,7.1,0,0,1,1.83-4.59,15.14,15.14,0,0,1,4.77-3.58,25.6,25.6,0,0,1,3.71-1.47,33.49,33.49,0,0,1,5.63-1.21H69c.3,0,.58-.08.88-.1.68-.07,1.37-.11,2.07-.14.51,0,1,0,1.53,0,11.37,0,20.6,5,20.6,11.1a7.43,7.43,0,0,1-2.34,5.15,14.43,14.43,0,0,1-3.39,2.54A30.79,30.79,0,0,1,73.55,55.34Z" transform="translate(-2.34 -31.61)"/><path class="cls-10" d="M50.76,58.34v-1A4.28,4.28,0,0,0,50.76,58.34Z" transform="translate(-2.34 -31.61)"/><path class="cls-10" d="M50.78,81.41v-.94A5,5,0,0,0,50.78,81.41Z" transform="translate(-2.34 -31.61)"/><path class="cls-11" d="M91.58,72.42c-.41.29-.84.55-1.28.81s-.92.5-1.39.73V93.54l.06,0c7.71-5.08,7.16-11.89,7.12-12.15a.29.29,0,0,1,.1.06V67.83A15.57,15.57,0,0,1,91.58,72.42Z" transform="translate(-2.34 -31.61)"/><path class="cls-11" d="M93.92,93.65a19.42,19.42,0,0,1-3.6,2.66c-.45.26-.93.5-1.41.73v18.27c.22-.11.45-.22.66-.34,4.31-2.47,6.52-5.71,6.65-9V90.9A12.92,12.92,0,0,1,93.92,93.65Z" transform="translate(-2.34 -31.61)"/><path class="cls-6" d="M88.91,54.27A33.73,33.73,0,0,1,72,57.79c-.64,0-1.28,0-1.91-.1s-1-.09-1.43-.15a31.83,31.83,0,0,1-4.82-.93,26.82,26.82,0,0,1-4.21-1.48A18.19,18.19,0,0,1,57.4,54c-4.31-2.47-6.53-5.7-6.66-9l0,11.67V75.44c0,.22,0,9.29.07,14.56,0,0,0,0,0-.08v16.14c.13,3.25,2.35,6.49,6.65,9,8.67,5,22.56,5.07,31.45.3V97l-.08,0c0-4.57,0-9.49.08-9.51Z" transform="translate(-2.34 -31.61)"/><path class="cls-11" d="M96.06,58.29a.34.34,0,0,1,.11.05V45a8.47,8.47,0,0,1-1.45,4.31,12.37,12.37,0,0,1-2.53,2.8A18.46,18.46,0,0,1,89.5,54c-.19.11-.39.2-.59.3v16.2C96.65,65.39,96.11,58.56,96.06,58.29Z" transform="translate(-2.34 -31.61)"/><path class="cls-12" d="M97.73,85.32c0-2.78-1.19-3.7-1.54-3.9a.29.29,0,0,0-.1-.06c0,.26.59,7.07-7.12,12.15l-.06,0V97c.48-.23,1-.47,1.41-.73a19.42,19.42,0,0,0,3.6-2.66A12.92,12.92,0,0,0,96.2,90.9,10,10,0,0,0,97.73,86Z" transform="translate(-2.34 -31.61)"/><path class="cls-12" d="M88.91,70.47V74c.47-.23.94-.47,1.39-.73s.87-.52,1.28-.81a15.57,15.57,0,0,0,4.6-4.59A10.16,10.16,0,0,0,97.71,63v-.73c0-2.76-1.19-3.68-1.54-3.9a.34.34,0,0,0-.11-.05C96.11,58.56,96.65,65.39,88.91,70.47Z" transform="translate(-2.34 -31.61)"/><path class="cls-8" d="M56.64,73.27a28.63,28.63,0,0,0,7.48,2.91,36.08,36.08,0,0,0,4.36.79c.49.06,1,.11,1.48.15.69.06,1.38.1,2.08.12q.72,0,1.44,0A36.94,36.94,0,0,0,87,74.81c.65-.26,1.28-.55,1.89-.85a2.41,2.41,0,0,0,.86-1.76,2.06,2.06,0,0,0-.86-1.73l-.16.11a19.34,19.34,0,0,1-2.38,1.3,25.59,25.59,0,0,1-4.93,1.71,33.82,33.82,0,0,1-9.41.9c-.31,0-.62,0-.93,0s-.76,0-1.14-.1A26.2,26.2,0,0,1,67.14,74a25.6,25.6,0,0,1-9-3.34,15.79,15.79,0,0,1-7.3-11.15,9,9,0,0,1-.12-1.12,4.28,4.28,0,0,1,0-1s-.94,0-1.25,2.11a3.69,3.69,0,0,0,0,.37,15.88,15.88,0,0,0,0,3.15,19.14,19.14,0,0,0,1.28,3.83A13.88,13.88,0,0,0,56.64,73.27Z" transform="translate(-2.34 -31.61)"/><path class="cls-8" d="M56.64,96.35a29,29,0,0,0,7.48,2.91,38.15,38.15,0,0,0,4.36.79c.49.06,1,.1,1.48.15.69.06,1.38.09,2.08.12.48,0,1,0,1.44,0A36.73,36.73,0,0,0,87,97.89c.65-.26,1.28-.55,1.89-.85a2.41,2.41,0,0,0,.86-1.76,2,2,0,0,0-.86-1.73l-.16.11A18,18,0,0,1,86.37,95a25.61,25.61,0,0,1-4.93,1.72,34.2,34.2,0,0,1-9.41.9c-.31,0-.62,0-.93,0s-.76,0-1.14-.1c-.95-.09-1.9-.22-2.82-.39a25.8,25.8,0,0,1-9-3.34,15.79,15.79,0,0,1-7.3-11.15,9,9,0,0,1-.12-1.12,4.28,4.28,0,0,1,0-1s-.94,0-1.25,2.11a3.69,3.69,0,0,0,0,.37,15.88,15.88,0,0,0,0,3.15,19.14,19.14,0,0,0,1.28,3.83A13.88,13.88,0,0,0,56.64,96.35Z" transform="translate(-2.34 -31.61)"/><path class="cls-13" d="M161,104.48c-4-.16,5.5-7.44-6.5-7.07-11.76.35-11.27,7.31-15.6,9.59l0,0s-4,2.24-4-15.76c0-4.87.9-19,.9-19h-4.31a5.75,5.75,0,0,0,.31,1.25,2.37,2.37,0,0,0,.65.93s.94,12.9,1,17.14c.17,14.18-1.86,17.78-3.19,18.64-10.93,3.46-13.54-5.07-19.81.15-7.5,6.26-12.77,1.5-12.77,7.67,0,6.34,13.59,1,16,5.5,3.76,7.05-3.19,11.05,1.17,12.67,8,3,3.76-6.53,18.84-5.62a16.76,16.76,0,0,1,4.56.91l30.15-17.82C161.75,112.08,176.33,105.13,161,104.48Z" transform="translate(-2.34 -31.61)"/><path class="cls-14" d="M138.31,131.46c0,12.12,10.79,12.71,14,10.54,6.33-4.25,4.52-11.05,7-9.67,5.84,3.25,9.16-1.3,9.13-9.16,0-5.84,0-8.25,0-9.53Z" transform="translate(-2.34 -31.61)"/></g></svg>