<svg xmlns="http://www.w3.org/2000/svg" viewBox="0 0 127.56 112.43"><defs><style>.cls-1{fill:#ad1917;}.cls-2{fill:#fff;}.cls-3{fill:#1d1d1b;}</style></defs><title>G11_01_01</title><g id="Mobile"><path id="_Tracciato_" data-name="&lt;Tracciato&gt;" class="cls-1" d="M20.73,116a7.31,7.31,0,0,1-6.33-11L70.86,7.2a7.31,7.31,0,0,1,12.67,0L140,105a7.31,7.31,0,0,1-6.34,11Z" transform="translate(-13.42 -3.54)"/><polygon id="_Tracciato_2" data-name="&lt;Tracciato&gt;" class="cls-2" points="12.13 100.82 63.63 11.61 115.14 100.82 12.13 100.82"/><path id="_Tracciato_composto_" data-name="&lt;Tracciato composto&gt;" class="cls-3" d="M61.88,59a17.11,17.11,0,0,0,.17,7.77c1-7,4.36-5.17,2.74-14,1.17.43,5.08,3.28,7,8.46-.32-7.39,3.6-15.74,11.77-18.81-3.53,8.08.81,9.71,2.18,18.39C87.21,57.7,87.43,53,87.05,50a20.1,20.1,0,0,1,6.42,18.71c.92-1.63,1.3-3,1.3-6.21,7.22,7.22,4.76,28.68-10,32a13.75,13.75,0,0,0,1.35-7.16A8.35,8.35,0,0,1,81.78,90c1.71-2.62,2.89-5,1.38-8.93a9.34,9.34,0,0,1-3.36,5.57c.75-7-1.55-6-2.11-10.43-1.72,1.9-.32,6-3.61,10.18a15.21,15.21,0,0,0-1.72-5.14c-1,1-2,4.5-1.24,8.62a5.48,5.48,0,0,1-2.85-4c-1.29,3.93.28,6.92,1.13,9A21.82,21.82,0,0,1,61.88,59ZM89.72,72.22a6.89,6.89,0,0,1-.92,4.11A12.81,12.81,0,0,0,84.21,64a13.74,13.74,0,0,1-.92,7.15c-1-5.74-4.08-6.81-1.56-12.16-5.84,2-8.41,4.57-8.41,12.44a10.69,10.69,0,0,0-5-5.59c1.16,5.83-1.25,4.63-2,9.25a10.57,10.57,0,0,1-.12-5.14C58.29,77.36,58,84.18,67,91.7c-.92-2.1-.43-6.1,1.69-9.82C69,84,69,86.4,70,87.38c0-3.51,1.46-6.91,2.5-7.87,1,1.68,1.32,1.68,1.81,4.06,1.63-2.69.48-7.34,4-10.1.42,4.58,3.12,6,2.66,10.34a11.93,11.93,0,0,0,2-5.28c2.23,4,2.7,7.16.85,9.79,1.66-1,2.18-2.46,3-3.42a15.66,15.66,0,0,1,.06,7.72C95,87.74,94.88,77,89.72,72.22ZM96.4,97.73H57.7v2.51H96.4Z" transform="translate(-13.42 -3.54)"/></g></svg>