<svg xmlns="http://www.w3.org/2000/svg" viewBox="0 0 127.56 112.43"><defs><style>.cls-1{fill:#ad1917;}.cls-2{fill:#fff;}.cls-3{fill:#1d1d1b;}</style></defs><title>G11_01_02</title><g id="Mobile"><path id="_Tracciato_" data-name="&lt;Tracciato&gt;" class="cls-1" d="M21.49,115.34a7.32,7.32,0,0,1-6.34-11L71.62,6.56a7.32,7.32,0,0,1,12.67,0l56.46,97.81a7.32,7.32,0,0,1-6.33,11Z" transform="translate(-14.17 -2.91)"/><polygon id="_Tracciato_2" data-name="&lt;Tracciato&gt;" class="cls-2" points="12.28 102.25 63.78 13.04 115.28 102.25 12.28 102.25"/><path id="_Tracciato_composto_" data-name="&lt;Tracciato composto&gt;" class="cls-3" d="M66.28,73.85l-.72-21.7,6.22-13.46ZM86,52l1.18-9.81L68.82,75.85Zm15.2,11.83-6.78-1.19L72,79.42Zm-7.9-7.29-5.51,2.1L76,70.4ZM79.66,29.47l-7.88,32,7.88-27.21ZM60.93,56.53l-1.34,4,.48,14.7ZM54.3,71.43l-1.39-2.67,2,12.56ZM73.6,82l34-8.1-9.17-1.77Zm37.6,0-9.06-.85s-18,2.1-18.26,2.33Zm-3.62,5.23h-36l46.09,5.65ZM80.6,91l32.59,7.94-9.64-4.22Zm1.27,7.1,8.67.84L74.19,92.16ZM66.93,93.61a12.26,12.26,0,0,0-2.4,1.51c0,1,2.18,2.26,2.71,2.26s2.71-2.54,2.71-3S67.64,93.43,66.93,93.61Zm6-31.55c-.27-.39-2.43.54-2.91,1.1a12.18,12.18,0,0,0-1.11,2.61c.57.83,3.08.61,3.51.31S73.17,62.45,72.9,62.06ZM62.39,88.3c.32.91,2.81.23,3,0a3.89,3.89,0,0,0-.5-2.75C64.41,85,62.18,87.72,62.39,88.3Zm25.93,6.86c0-.46-2.18-.14-2.32.21-.23.56,1.2,1.28,1.4,1.27A2.39,2.39,0,0,0,88.32,95.16Zm3.94-16.22c0-.46-2.18-.14-2.32.21-.23.56,1.2,1.28,1.41,1.27A2.43,2.43,0,0,0,92.26,78.94ZM84,66.78c-.58-.33-2.62,1.91-2.37,2.32.41.63,2.89-.15,3.1-.34S84.55,67.11,84,66.78ZM70.14,88.16c-1.34,0-1.68,1.26-.33,2S71.37,88.16,70.14,88.16Zm-13.22-11c1.19.61,1.38-1.67.3-1.67S55.73,76.61,56.92,77.21ZM62.8,62.27c1.35.7,1.57-2,.34-2S61.46,61.57,62.8,62.27Zm5.8,18.14c-.58-.58-2,.44-2.43,0s-.08-2.4-1-2.4c-1.36,0-1.51,4-.81,4.69S69.19,81,68.6,80.41Zm-6.07-5c0,.67,2.21.64,2.85,0s-.56-2.13-1.62-2.13C62.92,73.23,62.53,74.69,62.53,75.36Zm14.94,6.85c-.5.45,1,2.07,1.91,2.12s1.2-1.84.49-2.63C79.3,81.08,78,81.76,77.47,82.21Zm-17.4,7.12c-.49-1.36.74-3,2.75-3.81A8.45,8.45,0,0,0,59.76,83a4,4,0,0,1-3,2.24.89.89,0,0,1-.11.71,1,1,0,0,1-1.33.21,1,1,0,0,1-.41-1.09A4,4,0,0,1,52.56,83a8.35,8.35,0,1,0,8.12,14.55,2.29,2.29,0,0,1-.81-2.36,1.25,1.25,0,0,1,.07-1.36,1.31,1.31,0,0,1,1-.61.79.79,0,0,1,.12-.3,1,1,0,0,1,1.33-.22,1.06,1.06,0,0,1,.34.39,1.18,1.18,0,0,1,.18.21,2.22,2.22,0,0,1,.56.21,2.65,2.65,0,0,1,.33.34,8.36,8.36,0,0,0,.69-3.32C62.52,91.19,60.55,90.68,60.07,89.33Z" transform="translate(-14.17 -2.91)"/></g></svg>