<svg xmlns="http://www.w3.org/2000/svg" viewBox="0 0 186.85 153.87"><defs><style>.cls-1{fill:#ad1917;}.cls-2{fill:#ea504e;}.cls-3{fill:#e6332a;}.cls-4{fill:#4254a1;}.cls-5{fill:#261c35;}.cls-6{fill:#f7c0c0;}.cls-7{fill:#e1e3f3;}.cls-8{fill:#4c4691;}.cls-9{fill:#333;}.cls-10{fill:#fff;}.cls-11{fill:#e41b13;}.cls-12{fill:#454544;}.cls-13{fill:#f9b233;}.cls-14{fill:#be1622;}.cls-15{fill:#f39200;}.cls-16{fill:#d41116;}.cls-17{fill:none;}.cls-18{fill:#ef8c29;}.cls-19{fill:#d37811;}.cls-20{fill:#95c11f;}.cls-21{fill:#8cb225;}</style></defs><title>G11_00</title><g id="Tiles"><polygon class="cls-1" points="186.85 95.93 186.85 100.7 96.8 153.87 96.8 149.09 186.85 95.93"/><polygon class="cls-2" points="96.8 149.09 96.8 153.87 0 97.46 0 92.69 96.8 149.09"/><polygon class="cls-3" points="96.65 149 0 92.69 90.82 40.48 186.85 95.93 96.8 149.09 96.65 149"/></g><g id="Criminal"><path class="cls-4" d="M81.3,50.23s4,16.55,5.63,25.4-1,31.82-1,31.82a3.26,3.26,0,0,1-2.77,1.39c-1.93,0-4-27.4-4-27.4s-3.52-20.14-4.9-19.86c-.31.06-1.9,1-3,.79-3.92-.75-9.52-4.19-9.31-8.26.28-5.26,4.43-5.54,4.43-5.54s7.19-.55,8-.27S81.3,50.23,81.3,50.23Z" transform="translate(-2.34 -5.81)"/><path class="cls-4" d="M72.08,56.2s1.34,18.1-.6,21.69S60,102.58,60,102.58s-5.66.72-4.83-1.49,9.57-26,9.57-26l-2.78-21L68,46.64Z" transform="translate(-2.34 -5.81)"/><path class="cls-5" d="M84.86,24.19s-.75-3.51-3.24-3.51S62.84,24.3,61.74,25.4,53.5,45.66,53.5,50.64s15,9.39,15,9.39l1.78-3.91L60,49.13s4.43-16.05,4.43-15.22S84.86,24.19,84.86,24.19Z" transform="translate(-2.34 -5.81)"/><path class="cls-5" d="M81,23.67l-16.24,4.5-2.3,4.08s-1.38,19.37-.55,21.86,10,.78,13.28.23,6.09-4.11,6.09-4.11L83,22.61Z" transform="translate(-2.34 -5.81)"/><path class="cls-5" d="M81.61,33.62s.32,11,2.92,12.44c3.75,2,9.94,4.58,9.94,4.58l2.58-3.77a27,27,0,0,1-8.92-5.69l-3.27-17S76.56,17,81.61,33.62Z" transform="translate(-2.34 -5.81)"/><path class="cls-6" d="M84.53,105.24c.85-.13.81-.69,1.77-.87C86,108,86,107.45,86,107.45c-.22,2.27-.93,2.08-2.81,1.49-.6-.19-.66,0-1.24-3.87C82.84,105.06,83.86,105.34,84.53,105.24Z" transform="translate(-2.34 -5.81)"/><path class="cls-7" d="M87.12,105.73s-1.89,1.9-5.79,1.45c-.46-.1-.92-1.09-1-2a5,5,0,0,1,.13-1.22.78.78,0,0,1,1.15-.5,5.35,5.35,0,0,0,3.14.9,2.5,2.5,0,0,0,2-2.25h.37a3.2,3.2,0,0,1,.25,2.66,4.51,4.51,0,0,1-.17.52Z" transform="translate(-2.34 -5.81)"/><path class="cls-6" d="M55,106.64a8,8,0,0,1-.32-1.91,7.55,7.55,0,0,0,2.74.29c.56,0,.62-1.27,1.08-1.39-.32,1.9-.55,3.17-.55,3.17S55.6,108.93,55,106.64Z" transform="translate(-2.34 -5.81)"/><path class="cls-7" d="M60,102.58l-.46,2.06s-2.64,2.72-5-1l.23-2.47.39-.06s.58,2.07,2.2,1.83a5.51,5.51,0,0,0,2.21-.68Z" transform="translate(-2.34 -5.81)"/><path class="cls-8" d="M82.81,111.87c-.09-1.19-.18-2.38-.28-3.56a1.14,1.14,0,0,1,.06-.55,1.22,1.22,0,0,0,.89.3,9.83,9.83,0,0,0,2.54-.19,5.43,5.43,0,0,0,1.85,3.24,12.51,12.51,0,0,1,2.42,3,.8.8,0,0,1,.07.67c-.12.26-.46.32-.75.32a7.4,7.4,0,0,1-3.63-1A21.8,21.8,0,0,1,82.81,111.87Z" transform="translate(-2.34 -5.81)"/><path class="cls-6" d="M69.54,15.69c0,1.38.59,2.51,1.32,2.51s1.32-1.13,1.32-2.51-.59-2.52-1.32-2.52S69.54,14.3,69.54,15.69Z" transform="translate(-2.34 -5.81)"/><path class="cls-6" d="M70.31,15.43A6.49,6.49,0,1,0,76.8,8.94,6.48,6.48,0,0,0,70.31,15.43Z" transform="translate(-2.34 -5.81)"/><path class="cls-6" d="M78.94,17.42,76.73,24.1h0a4.15,4.15,0,0,1-4.65.48l-.71-.38,1.85-7.26Z" transform="translate(-2.34 -5.81)"/><path class="cls-8" d="M76.8,8.94a6.48,6.48,0,0,1,6,4.11,9.4,9.4,0,0,1-4.14.93c-.52,0-5.16-.64-5-1.45a11.56,11.56,0,0,1-1.15,2.88,2.21,2.21,0,0,0-1.74-2.1l-.17,0A6.47,6.47,0,0,1,76.8,8.94Z" transform="translate(-2.34 -5.81)"/><path class="cls-9" d="M77.41,14.45c.82,0,1.44.82,1.93.82s1.1-.82,1.92-.82a2,2,0,0,1,2.23,1.69,2,2,0,0,1-2.23,1.69c-.82,0-1.44-.83-1.92-.83s-1.11.83-1.93.83a2,2,0,0,1-2.23-1.69A2,2,0,0,1,77.41,14.45Z" transform="translate(-2.34 -5.81)"/><ellipse class="cls-10" cx="79.17" cy="10.32" rx="1.03" ry="0.74"/><ellipse class="cls-10" cx="74.8" cy="10.32" rx="1.03" ry="0.74"/><path class="cls-5" d="M73.36,25.61s-.54-6.54-.14-8.67a18.06,18.06,0,0,1,2.14-5.34c.65-.92,2.67-2.66,4-2.14a7.52,7.52,0,0,1,3.49,3.59,21.55,21.55,0,0,0-1.31-4.11A8.88,8.88,0,0,0,76.8,5.83c-2-.17-6.49.75-7.26,3.11-.84,2.55-2.83,7.74-2.66,10.42.09,1.32,2,4.92,2,4.92Z" transform="translate(-2.34 -5.81)"/><path class="cls-8" d="M55.06,110.13l-.27-3.56a1,1,0,0,1,.05-.54,1.32,1.32,0,0,0,.9.3,9.76,9.76,0,0,0,2.53-.2,5.45,5.45,0,0,0,1.85,3.24,12.14,12.14,0,0,1,2.42,3,.74.74,0,0,1,.07.66c-.12.26-.46.32-.75.33a7.51,7.51,0,0,1-3.63-1A21.86,21.86,0,0,1,55.06,110.13Z" transform="translate(-2.34 -5.81)"/><path class="cls-11" d="M132.78,78.68l-.85-.27A3.59,3.59,0,0,1,132.78,78.68Z" transform="translate(-2.34 -5.81)"/><path class="cls-12" d="M142.74,77.8a1.31,1.31,0,0,1-.83,0c-1-.31-1.58-1.78-1.28-3.28S142,72.07,143,72.36a1.59,1.59,0,0,1,.78.53,3.4,3.4,0,0,1,.53,2.74A2.75,2.75,0,0,1,142.74,77.8Z" transform="translate(-2.34 -5.81)"/><path class="cls-13" d="M153.36,88.54c.08-.46.15-.93.2-1.39.08-.64.14-1.28.19-1.9,0-.28,0-.54,0-.82a.79.79,0,0,0,0-.14,22.54,22.54,0,0,0-.32-5.32,6.79,6.79,0,0,0-.88-3.65,15.16,15.16,0,0,0-2.71-5,8.21,8.21,0,0,0-4-2.73c-3.73-1-7.62,1.3-10.41,5.7a23.6,23.6,0,0,0-1.7,3.25c-.3.7-.58,1.44-.83,2.21-.18.55-.34,1.13-.49,1.71-.12.42-.22.86-.31,1.29a28.3,28.3,0,0,0,.43,14.08,16.35,16.35,0,0,0,1.77,3.94,9.22,9.22,0,0,0,4.55,4C145,106,151.55,99,153.36,88.54Zm-15-14.69c.4-2,1.78-3.25,3.09-2.87a15.79,15.79,0,0,1,2,.58s0,0,0,0c1.18.53,1.83,2.33,1.47,4.21S143.23,79,142,78.75h0a12.81,12.81,0,0,1-1.92-.59C138.65,77.77,137.92,75.82,138.32,73.85Z" transform="translate(-2.34 -5.81)"/><path class="cls-14" d="M140,78.17c-1.33-.4-2.06-2.35-1.66-4.32s1.78-3.25,3.09-2.87a15.79,15.79,0,0,1,2,.58s0,0,0,0c1.18.53,1.83,2.33,1.47,4.21S143.23,79,142,78.75h0A12.81,12.81,0,0,1,140,78.17Zm1.93-.35a1.31,1.31,0,0,0,.83,0,2.75,2.75,0,0,0,1.55-2.17,3.4,3.4,0,0,0-.53-2.74,1.59,1.59,0,0,0-.78-.53c-1-.29-2,.67-2.35,2.18S140.9,77.51,141.91,77.82Z" transform="translate(-2.34 -5.81)"/><path class="cls-15" d="M148.41,102.54c3.62-3.55,5.94-9.09,6.67-14.91.06-.48.12-1,.16-1.44l0-.47c.06-.93.09-1.85.07-2.78a26.59,26.59,0,0,0-1.82-9.3,18.46,18.46,0,0,0-1.25-2.56A13.73,13.73,0,0,0,150,68.15a9.82,9.82,0,0,0-4-2.45l-.57-.16c-3-.71-6.32.26-9.27,3.12a14.8,14.8,0,0,0-1.41,1.54,19.08,19.08,0,0,0-2.07,3.06A24,24,0,0,0,131,77c-.14.37-.27.75-.39,1.15s-.32,1-.45,1.57a30.11,30.11,0,0,0,.22,16.39,20.5,20.5,0,0,0,1.23,3,15.57,15.57,0,0,0,2.18,3.31,10.67,10.67,0,0,0,3.91,2.91l.61.22C141.56,106.67,145.19,105.74,148.41,102.54ZM131.93,78.41a3.59,3.59,0,0,1,.85.27Zm.18,3.31c.09-.43.19-.87.31-1.29.15-.58.31-1.16.49-1.71.25-.77.53-1.51.83-2.21a23.6,23.6,0,0,1,1.7-3.25c2.79-4.4,6.68-6.74,10.41-5.7a8.21,8.21,0,0,1,4,2.73,15.16,15.16,0,0,1,2.71,5,24.36,24.36,0,0,1,.88,3.65,27.09,27.09,0,0,1,.32,5.32c0,.2,0,.4,0,.45,0,.27,0,.23,0,.51-.05.62-.11,1.26-.19,1.9-.05.46-.12.93-.2,1.39-1.81,10.5-8.4,17.44-14.5,15.2a9.22,9.22,0,0,1-4.55-4,16.35,16.35,0,0,1-1.77-3.94A28.3,28.3,0,0,1,132.11,81.72Z" transform="translate(-2.34 -5.81)"/><path class="cls-16" d="M115,57.19,114.2,57A4.59,4.59,0,0,1,115,57.19Z" transform="translate(-2.34 -5.81)"/><path class="cls-16" d="M134.32,62.49l-.83-.22A4.65,4.65,0,0,1,134.32,62.49Z" transform="translate(-2.34 -5.81)"/><path class="cls-11" d="M108.89,61l-.19.71A3.08,3.08,0,0,1,108.89,61Z" transform="translate(-2.34 -5.81)"/><path class="cls-16" d="M88.79,75.46l-.22.72A3.41,3.41,0,0,1,88.79,75.46Z" transform="translate(-2.34 -5.81)"/><path class="cls-16" d="M93.89,58.27l-.2.68A3.26,3.26,0,0,1,93.89,58.27Z" transform="translate(-2.34 -5.81)"/><path class="cls-17" d="M134.32,62.49a4.65,4.65,0,0,0-.83-.22Z" transform="translate(-2.34 -5.81)"/><path class="cls-17" d="M115,57.19a4.59,4.59,0,0,0-.75-.21Z" transform="translate(-2.34 -5.81)"/><path class="cls-13" d="M113.27,56.83a12.72,12.72,0,0,0-10.14,2.94,18.55,18.55,0,0,0-4,5.15,27.44,27.44,0,0,0-3.21,11.34l16.24,5.67a33.52,33.52,0,0,1,.95-6.4c.1-.38.2-.77.31-1.14.16-.55.33-1.09.52-1.63.14-.38.27-.76.42-1.14a26.63,26.63,0,0,1,1.52-3.23,21.35,21.35,0,0,1,3.85-5.11,11.15,11.15,0,0,1,6.47-3L115.5,57.34l-.55-.15L114.2,57A8.25,8.25,0,0,0,113.27,56.83Z" transform="translate(-2.34 -5.81)"/><path class="cls-18" d="M113,90.63a25.09,25.09,0,0,1-.66-3.26,29,29,0,0,1-.22-5.44L95.88,76.26a21.66,21.66,0,0,0,.68,7.11l.06.19c2.31,7.82,8,9.45,8.26,9.49a.31.31,0,0,1-.08.07l5.4,2,2.39.89,3.88,1.45a16.83,16.83,0,0,1-3-5.49C113.27,91.54,113.13,91.09,113,90.63Z" transform="translate(-2.34 -5.81)"/><path class="cls-18" d="M94.12,83.87a26.51,26.51,0,0,1-.44-8.38L80.13,70.76a23.69,23.69,0,0,0,.15,7.49c.77,4,2.63,6.61,5,7.62l.46.18L95,89.47l2.09.77a12.69,12.69,0,0,1-1.67-2.7A18,18,0,0,1,94.12,83.87Z" transform="translate(-2.34 -5.81)"/><path class="cls-13" d="M94.79,69.67a29.25,29.25,0,0,1,3.65-8.05,20,20,0,0,1,3-3.56,10.86,10.86,0,0,1,6.1-2.91l-8.39-2.3L95.88,52l-.45-.12c-2.37-.55-5.15.35-7.82,2.87-3.92,3.66-6.71,9.9-7.48,16.05l13.55,4.73A32,32,0,0,1,94.79,69.67Z" transform="translate(-2.34 -5.81)"/><path class="cls-18" d="M133.8,102.46a15.57,15.57,0,0,1-2.18-3.31,21.65,21.65,0,0,1-1.23-3,27.53,27.53,0,0,1-1.24-8.23l-14.61-5.1c0,.09,0,.18,0,.28a24.76,24.76,0,0,0,.45,4.65,19.37,19.37,0,0,0,.63,2.41c2.84,8.55,9.24,10.4,9.5,10.45a.27.27,0,0,1-.07.08l6,2.22,2.64,1,4.07,1.52A10.67,10.67,0,0,1,133.8,102.46Z" transform="translate(-2.34 -5.81)"/><path class="cls-13" d="M132.48,62.09a13.56,13.56,0,0,0-10.86,3,18.83,18.83,0,0,0-4.52,6.23,21.37,21.37,0,0,0-.89,2.14c-.11.3-.22.6-.31.9s-.16.49-.23.73a28.29,28.29,0,0,0-1.13,7.67l14.61,5.1a31.68,31.68,0,0,1,1-8.16c.13-.53.28-1.06.45-1.57s.25-.78.39-1.15a24,24,0,0,1,1.7-3.74,19.08,19.08,0,0,1,2.07-3.06,14.8,14.8,0,0,1,1.41-1.54c2.95-2.86,6.26-3.83,9.27-3.12l-10.55-2.89-.59-.16-.83-.22A9,9,0,0,0,132.48,62.09Z" transform="translate(-2.34 -5.81)"/><path class="cls-19" d="M104.88,93.05c-.23,0-5.95-1.67-8.26-9.49l-.06-.19a21.66,21.66,0,0,1-.68-7.11l-2.2-.77a26.51,26.51,0,0,0,.44,8.38,18,18,0,0,0,1.26,3.67,12.69,12.69,0,0,0,1.67,2.7A9.44,9.44,0,0,0,100.64,93l.59.22c2.3.86,3.33.14,3.57-.1A.31.31,0,0,0,104.88,93.05Z" transform="translate(-2.34 -5.81)"/><path class="cls-15" d="M98.44,61.62a29.25,29.25,0,0,0-3.65,8.05,32,32,0,0,0-1.11,5.82l2.2.77a27.44,27.44,0,0,1,3.21-11.34,18.55,18.55,0,0,1,4-5.15,12.72,12.72,0,0,1,10.14-2.94,8.25,8.25,0,0,1,.93.15,4.59,4.59,0,0,1,.75.21s.18-.7-1.45-1.39l-.28-.11a13,13,0,0,0-2.47-.66,16.24,16.24,0,0,0-3.24.12,10.86,10.86,0,0,0-6.1,2.91A20,20,0,0,0,98.44,61.62Z" transform="translate(-2.34 -5.81)"/><path class="cls-19" d="M125.11,100.57c-.26,0-6.66-1.9-9.5-10.45a19.37,19.37,0,0,1-.63-2.41,24.76,24.76,0,0,1-.45-4.65c0-.1,0-.19,0-.28l-2.42-.85a29,29,0,0,0,.22,5.44,25.09,25.09,0,0,0,.66,3.26c.13.46.27.91.43,1.35a16.83,16.83,0,0,0,3,5.49,11.2,11.2,0,0,0,4,3l.66.25c2.52.94,3.61.18,3.88-.06A.27.27,0,0,0,125.11,100.57Z" transform="translate(-2.34 -5.81)"/><path class="cls-15" d="M115.84,68.39a26.63,26.63,0,0,0-1.52,3.23c-.15.38-.28.76-.42,1.14-.19.54-.36,1.08-.52,1.63-.11.37-.21.76-.31,1.14a33.52,33.52,0,0,0-.95,6.4,2.1,2.1,0,0,0,1.08,1.16,1.41,1.41,0,0,0,1.34-.31,28.29,28.29,0,0,1,1.13-7.67c.07-.24.15-.49.23-.73s.2-.6.31-.9a21.37,21.37,0,0,1,.89-2.14,18.83,18.83,0,0,1,4.52-6.23,13.56,13.56,0,0,1,10.86-3,9,9,0,0,1,1,.18,4.65,4.65,0,0,1,.83.22s.16-.73-1.63-1.48l-.32-.13a15.1,15.1,0,0,0-2.72-.71,17.14,17.14,0,0,0-3.49.09,11.15,11.15,0,0,0-6.47,3A21.35,21.35,0,0,0,115.84,68.39Z" transform="translate(-2.34 -5.81)"/><path class="cls-12" d="M83.31,61a1.1,1.1,0,0,1,.26.72c0,.94-1.25,1.7-2.79,1.7S78,62.68,78,61.74a1.18,1.18,0,0,1,.3-.77A3.35,3.35,0,0,1,80.77,60,3.21,3.21,0,0,1,83.31,61Z" transform="translate(-2.34 -5.81)"/><path class="cls-13" d="M90.23,50.39c-.44,0-.89,0-1.33,0-.61,0-1.21.06-1.79.12l-.76.08s0,0-.13,0a28.33,28.33,0,0,0-4.89,1A5.94,5.94,0,0,0,78.11,53,12.84,12.84,0,0,0,74,56.07a6.16,6.16,0,0,0-1.59,4c0,3.5,3.47,6.56,8.66,8.25a28.88,28.88,0,0,0,3.69.9c.76.14,1.57.24,2.38.32.59,0,1.19.09,1.8.11.44,0,.89,0,1.33,0a26.78,26.78,0,0,0,12.87-3,12.47,12.47,0,0,0,2.94-2.2,6.39,6.39,0,0,0,2-4.47C108.09,54.68,100.09,50.38,90.23,50.39ZM80.78,65.6c-2.06,0-3.72-1-3.73-2.23a11.53,11.53,0,0,1,0-1.86l0,0c.19-1.13,1.76-2,3.68-2s3.53.91,3.69,2.06c0,0,0,0,0,0a10.58,10.58,0,0,1,0,1.78C84.49,64.6,82.83,65.6,80.78,65.6Z" transform="translate(-2.34 -5.81)"/><path class="cls-14" d="M84.48,63.36c0,1.24-1.65,2.24-3.7,2.24s-3.72-1-3.73-2.23a11.53,11.53,0,0,1,0-1.86l0,0c.19-1.13,1.76-2,3.68-2s3.53.91,3.69,2.06c0,0,0,0,0,0A10.58,10.58,0,0,1,84.48,63.36Zm-.91-1.63a1.1,1.1,0,0,0-.26-.72,3.21,3.21,0,0,0-2.54-1,3.35,3.35,0,0,0-2.51.93,1.18,1.18,0,0,0-.3.77c0,.94,1.26,1.69,2.82,1.69S83.58,62.67,83.57,61.73Z" transform="translate(-2.34 -5.81)"/><path class="cls-15" d="M104.07,52.4A29,29,0,0,0,88.9,49.11c-.46,0-.91,0-1.36.07l-.44,0c-.87.08-1.73.19-2.58.34a25.12,25.12,0,0,0-8.29,2.87,16,16,0,0,0-2.14,1.46,10.61,10.61,0,0,0-2.26,2.42,7.31,7.31,0,0,0-1.35,3.89v.54c.11,2.81,2,5.62,5.77,7.76a17.76,17.76,0,0,0,2,1,23.86,23.86,0,0,0,3.65,1.29,30,30,0,0,0,4.18.8c.41.05.82.1,1.24.13l1.65.09a29,29,0,0,0,15.17-3.32,15.4,15.4,0,0,0,2.31-1.61,10.77,10.77,0,0,0,2.2-2.43,7.28,7.28,0,0,0,1.25-3.73v-.54C109.74,57.34,107.81,54.53,104.07,52.4ZM87.12,70.46a4.79,4.79,0,0,1,0-.82Zm3.13-.8c-.44,0-.89,0-1.33,0-.61,0-1.21-.06-1.8-.11-.81-.08-1.62-.18-2.38-.32a28.88,28.88,0,0,1-3.69-.9c-5.19-1.69-8.66-4.75-8.66-8.25a6.16,6.16,0,0,1,1.59-4A12.84,12.84,0,0,1,78.11,53a23.74,23.74,0,0,1,3.22-1.28,28.33,28.33,0,0,1,4.89-1l.13,0,.76-.08c.58-.06,1.18-.09,1.79-.12.44,0,.89,0,1.33,0,9.86,0,17.86,4.29,17.86,9.62a6.39,6.39,0,0,1-2,4.47,12.47,12.47,0,0,1-2.94,2.2A26.78,26.78,0,0,1,90.25,69.66Z" transform="translate(-2.34 -5.81)"/><path class="cls-17" d="M70.49,72.26v-.82A3.8,3.8,0,0,0,70.49,72.26Z" transform="translate(-2.34 -5.81)"/><path class="cls-17" d="M70.51,92.26v-.81A3.73,3.73,0,0,0,70.51,92.26Z" transform="translate(-2.34 -5.81)"/><path class="cls-18" d="M105.89,84.47a12.47,12.47,0,0,1-1.12.7c-.38.23-.79.44-1.19.64v17l0,0c6.68-4.4,6.21-10.31,6.17-10.54l.09.06V80.49A13.37,13.37,0,0,1,105.89,84.47Z" transform="translate(-2.34 -5.81)"/><path class="cls-18" d="M107.92,102.89a17.75,17.75,0,0,1-3.12,2.3c-.39.22-.81.43-1.22.63v15.85l.57-.3c3.73-2.14,5.65-5,5.76-7.77V100.5A11.48,11.48,0,0,1,107.92,102.89Z" transform="translate(-2.34 -5.81)"/><path class="cls-13" d="M103.58,68.74a29.4,29.4,0,0,1-14.66,3.05l-1.65-.09c-.42,0-.83-.08-1.24-.13a30,30,0,0,1-4.18-.8,23.86,23.86,0,0,1-3.65-1.29,17.76,17.76,0,0,1-2-1c-3.74-2.14-5.66-5-5.77-7.76V87.09c0,.2,0,8.06.06,12.63l0-.07v14c.11,2.81,2,5.62,5.76,7.75,7.52,4.32,19.56,4.4,27.28.27V105.82l-.08,0c0-4,0-8.23.08-8.25Z" transform="translate(-2.34 -5.81)"/><path class="cls-18" d="M109.78,72.22a.19.19,0,0,1,.09,0V60.7a7.28,7.28,0,0,1-1.25,3.73,10.77,10.77,0,0,1-2.2,2.43,15.4,15.4,0,0,1-2.31,1.61l-.51.27v14C110.29,78.38,109.81,72.45,109.78,72.22Z" transform="translate(-2.34 -5.81)"/><path class="cls-19" d="M111.23,95.66c0-2.41-1-3.21-1.34-3.38l-.09-.06c0,.23.51,6.14-6.17,10.54l0,0v3c.41-.2.83-.41,1.22-.63a17.75,17.75,0,0,0,3.12-2.3,11.48,11.48,0,0,0,2-2.39,8.8,8.8,0,0,0,1.33-4.22Z" transform="translate(-2.34 -5.81)"/><path class="cls-19" d="M103.58,82.78v3c.4-.2.81-.41,1.19-.64a12.47,12.47,0,0,0,1.12-.7,13.37,13.37,0,0,0,4-4,8.85,8.85,0,0,0,1.32-4.21v-.63c0-2.4-1-3.2-1.33-3.39a.19.19,0,0,0-.09,0C109.81,72.45,110.29,78.38,103.58,82.78Z" transform="translate(-2.34 -5.81)"/><path class="cls-15" d="M75.59,85.21a24.91,24.91,0,0,0,6.48,2.52,31.27,31.27,0,0,0,3.79.69l1.28.13c.6,0,1.2.08,1.8.1.42,0,.83,0,1.25,0a31.85,31.85,0,0,0,11.74-2.12c.57-.23,1.11-.48,1.65-.74a2.1,2.1,0,0,0,.74-1.53,1.79,1.79,0,0,0-.74-1.5l-.15.1A16.2,16.2,0,0,1,101.37,84a22,22,0,0,1-4.28,1.49,29.82,29.82,0,0,1-8.15.78c-.27,0-.54,0-.81,0s-.66,0-1-.08c-.82-.08-1.65-.19-2.45-.34a22.41,22.41,0,0,1-7.77-2.89,13.68,13.68,0,0,1-6.32-9.67,8.6,8.6,0,0,1-.11-1,3.8,3.8,0,0,1,0-.82s-.81,0-1.09,1.83l0,.32a13.06,13.06,0,0,0,0,2.73,16.39,16.39,0,0,0,1.11,3.32A12.08,12.08,0,0,0,75.59,85.21Z" transform="translate(-2.34 -5.81)"/><path class="cls-15" d="M75.59,105.22a24.56,24.56,0,0,0,6.48,2.52,31.27,31.27,0,0,0,3.79.69l1.28.13c.6,0,1.2.08,1.8.11l1.25,0a32.06,32.06,0,0,0,11.74-2.13c.57-.23,1.11-.48,1.65-.74a2.1,2.1,0,0,0,.74-1.53,1.79,1.79,0,0,0-.74-1.5l-.15.1a15,15,0,0,1-2.06,1.12,22,22,0,0,1-4.28,1.49,29.43,29.43,0,0,1-8.15.78l-.81,0q-.5,0-1-.09c-.82-.07-1.65-.19-2.45-.34a22.41,22.41,0,0,1-7.77-2.89,13.68,13.68,0,0,1-6.32-9.67,8.6,8.6,0,0,1-.11-1,3.83,3.83,0,0,1,0-.82s-.81,0-1.09,1.83q0,.15,0,.33a13,13,0,0,0,0,2.72,16.68,16.68,0,0,0,1.11,3.33A12.06,12.06,0,0,0,75.59,105.22Z" transform="translate(-2.34 -5.81)"/><path class="cls-20" d="M166.09,103.61c-3.44-.15,4.77-6.46-5.64-6.14-10.19.3-9.77,6.34-13.52,8.32l0,0s-3.44,1.94-3.46-13.67c0-4.22.79-16.46.79-16.46h-3.74a5.07,5.07,0,0,0,.27,1.08,2,2,0,0,0,.56.81s.82,11.18.86,14.86c.15,12.3-1.61,15.42-2.77,16.16-9.47,3-11.74-4.39-17.17.14-6.51,5.42-11.07,1.3-11.07,6.65s7.25,4.6,9.35,8.55c3.26,6.11,1.76,5.79,5.54,7.2,6.95,2.58,3.26-5.66,16.34-4.87a14.57,14.57,0,0,1,3.95.78l26.15-15.45C166.74,110.2,179.38,104.17,166.09,103.61Z" transform="translate(-2.34 -5.81)"/><path class="cls-21" d="M146.41,127c0,10.52,6.93,12.1,9.84,10.38,5-2.91,5.08-8.75,5.08-12.1,0-2.49,3.31-4.19,3.31-1.51,0,6.45,7.94,2.86,7.92-4,0-5.06,0-7.16,0-8.27Z" transform="translate(-2.34 -5.81)"/><circle class="cls-6" cx="67.96" cy="52.67" r="2.36"/><circle class="cls-6" cx="96.25" cy="49.09" r="2.36" transform="translate(-10.89 69.57) rotate(-41.11)"/><ellipse class="cls-20" cx="109.78" cy="120.85" rx="6.28" ry="4.92"/><ellipse class="cls-20" cx="157.4" cy="85.88" rx="4.4" ry="3.45"/><ellipse class="cls-20" cx="96.69" cy="124.04" rx="4.08" ry="3.19"/><ellipse class="cls-20" cx="87.1" cy="124.78" rx="3.14" ry="2.46"/><ellipse class="cls-20" cx="108.71" cy="129.69" rx="3.14" ry="2.46"/><ellipse class="cls-20" cx="170.81" cy="92.9" rx="2.41" ry="1.89"/></g></svg>