<svg xmlns="http://www.w3.org/2000/svg" viewBox="0 0 147.4 147.4"><defs><style>.cls-1{fill:#e87818;}.cls-2{fill:none;stroke:#201b18;stroke-linecap:round;stroke-linejoin:round;stroke-width:0.9px;}.cls-3{fill:#1d1d1b;}</style></defs><title>G11_08_05</title><g id="Mobile"><path id="path109" class="cls-1" d="M4.25,77.74l73.86,73.64,73.54-73.64L78.11,4,4.25,77.74" transform="translate(-4.25 -3.98)"/><path id="path273" class="cls-2" d="M13.76,77.63,78.22,142l64.13-64.32L78.22,13.42Z" transform="translate(-4.25 -3.98)"/><path class="cls-3" d="M80.46,109.77l-1.84,2.16,0,0,2.71-.55v1.72l-2.73-.47v0l1.85,2.09L79,115.7l-1-2.63h0l-1,2.62-1.47-.88,1.82-2.13v0l-2.67.49v-1.72l2.64.53,0,0-1.81-2.15,1.52-.86.95,2.6h0l1-2.6Z" transform="translate(-4.25 -3.98)"/><path class="cls-3" d="M77.29,123.15h0l-2.11,1-.42-1.94,2.93-1.36h2.14v11.06h-2.5Z" transform="translate(-4.25 -3.98)"/><path class="cls-3" d="M51.53,60.89h-.11l-7,3.34L43,57.77l9.75-4.54h7.14V90.08H51.53Z" transform="translate(-4.25 -3.98)"/><path class="cls-3" d="M72.45,85.49a5,5,0,0,1,5.1-5.27,5.24,5.24,0,0,1,0,10.48A5,5,0,0,1,72.45,85.49Z" transform="translate(-4.25 -3.98)"/><path class="cls-3" d="M102,90.08V81.29H85.66V75.68L99.6,53.23h10.55v21.6h4.42v6.46h-4.42v8.79Zm0-15.25V66.67c0-2.21.11-4.48.28-6.86H102c-1.19,2.38-2.15,4.53-3.4,6.86l-4.93,8v.11Z" transform="translate(-4.25 -3.98)"/></g></svg>