<svg xmlns="http://www.w3.org/2000/svg" viewBox="0 0 586.55 367.83"><defs><style>.cls-1{isolation:isolate;}.cls-2{fill:#ad1917;}.cls-3{fill:#ea504e;}.cls-4{fill:#e6332a;}.cls-5{fill:#d9d9d9;mix-blend-mode:multiply;}.cls-6{fill:#303b45;}.cls-7{fill:#353430;}.cls-8{fill:#5b5b5a;}.cls-9{fill:#f6bbc6;}.cls-10{fill:#ebebeb;}.cls-11{fill:#a9a9a9;}.cls-12{fill:#dfe5ee;}.cls-13{fill:#9ea6b0;}.cls-14,.cls-48{fill:#36a9e1;}.cls-15{fill:#fbc01f;}.cls-16{fill:#4294ce;}.cls-17,.cls-25,.cls-37,.cls-39{fill:#fff;}.cls-18{fill:#8d8d8e;}.cls-19{fill:#ef7967;}.cls-20,.cls-24,.cls-44{fill:#eaeaea;}.cls-21,.cls-23{fill:#ea504f;}.cls-21{stroke:#eaeaea;}.cls-21,.cls-22,.cls-24,.cls-49{stroke-miterlimit:10;}.cls-21,.cls-24{stroke-width:4px;}.cls-22,.cls-38,.cls-49{fill:none;}.cls-22{stroke:#5b5b5a;stroke-width:3px;}.cls-24{stroke:#ea5050;}.cls-25,.cls-32,.cls-44,.cls-45,.cls-47,.cls-48{fill-rule:evenodd;}.cls-26{fill:#a8dae8;}.cls-27{fill:#f59a22;}.cls-28{fill:#1db1bf;}.cls-29{fill:#4d8eb5;}.cls-30{fill:#cdcccc;}.cls-31{fill:#010101;}.cls-31,.cls-37{opacity:0.1;}.cls-32{fill:#fe0;}.cls-33{fill:#ffde09;}.cls-34{fill:#ffcd16;}.cls-35{fill:#fbbb1c;}.cls-36{fill:#fcc013;}.cls-39{opacity:0.6;}.cls-40{fill:#0e3140;}.cls-41{fill:#2d5972;}.cls-42{fill:#123754;}.cls-43{fill:#174967;}.cls-45{fill:#009fe3;}.cls-46,.cls-47{fill:#261c35;}.cls-49{stroke:#353430;}.cls-50{fill:#a9b2bd;}.cls-51{fill:#3b2d7c;}.cls-52{fill:#a6daf2;}</style></defs><title>G11_14</title><g class="cls-1"><g id="Livello_1" data-name="Livello 1"><polygon class="cls-2" points="380.56 309.89 380.56 314.67 290.5 367.83 290.5 363.06 380.56 309.89"/><polygon class="cls-3" points="290.5 363.06 290.5 367.83 193.71 311.42 193.71 306.65 290.5 363.06"/><polygon class="cls-4" points="290.35 362.97 193.71 306.65 284.53 254.45 380.56 309.89 290.5 363.06 290.35 362.97"/><ellipse class="cls-5" cx="287.62" cy="309.36" rx="59.55" ry="30.97"/><path class="cls-6" d="M296.22,309a14.8,14.8,0,0,0-1.14,4.5,2.93,2.93,0,0,0,.88,2.27,36.9,36.9,0,0,0,4,.88c.93.05,4,2.48,6.2,2.63s5.06.83,5.37-.93-10.95-8.73-10.95-8.73Z" transform="translate(-5.64 -11.7)"/><path class="cls-7" d="M309,216.07l2.35,2.64s6.15,22.27,6,24.16-2.64,2.26-4.15,1.69-5.66-14.34-5.66-14.34Z" transform="translate(-5.64 -11.7)"/><path class="cls-6" d="M296.7,303.68l-.46,6.06s-.13,1.43,1.82,1.53a2.56,2.56,0,0,0,2.55-1.61l1.37-9Z" transform="translate(-5.64 -11.7)"/><path class="cls-6" d="M283.52,309.11l-1.14,5.43s.36,1.93,2.11,1.66,2.28-2.63,2.28-2.63l1.05-5.78Z" transform="translate(-5.64 -11.7)"/><path class="cls-6" d="M282.56,313.66s.18,1.58,1.58,1.49a4.57,4.57,0,0,0,2.63-1.58l-.35,5.61s-.79,8.42-3.25,9.29-2.92-2.57-3-3.77A24.69,24.69,0,0,1,282.56,313.66Z" transform="translate(-5.64 -11.7)"/><path class="cls-8" d="M287.23,251s.46,8.81.93,10.43-.93,23.17-.93,23.17-4.39,23.48-4.15,24.87,4.17.7,5.09-.69,6.24-20.48,7.17-26.5,3.71-19.93,3.71-19.93.23,16.92.23,18.31-2.89,25.61-2.89,25.61.11.74,2.45,1.09a2.86,2.86,0,0,0,2.66-1.06c1.38-2.26,1.72-6.18,1.72-6.18l6.25-31.74.87-23.19-3.65-1.37Z" transform="translate(-5.64 -11.7)"/><path class="cls-8" d="M296.05,216.79s7.7-2.48,10.85-1.7a5.7,5.7,0,0,1,4.47,3.95c.27,1.05-1.05,26.55-1.05,26.55S296.65,256.9,290.87,254c-4.18-2.09-4.52-4.45-4.38-5.6a13.45,13.45,0,0,0,.12-2.1l2.91-26.84Z" transform="translate(-5.64 -11.7)"/><path class="cls-7" d="M309,235.94l-16,3.19-3.33-16.87-.36-.87-3.47,2.38.74,22.53a13.45,13.45,0,0,1-.12,2.1c-.12,1,.11,2.77,2.62,4.56,5.3-2.73,16-8.6,20.24-13C311.8,237.49,309,235.94,309,235.94Z" transform="translate(-5.64 -11.7)"/><path class="cls-7" d="M311.25,243.71s-1.53-3.41-.15-5h0c1.37-1.58,2.89-2.72,5.15-.75,0,0,4.44,6.32,3.06,7.9h0C317.94,247.44,313.51,245.67,311.25,243.71Z" transform="translate(-5.64 -11.7)"/><path class="cls-9" d="M320.44,244a2.84,2.84,0,1,1-2.84-2.83A2.84,2.84,0,0,1,320.44,244Z" transform="translate(-5.64 -11.7)"/><path class="cls-10" d="M310.21,248.2l-.12,3.76s-14.69,6.28-20.42,4.59c-3.32-1-3.35-3.31-3.25-4.16.06-.52,0-3.24.05-3.55,0,0,1.32,3.94,5,4.44C295.63,253.86,310.21,248.2,310.21,248.2Z" transform="translate(-5.64 -11.7)"/><path class="cls-10" d="M292.13,253.77l1-.19s21.6-29.17,15.08-36.19c-.81-.87-2.32-2.23-2.62-2.11a10,10,0,0,0-2.14.87s.89-.29,3.33,2.33C311.54,223.52,292.13,253.77,292.13,253.77Z" transform="translate(-5.64 -11.7)"/><path class="cls-8" d="M291.5,229.39s-.14-9.14-2-9.93c0,0-4.17.89-5.49,3.78s-1,5.47-2.21,9.93c-.82,3-2.76,9.6-2.37,12.09s3,3.82,9.2,1.32S310.21,238,310.21,238l-.13-2.76-20.14,3Z" transform="translate(-5.64 -11.7)"/><path class="cls-9" d="M314.9,236.26a2.84,2.84,0,1,1-2.84-2.83A2.83,2.83,0,0,1,314.9,236.26Z" transform="translate(-5.64 -11.7)"/><path class="cls-9" d="M316.62,238.8l-2-3.12a.8.8,0,0,0-1.34.87l2,3.12a.81.81,0,0,0,1.11.23A.8.8,0,0,0,316.62,238.8Z" transform="translate(-5.64 -11.7)"/><path class="cls-11" d="M286.79,254.48a3.62,3.62,0,0,1-.37-2.09c.06-.52,0-3.24.05-3.55a7.53,7.53,0,0,0,3.16,3.84Z" transform="translate(-5.64 -11.7)"/><polygon class="cls-11" points="288.73 238.44 293.16 230.83 295.68 229.84 290.77 237.36 288.73 238.44"/><polygon class="cls-12" points="323.69 221.2 309.58 230.29 304.88 235.03 319.6 226.47 323.69 221.2"/><polygon class="cls-13" points="323.69 221.2 323.93 221.51 319.89 226.88 305.15 235.37 304.88 235.03 319.6 226.47 323.69 221.2"/><polygon class="cls-14" points="322.69 222.04 310.17 229.97 305.81 234.33 319.36 226.39 322.69 222.04"/><rect class="cls-15" x="293.32" y="228.57" width="4.55" height="2.14" transform="translate(-42.82 46.55) rotate(-10.59)"/><rect class="cls-16" x="293.35" y="228.85" width="1.5" height="2.14" transform="translate(-42.91 46.31) rotate(-10.6)"/><rect class="cls-17" x="296.35" y="228.29" width="1.5" height="2.14" transform="translate(-42.76 46.85) rotate(-10.6)"/><path class="cls-18" d="M298.31,216.77s-1.66.61-1.92,1.26.91,1.34,3.32,2.71a13.24,13.24,0,0,0,2.34,1,7.2,7.2,0,0,0,1.44-3.29C303.65,214.22,298.31,216.77,298.31,216.77Z" transform="translate(-5.64 -11.7)"/><path class="cls-9" d="M311.44,211.06a7.66,7.66,0,1,1-4.74-9.75A7.66,7.66,0,0,1,311.44,211.06Z" transform="translate(-5.64 -11.7)"/><path class="cls-9" d="M305.87,210.62l-2.61,7.89h0a4.93,4.93,0,0,1-5.5.57h0a1.22,1.22,0,0,1-.6-1.37l1.94-7.65Z" transform="translate(-5.64 -11.7)"/><path class="cls-19" d="M310.67,208.9a2,2,0,0,0,1.15-.31l0,0A7.66,7.66,0,0,0,297,206.06a8.32,8.32,0,0,0-.26,1,2.76,2.76,0,0,0,1,.3c.78.07,3.36-1,3.12-2,.12.52.23,1,.35,1.56a1.85,1.85,0,0,0,1.12-1.36A11.37,11.37,0,0,0,310.67,208.9Z" transform="translate(-5.64 -11.7)"/><path class="cls-9" d="M300,207.37a2.33,2.33,0,1,1-1.45-3A2.34,2.34,0,0,1,300,207.37Z" transform="translate(-5.64 -11.7)"/><polygon class="cls-8" points="294.92 206.66 293.78 209.41 290.7 209.69 289.07 206.66 291.43 204.09 292.05 203.92 291.87 204.62 294.92 206.66"/><polygon class="cls-7" points="296.37 210.16 293.86 209.16 294.92 206.66 296.37 210.16"/><circle class="cls-20" cx="293.24" cy="207.3" r="0.82"/><polygon class="cls-7" points="297.8 206.23 296.37 210.16 298.44 208.02 297.8 206.23"/><circle class="cls-21" cx="72.87" cy="290.14" r="70.87"/><rect class="cls-17" x="20.9" y="266.26" width="68.25" height="41" rx="10.04" ry="10.04"/><polygon class="cls-17" points="32.98 317.51 39.98 303.51 55.03 303.51 32.98 317.51"/><line class="cls-22" x1="70.15" y1="276.35" x2="79.98" y2="276.35"/><line class="cls-22" x1="43.98" y1="276.35" x2="66.82" y2="276.35"/><line class="cls-22" x1="29.98" y1="276.35" x2="39.98" y2="276.35"/><line class="cls-22" x1="74.32" y1="283.35" x2="79.98" y2="283.35"/><line class="cls-22" x1="49.98" y1="283.35" x2="70.15" y2="283.35"/><line class="cls-22" x1="29.98" y1="283.35" x2="46.15" y2="283.35"/><line class="cls-22" x1="70.82" y1="289.35" x2="79.98" y2="289.35"/><line class="cls-22" x1="49.98" y1="289.35" x2="66.82" y2="289.35"/><line class="cls-22" x1="29.98" y1="289.35" x2="45.65" y2="289.35"/><line class="cls-22" x1="29.98" y1="295.35" x2="49.98" y2="295.35"/><path class="cls-20" d="M105,339H75.59a12.06,12.06,0,0,1-12-12.05V306a12.05,12.05,0,0,1,12-12h48.17a12.06,12.06,0,0,1,12,12v20.91a12.07,12.07,0,0,1-12,12.05h-3.94l2.44,9.19Z" transform="translate(-5.64 -11.7)"/><path class="cls-23" d="M123.76,296a10,10,0,0,1,10,10v20.91a10,10,0,0,1-10,10.05h-7.17l5.12,10.25L105.58,337h-30a10,10,0,0,1-10-10.05V306a10,10,0,0,1,10-10h48.17m0-4H75.59a14.05,14.05,0,0,0-14,14v20.91a14.06,14.06,0,0,0,14,14.05h28.82l15.16,9.62,5.72-5.16L123.06,341h.7a14.06,14.06,0,0,0,14-14.05V306a14.05,14.05,0,0,0-14-14Z" transform="translate(-5.64 -11.7)"/><line class="cls-22" x1="78.82" y1="293.35" x2="68.98" y2="293.35"/><line class="cls-22" x1="108.98" y1="293.35" x2="83.15" y2="293.35"/><line class="cls-22" x1="118.98" y1="293.35" x2="111.98" y2="293.35"/><line class="cls-22" x1="74.65" y1="300.35" x2="68.98" y2="300.35"/><line class="cls-22" x1="95.98" y1="300.35" x2="78.82" y2="300.35"/><line class="cls-22" x1="118.98" y1="300.35" x2="99.82" y2="300.35"/><line class="cls-22" x1="78.15" y1="306.35" x2="68.98" y2="306.35"/><line class="cls-22" x1="101.98" y1="306.35" x2="82.15" y2="306.35"/><line class="cls-22" x1="118.98" y1="306.35" x2="106.32" y2="306.35"/><line class="cls-22" x1="88.98" y1="312.35" x2="68.98" y2="312.35"/><circle class="cls-21" cx="159.27" cy="161.74" r="70.87"/><rect class="cls-24" x="109.94" y="135.1" width="98.67" height="53.3"/><polygon class="cls-24" points="159.27 155.1 208.61 188.12 109.94 188.12 159.27 155.1"/><polygon class="cls-24" points="159.27 168.12 109.94 135.1 208.61 135.1 159.27 168.12"/><path class="cls-13" d="M172.87,161.21a6.43,6.43,0,0,1-1.25,3.67,4.09,4.09,0,0,1-3.48,1.54,2.07,2.07,0,0,1-1.32-.43,2.37,2.37,0,0,1-.79-1.2A3.15,3.15,0,0,1,165,166a2.76,2.76,0,0,1-1.5.4,2.36,2.36,0,0,1-2.11-1.16,4.71,4.71,0,0,1-.54-3.08,7.54,7.54,0,0,1,1.4-4,3.43,3.43,0,0,1,2.8-1.5,5.38,5.38,0,0,1,1.83.26,8,8,0,0,1,1.5.78l0,0h.05l-.49,5.59a2.39,2.39,0,0,0,.13,1.27.63.63,0,0,0,.56.35,2.05,2.05,0,0,0,1.8-1.07,5.43,5.43,0,0,0,.76-2.69,8,8,0,0,0-1.34-5.38,5.43,5.43,0,0,0-4.6-1.94,5.89,5.89,0,0,0-4.73,2.08,9,9,0,0,0-1.91,5.58A7.89,7.89,0,0,0,160,167a5.51,5.51,0,0,0,4.58,2,8,8,0,0,0,1.71-.2,7.34,7.34,0,0,0,1.52-.49l.37,1.44a5.39,5.39,0,0,1-1.67.64,9,9,0,0,1-2,.23,7.46,7.46,0,0,1-6-2.43,9.26,9.26,0,0,1-1.92-6.66,10,10,0,0,1,2.49-6.68,7.93,7.93,0,0,1,6.11-2.5,7.17,7.17,0,0,1,5.79,2.37A9.12,9.12,0,0,1,172.87,161.21Zm-9.87.94a4.25,4.25,0,0,0,.18,1.88.94.94,0,0,0,.91.64,2,2,0,0,0,1-.25,2.18,2.18,0,0,0,.79-.94v-.07a.35.35,0,0,0,0-.06l.43-4.86-.45-.11a3.42,3.42,0,0,0-.46,0,1.83,1.83,0,0,0-1.66.95A7.12,7.12,0,0,0,163,162.15Z" transform="translate(-5.64 -11.7)"/><g id="paper"><circle class="cls-21" cx="410.88" cy="161.74" r="70.87"/><path class="cls-25" d="M369,143.18l49,0,0,69.26-49,0Z" transform="translate(-5.64 -11.7)"/><path class="cls-26" d="M399.06,179.61a5.76,5.76,0,0,1-1.25,2.16l4.28,6a13.14,13.14,0,0,0,4.31-7.32Z" transform="translate(-5.64 -11.7)"/><path class="cls-27" d="M394.69,172a5.86,5.86,0,0,1,4.63,5.21l7.33.8c0-.08,0-.16,0-.24a13.17,13.17,0,0,0-12-13.11Z" transform="translate(-5.64 -11.7)"/><path class="cls-28" d="M389.16,173.85A5.85,5.85,0,0,1,392.3,172v-7.34a13.1,13.1,0,0,0-9.48,5.43Z" transform="translate(-5.64 -11.7)"/><path class="cls-29" d="M395.87,183.17a5.74,5.74,0,0,1-2.38.51,5.88,5.88,0,0,1-5.88-5.88,5.65,5.65,0,0,1,.34-1.89l-6.35-3.73A13.14,13.14,0,0,0,393.49,191a13,13,0,0,0,6.65-1.82Z" transform="translate(-5.64 -11.7)"/><rect class="cls-27" x="368.44" y="136.15" width="6.13" height="1.78"/><rect class="cls-28" x="368.44" y="140.21" width="6.13" height="1.78"/><rect class="cls-26" x="368.44" y="144.28" width="6.13" height="1.78"/><rect class="cls-29" x="368.44" y="148.34" width="6.13" height="1.78"/><rect class="cls-30" x="378.72" y="136.24" width="28.53" height="2.01"/><rect class="cls-30" x="378.72" y="142.23" width="28.53" height="2"/><rect class="cls-30" x="378.72" y="148.23" width="28.53" height="2"/><rect class="cls-30" x="378.72" y="145.23" width="28.53" height="2"/><rect class="cls-30" x="378.72" y="139.24" width="28.53" height="2"/><rect class="cls-30" x="368.44" y="181.09" width="1.3" height="16.73"/><rect class="cls-30" x="366.74" y="194.87" width="40.52" height="1.3"/><rect class="cls-27" x="373.15" y="188.74" width="3.47" height="6.13"/><rect class="cls-26" x="373.15" y="185.68" width="3.47" height="3.06"/><rect class="cls-27" x="379.62" y="186.09" width="3.47" height="8.78"/><rect class="cls-26" x="379.62" y="184.33" width="3.47" height="1.76"/><rect class="cls-27" x="386.1" y="190.41" width="3.47" height="4.46"/><rect class="cls-26" x="386.1" y="187.21" width="3.47" height="3.2"/><rect class="cls-27" x="392.58" y="192.32" width="3.47" height="2.55"/><rect class="cls-26" x="392.58" y="189.76" width="3.47" height="2.55"/><rect class="cls-31" x="398.23" y="131.5" width="14.11" height="60.37"/><path class="cls-25" d="M406.26,132.62l48.51,0,0,68.62-48.52,0Z" transform="translate(-5.64 -11.7)"/><polygon class="cls-32" points="406.7 156.39 410.89 156.39 410.88 160.2 406.69 160.2 406.7 156.39"/><rect class="cls-33" x="411.54" y="154.75" width="4.19" height="5.46"/><rect class="cls-34" x="416.38" y="150.93" width="4.19" height="9.28"/><rect class="cls-35" x="421.23" y="152.22" width="4.19" height="7.99"/><rect class="cls-27" x="426.07" y="156.21" width="4.19" height="4"/><rect class="cls-26" x="430.8" y="154.7" width="4.19" height="5.51"/><rect class="cls-28" x="435.64" y="152.22" width="4.19" height="7.99"/><rect class="cls-29" x="440.49" y="146.94" width="4.19" height="13.27"/><rect class="cls-30" x="405.04" y="165.85" width="18.18" height="1.21"/><rect class="cls-30" x="405.04" y="167.97" width="18.18" height="1.21"/><rect class="cls-30" x="405.04" y="170.08" width="18.18" height="1.21"/><rect class="cls-30" x="405.03" y="172.19" width="18.18" height="1.21"/><rect class="cls-30" x="405.03" y="174.31" width="18.18" height="1.21"/><rect class="cls-30" x="405.03" y="176.42" width="18.18" height="1.21"/><rect class="cls-30" x="405.03" y="178.53" width="18.18" height="1.21"/><rect class="cls-30" x="405.03" y="180.65" width="9.09" height="1.21"/><rect class="cls-30" x="426.47" y="165.86" width="18.18" height="1.21"/><rect class="cls-30" x="426.47" y="167.98" width="18.18" height="1.21"/><rect class="cls-30" x="426.47" y="170.09" width="18.18" height="1.21"/><rect class="cls-30" x="426.47" y="172.21" width="18.18" height="1.21"/><rect class="cls-30" x="426.47" y="174.32" width="18.18" height="1.21"/><rect class="cls-30" x="426.46" y="176.43" width="18.18" height="1.21"/><rect class="cls-30" x="426.46" y="178.55" width="18.18" height="1.21"/><rect class="cls-30" x="426.46" y="180.66" width="12.8" height="1.21"/><polygon class="cls-36" points="407.65 143.81 406.54 142.29 420.37 132.09 429.36 138.24 443.72 128.41 444.78 129.95 429.37 140.51 420.41 134.39 407.65 143.81"/><polygon class="cls-36" points="444.92 133.24 443.41 133.24 443.41 129.93 440.1 129.93 440.1 128.43 444.92 128.43 444.92 133.24"/><path class="cls-28" d="M437,150.72a2.07,2.07,0,1,0-2.06,2.07A2.06,2.06,0,0,0,437,150.72Z" transform="translate(-5.64 -11.7)"/><path class="cls-28" d="M428.13,144.94a2.07,2.07,0,1,0-2.06,2.07A2.06,2.06,0,0,0,428.13,144.94Z" transform="translate(-5.64 -11.7)"/><g id="magnifying_glass" data-name="magnifying glass"><path class="cls-37" d="M433.61,177.78a10.31,10.31,0,1,0,14.59,14.58h0a10.31,10.31,0,1,0-14.59-14.58Z" transform="translate(-5.64 -11.7)"/><path class="cls-38" d="M449.54,193.7" transform="translate(-5.64 -11.7)"/><path class="cls-26" d="M447.51,193c.12-.09.23-.19.34-.29C447.74,192.8,447.63,192.9,447.51,193Z" transform="translate(-5.64 -11.7)"/><path class="cls-26" d="M447.87,192.68c.12-.11.23-.21.33-.32C448.1,192.47,448,192.57,447.87,192.68Z" transform="translate(-5.64 -11.7)"/><path class="cls-39" d="M433.61,177.78a10.25,10.25,0,0,1,6.44-3,10.48,10.48,0,0,0-1.4.21,10.32,10.32,0,0,0,4.21,19.73,10.15,10.15,0,0,0,2.28-.25A10.57,10.57,0,0,0,447.5,193a10.22,10.22,0,0,1-6.62,2.38,10.31,10.31,0,0,1-7.27-17.61Z" transform="translate(-5.64 -11.7)"/><path class="cls-26" d="M440.06,174.78h0Z" transform="translate(-5.64 -11.7)"/><path class="cls-26" d="M440.36,174.77h0Z" transform="translate(-5.64 -11.7)"/><path class="cls-26" d="M440.64,174.75h0Z" transform="translate(-5.64 -11.7)"/><path class="cls-40" d="M453.61,197.88a1.77,1.77,0,0,1-2.51,0l-2.21-2.28a1.77,1.77,0,0,1,0-2.5h0a1.77,1.77,0,0,1,2.51,0l2.21,2.28a1.78,1.78,0,0,1,0,2.51Z" transform="translate(-5.64 -11.7)"/><path class="cls-41" d="M427,185.05a13.86,13.86,0,0,0,23.67,9.82h0A13.86,13.86,0,1,0,427,185.05Zm3.54,0a10.32,10.32,0,1,1,10.3,10.34A10.25,10.25,0,0,1,430.58,185.05Z" transform="translate(-5.64 -11.7)"/><rect class="cls-42" x="456.6" y="193.24" width="7.13" height="22.34" transform="translate(-15.4 373.55) rotate(-45)"/><rect class="cls-41" x="458.07" y="193.24" width="4.18" height="22.34" transform="translate(-15.4 373.55) rotate(-45)"/><rect class="cls-40" x="463.28" y="209.38" width="7.13" height="3.43" transform="translate(-18.17 380.24) rotate(-45)"/><rect class="cls-43" x="464.76" y="209.38" width="4.18" height="3.43" transform="translate(-18.18 380.22) rotate(-45)"/><path class="cls-39" d="M445.59,177.74a10.29,10.29,0,0,0-7.87-.53,10.07,10.07,0,0,0-2.48,1.23l.76,2a10.42,10.42,0,0,1,3-1.6,10.29,10.29,0,0,1,7.87.53,11.1,11.1,0,0,1,3,2.24A10.36,10.36,0,0,0,445.59,177.74Z" transform="translate(-5.64 -11.7)"/></g></g><circle class="cls-21" cx="513.68" cy="274.87" r="70.87"/><path class="cls-44" d="M499.6,238.38h39.93c5.55,0,4.19,4.54,4.19,10.1v76.17c0,5.56,1.36,10.11-4.19,10.11H499.6c-5.55,0-4.78-4.55-4.78-10.11V248.48C494.82,242.92,494.05,238.38,499.6,238.38Z" transform="translate(-5.64 -11.7)"/><path class="cls-45" d="M495.83,246.46H542.5a.16.16,0,0,1,.17.14v79.12a.17.17,0,0,1-.17.15H495.83a.16.16,0,0,1-.16-.15V246.6A.15.15,0,0,1,495.83,246.46Z" transform="translate(-5.64 -11.7)"/><rect class="cls-46" x="505.48" y="229.06" width="16.29" height="1.46" rx="0.73" ry="0.73"/><path class="cls-47" d="M519.27,332.64a2.47,2.47,0,1,0-2.47-2.47A2.48,2.48,0,0,0,519.27,332.64Z" transform="translate(-5.64 -11.7)"/><path class="cls-48" d="M495.83,246.46H542.5a.16.16,0,0,1,.17.14v79.12a.17.17,0,0,1-.17.15L495.67,246.6A.15.15,0,0,1,495.83,246.46Z" transform="translate(-5.64 -11.7)"/><circle class="cls-21" cx="285.68" cy="72.87" r="70.87"/><path class="cls-8" d="M300.06,67.24s-3.16,13.12-4.47,20.15c-.86,4.57-.14,20.44-.14,20.44l1,.11-.07,4.71a2.59,2.59,0,0,0,2.2,1.1c.49,0,1.17-5.37,1.17-5.37l.82,0L301.74,92s3.2-15.63,4.29-15.42a4.24,4.24,0,0,0,2,.29c3.11-.6,7.56-3.33,7.39-6.56-.22-4.17-3.52-4.39-3.52-4.39a55.43,55.43,0,0,0-6.36-.22C304.89,65.92,300.06,67.24,300.06,67.24Z" transform="translate(-5.64 -11.7)"/><path class="cls-8" d="M307.37,72s-1.06,14.36.48,17.22c1,1.91,7.82,9.79,7.82,9.79l.51-.08,1.78,1.83s2.52.33,1.86-1.43c-.17-.45-1.28-2.61-1.28-2.61l.31-.44L313.22,87l2.21-16.67-4.83-5.93Z" transform="translate(-5.64 -11.7)"/><path class="cls-8" d="M296.51,46.19s1.32-2.41,3.29-2.41,14.9,2.87,15.78,3.75,7.1,12.68,7.1,16.63-1.32,17.57-1.32,17.57-2.42.44-3.08-.66S317,66.36,317,66.36s-3.52-12.74-3.52-12.08S296.51,46.19,296.51,46.19Z" transform="translate(-5.64 -11.7)"/><path class="cls-8" d="M300.28,46.15l12.89,3.58L315,53s1.1,15.37.44,17.35-7.91,2.86-10.54,2.42-4.83-5.49-4.83-5.49l-1.35-21.92Z" transform="translate(-5.64 -11.7)"/><path class="cls-8" d="M296.51,46.19s-3.65,6.62-3.87,11.23.83,14.65.83,14.65a2.82,2.82,0,0,0,2.63.22c1.32-.66.88-13,1.54-14.5l4.83-11.2S300.9,43.56,296.51,46.19Z" transform="translate(-5.64 -11.7)"/><circle class="cls-9" cx="303.63" cy="39.61" r="5.15" transform="translate(55.28 214.6) rotate(-45)"/><path class="cls-9" d="M301.93,41.19l1.75,5.3h0a3.29,3.29,0,0,0,3.69.38l.56-.3-1.46-5.75Z" transform="translate(-5.64 -11.7)"/><path class="cls-6" d="M317.78,100.46s.67,2.71.45,3.22-1,3,.35,3.25,2.17-1,2.3-2.3a23.94,23.94,0,0,0-.58-5c0-.12-.44-.25-.44-.25Z" transform="translate(-5.64 -11.7)"/><path class="cls-6" d="M298.06,108.28c-.67-.1-.88-.2-1.65-.34-.07,2.68-.07,4.71-.07,4.71.17,1.8.74,1.64,2.23,1.18.48-.15.68-2.37,1.14-5.45A10,10,0,0,1,298.06,108.28Z" transform="translate(-5.64 -11.7)"/><path class="cls-6" d="M319.82,99.3c-.16-.43-.64-1.4-1.28-2.61a12,12,0,0,1-1.3,1.64,3.34,3.34,0,0,1-1.06.57c1.06,1.1,1.78,1.83,1.78,1.83S320.48,101.06,319.82,99.3Z" transform="translate(-5.64 -11.7)"/><path class="cls-6" d="M299.66,116.15c.07-.94-.66-1.88-.58-2.82a.93.93,0,0,0,0-.44,1,1,0,0,1-.72.24,7.55,7.55,0,0,1-2-.15c-.05,1-1.57,2.62-2.27,3.36a9.8,9.8,0,0,0-1.91,2.37.63.63,0,0,0-.06.53.62.62,0,0,0,.59.26,5.91,5.91,0,0,0,2.89-.78A42.75,42.75,0,0,0,299.66,116.15Z" transform="translate(-5.64 -11.7)"/><path class="cls-9" d="M309.39,39.82c0,1.1-.47,2-1.05,2s-1-.89-1-2,.47-2,1-2S309.39,38.72,309.39,39.82Z" transform="translate(-5.64 -11.7)"/><path class="cls-19" d="M303.63,34.46a5.15,5.15,0,0,0-4.79,3.27,7.35,7.35,0,0,0,3.29.73c.41,0,4.09-.5,3.93-1.15A9.44,9.44,0,0,0,307,39.6a1.76,1.76,0,0,1,1.38-1.67l.14,0A5.15,5.15,0,0,0,303.63,34.46Z" transform="translate(-5.64 -11.7)"/><circle class="cls-9" cx="313.82" cy="70.14" r="1.87"/><circle class="cls-9" cx="289.33" cy="61.66" r="1.87"/><polygon class="cls-8" points="299.16 34.64 299.92 36.49 302.41 36.83 303.75 34.3 302.08 32.48 301.7 32.38 301.79 32.87 299.16 34.64"/><polygon class="cls-7" points="298.84 37.09 300.04 36.73 299.16 34.64 298.84 37.09"/><polygon class="cls-8" points="299.02 35.67 296.52 35.37 296.52 32.85 297.48 33.19 299.02 35.67"/><circle class="cls-20" cx="300.56" cy="35.18" r="0.69"/><rect class="cls-15" x="301.2" y="50.74" width="1.12" height="2.39" transform="translate(189.59 327.31) rotate(-79.41)"/><rect class="cls-16" x="301.99" y="51.69" width="1.12" height="0.79" transform="translate(190.06 328.19) rotate(-79.4)"/><rect class="cls-17" x="300.41" y="51.4" width="1.12" height="0.79" transform="translate(189.07 326.4) rotate(-79.4)"/><path class="cls-10" d="M299.91,64.88l.19,2.36s7.58,4,12.38,2.6c2.79-.82,3.16-1.86,3.16-2.07,0-.5.07-2.41,0-2.67a8.52,8.52,0,0,1-4.64,2C307.5,67.59,299.91,64.88,299.91,64.88Z" transform="translate(-5.64 -11.7)"/><path class="cls-10" d="M302.8,66.47l-.82-.24s1.84-14.51,6.36-18.53c.54-.48,2.59-1.71,3.28-1.52a7.6,7.6,0,0,1,1.77.52A7.49,7.49,0,0,0,309,49.12C306.1,52.14,302.8,66.47,302.8,66.47Z" transform="translate(-5.64 -11.7)"/><path class="cls-8" d="M274.25,66.69s-4-1.9-5.51,0S268,77.48,268,80.1s4.34,2.33,4.5,1.67-1.4,2.66-1.74,3.83,2.67,2.34,5.17,2.5,7.17-1.83,7.17-1.83,1.67-13.68-1.33-15.18S274.25,66.69,274.25,66.69Z" transform="translate(-5.64 -11.7)"/><path class="cls-6" d="M287.15,130.25c-1.26-.84-2.59-.21-2.93-.26a3,3,0,0,1-3-2.48c0-.27-.05-2.51-.05-2.51l-2.08.27s-1.07,7-1.13,7.91.24,1.07,1.36,1.52,4.07-1.44,5.68-1.72S288.42,131.09,287.15,130.25Z" transform="translate(-5.64 -11.7)"/><path class="cls-6" d="M274.83,127.11c-1.26-.84-2.59-.22-2.93-.27s-1.47,0-1.92-.31c-.16-.72,1.25-4.13,1.25-4.13l-.91-.12-1.86.69s-2.78,6.13-2.84,7.06.24,1.08,1.36,1.52,4.07-1.44,5.68-1.72S276.1,128,274.83,127.11Z" transform="translate(-5.64 -11.7)"/><path class="cls-7" d="M270.74,85.6a51.77,51.77,0,0,0-1.16,5.75,154.45,154.45,0,0,0,3.49,15.26c1,3.17-5.49,16.18-5.49,17s.83,2,1.83,1.83,8.67-14.51,9.51-17.34,1.66-16,1.66-16l2.5-5.84Z" transform="translate(-5.64 -11.7)"/><path class="cls-8" d="M269.8,89.76l5.53,4.51s3.25,11.18,3.59,13.85-1,15.69-.17,17.36a1.81,1.81,0,0,0,2.67,1c.5-.34,2.83-16.18,2.83-20.94S283,85.93,283,85.93l-12.29-.33Z" transform="translate(-5.64 -11.7)"/><path class="cls-49" d="M279.47,88.81a23.4,23.4,0,0,1,2.86,4.13" transform="translate(-5.64 -11.7)"/><path class="cls-9" d="M297.15,73.52A2.14,2.14,0,1,1,295,71.37,2.14,2.14,0,0,1,297.15,73.52Z" transform="translate(-5.64 -11.7)"/><path class="cls-7" d="M281.75,71.09c-1.18-.59-2.6-1.4-3.88-2.16,1.63,6.07,3.11,12.86.85,18.81a33.15,33.15,0,0,0,4.36-1.47S284.75,72.59,281.75,71.09Z" transform="translate(-5.64 -11.7)"/><path class="cls-8" d="M276.43,68.16l5.32,2.93s1.5.54,3,4.19,4.58,6.41,5.58,6.75c0,0,3.11-6.78,3.78-7.28s1.67,0,1.65.53c-.06,2.15-1.5,11.82-3.67,12.66S275.68,77.5,275.51,74.5A20.6,20.6,0,0,1,276.43,68.16Z" transform="translate(-5.64 -11.7)"/><path class="cls-10" d="M272,84.53a.85.85,0,0,1-.53-.72,9.25,9.25,0,0,0-.7,1.79c-.33,1.17,2.67,2.34,5.17,2.5s7.17-1.83,7.17-1.83.09-.78.2-2C279.34,85.89,275.35,86.19,272,84.53Z" transform="translate(-5.64 -11.7)"/><path class="cls-50" d="M279.36,85.56a16.5,16.5,0,0,1-.64,2.18,33.15,33.15,0,0,0,4.36-1.47s.09-.78.2-2A25.89,25.89,0,0,1,279.36,85.56Z" transform="translate(-5.64 -11.7)"/><path class="cls-9" d="M283.94,63.54a5,5,0,1,1-3.68-6A5,5,0,0,1,283.94,63.54Z" transform="translate(-5.64 -11.7)"/><path class="cls-9" d="M274.87,63l-.75,5.37h0a3.23,3.23,0,0,0,3.06,1.92l.61,0,1.2-5.65Z" transform="translate(-5.64 -11.7)"/><path class="cls-51" d="M281.94,64.55a1,1,0,0,0-1.35-1.16,1.34,1.34,0,0,0-.69,1.32,3.85,3.85,0,0,0,.49,1.49,23.1,23.1,0,0,1-5.55,1.3l-1.41-3.68A5.28,5.28,0,0,1,273,62.1a6.27,6.27,0,0,1,2.11-4.26,6.59,6.59,0,0,1,5.17-1.06,5.56,5.56,0,0,1,3.59,3C284.72,61.5,282.89,63.12,281.94,64.55Z" transform="translate(-5.64 -11.7)"/><path class="cls-51" d="M277.81,54.21a7,7,0,0,0-3.46-1.43c-1.61-.3-3.42-.42-4.76.54a5.82,5.82,0,0,0-2,4.22,6.14,6.14,0,0,0,.28,3.07,5.09,5.09,0,0,0,4.23,2.71,6.47,6.47,0,0,0,4.59-1.14C278.8,60.62,280,56.15,277.81,54.21Z" transform="translate(-5.64 -11.7)"/><path class="cls-52" d="M279,57.68c-.09,2.41-1.77,5.22-4.15,5.63.07.2.09.27.12.33a5.3,5.3,0,0,0,4.58-4.2C279.71,58.65,279.43,58.36,279,57.68Z" transform="translate(-5.64 -11.7)"/><path class="cls-8" d="M273.47,69.07l.6-2.72.31.14a2.75,2.75,0,0,0-.1.73,1.37,1.37,0,0,0,.43.67,6.33,6.33,0,0,0,2.65.46,15.37,15.37,0,0,0,1.83-.29l.47,2.19-2.84.75-2.75-.75Z" transform="translate(-5.64 -11.7)"/></g></g></svg>