<svg id="Livello_1" data-name="Livello 1" xmlns="http://www.w3.org/2000/svg" xmlns:xlink="http://www.w3.org/1999/xlink" viewBox="0 0 145.73 145.73"><defs><style>.cls-1{fill:none;}.cls-2{fill:#ea504f;stroke:#eaeaea;stroke-miterlimit:10;stroke-width:4px;}.cls-3{isolation:isolate;}.cls-4{clip-path:url(#clip-path);}.cls-5{fill:#464545;}.cls-6{fill:#444443;}.cls-7{fill:#414142;}.cls-8{fill:#40403f;}.cls-9{fill:#3e3e3d;}.cls-10{fill:#3d3d3b;}.cls-11{fill:#3b3a3a;}.cls-12{fill:#393938;}.cls-13{fill:#383736;}.cls-14{fill:#353535;}.cls-15{fill:#343433;}.cls-16{fill:#333332;}.cls-17{fill:#313131;}.cls-18{fill:#2e2f2f;}.cls-19{fill:#2d2e2d;}.cls-20{fill:#2f2f2e;}.cls-21{clip-path:url(#clip-path-2);}.cls-22{clip-path:url(#clip-path-3);}.cls-23{fill:#a2bfbf;}.cls-24{fill:#9ebab9;}.cls-25{fill:#9bb6b4;}.cls-26{fill:#95b1af;}.cls-27{fill:#91acab;}.cls-28{fill:#8da7a7;}.cls-29{fill:#89a3a1;}.cls-30{fill:#879f9d;}.cls-31{fill:#819998;}.cls-32{fill:#7d9494;}.cls-33{fill:#4b4b4a;}.cls-34{clip-path:url(#clip-path-4);}.cls-35{clip-path:url(#clip-path-5);}.cls-36{fill:#6a7d7b;}.cls-37{fill:#6d8180;}.cls-38{fill:#b0cecc;}.cls-39{fill:#009fe3;}.cls-40{clip-path:url(#clip-path-6);}.cls-41{fill:#6d8280;}.cls-42{fill:#728686;}.cls-43{fill:#758b89;}.cls-44{fill:#7a8f8f;}.cls-45{fill:#b3b7b7;}.cls-46{fill:#261c35;}.cls-47{fill:#434342;}.cls-48{fill:#dce0e0;}.cls-49{fill:#36a9e1;}</style><clipPath id="clip-path" transform="translate(-5.28 -5.34)"><path class="cls-1" d="M68.91,69.74l2-1.19a.59.59,0,0,1-.26-.45l-2,1.19A.59.59,0,0,0,68.91,69.74Z"/></clipPath><clipPath id="clip-path-2" transform="translate(-5.28 -5.34)"><path class="cls-1" d="M70.89,29.13l-2,1.2s-.08.08-.08.17l2-1.2A.19.19,0,0,1,70.89,29.13Z"/></clipPath><clipPath id="clip-path-3" transform="translate(-5.28 -5.34)"><path class="cls-1" d="M70.89,29.13l-2,1.2a.17.17,0,0,1,.18,0l2-1.19A.2.2,0,0,0,70.89,29.13Z"/></clipPath><clipPath id="clip-path-4" transform="translate(-5.28 -5.34)"><path class="cls-1" d="M125.31,102.21l2-1.19a.19.19,0,0,1-.19,0l-2,1.19A.19.19,0,0,0,125.31,102.21Z"/></clipPath><clipPath id="clip-path-5" transform="translate(-5.28 -5.34)"><path class="cls-1" d="M125.31,102.21l2-1.19a.21.21,0,0,0,.07-.17L125.38,102A.2.2,0,0,1,125.31,102.21Z"/></clipPath><clipPath id="clip-path-6" transform="translate(-5.28 -5.34)"><path class="cls-1" d="M125.49,63.25l2.05-1.19a.58.58,0,0,0-.26-.46l-2,1.2A.55.55,0,0,1,125.49,63.25Z"/></clipPath></defs><title>G11_10_03</title><circle class="cls-2" cx="72.87" cy="72.87" r="70.87"/><g class="cls-3"><g class="cls-4"><g class="cls-3"><path class="cls-5" d="M68.91,69.74l2-1.19a.27.27,0,0,1-.08-.07l-2,1.19a.27.27,0,0,0,.08.07" transform="translate(-5.28 -5.34)"/><path class="cls-6" d="M68.83,69.67l2-1.19,0,0-2,1.19,0,0" transform="translate(-5.28 -5.34)"/><path class="cls-7" d="M68.8,69.64l2-1.19,0,0-2,1.19,0,0" transform="translate(-5.28 -5.34)"/><path class="cls-8" d="M68.78,69.62l2-1.19,0,0-2,1.19,0,0" transform="translate(-5.28 -5.34)"/><path class="cls-9" d="M68.76,69.59l2-1.19,0,0-2.05,1.19,0,0" transform="translate(-5.28 -5.34)"/><path class="cls-10" d="M68.74,69.57l2.05-1.19v0l-2,1.19v0" transform="translate(-5.28 -5.34)"/><path class="cls-11" d="M68.73,69.55l2-1.19v0l-2,1.2v0" transform="translate(-5.28 -5.34)"/><path class="cls-12" d="M68.72,69.53l2-1.2v0L68.71,69.5v0" transform="translate(-5.28 -5.34)"/><path class="cls-13" d="M68.71,69.5l2.05-1.19v0l-2.06,1.19,0,0" transform="translate(-5.28 -5.34)"/><path class="cls-14" d="M68.69,69.48l2.06-1.19v0l-2,1.19v0" transform="translate(-5.28 -5.34)"/><path class="cls-15" d="M68.69,69.46l2-1.19v0l-2,1.19v0" transform="translate(-5.28 -5.34)"/><path class="cls-16" d="M68.68,69.43l2-1.19v0l-2,1.2v0" transform="translate(-5.28 -5.34)"/><path class="cls-17" d="M68.67,69.41l2-1.2v0l-2,1.2v0" transform="translate(-5.28 -5.34)"/><path class="cls-18" d="M68.66,69.38l2-1.2v0l-2.06,1.19v0" transform="translate(-5.28 -5.34)"/><path class="cls-19" d="M68.65,69.34l2.06-1.19a.09.09,0,0,1,0-.05l-2,1.19v0" transform="translate(-5.28 -5.34)"/></g></g></g><polygon class="cls-20" points="63.37 63.95 65.42 62.76 65.53 23.97 63.48 25.16 63.37 63.95"/><g class="cls-3"><g class="cls-21"><g class="cls-3"><path class="cls-19" d="M68.76,30.5l2-1.2a.19.19,0,0,1,.08-.17l-2,1.2s-.08.08-.08.17" transform="translate(-5.28 -5.34)"/></g></g></g><g class="cls-3"><g class="cls-22"><g class="cls-3"><path class="cls-23" d="M69,30.34l2-1.19,0,0L69,30.33h0" transform="translate(-5.28 -5.34)"/><path class="cls-24" d="M69,30.33,71,29.13h0L69,30.32h0" transform="translate(-5.28 -5.34)"/><path class="cls-25" d="M69,30.32,71,29.12h0l-2,1.19h0" transform="translate(-5.28 -5.34)"/><path class="cls-26" d="M68.93,30.31l2-1.19h0l-2.06,1.19h0" transform="translate(-5.28 -5.34)"/><path class="cls-27" d="M68.91,30.31,71,29.12h0l-2,1.19h0" transform="translate(-5.28 -5.34)"/><path class="cls-28" d="M68.9,30.31l2-1.19h0l-2.05,1.19h0" transform="translate(-5.28 -5.34)"/><path class="cls-29" d="M68.88,30.31l2.05-1.19h0l-2,1.19h0" transform="translate(-5.28 -5.34)"/><path class="cls-30" d="M68.87,30.31l2-1.19h0l-2.05,1.19h0" transform="translate(-5.28 -5.34)"/><path class="cls-31" d="M68.85,30.32l2.05-1.19h0l-2,1.2h0" transform="translate(-5.28 -5.34)"/><polyline class="cls-32" points="63.56 24.99 65.61 23.8 65.61 23.8 63.56 24.99 63.56 24.99"/></g></g></g><polygon class="cls-33" points="119.84 96.85 121.89 95.66 65.68 63.21 63.63 64.4 119.84 96.85"/><g class="cls-3"><g class="cls-34"><g class="cls-3"><polyline class="cls-14" points="120.03 96.87 122.08 95.68 122.08 95.68 120.03 96.87 120.03 96.87"/><path class="cls-13" d="M125.3,102.21l2.06-1.19h0l-2,1.19h0" transform="translate(-5.28 -5.34)"/><path class="cls-12" d="M125.29,102.22l2-1.19h0l-2,1.19h0" transform="translate(-5.28 -5.34)"/><path class="cls-11" d="M125.28,102.22l2-1.19h0l-2,1.2h0" transform="translate(-5.28 -5.34)"/><path class="cls-10" d="M125.26,102.23l2-1.2h0l-2,1.19h0" transform="translate(-5.28 -5.34)"/><path class="cls-9" d="M125.25,102.23l2-1.19h0l-2,1.19h0" transform="translate(-5.28 -5.34)"/><path class="cls-8" d="M125.23,102.23l2-1.19h0l-2.05,1.2h0" transform="translate(-5.28 -5.34)"/><path class="cls-7" d="M125.21,102.23l2.05-1.2h0l-2,1.19h0" transform="translate(-5.28 -5.34)"/><path class="cls-6" d="M125.19,102.22l2-1.19h0l-2,1.19h0" transform="translate(-5.28 -5.34)"/><path class="cls-5" d="M125.16,102.21l2-1.19,0,0-2,1.19,0,0" transform="translate(-5.28 -5.34)"/></g></g></g><g class="cls-3"><g class="cls-35"><g class="cls-3"><path class="cls-36" d="M125.31,102.21l2-1.19a.21.21,0,0,0,.07-.17L125.38,102a.2.2,0,0,1-.07.17" transform="translate(-5.28 -5.34)"/></g></g></g><polygon class="cls-37" points="120.1 96.7 122.15 95.51 122.26 56.72 120.21 57.91 120.1 96.7"/><polygon class="cls-38" points="119.95 57.46 122 56.27 65.79 23.81 63.74 25 119.95 57.46"/><path class="cls-39" d="M69,30.34c-.14-.08-.26,0-.26.16l-.11,38.79a.59.59,0,0,0,.26.45l56.21,32.45c.14.09.26,0,.26-.15l.11-38.79a.55.55,0,0,0-.26-.45Z" transform="translate(-5.28 -5.34)"/><g class="cls-3"><g class="cls-40"><g class="cls-3"><path class="cls-36" d="M125.49,63.25l2.05-1.19V62l-2.05,1.19v0" transform="translate(-5.28 -5.34)"/><path class="cls-41" d="M125.49,63.2,127.54,62v0l-2,1.19v0" transform="translate(-5.28 -5.34)"/><path class="cls-42" d="M125.48,63.16l2-1.19v0l-2,1.19v0" transform="translate(-5.28 -5.34)"/><path class="cls-43" d="M125.48,63.13l2-1.19v0l-2,1.19v0" transform="translate(-5.28 -5.34)"/><path class="cls-44" d="M125.47,63.1l2-1.19v0l-2.05,1.19v0" transform="translate(-5.28 -5.34)"/><path class="cls-32" d="M125.46,63.08l2.05-1.19v0l-2,1.2v0" transform="translate(-5.28 -5.34)"/><path class="cls-31" d="M125.45,63.06l2-1.2v0l-2,1.19v0" transform="translate(-5.28 -5.34)"/><path class="cls-30" d="M125.44,63l2-1.19v0l-2,1.19v0" transform="translate(-5.28 -5.34)"/><path class="cls-29" d="M125.43,63l2-1.19,0,0-2,1.19,0,0" transform="translate(-5.28 -5.34)"/><path class="cls-28" d="M125.41,63l2-1.19v0l-2,1.2v0" transform="translate(-5.28 -5.34)"/><path class="cls-27" d="M125.4,63l2-1.2v0l-2,1.19v0" transform="translate(-5.28 -5.34)"/><path class="cls-26" d="M125.39,62.94l2-1.19,0,0-2,1.19,0,0" transform="translate(-5.28 -5.34)"/><path class="cls-25" d="M125.37,62.92l2-1.19,0,0-2.05,1.19,0,0" transform="translate(-5.28 -5.34)"/><path class="cls-24" d="M125.35,62.89l2.05-1.19,0,0-2.05,1.19,0,0" transform="translate(-5.28 -5.34)"/><path class="cls-23" d="M125.32,62.86l2.05-1.19-.09-.07-2,1.2.09.06" transform="translate(-5.28 -5.34)"/></g></g></g><path class="cls-45" d="M130.6,63.26v-.07l0-.08c0-.08,0-.17,0-.26a.69.69,0,0,1,0-.13s0,0,0-.06,0-.11,0-.17a.83.83,0,0,0,0-.15l0-.09a1,1,0,0,0,0-.14l0-.11-.06-.16a.76.76,0,0,0,0-.11s0,0,0,0l-.12-.3v-.06a2.56,2.56,0,0,1-.11-.24.56.56,0,0,1,0-.08.93.93,0,0,0-.05-.1l0-.1-.11-.21a.1.1,0,0,0,0-.05v0c0-.1-.11-.19-.17-.29l0,0-.06-.1-.1-.15-.07-.09-.09-.12-.07-.09a.76.76,0,0,1-.08-.11,1,1,0,0,1-.13-.16l-.06-.06-.07-.08-.23-.24-.07-.08,0,0a4.45,4.45,0,0,0-.47-.41l-.09-.07a4.3,4.3,0,0,0-.52-.35L71.08,25.59l-.42-.21,0,0-.08,0-.24-.08-.07,0h-.08l-.13,0-.09,0h-.25a.85.85,0,0,0-.16,0h-.06l-.2,0h-.09l-.1,0-.09,0,0,0h0l-.17.08h0l-2,1.19h0l.22-.1,0,0,.19-.06h.06a2,2,0,0,1,.24,0h.37l.18,0,.13,0,.15,0,.24.08.13.06a2.74,2.74,0,0,1,.42.21l56.21,32.45a4.3,4.3,0,0,1,.52.35l.09.07a4.45,4.45,0,0,1,.47.41l.11.11.23.24.13.15.13.16.15.19.09.13a2.49,2.49,0,0,1,.17.24l.06.09a3.24,3.24,0,0,1,.21.35l0,.05.16.31,0,.1c.05.11.11.21.15.32l0,.05a2.39,2.39,0,0,1,.15.37.36.36,0,0,1,0,.11l.09.26a1,1,0,0,1,0,.14,2.17,2.17,0,0,1,.07.24c0,.06,0,.12,0,.17a1.06,1.06,0,0,0,0,.19c0,.09,0,.18,0,.27s0,.09,0,.14a5.85,5.85,0,0,1,0,.59l-.11,38.79a2.34,2.34,0,0,1-1,2.15l2.05-1.19a2.34,2.34,0,0,0,1-2.15l.11-38.79A5.85,5.85,0,0,0,130.6,63.26Z" transform="translate(-5.28 -5.34)"/><path class="cls-46" d="M125.24,59.24a7.41,7.41,0,0,1,3.35,5.8l-.11,38.79c0,2.13-1.52,3-3.37,1.92L68.9,73.3a7.38,7.38,0,0,1-3.34-5.8l.11-38.79c0-2.13,1.51-3,3.36-1.92ZM68.65,69.29a.59.59,0,0,0,.26.45l56.21,32.45c.14.09.26,0,.26-.15l.11-38.79a.55.55,0,0,0-.26-.45L69,30.34c-.14-.08-.26,0-.26.16l-.11,38.79" transform="translate(-5.28 -5.34)"/><polygon class="cls-18" points="114.02 98.69 114.01 101.06 64.37 72.4 64.37 70.03 114.02 98.69"/><polygon class="cls-47" points="115.46 97.85 115.45 100.22 114.01 101.06 114.02 98.69 115.46 97.85"/><polygon class="cls-33" points="115.46 97.85 114.02 98.69 64.37 70.03 65.81 69.19 115.46 97.85"/><path class="cls-48" d="M123.39,104.72l-2.65-1.53-1.44.84L69.65,75.36l1.44-.83-3.8-2.2a7.5,7.5,0,0,0-6.81,0L27.05,91.76c-1.87,1.09-1.85,2.85,0,3.94l56.09,32.39a7.5,7.5,0,0,0,6.81,0l33.43-19.43C125.28,107.57,125.27,105.81,123.39,104.72Z" transform="translate(-5.28 -5.34)"/><path class="cls-45" d="M45.85,85.73l18.57-10.8a2.42,2.42,0,0,1,.92-.28l.34,0a3.08,3.08,0,0,1,.68.08l.16,0,.3.11.14.07,51.54,29.76c.61.36.69.91.24,1.31a1.34,1.34,0,0,1-.23.16L99.94,117a2.53,2.53,0,0,1-.93.28h-.17a2.67,2.67,0,0,1-.85-.07l-.16,0a2.08,2.08,0,0,1-.43-.19L45.85,87.2a.9.9,0,0,1-.52-.74.66.66,0,0,1,.12-.39l.08-.09A1.19,1.19,0,0,1,45.85,85.73Z" transform="translate(-5.28 -5.34)"/><path class="cls-33" d="M54.75,91l.07,0,3-1.74a.18.18,0,0,0,0-.33L55,87.3a.65.65,0,0,0-.56,0l-3,1.74a.18.18,0,0,0,0,.33L54.25,91a.35.35,0,0,0,.13.05l.15,0a.72.72,0,0,0,.22,0" transform="translate(-5.28 -5.34)"/><path class="cls-33" d="M59.1,93.59l.14,0,3-1.74a.3.3,0,0,0,.11-.12.14.14,0,0,0,0-.09.08.08,0,0,0,0,0,.3.3,0,0,0-.08-.08l-2.81-1.62a.65.65,0,0,0-.56,0l-3,1.74c-.14.08-.16.2-.06.29l0,0,2.8,1.62.13,0a.59.59,0,0,0,.23,0h.07" transform="translate(-5.28 -5.34)"/><path class="cls-33" d="M63.09,96.1a.65.65,0,0,0,.56,0l3-1.74c.16-.09.17-.24,0-.33l-2.81-1.61a.61.61,0,0,0-.56,0l-3,1.74c-.16.09-.17.24,0,.33l2.8,1.62" transform="translate(-5.28 -5.34)"/><path class="cls-33" d="M105.53,102.46c.16-.09.16-.24,0-.32l-2.8-1.62a.59.59,0,0,0-.56,0l-2.42,1.4c-.16.1-.17.24,0,.33l2.8,1.62a.65.65,0,0,0,.56,0l2.42-1.41" transform="translate(-5.28 -5.34)"/><path class="cls-33" d="M106.59,103.08l-2.42,1.4c-.16.1-.16.24,0,.33l2.81,1.62a.62.62,0,0,0,.56,0L110,105c.15-.09.16-.23,0-.32l-2.8-1.62a.61.61,0,0,0-.57,0" transform="translate(-5.28 -5.34)"/><path class="cls-33" d="M88.13,97.22a.18.18,0,0,0,0-.33l-2.8-1.62a.62.62,0,0,0-.56,0l-2.42,1.41c-.16.09-.17.24,0,.32l2.8,1.62a.61.61,0,0,0,.56,0l2.42-1.41" transform="translate(-5.28 -5.34)"/><path class="cls-33" d="M89.2,97.83l-2.43,1.41c-.15.09-.16.24,0,.33l2.81,1.61a.61.61,0,0,0,.56,0l2.42-1.41a.18.18,0,0,0,0-.33l-2.8-1.62a.65.65,0,0,0-.56,0" transform="translate(-5.28 -5.34)"/><path class="cls-33" d="M83.71,94.67c.16-.1.17-.24,0-.33l-2.81-1.62a.62.62,0,0,0-.56,0l-2.43,1.41c-.15.09-.16.23,0,.32l2.8,1.62a.59.59,0,0,0,.56,0l2.42-1.4" transform="translate(-5.28 -5.34)"/><path class="cls-33" d="M79.3,92.12c.15-.1.16-.24,0-.33l-2.8-1.62a.64.64,0,0,0-.57,0l-2.42,1.41c-.16.09-.17.23,0,.32l2.8,1.62a.59.59,0,0,0,.56,0l2.43-1.4" transform="translate(-5.28 -5.34)"/><path class="cls-33" d="M74.88,89.56c.16-.09.16-.23,0-.32l-2.81-1.62a.62.62,0,0,0-.56,0L69.1,89c-.16.09-.16.23,0,.32L71.89,91a.61.61,0,0,0,.56,0l2.43-1.41" transform="translate(-5.28 -5.34)"/><path class="cls-33" d="M69.6,91.28l-2.42,1.4c-.16.1-.17.24,0,.33L70,94.63a.64.64,0,0,0,.57,0L73,93.21c.16-.09.16-.23,0-.32l-2.8-1.62a.59.59,0,0,0-.56,0" transform="translate(-5.28 -5.34)"/><path class="cls-33" d="M71.59,95.23c-.16.1-.16.24,0,.33l2.8,1.62a.64.64,0,0,0,.57,0l2.42-1.41c.16-.09.16-.23,0-.32l-2.8-1.62a.61.61,0,0,0-.57,0l-2.42,1.4" transform="translate(-5.28 -5.34)"/><path class="cls-33" d="M76,97.78c-.16.1-.16.24,0,.33l2.8,1.62a.64.64,0,0,0,.57,0l2.42-1.41c.15-.09.16-.23,0-.32L79,96.37a.62.62,0,0,0-.43-.05.75.75,0,0,0-.13.06L76,97.78" transform="translate(-5.28 -5.34)"/><path class="cls-33" d="M80.43,100.33c-.16.1-.17.24,0,.33l2.8,1.62a.64.64,0,0,0,.57,0l2.42-1.4c.15-.1.16-.24,0-.33l-2.81-1.62a.62.62,0,0,0-.56,0l-2.42,1.4" transform="translate(-5.28 -5.34)"/><path class="cls-33" d="M84.85,102.88c-.16.1-.17.24,0,.33l2.81,1.62a.59.59,0,0,0,.56,0l2.42-1.4c.16-.1.17-.24,0-.33l-2.8-1.62a.61.61,0,0,0-.56,0l-2.42,1.4" transform="translate(-5.28 -5.34)"/><path class="cls-33" d="M89.19,105.52c-.07.09,0,.18.07.25l2.81,1.62.06,0a.73.73,0,0,0,.22,0,.57.57,0,0,0,.22,0l.06,0L95.05,106c.16-.09.17-.23,0-.32L92.26,104a.59.59,0,0,0-.56,0l-2.42,1.4a.36.36,0,0,0-.09.08" transform="translate(-5.28 -5.34)"/><path class="cls-33" d="M94.54,103.73,97,102.32a.18.18,0,0,0,0-.33l-2.8-1.61a.61.61,0,0,0-.56,0l-2.43,1.41a.18.18,0,0,0,0,.33l2.8,1.61a.61.61,0,0,0,.56,0" transform="translate(-5.28 -5.34)"/><path class="cls-33" d="M95.61,104.34a.18.18,0,0,0,0,.33l2.8,1.61a.61.61,0,0,0,.56,0l2.43-1.41c.15-.09.16-.24,0-.33l-2.8-1.61a.64.64,0,0,0-.57,0l-2.42,1.41" transform="translate(-5.28 -5.34)"/><path class="cls-33" d="M101.11,99.91c.1-.06.14-.14.12-.21a.23.23,0,0,0-.11-.11L98.32,98a.62.62,0,0,0-.43,0l-.13,0-2.42,1.41c-.12.07-.15.17-.1.25a.36.36,0,0,0,.09.08l2.8,1.61a.61.61,0,0,0,.56,0l2.42-1.41" transform="translate(-5.28 -5.34)"/><path class="cls-33" d="M96.69,97.36c.16-.09.17-.24,0-.33l-2.8-1.61a.61.61,0,0,0-.56,0l-2.42,1.41a.18.18,0,0,0,0,.33l2.8,1.61a.61.61,0,0,0,.56,0l2.42-1.41" transform="translate(-5.28 -5.34)"/><path class="cls-33" d="M92.28,94.81c.15-.09.16-.24,0-.33l-2.81-1.61a.61.61,0,0,0-.56,0L86.5,94.28a.18.18,0,0,0,0,.33l2.8,1.61a.64.64,0,0,0,.57,0l2.42-1.41" transform="translate(-5.28 -5.34)"/><path class="cls-33" d="M88,92.18c.06-.08,0-.18-.08-.25l-2.8-1.61a.09.09,0,0,0-.07,0,.58.58,0,0,0-.37,0l-.13,0-2.42,1.41a.24.24,0,0,0-.09.08c-.06.08,0,.18.08.24l2.81,1.62a.51.51,0,0,0,.35.06.73.73,0,0,0,.21-.06l2.42-1.41a.24.24,0,0,0,.09-.08" transform="translate(-5.28 -5.34)"/><path class="cls-33" d="M83.44,89.71a.18.18,0,0,0,0-.33l-2.8-1.62a.67.67,0,0,0-.57,0l-2.42,1.41c-.16.09-.16.23,0,.32l2.8,1.62a.59.59,0,0,0,.56,0l2.42-1.4" transform="translate(-5.28 -5.34)"/><path class="cls-33" d="M79,87.16a.18.18,0,0,0,0-.33l-2.8-1.62a.61.61,0,0,0-.56,0l-2.42,1.41c-.16.09-.17.23,0,.32L76,88.57a.59.59,0,0,0,.56,0L79,87.16" transform="translate(-5.28 -5.34)"/><path class="cls-33" d="M74.66,84.57a.16.16,0,0,0,0-.21.24.24,0,0,0-.09-.08l-2.8-1.62a.61.61,0,0,0-.56,0l-2.42,1.41c-.16.09-.17.23,0,.32L71.62,86a.59.59,0,0,0,.56,0l2.42-1.4.06,0" transform="translate(-5.28 -5.34)"/><path class="cls-33" d="M70.19,82.06c.15-.1.16-.24,0-.33l-2.81-1.62a.62.62,0,0,0-.56,0l-2.42,1.4c-.16.1-.16.24,0,.33l2.8,1.62.06,0a.64.64,0,0,0,.51,0l2.42-1.4" transform="translate(-5.28 -5.34)"/><path class="cls-33" d="M67.67,85.07a.64.64,0,0,0-.57,0l-2.42,1.4c-.16.1-.16.24,0,.33l2.81,1.62a.62.62,0,0,0,.56,0L70.46,87c.16-.09.16-.23,0-.32l-2.8-1.62" transform="translate(-5.28 -5.34)"/><path class="cls-33" d="M65.18,88.72l-2.42,1.41c-.16.09-.17.24,0,.33l2.81,1.62a.62.62,0,0,0,.56,0l2.42-1.41c.16-.09.17-.24,0-.32l-2.8-1.62a.61.61,0,0,0-.56,0" transform="translate(-5.28 -5.34)"/><path class="cls-33" d="M80.76,106.3a.64.64,0,0,0,.57,0l3-1.74c.15-.09.16-.24,0-.32l-1.11-.64-1.69-1-1.62-.93-2.8-1.62-1.62-.93-2.8-1.62L68.27,95a.61.61,0,0,0-.56,0l-3,1.74c-.16.09-.17.24,0,.33l4.41,2.55,2.81,1.62,1.61.93,2.8,1.62,1.62.93,1.7,1,1.1.64" transform="translate(-5.28 -5.34)"/><path class="cls-33" d="M85.18,108.85a.62.62,0,0,0,.56,0l3-1.74c.16-.09.17-.23,0-.32l-2.8-1.62a.62.62,0,0,0-.56,0l-3,1.74c-.16.09-.16.23,0,.32l2.8,1.62" transform="translate(-5.28 -5.34)"/><path class="cls-33" d="M89.6,111.4a.62.62,0,0,0,.56,0l3-1.74c.16-.09.16-.23,0-.32l-2.8-1.62a.62.62,0,0,0-.56,0l-3,1.74c-.16.09-.17.24,0,.32l2.8,1.62" transform="translate(-5.28 -5.34)"/><path class="cls-33" d="M94,114a.59.59,0,0,0,.56,0l3-1.74c.16-.09.17-.23,0-.32l-2.8-1.62a.61.61,0,0,0-.56,0l-3,1.74c-.16.09-.17.24,0,.32L94,114" transform="translate(-5.28 -5.34)"/><path class="cls-33" d="M102,114.76a.18.18,0,0,0,0-.33l-2.8-1.62a.61.61,0,0,0-.56,0l-3,1.74c-.16.09-.17.24,0,.32l2.8,1.62a.61.61,0,0,0,.57,0l3-1.73" transform="translate(-5.28 -5.34)"/><path class="cls-33" d="M106.12,112.36c.15-.09.16-.24,0-.33l-9.25-5.34a.55.55,0,0,0-.47,0l-2.52,1.47c-.13.07-.14.2,0,.27l9.26,5.34a.64.64,0,0,0,.57,0l2.42-1.41" transform="translate(-5.28 -5.34)"/><path class="cls-33" d="M110.23,110c.13-.08.15-.2,0-.29l0,0-4.42-2.56-.77-.44-2-1.17a.61.61,0,0,0-.56,0L100,106.89a.24.24,0,0,0-.11.12c0,.08,0,.15.1.21l1.48.86.55.31.77.45,4.42,2.55a.67.67,0,0,0,.35.06.65.65,0,0,0,.21-.07l2.43-1.41" transform="translate(-5.28 -5.34)"/><path class="cls-33" d="M114.37,107.56a.17.17,0,0,0,0-.33l-2.79-1.61a.61.61,0,0,0-.56,0L108.59,107c-.16.09-.16.23,0,.32l2.79,1.61a.59.59,0,0,0,.56,0l2.43-1.41" transform="translate(-5.28 -5.34)"/><path class="cls-33" d="M114.75,103.78a.61.61,0,0,0-.56,0l-1.49.87c-.15.08-.15.23,0,.32l2.79,1.61a.64.64,0,0,0,.57,0l1.49-.86a.18.18,0,0,0,0-.33l-2.79-1.61" transform="translate(-5.28 -5.34)"/><path class="cls-33" d="M110.33,101.23a.61.61,0,0,0-.56,0l-1.48.86a.18.18,0,0,0,0,.33l2.8,1.61a.61.61,0,0,0,.56,0l1.48-.86a.18.18,0,0,0,0-.33l-2.8-1.61" transform="translate(-5.28 -5.34)"/><path class="cls-33" d="M105.91,98.68a.61.61,0,0,0-.56,0l-1.48.86a.18.18,0,0,0,0,.33l2.8,1.61a.61.61,0,0,0,.56,0l1.48-.86a.18.18,0,0,0,0-.33l-2.8-1.61" transform="translate(-5.28 -5.34)"/><path class="cls-33" d="M101.49,96.12a.65.65,0,0,0-.56,0L99.45,97c-.15.09-.16.24,0,.33l2.8,1.61a.64.64,0,0,0,.57,0l1.47-.86c.16-.09.17-.24,0-.33l-2.8-1.62" transform="translate(-5.28 -5.34)"/><path class="cls-33" d="M97.07,93.57a.65.65,0,0,0-.56,0L95,94.44c-.16.09-.17.24,0,.32l2.81,1.62a.59.59,0,0,0,.56,0l1.47-.85c.16-.09.17-.24,0-.33l-2.81-1.62" transform="translate(-5.28 -5.34)"/><path class="cls-33" d="M92.3,91a.65.65,0,0,0-.21.07l-1.47.86-.05,0a.16.16,0,0,0,0,.29l2.8,1.62.06,0a.61.61,0,0,0,.44,0,.09.09,0,0,0,.06,0L95.45,93a.36.36,0,0,0,.09-.08.16.16,0,0,0,0-.09.19.19,0,0,0-.11-.16L92.66,91l-.14,0a.81.81,0,0,0-.22,0" transform="translate(-5.28 -5.34)"/><path class="cls-33" d="M88.24,88.47a.64.64,0,0,0-.57,0l-1.47.86c-.16.09-.17.23,0,.32L89,91.28l.13,0a.76.76,0,0,0,.3,0,.52.52,0,0,0,.13-.06L91,90.42c.1-.06.14-.14.11-.21a.17.17,0,0,0-.1-.12l-2.8-1.62" transform="translate(-5.28 -5.34)"/><path class="cls-33" d="M83.54,85.86a.57.57,0,0,0-.29.07l-1.47.86c-.16.09-.16.23,0,.32l2.8,1.62.13,0a.61.61,0,0,0,.3,0,.25.25,0,0,0,.13,0l1.48-.86c.16-.09.16-.23,0-.32l-2.8-1.62a.64.64,0,0,0-.28-.06" transform="translate(-5.28 -5.34)"/><path class="cls-33" d="M79.4,83.37a.61.61,0,0,0-.56,0l-1.48.85c-.16.1-.16.24,0,.33l2.81,1.62a.62.62,0,0,0,.56,0l1.47-.86c.16-.09.17-.23,0-.32l-2.8-1.62" transform="translate(-5.28 -5.34)"/><path class="cls-33" d="M75,80.82a.59.59,0,0,0-.56,0l-1.48.85c-.15.09-.16.24,0,.33l2.81,1.62a.62.62,0,0,0,.56,0l1.48-.86c.15-.09.16-.23,0-.32L75,80.82" transform="translate(-5.28 -5.34)"/><path class="cls-33" d="M70.56,78.27a.61.61,0,0,0-.56,0l-1.48.86c-.15.09-.16.24,0,.33l2.81,1.62a.62.62,0,0,0,.56,0l1.48-.86c.15-.09.16-.24,0-.32l-2.81-1.62" transform="translate(-5.28 -5.34)"/><path class="cls-33" d="M64.1,76.59a.17.17,0,0,0,0,.32l2.79,1.61a.64.64,0,0,0,.57,0L69,77.66a.18.18,0,0,0,0-.33l-2.79-1.61a.61.61,0,0,0-.56,0l-1.49.87" transform="translate(-5.28 -5.34)"/><path class="cls-33" d="M60,79c-.16.09-.16.23,0,.32l2.79,1.62a.65.65,0,0,0,.56,0l2.43-1.42c.16-.09.16-.23,0-.32L63,77.56a.61.61,0,0,0-.56,0L60,79" transform="translate(-5.28 -5.34)"/><path class="cls-33" d="M55.85,81.38c-.16.09-.17.24,0,.33l2.42,1.39.39.23,4.42,2.55a.62.62,0,0,0,.56,0L66,84.46c.16-.09.16-.23,0-.32l-4.41-2.55-.39-.23L58.83,80a.61.61,0,0,0-.56,0l-2.42,1.41" transform="translate(-5.28 -5.34)"/><path class="cls-33" d="M51.69,83.8a.17.17,0,0,0-.1.14s0,.09.09.13l9.26,5.34a.61.61,0,0,0,.56,0L63.92,88c.12-.07.15-.17.1-.25a.36.36,0,0,0-.09-.08l-9.26-5.34a.28.28,0,0,0-.16,0,.51.51,0,0,0-.25,0l0,0L51.69,83.8" transform="translate(-5.28 -5.34)"/><path class="cls-33" d="M47,86.5c-.13.08-.16.2-.06.29l.05,0,2.81,1.62a.49.49,0,0,0,.28.07.85.85,0,0,0,.22,0l.06,0,3-1.74a.36.36,0,0,0,.09-.08c.06-.08,0-.18-.08-.25l-2.8-1.62-.13,0a.66.66,0,0,0-.44.06L47,86.5" transform="translate(-5.28 -5.34)"/><path class="cls-45" d="M124.8,106.84c0,.06,0,.11,0,.16l0,.12s0,.1,0,.14a.61.61,0,0,0,0,.12l-.07.15-.07.11-.11.17-.08.09a2.09,2.09,0,0,1-.2.22l-.08.08-.15.12-.13.11-.18.11-.18.12L90,128.09l-.45.23-.14.06-.38.14-.14,0-.24.07-.19.05-.27.06-.18,0-.55.08h-.17l-.32,0h-.7l-.24,0-.22,0-.24,0-.22,0-.25-.05-.2,0-.3-.07-.17-.05a3.81,3.81,0,0,1-.51-.17l-.07,0a5,5,0,0,1-.66-.31L27.08,95.7a2.76,2.76,0,0,1-1.33-1.45,1.7,1.7,0,0,1-.09-.54v2.38a2.39,2.39,0,0,0,1.42,2l56.1,32.39a4.33,4.33,0,0,0,.65.31l0,0h0l.51.18h0l.12,0,.3.07.08,0,.12,0,.25.05.11,0h.11l.24,0H86l.25,0h.69l.33,0h.17a5,5,0,0,0,.54-.08h0l.15,0,.27-.06.19-.05.25-.07,0,0,.09,0,.37-.14.14-.06a3.17,3.17,0,0,0,.45-.23L123.4,111l.06,0a.91.91,0,0,1,.13-.08l.17-.12a.69.69,0,0,0,.13-.11l.15-.12,0,0,.05-.06a2.18,2.18,0,0,0,.21-.22l0,0,0,0,.12-.17,0-.07s0,0,0,0a1,1,0,0,0,.07-.15.59.59,0,0,1,0-.08,0,0,0,0,0,0,0,.83.83,0,0,0,0-.15l0-.1v0a.77.77,0,0,0,0-.15s0-.07,0-.1V106.7S124.8,106.8,124.8,106.84Z" transform="translate(-5.28 -5.34)"/><path class="cls-33" d="M118.39,112.28c.3-.17.54,0,.54.31a1.2,1.2,0,0,1-.53.93l-2.77,1.6a.33.33,0,0,1-.54-.31,1.22,1.22,0,0,1,.54-.94Z" transform="translate(-5.28 -5.34)"/><path class="cls-33" d="M113,115.42c.3-.18.54,0,.54.31a1.18,1.18,0,0,1-.54.93l-2.76,1.59c-.3.18-.54,0-.54-.3a1.19,1.19,0,0,1,.54-.94Z" transform="translate(-5.28 -5.34)"/><path class="cls-12" d="M121.88,110.16c.33-.2.61,0,.61.35a1.35,1.35,0,0,1-.61,1.06c-.34.19-.61,0-.61-.35A1.31,1.31,0,0,1,121.88,110.16Z" transform="translate(-5.28 -5.34)"/><path class="cls-49" d="M69,30.34c-.14-.08-.26,0-.26.16l-.11,38.79a.59.59,0,0,0,.26.45l12.29,7.1c.15.08,33.89-19.9,33.89-19.9Z" transform="translate(-5.28 -5.34)"/><path class="cls-45" d="M78.78,108.6a.65.65,0,0,1,0,1.23l-9.54,5.54a2.33,2.33,0,0,1-2.12,0L47.38,104a.65.65,0,0,1,0-1.23l9.55-5.54a2.33,2.33,0,0,1,2.12,0Z" transform="translate(-5.28 -5.34)"/></svg>