<svg xmlns="http://www.w3.org/2000/svg" viewBox="0 0 147.4 147.4"><defs><style>.cls-1{fill:#fff;}.cls-2{fill:#201b18;}.cls-3{fill:#e30613;}</style></defs><title>G11_08_01</title><g id="Mobile"><polygon class="cls-1" points="73.97 9.43 9.51 73.65 73.97 137.97 138.1 73.65 73.97 9.43"/><g id="g111"><path id="path113" class="cls-2" d="M96.88,51.88l-25.49,28L97.81,52.82l-.93-.94" transform="translate(-4.25 -3.98)"/></g><g id="g115"><path id="path117" class="cls-2" d="M115,69.16,73.25,79.9l42.25-9.81-.47-.93" transform="translate(-4.25 -3.98)"/></g><g id="g119"><path id="path121" class="cls-2" d="M114.57,84.1,75.46,82.7l40,1.87-.93-.47" transform="translate(-4.25 -3.98)"/></g><g id="g123"><path id="path125" class="cls-2" d="M97.81,62.15,74.18,79,97.81,64V62.15" transform="translate(-4.25 -3.98)"/></g><g id="g127"><path id="path129" class="cls-2" d="M87.1,91.57l-12.45-7L87.57,92.5l-.47-.93" transform="translate(-4.25 -3.98)"/></g><g id="g131"><path id="path133" class="cls-2" d="M103.4,63.09,102.93,65l1.86.93,1.4-1.4L109,66.36V63.09l-1.86-3.27-.93,2.8h-2.33l-.46.47" transform="translate(-4.25 -3.98)"/></g><g id="g135"><path id="path137" class="cls-2" d="M88.5,81.3,89,83.17l2.33-.47.93.93H95l1.86-1.87-2.8-1.4-2.32-.93-1.4,1.4-1.86.47" transform="translate(-4.25 -3.98)"/></g><g id="g139"><path id="path141" class="cls-2" d="M94.55,69.63l.93-.94,2.79,2.8L94.08,71l.47-.94v-.46" transform="translate(-4.25 -3.98)"/></g><g id="g143"><path id="path145" class="cls-2" d="M82.45,61.69,82,63.56l.93.93h.47l.93-1.4v-.94l-.47-1.4-.46.47-.47-.47-.46.94" transform="translate(-4.25 -3.98)"/></g><g id="g147"><path id="path149" class="cls-2" d="M120.62,73.36,74.18,81.3l46.44-6.54v-1.4" transform="translate(-4.25 -3.98)"/></g><g id="g151"><path id="path153" class="cls-2" d="M84.31,93.9,73.25,85.5l11.52,9.34-.46-.94" transform="translate(-4.25 -3.98)"/></g><g id="g155"><path id="path157" class="cls-2" d="M90.36,72l-14,6.54,14-5.61V72" transform="translate(-4.25 -3.98)"/></g><g id="g159"><path id="path161" class="cls-2" d="M61.61,82.7l3.26.93,2.79-2.33,3.73,3.27,2.79-1.87V80.83l1.75,1.4.46.94.93.46h.47c-3.1,9.18-14.57,8.56-16.64-.93h.46" transform="translate(-4.25 -3.98)"/></g><g id="g163"><path id="path165" class="cls-2" d="M76.86,75.23l-3.14-2.8-4.19-.94-2.8.47-2.79,1.87-1.86,1.86-.93,2.81,1.39,1.4,3.26-.47,3.73,1.87L71.39,79l-.93-2.33,2.79.47.47-1.87h3.14" transform="translate(-4.25 -3.98)"/></g><g id="g167"><path id="path169" class="cls-2" d="M40.2,90.17,64.87,84.1,40.2,89.7v.47" transform="translate(-4.25 -3.98)"/></g><g id="g171"><path id="path173" class="cls-2" d="M40.66,81.76l22.81.94L40.2,81.3l.46.46" transform="translate(-4.25 -3.98)"/></g><g id="g175"><path id="path177" class="cls-2" d="M50.44,92.5l13.5-7.93L50.44,92v.46" transform="translate(-4.25 -3.98)"/></g><g id="g179"><path id="path181" class="cls-2" d="M56.49,77.56l7.45,3.74L56,77.1l.46.46" transform="translate(-4.25 -3.98)"/></g><g id="g183"><path id="path185" class="cls-2" d="M52.3,79.9l11.17,1.86-10.7-2.33-.47.47" transform="translate(-4.25 -3.98)"/></g><g id="g187"><path id="path189" class="cls-2" d="M47.18,93.9l.47-.93-1.4-.47-.47.47L44.39,92l-.47,1.86,1.4,1.87.46-1.4h.93l.47-.47" transform="translate(-4.25 -3.98)"/></g><g id="g191"><path id="path193" class="cls-2" d="M55.56,83.63v-1.4l-1.4.47-.46-.94H51.84l-.94,1.41,1.4.93,1.86.47.47-.94h.93" transform="translate(-4.25 -3.98)"/></g><g id="g195"><path id="path197" class="cls-2" d="M52.3,89.24l-.93.46L50,88.3H52.3v.94" transform="translate(-4.25 -3.98)"/></g><g id="g199"><path id="path201" class="cls-2" d="M61.61,92.5l.47-1.4-.93-.46h-1.4L58.35,92l.93.93.94-.47.46.47.93-.47" transform="translate(-4.25 -3.98)"/></g><g id="g203"><path id="path205" class="cls-2" d="M32.75,87.83l31.19-4.2L32.75,87.37v.46" transform="translate(-4.25 -3.98)"/></g><g id="g207"><path id="path209" class="cls-2" d="M58.35,76.16l6.52,4.67-7-5.14.46.47" transform="translate(-4.25 -3.98)"/></g><g id="g211"><path id="path213" class="cls-2" d="M54.63,87.83,63,85l-8.38,2.34v.46" transform="translate(-4.25 -3.98)"/></g><g id="g215"><path id="path217" class="cls-2" d="M79.19,71.49l-1.87,1.4.47.94,1.86-.94.47,1.4,3.26-2.8,1.39-2.8L82,71H80.12l-.93.46" transform="translate(-4.25 -3.98)"/></g><g id="g219"><path id="path221" class="cls-2" d="M72.32,57l.47-2.34.93.47.46-1.4H75l.93,2.8L74.65,58l-.93,1.4-.47-1.86L72.32,57" transform="translate(-4.25 -3.98)"/></g><g id="g223"><path id="path225" class="cls-2" d="M43.92,84.1l.93-.47,2.8,1.87L43.46,85v-.46l.46-.47" transform="translate(-4.25 -3.98)"/></g><g id="g227"><path id="path229" class="cls-2" d="M81.05,87.37l1.86,1.4,2.79.47L88,89.7V88.3l-.93-.93-3.26-.94-.46.47-1.87-.47-.46.94" transform="translate(-4.25 -3.98)"/></g><g id="g231"><path id="path233" class="cls-2" d="M50.44,99,66.27,84.57,49.51,98.11l.93.93" transform="translate(-4.25 -3.98)"/></g><g id="g235"><path id="path237" class="cls-2" d="M88.5,95.31,71.39,82.7,88,95.77l.47-.46" transform="translate(-4.25 -3.98)"/></g><g id="g239"><path id="path241" class="cls-2" d="M94.08,86.9,75,84.1l18.62,4.67.46-1.87" transform="translate(-4.25 -3.98)"/></g><g id="g243"><path id="path245" class="cls-2" d="M82.45,57,74.18,73.36l9.2-15.87L82.45,57" transform="translate(-4.25 -3.98)"/></g><g id="g247"><path id="path249" class="cls-2" d="M77.32,52.35,72.32,72l5.94-19.14-.94-.47" transform="translate(-4.25 -3.98)"/></g><g id="g251"><path id="path253" class="cls-2" d="M82.91,42.54,72.32,72.43l1.86.93L84.77,43.48l-1.86-.94" transform="translate(-4.25 -3.98)"/></g><path class="cls-3" d="M78.11,4,4.25,77.74l73.86,73.64,73.54-73.64ZM18.53,77.63,78.21,18.18l59.37,59.45L78.21,137.19Z" transform="translate(-4.25 -3.98)"/></g></svg>