<svg xmlns="http://www.w3.org/2000/svg" xmlns:xlink="http://www.w3.org/1999/xlink" viewBox="0 0 145.73 145.73"><defs><style>.cls-1{fill:#ea504f;stroke:#eaeaea;stroke-miterlimit:10;stroke-width:4px;}.cls-2{fill:#454544;}.cls-3{fill:#f9b233;}.cls-4{fill:#f39200;}.cls-5{fill:#36a9e1;fill-rule:evenodd;}.cls-6{opacity:0.2;fill:url(#Sfumatura_senza_nome_3);}.cls-7{fill:#1d71b8;}.cls-8{fill:#008d36;}.cls-9{fill:#be1622;}.cls-10{fill:#9ea6b0;}</style><linearGradient id="Sfumatura_senza_nome_3" x1="-260.41" y1="51.95" x2="-260.41" y2="81.43" gradientTransform="matrix(-1, 0, 0, 1, -189.75, 0)" gradientUnits="userSpaceOnUse"><stop offset="0" stop-color="#fff"/><stop offset="1" stop-opacity="0"/></linearGradient></defs><title>G11_09_05</title><g id="Mobile"><circle class="cls-1" cx="72.87" cy="72.87" r="70.87"/><rect class="cls-2" x="45.37" y="19.01" width="55" height="89.72" rx="2" ry="2"/><path class="cls-3" d="M103.37,131.72h-51a2,2,0,0,1-2-2V28h55V129.72A2,2,0,0,1,103.37,131.72Z" transform="translate(-5.01 -4.99)"/><path class="cls-4" d="M69.4,35.35l5,8.79a4.52,4.52,0,0,0,7.83,0l5-8.79a3.63,3.63,0,0,0-2.13-4.93L80,29a4,4,0,0,0-3.29,0l-5.14,1.42A3.46,3.46,0,0,0,69.4,35.35Z" transform="translate(-5.01 -4.99)"/><rect class="cls-2" x="47.12" y="43.84" width="51.5" height="29.33"/><path class="cls-5" d="M54.37,50.67h47c.09,0,.17,0,.17,0V76.62s-.08,0-.17,0h-47c-.09,0-.16,0-.16,0V50.71S54.28,50.67,54.37,50.67Z" transform="translate(-5.01 -4.99)"/><path class="cls-6" d="M54.9,76.67H67.84l19.26-26H54.9c-.38,0-.69.12-.69.28V76.38C54.21,76.54,54.52,76.67,54.9,76.67Z" transform="translate(-5.01 -4.99)"/><rect class="cls-2" x="54.28" y="81.24" width="8.07" height="8.07"/><rect class="cls-2" x="63.79" y="81.24" width="8.07" height="8.07"/><rect class="cls-2" x="73.31" y="81.24" width="8.07" height="8.07"/><rect class="cls-2" x="54.28" y="90.99" width="8.07" height="8.07"/><rect class="cls-2" x="63.79" y="90.99" width="8.07" height="8.07"/><rect class="cls-2" x="73.31" y="90.99" width="8.07" height="8.07"/><rect class="cls-2" x="54.28" y="100.74" width="8.07" height="8.07"/><rect class="cls-2" x="63.79" y="100.74" width="8.07" height="8.07"/><rect class="cls-2" x="73.31" y="100.74" width="8.07" height="8.07"/><rect class="cls-7" x="83.06" y="81.24" width="8.07" height="8.07"/><rect class="cls-8" x="83.06" y="90.99" width="8.07" height="8.07"/><rect class="cls-9" x="83.06" y="100.74" width="8.07" height="8.07"/><path class="cls-10" d="M78.31,30.38h0a2.15,2.15,0,0,1,2.15,2l.64,9a2.79,2.79,0,0,1-2.79,3h0a2.79,2.79,0,0,1-2.78-3l.64-9A2.15,2.15,0,0,1,78.31,30.38Z" transform="translate(-5.01 -4.99)"/></g></svg>