<svg id="Livello_1" data-name="Livello 1" xmlns="http://www.w3.org/2000/svg" viewBox="0 0 145.73 145.73"><defs><style>.cls-1{fill:#ea504f;stroke:#eaeaea;stroke-miterlimit:10;stroke-width:4px;}.cls-2{fill:#eaeaea;}.cls-2,.cls-3,.cls-5,.cls-6{fill-rule:evenodd;}.cls-3{fill:#009fe3;}.cls-4,.cls-5{fill:#261c35;}.cls-6{fill:#36a9e1;}</style></defs><title>G11_10_01</title><circle class="cls-1" cx="72.87" cy="72.87" r="70.87"/><path class="cls-2" d="M58.82,29.47h41.51c5.77,0,4.35,4.73,4.35,10.5v79.19c0,5.78,1.42,10.5-4.35,10.5H58.82c-5.77,0-5-4.72-5-10.5V40C53.85,34.2,53.05,29.47,58.82,29.47Z" transform="translate(-6.46 -6.7)"/><path class="cls-3" d="M58.47,37.87h43.59a.15.15,0,0,1,.15.15v82.25a.14.14,0,0,1-.15.15H58.47c-.08,0-4.15-.06-4.15-.15V38C54.32,37.94,58.39,37.87,58.47,37.87Z" transform="translate(-6.46 -6.7)"/><rect class="cls-4" x="64.34" y="25.25" width="16.93" height="1.52" rx="0.76" ry="0.76"/><path class="cls-5" d="M79.27,127.47a2.57,2.57,0,1,0-2.57-2.57A2.57,2.57,0,0,0,79.27,127.47Z" transform="translate(-6.46 -6.7)"/><path class="cls-6" d="M58.47,37.87h41.59c.09,0,4.15.07,4.15.15v82.25c0,.09-4.06.15-4.15.15L58.32,38A.15.15,0,0,1,58.47,37.87Z" transform="translate(-6.46 -6.7)"/></svg>