<svg xmlns="http://www.w3.org/2000/svg" viewBox="0 0 145.73 145.73"><defs><style>.cls-1,.cls-5{fill:#ea504f;}.cls-1{stroke:#eaeaea;stroke-miterlimit:10;stroke-width:4px;}.cls-2{fill:none;}.cls-3{fill:#f5ad1f;}.cls-4{fill:#454544;}</style></defs><title>G11_09_04</title><g id="Mobile"><circle class="cls-1" cx="72.87" cy="72.87" r="70.87"/><path class="cls-2" d="M33.05,119.17l3.5,3.5.58-.57a.91.91,0,0,0,.25-.53l-3.23-3.23a.85.85,0,0,0-.53.25Z" transform="translate(-4.93 -5.09)"/><path class="cls-2" d="M121.67,36.46a1,1,0,0,0-.63-.32,1.24,1.24,0,0,0-.4,0l1.25,1.24a.76.76,0,0,0,.09-.35A1,1,0,0,0,121.67,36.46Z" transform="translate(-4.93 -5.09)"/><path class="cls-3" d="M47.93,104.15a1.09,1.09,0,0,0-.36.92,2,2,0,0,0,.62,1l1.41,1.41a2,2,0,0,0,1.06.63,1.1,1.1,0,0,0,.92-.36,1.11,1.11,0,0,0,.36-.93,2,2,0,0,0-.62-1.06l-1.41-1.41a1.85,1.85,0,0,0-1-.6A1.1,1.1,0,0,0,47.93,104.15Z" transform="translate(-4.93 -5.09)"/><path class="cls-3" d="M37.79,114.3a1,1,0,0,0-.36.91,1.88,1.88,0,0,0,.61,1.05l1.41,1.41a2,2,0,0,0,1.06.62,1,1,0,0,0,.92-.36,1.09,1.09,0,0,0,.36-.92,1.86,1.86,0,0,0-.62-1.06l-1.41-1.41a1.82,1.82,0,0,0-1-.61A1.1,1.1,0,0,0,37.79,114.3Z" transform="translate(-4.93 -5.09)"/><path class="cls-3" d="M96.88,55.2a1.09,1.09,0,0,0-.36.92,1.88,1.88,0,0,0,.62,1l1.41,1.41a1.86,1.86,0,0,0,1.06.63,1.23,1.23,0,0,0,1.28-1.29,2,2,0,0,0-.62-1.06l-1.41-1.41a1.85,1.85,0,0,0-1-.6A1.09,1.09,0,0,0,96.88,55.2Z" transform="translate(-4.93 -5.09)"/><path class="cls-3" d="M65,87.12a1,1,0,0,0-.36.91,1.88,1.88,0,0,0,.61,1l1.41,1.41a2,2,0,0,0,1.06.62,1,1,0,0,0,.92-.36,1.09,1.09,0,0,0,.36-.92,1.86,1.86,0,0,0-.62-1.06l-1.41-1.41a1.85,1.85,0,0,0-1-.61A1.12,1.12,0,0,0,65,87.12Z" transform="translate(-4.93 -5.09)"/><path class="cls-3" d="M60.91,91.31l-.54.53,1.49,1.49.53-.53a.86.86,0,0,0,.29-.66,1.13,1.13,0,0,0-.37-.7,1.32,1.32,0,0,0-.72-.4A.78.78,0,0,0,60.91,91.31Z" transform="translate(-4.93 -5.09)"/><path class="cls-3" d="M86.74,65.35a1.06,1.06,0,0,0-.37.91,2,2,0,0,0,.62,1l1.41,1.41a2,2,0,0,0,1.06.62,1,1,0,0,0,.92-.36,1.09,1.09,0,0,0,.36-.92A1.89,1.89,0,0,0,90.12,67l-1.41-1.41a1.88,1.88,0,0,0-1-.61A1.11,1.11,0,0,0,86.74,65.35Z" transform="translate(-4.93 -5.09)"/><path class="cls-3" d="M37.36,121.12a2.5,2.5,0,0,0-.73-1.2l-.84-.84a2.45,2.45,0,0,0-1.19-.72,1.15,1.15,0,0,0-.45,0l3.23,3.23A1.15,1.15,0,0,0,37.36,121.12Z" transform="translate(-4.93 -5.09)"/><path class="cls-3" d="M122.65,38.2a2.76,2.76,0,0,1-.23.27,2.69,2.69,0,0,1-1.62.82,2,2,0,0,1-1.7-.72l0,0,1-.95a1.45,1.45,0,0,0,.87.49,1,1,0,0,0,.78-.36,1.12,1.12,0,0,0,.21-.29l-1.25-1.24a2.75,2.75,0,0,0-.49.16,5,5,0,0,1-1.78.54,1.69,1.69,0,0,1-1.35-.57,1.81,1.81,0,0,1-.57-1.45,2.37,2.37,0,0,1,.75-1.53,3.82,3.82,0,0,1,.32-.27l-3.75-3.76-.51.51-1.43-2.45L109,24.54,105.56,28l3.52,6-3.52,3.52-3.52-6-4.17,4.17,3.52,6-3.52,3.52-3.52-6-4.18,4.18,3.52,6L90.17,52.9l-3.52-6-4.17,4.17,3.52,6L82.48,60.6l-3.52-6-4.18,4.17,3.52,6L74.78,68.3l-3.52-6-4.17,4.17,3.52,6L67.09,76l-3.53-6-4.17,4.17,3.52,6-3.52,3.52-3.52-6L51.7,81.84l3.52,6L51.7,91.38l-3.53-6L44,89.53l3.52,6L44,99.08l-3.52-6L36.3,97.23l3.53,6-3.53,3.52-3.52-6-4.17,4.17,3.52,6-2.69,2.68,3.85,3.85a2.3,2.3,0,0,1,1.46-.36,3.16,3.16,0,0,1,2,1l.83.83a3.13,3.13,0,0,1,1,2,2.36,2.36,0,0,1-.36,1.46l5.17,5.17-1.17-2,3.52-3.52,3.52,6,4.17-4.17-3.52-6,3.52-3.52,3.52,6,4.18-4.18-3.52-6,3.52-3.52,3.52,6,4.17-4.17-3.52-6L68.84,99l3.52,6,4.18-4.18-3.52-6,3.52-3.52,3.52,6,4.17-4.17-3.52-6,3.52-3.52,3.52,6,4.18-4.18-3.52-6,3.52-3.52,3.52,6,4.17-4.17-3.52-6,3.52-3.52,3.52,6,4.18-4.18-3.52-6,3.52-3.52,3.52,6L115,62.36l-3.52-6L115,52.81l3.53,6,4.17-4.18-3.52-6,3.52-3.52,3.52,6L130.41,47,129,44.52ZM42.14,115a2.62,2.62,0,0,1,.89,1.89,2.88,2.88,0,0,1-2.66,2.66,2.68,2.68,0,0,1-1.89-.89l-1.4-1.4a2.7,2.7,0,0,1-.89-1.88,2.51,2.51,0,0,1,.83-1.83,2.56,2.56,0,0,1,1.83-.84,2.7,2.7,0,0,1,1.89.89Zm7.62-4-1,1L44,110.34v0l3.2,3.2-1,1-5-5,1-1L47,110.16l0,0-3.21-3.21,1-1Zm2.53-6.15a2.66,2.66,0,0,1,.89,1.89,2.63,2.63,0,0,1-.84,1.83,2.54,2.54,0,0,1-1.83.83,2.66,2.66,0,0,1-1.88-.89l-1.4-1.4a2.64,2.64,0,0,1-.89-1.88A2.83,2.83,0,0,1,49,102.55a2.65,2.65,0,0,1,1.89.88Zm1.16-6.06L52.27,100l4.26,4.26-1,1-4.26-4.27-1.15,1.15-.76-.76L52.69,98Zm6.14-4.55-1,1a1.49,1.49,0,0,0-.85-.51A1,1,0,0,0,57,95a.89.89,0,0,0-.29.81,2.15,2.15,0,0,0,.63,1l1.5,1.5a1.89,1.89,0,0,0,1,.61,1,1,0,0,0,.86-.33.92.92,0,0,0,.33-.71,1.63,1.63,0,0,0-.53-.84l1-.94h0a2.17,2.17,0,0,1,.8,1.62,2.42,2.42,0,0,1-.81,1.62,2.47,2.47,0,0,1-1.77.81,2.56,2.56,0,0,1-1.83-.88l-1.5-1.49A2.73,2.73,0,0,1,55.5,96a2.32,2.32,0,0,1,.77-1.73,2.58,2.58,0,0,1,1.66-.87,2.13,2.13,0,0,1,1.64.79ZM67,93.71l-1,1a.9.9,0,0,1-.52-.21A5.93,5.93,0,0,1,65,94l-.35-.35a1.4,1.4,0,0,0-.75-.43.74.74,0,0,0-.67.24l-.59.59,2,2-1,1-5-5,1.51-1.5a2.4,2.4,0,0,1,1.57-.79,1.93,1.93,0,0,1,1.51.66,1.73,1.73,0,0,1,.5.86,1.76,1.76,0,0,1-.07,1,1.39,1.39,0,0,1,1-.14,2.18,2.18,0,0,1,.93.59l.37.37a2.8,2.8,0,0,0,.49.39.88.88,0,0,0,.51.17Zm2.29-5.91a2.62,2.62,0,0,1,.89,1.89,2.88,2.88,0,0,1-2.66,2.66,2.68,2.68,0,0,1-1.89-.89l-1.4-1.4a2.7,2.7,0,0,1-.89-1.88A2.86,2.86,0,0,1,66,85.52a2.65,2.65,0,0,1,1.89.88Zm5-1.92a2.45,2.45,0,0,1-.8,1.53,2.65,2.65,0,0,1-1.62.83,2,2,0,0,1-1.7-.73v0l.94-.95A1.44,1.44,0,0,0,72,87a1,1,0,0,0,.77-.36A.87.87,0,0,0,73,86a.88.88,0,0,0-.31-.61.94.94,0,0,0-.62-.32,2,2,0,0,0-.89.21,5.12,5.12,0,0,1-1.79.54,1.72,1.72,0,0,1-1.35-.57,1.78,1.78,0,0,1-.56-1.45,2.31,2.31,0,0,1,.74-1.53,2.34,2.34,0,0,1,1.6-.76,2,2,0,0,1,1.54.68v0l-.94.94a1.27,1.27,0,0,0-.77-.42.9.9,0,0,0-.7.3.75.75,0,0,0-.25.62,1,1,0,0,0,.3.62.77.77,0,0,0,.6.24,3.61,3.61,0,0,0,1-.24,4,4,0,0,1,1.71-.49,1.89,1.89,0,0,1,1.37.62A1.79,1.79,0,0,1,74.27,85.88Zm3.82-3.82a2.48,2.48,0,0,1-.79,1.53,2.76,2.76,0,0,1-1.62.83A2,2,0,0,1,74,83.69v0l1-.94a1.37,1.37,0,0,0,.87.48,1,1,0,0,0,.77-.35.87.87,0,0,0,.3-.65.91.91,0,0,0-.3-.61,1,1,0,0,0-.63-.33,2.15,2.15,0,0,0-.89.22,5.08,5.08,0,0,1-1.78.54,1.72,1.72,0,0,1-1.36-.58A1.79,1.79,0,0,1,71.33,80a2.37,2.37,0,0,1,.75-1.52,2.3,2.3,0,0,1,1.59-.76,1.93,1.93,0,0,1,1.54.68v0l-.94,1a1.27,1.27,0,0,0-.77-.42.87.87,0,0,0-.7.3.74.74,0,0,0-.25.62.93.93,0,0,0,.31.61.74.74,0,0,0,.59.25,3.61,3.61,0,0,0,1-.24A3.87,3.87,0,0,1,76.14,80a1.83,1.83,0,0,1,1.37.62A1.76,1.76,0,0,1,78.09,82.06Zm3-5.93-1.75,1.74-.76-.76,1.74-1.75ZM86.56,70a3.09,3.09,0,0,1,1,2,2.36,2.36,0,0,1-.71,1.89l-1.55,1.55-5-5,1.55-1.55a2.34,2.34,0,0,1,1.89-.71,3.13,3.13,0,0,1,2,1Zm4.53-4A2.66,2.66,0,0,1,92,67.92a2.59,2.59,0,0,1-.84,1.83,2.54,2.54,0,0,1-1.83.83,2.66,2.66,0,0,1-1.88-.89L86,68.29a2.7,2.7,0,0,1-.89-1.88,2.86,2.86,0,0,1,2.66-2.66,2.65,2.65,0,0,1,1.89.88Zm7.62-4-1,1L92.93,61.4v0l3.2,3.2-1,1-5-5,1-1,4.81,1.61,0,0L92.71,58l1-1Zm2.53-6.15a2.62,2.62,0,0,1,.88,1.89,2.86,2.86,0,0,1-2.66,2.66,2.62,2.62,0,0,1-1.88-.89l-1.4-1.4a2.64,2.64,0,0,1-.89-1.88,2.53,2.53,0,0,1,.82-1.83A2.58,2.58,0,0,1,98,53.6a2.65,2.65,0,0,1,1.89.88Zm1.16-6.06L101.22,51l4.26,4.26-1,1L100.24,52l-1.15,1.15-.76-.77,3.3-3.3Zm6.14-4.55-1,.95a1.49,1.49,0,0,0-.85-.51,1.06,1.06,0,0,0-.76.38.9.9,0,0,0-.29.82,2.18,2.18,0,0,0,.63,1l1.5,1.5a1.89,1.89,0,0,0,1,.61,1,1,0,0,0,.86-.33A.92.92,0,0,0,110,49a1.63,1.63,0,0,0-.53-.84l.94-.94h0a2.17,2.17,0,0,1,.8,1.62,2.4,2.4,0,0,1-.82,1.62,2.44,2.44,0,0,1-1.76.81,2.59,2.59,0,0,1-1.84-.88l-1.49-1.49a2.73,2.73,0,0,1-.9-1.82,2.34,2.34,0,0,1,.76-1.73,2.6,2.6,0,0,1,1.67-.87,2.18,2.18,0,0,1,1.64.79Zm7.44-.51-1,1a.83.83,0,0,1-.51-.21,4.73,4.73,0,0,1-.53-.46l-.35-.36a1.38,1.38,0,0,0-.76-.43.76.76,0,0,0-.66.24l-.59.59,2,2-1,1-5-5,1.5-1.51a2.42,2.42,0,0,1,1.57-.79,2,2,0,0,1,1.52.66,1.77,1.77,0,0,1,.5.86,1.75,1.75,0,0,1-.07,1,1.33,1.33,0,0,1,1-.13,2.06,2.06,0,0,1,.93.58l.37.37a2.8,2.8,0,0,0,.49.39.88.88,0,0,0,.51.17Zm2.29-5.91a2.66,2.66,0,0,1,.89,1.89,2.59,2.59,0,0,1-.84,1.83,2.54,2.54,0,0,1-1.83.83,2.66,2.66,0,0,1-1.88-.89l-1.4-1.4a2.66,2.66,0,0,1-.89-1.88A2.83,2.83,0,0,1,115,36.57a2.65,2.65,0,0,1,1.89.88Z" transform="translate(-4.93 -5.09)"/><path class="cls-3" d="M117.69,34.73a1,1,0,0,0,.3.62.77.77,0,0,0,.6.24,3,3,0,0,0,1-.24l.17-.08-1.41-1.4a.93.93,0,0,0-.38.24A.76.76,0,0,0,117.69,34.73Z" transform="translate(-4.93 -5.09)"/><polygon class="cls-3" points="19.75 103.77 21.34 105.37 20.16 103.36 19.75 103.77"/><path class="cls-3" d="M82.57,69.64l-.58.58,3.51,3.5.58-.57a1,1,0,0,0,.23-1,2.55,2.55,0,0,0-.73-1.2l-.84-.84a2.53,2.53,0,0,0-1.19-.72A1,1,0,0,0,82.57,69.64Z" transform="translate(-4.93 -5.09)"/><path class="cls-3" d="M113.91,38.17a1.09,1.09,0,0,0-.36.92,2,2,0,0,0,.62,1l1.41,1.41a2,2,0,0,0,1.06.63,1.25,1.25,0,0,0,1.28-1.29,2,2,0,0,0-.62-1.06l-1.41-1.41a1.88,1.88,0,0,0-1-.61A1.14,1.14,0,0,0,113.91,38.17Z" transform="translate(-4.93 -5.09)"/><path class="cls-3" d="M109.85,42.36l-.53.53,1.49,1.49.53-.52a.88.88,0,0,0,.29-.67,1.13,1.13,0,0,0-.37-.7,1.31,1.31,0,0,0-.73-.4A.8.8,0,0,0,109.85,42.36Z" transform="translate(-4.93 -5.09)"/><polygon class="cls-4" points="23.68 99.83 20.16 103.36 21.34 105.37 24.52 108.55 27.2 105.86 23.68 99.83"/><polygon class="cls-4" points="34.9 98.16 31.38 92.14 27.86 95.66 31.38 101.69 34.9 98.16"/><polygon class="cls-4" points="42.59 90.47 39.07 84.44 35.55 87.97 39.07 93.99 42.59 90.47"/><polygon class="cls-4" points="50.29 82.77 46.77 76.75 43.25 80.27 46.77 86.3 50.29 82.77"/><polygon class="cls-4" points="57.99 75.08 54.47 69.05 50.94 72.58 54.47 78.6 57.99 75.08"/><polygon class="cls-4" points="65.68 67.38 62.16 61.36 58.64 64.88 62.16 70.9 65.68 67.38"/><polygon class="cls-4" points="73.38 59.69 69.86 53.66 66.33 57.18 69.86 63.21 73.38 59.69"/><polygon class="cls-4" points="81.07 51.99 77.55 45.97 74.03 49.49 77.55 55.51 81.07 51.99"/><polygon class="cls-4" points="88.77 44.3 85.25 38.27 81.72 41.79 85.25 47.82 88.77 44.3"/><polygon class="cls-4" points="96.46 36.6 92.94 30.58 89.42 34.1 92.94 40.12 96.46 36.6"/><path class="cls-4" d="M37.61,118.94l-.83-.83a3.16,3.16,0,0,0-2-1,2.3,2.3,0,0,0-1.46.36l.86.86a1.15,1.15,0,0,1,.45,0,2.45,2.45,0,0,1,1.19.72l.84.84a2.5,2.5,0,0,1,.73,1.2,1.15,1.15,0,0,1,0,.45l.86.86A2.36,2.36,0,0,0,38.6,121,3.13,3.13,0,0,0,37.61,118.94Z" transform="translate(-4.93 -5.09)"/><path class="cls-4" d="M37,113.53a2.51,2.51,0,0,0-.83,1.83,2.7,2.7,0,0,0,.89,1.88l1.4,1.4a2.68,2.68,0,0,0,1.89.89A2.88,2.88,0,0,0,43,116.87a2.62,2.62,0,0,0-.89-1.89l-1.4-1.4a2.7,2.7,0,0,0-1.89-.89A2.56,2.56,0,0,0,37,113.53ZM41.17,116a1.86,1.86,0,0,1,.62,1.06,1.09,1.09,0,0,1-.36.92,1,1,0,0,1-.92.36,2,2,0,0,1-1.06-.62L38,116.26a1.88,1.88,0,0,1-.61-1.05,1,1,0,0,1,.36-.91,1.1,1.1,0,0,1,.92-.37,1.82,1.82,0,0,1,1,.61Z" transform="translate(-4.93 -5.09)"/><polygon class="cls-4" points="42.04 105.05 42.02 105.07 37.22 103.46 36.24 104.43 41.27 109.46 42.25 108.48 39.04 105.28 39.06 105.26 43.86 106.87 44.84 105.9 39.81 100.87 38.84 101.84 42.04 105.05"/><path class="cls-4" d="M47.16,103.38a2.53,2.53,0,0,0-.82,1.83,2.64,2.64,0,0,0,.89,1.88l1.4,1.4a2.66,2.66,0,0,0,1.88.89,2.54,2.54,0,0,0,1.83-.83,2.63,2.63,0,0,0,.84-1.83,2.66,2.66,0,0,0-.89-1.89l-1.4-1.4a2.65,2.65,0,0,0-1.89-.88A2.54,2.54,0,0,0,47.16,103.38Zm4.16,2.42a2,2,0,0,1,.62,1.06,1.11,1.11,0,0,1-.36.93,1.1,1.1,0,0,1-.92.36,2,2,0,0,1-1.06-.63l-1.41-1.41a2,2,0,0,1-.62-1,1.09,1.09,0,0,1,.36-.92,1.1,1.1,0,0,1,.93-.36,1.85,1.85,0,0,1,1,.6Z" transform="translate(-4.93 -5.09)"/><polygon class="cls-4" points="45.22 96.99 46.37 95.84 50.63 100.1 51.61 99.13 47.34 94.86 48.52 93.68 47.76 92.92 44.45 96.22 45.22 96.99"/><path class="cls-4" d="M56.27,94.28A2.32,2.32,0,0,0,55.5,96a2.73,2.73,0,0,0,.9,1.82l1.5,1.49a2.56,2.56,0,0,0,1.83.88,2.47,2.47,0,0,0,1.77-.81,2.42,2.42,0,0,0,.81-1.62,2.17,2.17,0,0,0-.8-1.62h0l-1,.94a1.63,1.63,0,0,1,.53.84.92.92,0,0,1-.33.71,1,1,0,0,1-.86.33,1.89,1.89,0,0,1-1-.61l-1.5-1.5a2.15,2.15,0,0,1-.63-1A.89.89,0,0,1,57,95a1,1,0,0,1,.76-.38,1.49,1.49,0,0,1,.85.51l1-1,0,0a2.13,2.13,0,0,0-1.64-.79A2.58,2.58,0,0,0,56.27,94.28Z" transform="translate(-4.93 -5.09)"/><path class="cls-4" d="M66,93.08l-.37-.37a2.18,2.18,0,0,0-.93-.59,1.39,1.39,0,0,0-1,.14,1.76,1.76,0,0,0,.07-1,1.73,1.73,0,0,0-.5-.86,1.93,1.93,0,0,0-1.51-.66,2.4,2.4,0,0,0-1.57.79l-1.51,1.5,5,5,1-1-2-2,.59-.59a.74.74,0,0,1,.67-.24,1.4,1.4,0,0,1,.75.43L65,94a5.93,5.93,0,0,0,.53.47.9.9,0,0,0,.52.21l1-1L67,93.64a.88.88,0,0,1-.51-.17A2.8,2.8,0,0,1,66,93.08Zm-3.28-.94a.86.86,0,0,1-.29.66l-.53.53-1.49-1.49.54-.53a.78.78,0,0,1,.68-.27,1.32,1.32,0,0,1,.72.4A1.13,1.13,0,0,1,62.68,92.14Z" transform="translate(-4.93 -5.09)"/><path class="cls-4" d="M64.2,86.35a2.51,2.51,0,0,0-.83,1.83,2.7,2.7,0,0,0,.89,1.88l1.4,1.4a2.68,2.68,0,0,0,1.89.89,2.88,2.88,0,0,0,2.66-2.66,2.62,2.62,0,0,0-.89-1.89l-1.4-1.4A2.65,2.65,0,0,0,66,85.52,2.51,2.51,0,0,0,64.2,86.35Zm4.15,2.42A1.86,1.86,0,0,1,69,89.83a1.09,1.09,0,0,1-.36.92,1,1,0,0,1-.92.36,2,2,0,0,1-1.06-.62l-1.41-1.41a1.88,1.88,0,0,1-.61-1,1,1,0,0,1,.36-.91,1.12,1.12,0,0,1,.92-.37,1.85,1.85,0,0,1,1,.61Z" transform="translate(-4.93 -5.09)"/><path class="cls-4" d="M70.61,84.3a3.61,3.61,0,0,1-1,.24.77.77,0,0,1-.6-.24,1,1,0,0,1-.3-.62.75.75,0,0,1,.25-.62.9.9,0,0,1,.7-.3,1.27,1.27,0,0,1,.77.42l.94-.94v0a2,2,0,0,0-1.54-.68,2.34,2.34,0,0,0-1.6.76,2.31,2.31,0,0,0-.74,1.53,1.78,1.78,0,0,0,.56,1.45,1.72,1.72,0,0,0,1.35.57,5.12,5.12,0,0,0,1.79-.54,2,2,0,0,1,.89-.21.94.94,0,0,1,.62.32A.88.88,0,0,1,73,86a.87.87,0,0,1-.3.65A1,1,0,0,1,72,87a1.44,1.44,0,0,1-.88-.49l-.94.95v0a2,2,0,0,0,1.7.73,2.65,2.65,0,0,0,1.62-.83,2.45,2.45,0,0,0,.8-1.53,1.79,1.79,0,0,0-.58-1.45,1.89,1.89,0,0,0-1.37-.62A4,4,0,0,0,70.61,84.3Z" transform="translate(-4.93 -5.09)"/><path class="cls-4" d="M74.43,80.48a3.61,3.61,0,0,1-1,.24.74.74,0,0,1-.59-.25.93.93,0,0,1-.31-.61.74.74,0,0,1,.25-.62.87.87,0,0,1,.7-.3,1.27,1.27,0,0,1,.77.42l.94-1v0a1.93,1.93,0,0,0-1.54-.68,2.3,2.3,0,0,0-1.59.76A2.37,2.37,0,0,0,71.33,80a1.79,1.79,0,0,0,.56,1.45,1.72,1.72,0,0,0,1.36.58A5.08,5.08,0,0,0,75,81.48a2.15,2.15,0,0,1,.89-.22,1,1,0,0,1,.63.33.91.91,0,0,1,.3.61.87.87,0,0,1-.3.65,1,1,0,0,1-.77.35,1.37,1.37,0,0,1-.87-.48l-1,.94v0a2,2,0,0,0,1.71.73,2.76,2.76,0,0,0,1.62-.83,2.48,2.48,0,0,0,.79-1.53,1.76,1.76,0,0,0-.58-1.45A1.83,1.83,0,0,0,76.14,80,3.87,3.87,0,0,0,74.43,80.48Z" transform="translate(-4.93 -5.09)"/><rect class="cls-4" x="78.58" y="76.08" width="2.47" height="1.08" transform="translate(-35.73 73.79) rotate(-45)"/><path class="cls-4" d="M81.81,68.88l-1.55,1.55,5,5,1.55-1.55A2.36,2.36,0,0,0,87.55,72a3.09,3.09,0,0,0-1-2l-.84-.84a3.13,3.13,0,0,0-2-1A2.34,2.34,0,0,0,81.81,68.88ZM85.58,71a2.55,2.55,0,0,1,.73,1.2,1,1,0,0,1-.23,1l-.58.57L82,70.22l.58-.58a1,1,0,0,1,1-.23,2.53,2.53,0,0,1,1.19.72Z" transform="translate(-4.93 -5.09)"/><path class="cls-4" d="M86,64.58a2.51,2.51,0,0,0-.83,1.83A2.7,2.7,0,0,0,86,68.29l1.4,1.4a2.66,2.66,0,0,0,1.88.89,2.54,2.54,0,0,0,1.83-.83A2.59,2.59,0,0,0,92,67.92,2.66,2.66,0,0,0,91.09,66l-1.4-1.4a2.65,2.65,0,0,0-1.89-.88A2.51,2.51,0,0,0,86,64.58ZM90.12,67a1.89,1.89,0,0,1,.62,1.06,1.09,1.09,0,0,1-.36.92,1,1,0,0,1-.92.36,2,2,0,0,1-1.06-.62L87,67.31a2,2,0,0,1-.62-1,1.06,1.06,0,0,1,.37-.91,1.11,1.11,0,0,1,.92-.37,1.88,1.88,0,0,1,1,.61Z" transform="translate(-4.93 -5.09)"/><polygon class="cls-4" points="90.99 56.1 90.97 56.13 86.17 54.51 85.19 55.48 90.22 60.51 91.19 59.54 87.99 56.33 88.01 56.31 92.81 57.92 93.78 56.95 88.76 51.92 87.78 52.89 90.99 56.1"/><path class="cls-4" d="M96.11,54.43a2.53,2.53,0,0,0-.82,1.83,2.64,2.64,0,0,0,.89,1.88l1.4,1.4a2.62,2.62,0,0,0,1.88.89,2.86,2.86,0,0,0,2.66-2.66,2.62,2.62,0,0,0-.88-1.89l-1.4-1.4A2.65,2.65,0,0,0,98,53.6,2.58,2.58,0,0,0,96.11,54.43Zm4.16,2.42a2,2,0,0,1,.62,1.06,1.23,1.23,0,0,1-1.28,1.29,1.86,1.86,0,0,1-1.06-.63l-1.41-1.41a1.88,1.88,0,0,1-.62-1,1.23,1.23,0,0,1,1.29-1.28,1.85,1.85,0,0,1,1,.6Z" transform="translate(-4.93 -5.09)"/><polygon class="cls-4" points="94.16 48.04 95.31 46.89 99.58 51.15 100.55 50.18 96.29 45.91 97.47 44.73 96.71 43.97 93.4 47.28 94.16 48.04"/><path class="cls-4" d="M105.21,45.33a2.34,2.34,0,0,0-.76,1.73,2.73,2.73,0,0,0,.9,1.82l1.49,1.49a2.59,2.59,0,0,0,1.84.88,2.44,2.44,0,0,0,1.76-.81,2.4,2.4,0,0,0,.82-1.62,2.17,2.17,0,0,0-.8-1.62h0l-.94.94A1.63,1.63,0,0,1,110,49a.92.92,0,0,1-.33.71,1,1,0,0,1-.86.33,1.89,1.89,0,0,1-1-.61l-1.5-1.5a2.18,2.18,0,0,1-.63-1,.9.9,0,0,1,.29-.82,1.06,1.06,0,0,1,.76-.38,1.49,1.49,0,0,1,.85.51l1-.95,0,0a2.18,2.18,0,0,0-1.64-.79A2.6,2.6,0,0,0,105.21,45.33Z" transform="translate(-4.93 -5.09)"/><path class="cls-4" d="M114.91,44.13l-.37-.37a2.06,2.06,0,0,0-.93-.58,1.33,1.33,0,0,0-1,.13,1.75,1.75,0,0,0,.07-1,1.77,1.77,0,0,0-.5-.86,2,2,0,0,0-1.52-.66,2.42,2.42,0,0,0-1.57.79l-1.5,1.51,5,5,1-1-2-2,.59-.59a.76.76,0,0,1,.66-.24,1.38,1.38,0,0,1,.76.43l.35.36a4.73,4.73,0,0,0,.53.46.83.83,0,0,0,.51.21l1-1-.07-.07a.88.88,0,0,1-.51-.17A2.8,2.8,0,0,1,114.91,44.13Zm-3.28-.94a.88.88,0,0,1-.29.67l-.53.52-1.49-1.49.53-.53a.8.8,0,0,1,.68-.27,1.31,1.31,0,0,1,.73.4A1.13,1.13,0,0,1,111.63,43.19Z" transform="translate(-4.93 -5.09)"/><path class="cls-4" d="M113.14,37.4a2.53,2.53,0,0,0-.82,1.83,2.66,2.66,0,0,0,.89,1.88l1.4,1.4a2.66,2.66,0,0,0,1.88.89,2.54,2.54,0,0,0,1.83-.83,2.59,2.59,0,0,0,.84-1.83,2.66,2.66,0,0,0-.89-1.89l-1.4-1.4a2.65,2.65,0,0,0-1.89-.88A2.54,2.54,0,0,0,113.14,37.4Zm4.16,2.42a2,2,0,0,1,.62,1.06,1.25,1.25,0,0,1-1.28,1.29,2,2,0,0,1-1.06-.63l-1.41-1.41a2,2,0,0,1-.62-1,1.09,1.09,0,0,1,.36-.92,1.14,1.14,0,0,1,.93-.37,1.88,1.88,0,0,1,1,.61Z" transform="translate(-4.93 -5.09)"/><path class="cls-4" d="M116.45,34.87a1.81,1.81,0,0,0,.57,1.45,1.69,1.69,0,0,0,1.35.57,5,5,0,0,0,1.78-.54,2.75,2.75,0,0,1,.49-.16l-.91-.92-.17.08a3,3,0,0,1-1,.24.77.77,0,0,1-.6-.24,1,1,0,0,1-.3-.62.76.76,0,0,1,.25-.62.93.93,0,0,1,.38-.24l-.8-.8a3.82,3.82,0,0,0-.32.27A2.37,2.37,0,0,0,116.45,34.87Z" transform="translate(-4.93 -5.09)"/><path class="cls-4" d="M121.68,37.72a1,1,0,0,1-.78.36,1.45,1.45,0,0,1-.87-.49l-1,.95,0,0a2,2,0,0,0,1.7.72,2.69,2.69,0,0,0,1.62-.82,2.76,2.76,0,0,0,.23-.27l-.76-.77A1.12,1.12,0,0,1,121.68,37.72Z" transform="translate(-4.93 -5.09)"/><polygon class="cls-4" points="104.16 28.91 100.64 22.88 97.12 26.4 100.64 32.43 104.16 28.91"/><polygon class="cls-4" points="108.84 24.22 106.9 22.29 108.33 24.73 108.84 24.22"/><polygon class="cls-4" points="37.31 120.5 38.48 122.51 41.66 125.69 44.35 123.01 40.83 116.98 37.31 120.5"/><polygon class="cls-4" points="45.01 112.81 48.53 118.83 52.05 115.31 48.53 109.29 45.01 112.81"/><polygon class="cls-4" points="52.7 105.11 56.22 111.14 59.74 107.62 56.22 101.59 52.7 105.11"/><polygon class="cls-4" points="60.4 97.42 63.92 103.44 67.44 99.92 63.92 93.9 60.4 97.42"/><polygon class="cls-4" points="68.09 89.72 71.61 95.75 75.13 92.23 71.61 86.2 68.09 89.72"/><polygon class="cls-4" points="75.79 82.03 79.31 88.05 82.83 84.53 79.31 78.51 75.79 82.03"/><polygon class="cls-4" points="83.48 74.33 87 80.36 90.52 76.83 87 70.81 83.48 74.33"/><polygon class="cls-4" points="91.18 66.64 94.7 72.66 98.22 69.14 94.7 63.12 91.18 66.64"/><polygon class="cls-4" points="98.87 58.94 102.39 64.97 105.92 61.44 102.39 55.42 98.87 58.94"/><polygon class="cls-4" points="106.57 51.24 110.09 57.27 113.61 53.75 110.09 47.72 106.57 51.24"/><polygon class="cls-4" points="114.26 43.55 117.78 49.58 121.31 46.05 117.78 40.03 114.26 43.55"/><polygon class="cls-4" points="125.48 41.88 125.99 41.37 124.05 39.44 125.48 41.88"/><path class="cls-2" d="M119,122.13a1,1,0,0,0,.32-.63,1.21,1.21,0,0,0,0-.4L118,122.34a.65.65,0,0,0,.35.09A.93.93,0,0,0,119,122.13Z" transform="translate(-4.93 -5.09)"/><path class="cls-3" d="M51.3,48.39a1.08,1.08,0,0,0-.91-.36,1.94,1.94,0,0,0-1,.61l-1.41,1.42a2,2,0,0,0-.63,1,1.07,1.07,0,0,0,.37.92,1.1,1.1,0,0,0,.92.37,2,2,0,0,0,1.06-.62l1.41-1.42a1.82,1.82,0,0,0,.61-1A1.12,1.12,0,0,0,51.3,48.39Z" transform="translate(-4.93 -5.09)"/><path class="cls-3" d="M41.15,38.24a1.07,1.07,0,0,0-.91-.36,1.9,1.9,0,0,0-1.05.62l-1.41,1.41A1.9,1.9,0,0,0,37.16,41a1.09,1.09,0,0,0,.36.92,1.07,1.07,0,0,0,.92.37,1.92,1.92,0,0,0,1.06-.62l1.41-1.41a1.88,1.88,0,0,0,.61-1A1.1,1.1,0,0,0,41.15,38.24Z" transform="translate(-4.93 -5.09)"/><path class="cls-3" d="M100.25,97.34a1,1,0,0,0-.92-.36,1.89,1.89,0,0,0-1,.61L96.88,99a1.93,1.93,0,0,0-.63,1,1.09,1.09,0,0,0,.36.92,1.11,1.11,0,0,0,.93.36,1.89,1.89,0,0,0,1.06-.62L100,99.31a1.79,1.79,0,0,0,.6-1A1.09,1.09,0,0,0,100.25,97.34Z" transform="translate(-4.93 -5.09)"/><path class="cls-3" d="M68.33,65.42a1.08,1.08,0,0,0-.91-.36,1.9,1.9,0,0,0-1,.62L65,67.09a1.9,1.9,0,0,0-.62,1,1,1,0,0,0,.36.92,1.07,1.07,0,0,0,.92.37,1.92,1.92,0,0,0,1.06-.62l1.41-1.41a1.87,1.87,0,0,0,.61-1.06A1.1,1.1,0,0,0,68.33,65.42Z" transform="translate(-4.93 -5.09)"/><path class="cls-3" d="M64.14,61.36l-.53-.53-1.49,1.49.53.52a.83.83,0,0,0,.66.29,1.08,1.08,0,0,0,.7-.37,1.2,1.2,0,0,0,.4-.72A.79.79,0,0,0,64.14,61.36Z" transform="translate(-4.93 -5.09)"/><path class="cls-3" d="M90.1,87.19a1.08,1.08,0,0,0-.91-.36,1.9,1.9,0,0,0-1,.62l-1.41,1.41a1.9,1.9,0,0,0-.62,1,1,1,0,0,0,.36.92,1.07,1.07,0,0,0,.92.37,1.92,1.92,0,0,0,1.06-.62l1.41-1.42a1.82,1.82,0,0,0,.61-1A1.12,1.12,0,0,0,90.1,87.19Z" transform="translate(-4.93 -5.09)"/><path class="cls-3" d="M34.33,37.82a2.53,2.53,0,0,0,1.2-.74l.84-.83a2.5,2.5,0,0,0,.72-1.19,1.21,1.21,0,0,0,0-.46l-3.23,3.24A1.15,1.15,0,0,0,34.33,37.82Z" transform="translate(-4.93 -5.09)"/><path class="cls-3" d="M117.25,123.11l-.27-.23a2.75,2.75,0,0,1-.82-1.62,2,2,0,0,1,.72-1.71h0l1,.95a1.4,1.4,0,0,0-.49.87,1,1,0,0,0,.36.77,1.06,1.06,0,0,0,.29.21l1.24-1.24a2.32,2.32,0,0,0-.16-.49,5.08,5.08,0,0,1-.54-1.78,1.74,1.74,0,0,1,.57-1.36,1.8,1.8,0,0,1,1.45-.56,2.37,2.37,0,0,1,1.53.75,2.69,2.69,0,0,1,.27.32l3.76-3.76-.51-.51,2.45-1.43,2.83-2.83L127.48,106l-6,3.52L117.94,106l6-3.52-4.17-4.18-6,3.52-3.52-3.52,6-3.52-4.18-4.17-6,3.52-3.52-3.52,6-3.52-4.17-4.18-6,3.52-3.52-3.52,6-3.52L96.7,75.24l-6,3.52-3.52-3.52,6-3.53L89,67.54l-6,3.52-3.52-3.52,6-3.52-4.18-4.17-6,3.52-3.53-3.52,6-3.53-4.17-4.17-6,3.52-3.52-3.52,6-3.52-4.17-4.18L59.9,48l-3.53-3.53,6-3.52-4.18-4.17-6,3.52-3.52-3.52,6-3.52-4.17-4.18-6,3.52L41.82,29.9,38,33.74a2.37,2.37,0,0,1,.37,1.46,3.15,3.15,0,0,1-1,2l-.83.83a3.15,3.15,0,0,1-2,1A2.37,2.37,0,0,1,33,38.69l-5.17,5.18,2-1.18,3.52,3.52-6,3.52,4.17,4.18,6-3.52,3.52,3.52-6,3.52,4.18,4.17,6-3.52,3.52,3.52-6,3.52,4.17,4.18,6-3.52,3.52,3.52-6,3.52L54.62,77l6-3.52L64.16,77l-6,3.52,4.17,4.18,6-3.52,3.52,3.52-6,3.52L70,92.38l6-3.52,3.52,3.52-6,3.52,4.17,4.18,6-3.52,3.52,3.52-6,3.52,4.18,4.17,6-3.52,3.52,3.52-6,3.52,4.17,4.18,6-3.52,3.52,3.52-6,3.52,4.17,4.17,6-3.52,3.53,3.52-6,3.53,4.17,4.17,2.45-1.43ZM40.47,42.6a2.6,2.6,0,0,1-1.88.88,2.88,2.88,0,0,1-2.67-2.66,2.66,2.66,0,0,1,.89-1.88l1.4-1.4a2.66,2.66,0,0,1,1.88-.89,2.49,2.49,0,0,1,1.83.82,2.56,2.56,0,0,1,.84,1.84,2.66,2.66,0,0,1-.89,1.89Zm4,7.62-1-1,1.62-4.8,0,0-3.2,3.21-1-1,5-5,1,1-1.62,4.8,0,0,3.21-3.21,1,1Zm6.15,2.53a2.65,2.65,0,0,1-1.89.88A2.88,2.88,0,0,1,46.07,51,2.66,2.66,0,0,1,47,49.09l1.4-1.41a2.74,2.74,0,0,1,1.88-.89,2.85,2.85,0,0,1,2.66,2.67A2.61,2.61,0,0,1,52,51.34Zm6.06,1.15L55.5,52.72,51.24,57l-1-1,4.27-4.27L53.38,50.6l.76-.77,3.31,3.31ZM61.23,60l-.95-.94a1.55,1.55,0,0,0,.51-.85,1,1,0,0,0-.38-.77.87.87,0,0,0-.81-.28,2,2,0,0,0-1,.63l-1.49,1.49a1.92,1.92,0,0,0-.62,1,1,1,0,0,0,.33.86.92.92,0,0,0,.71.33,1.52,1.52,0,0,0,.84-.52l1,.94,0,0a2.21,2.21,0,0,1-1.62.8A2.44,2.44,0,0,1,56.06,62a2.47,2.47,0,0,1-.81-1.77,2.59,2.59,0,0,1,.88-1.83l1.49-1.49a2.64,2.64,0,0,1,1.82-.9,2.31,2.31,0,0,1,1.73.76A2.6,2.6,0,0,1,62,58.39,2.13,2.13,0,0,1,61.26,60Zm.51,7.45-1-1a.87.87,0,0,1,.21-.51,6.06,6.06,0,0,1,.47-.54l.35-.35a1.27,1.27,0,0,0,.43-.75.74.74,0,0,0-.24-.67l-.59-.58-2,2-1-1,5-5,1.5,1.5a2.4,2.4,0,0,1,.79,1.57A2,2,0,0,1,65,63.69a1.71,1.71,0,0,1-.86.49,1.8,1.8,0,0,1-1-.06,1.43,1.43,0,0,1,.13,1,2.24,2.24,0,0,1-.59.93l-.37.37a2.8,2.8,0,0,0-.39.49.84.84,0,0,0-.17.51Zm5.91,2.29a2.65,2.65,0,0,1-1.89.88A2.86,2.86,0,0,1,63.1,68,2.66,2.66,0,0,1,64,66.12l1.4-1.4a2.66,2.66,0,0,1,1.88-.89,2.49,2.49,0,0,1,1.83.82,2.56,2.56,0,0,1,.84,1.84,2.66,2.66,0,0,1-.89,1.89Zm1.92,4.94A2.43,2.43,0,0,1,68,73.93a2.76,2.76,0,0,1-.83-1.62,2,2,0,0,1,.73-1.71h0l1,1a1.47,1.47,0,0,0-.49.87,1,1,0,0,0,.36.77.87.87,0,0,0,.65.3.91.91,0,0,0,.61-.3,1,1,0,0,0,.32-.63,2,2,0,0,0-.21-.89,5.08,5.08,0,0,1-.54-1.78,1.75,1.75,0,0,1,.57-1.36A1.82,1.82,0,0,1,71.64,68a2.37,2.37,0,0,1,1.52.75,2.34,2.34,0,0,1,.76,1.59,2,2,0,0,1-.68,1.54l0,0-1-1a1.27,1.27,0,0,0,.42-.77.87.87,0,0,0-.3-.7.78.78,0,0,0-.62-.25,1,1,0,0,0-.62.31.77.77,0,0,0-.24.6,3.56,3.56,0,0,0,.24,1,3.87,3.87,0,0,1,.49,1.72A1.87,1.87,0,0,1,71,74.15,1.75,1.75,0,0,1,69.57,74.72Zm3.82,3.82a2.43,2.43,0,0,1-1.53-.79A2.76,2.76,0,0,1,71,76.13a2,2,0,0,1,.73-1.7l0,0,.95,1a1.4,1.4,0,0,0-.49.87,1,1,0,0,0,.35.77.87.87,0,0,0,.65.3.91.91,0,0,0,.61-.3,1,1,0,0,0,.33-.63,2.31,2.31,0,0,0-.21-.89,4.92,4.92,0,0,1-.55-1.78A1.73,1.73,0,0,1,74,72.34a1.79,1.79,0,0,1,1.45-.56,2.67,2.67,0,0,1,2.29,2.34,2,2,0,0,1-.68,1.55h0l-1-1a1.25,1.25,0,0,0,.42-.76.85.85,0,0,0-.3-.7.78.78,0,0,0-.62-.26,1,1,0,0,0-.61.31.78.78,0,0,0-.25.6,3.47,3.47,0,0,0,.24,1,3.87,3.87,0,0,1,.49,1.72A1.88,1.88,0,0,1,74.85,78,1.78,1.78,0,0,1,73.39,78.54Zm5.93,3-1.74-1.75.76-.76,1.75,1.75ZM85.46,87a3.15,3.15,0,0,1-2,1,2.4,2.4,0,0,1-1.89-.72L80,85.74l5-5,1.55,1.55a2.33,2.33,0,0,1,.71,1.89,3.16,3.16,0,0,1-1,2Zm4,4.54a2.65,2.65,0,0,1-1.89.88,2.86,2.86,0,0,1-2.66-2.66,2.66,2.66,0,0,1,.89-1.88l1.4-1.4a2.71,2.71,0,0,1,1.88-.9,2.85,2.85,0,0,1,2.66,2.67,2.65,2.65,0,0,1-.88,1.89Zm4,7.61-1-1,1.62-4.8,0,0-3.2,3.2-1-1,5-5,1,1-1.61,4.8,0,0,3.21-3.21,1,1Zm6.15,2.53a2.64,2.64,0,0,1-1.89.89A2.88,2.88,0,0,1,95,99.92,2.64,2.64,0,0,1,95.91,98l1.4-1.4a2.68,2.68,0,0,1,1.88-.89,2.86,2.86,0,0,1,2.66,2.66,2.65,2.65,0,0,1-.88,1.89Zm6.06,1.16-1.18-1.18-4.26,4.26-1-1,4.26-4.27-1.15-1.15.77-.76,3.31,3.31Zm4.55,6.14-1-.95a1.5,1.5,0,0,0,.51-.84,1.08,1.08,0,0,0-.38-.77.88.88,0,0,0-.81-.28,2,2,0,0,0-1,.62l-1.5,1.5a1.92,1.92,0,0,0-.61,1,1,1,0,0,0,.33.86.92.92,0,0,0,.71.33,1.59,1.59,0,0,0,.84-.52l.94.94v0a2.19,2.19,0,0,1-1.62.79,2.34,2.34,0,0,1-1.62-.81,2.47,2.47,0,0,1-.81-1.77,2.59,2.59,0,0,1,.88-1.83l1.49-1.49a2.64,2.64,0,0,1,1.82-.9,2.31,2.31,0,0,1,1.73.76,2.58,2.58,0,0,1,.87,1.67,2.18,2.18,0,0,1-.79,1.64Zm.51,7.45-1-1a.81.81,0,0,1,.21-.51,4.78,4.78,0,0,1,.47-.54l.35-.35a1.36,1.36,0,0,0,.43-.75.74.74,0,0,0-.24-.67l-.59-.58-2,2-1-1,5-5,1.51,1.51a2.4,2.4,0,0,1,.79,1.57,2,2,0,0,1-.66,1.52,1.71,1.71,0,0,1-.86.49,1.75,1.75,0,0,1-1-.07,1.41,1.41,0,0,1,.14,1,2.3,2.3,0,0,1-.59.93l-.37.36a3.23,3.23,0,0,0-.39.49.89.89,0,0,0-.17.52Zm5.91,2.29a2.65,2.65,0,0,1-1.89.88,2.86,2.86,0,0,1-2.66-2.66,2.66,2.66,0,0,1,.89-1.88l1.4-1.4a2.71,2.71,0,0,1,1.88-.9,2.85,2.85,0,0,1,2.66,2.67,2.61,2.61,0,0,1-.88,1.88Z" transform="translate(-4.93 -5.09)"/><path class="cls-3" d="M120.72,118.14a1,1,0,0,0-.62.31.76.76,0,0,0-.24.59,3,3,0,0,0,.24,1c0,.06.05.12.08.17l1.4-1.4a.9.9,0,0,0-.24-.39A.78.78,0,0,0,120.72,118.14Z" transform="translate(-4.93 -5.09)"/><polygon class="cls-3" points="41.66 20.04 40.07 21.63 42.08 20.46 41.66 20.04"/><path class="cls-3" d="M85.81,83l-.58-.58L81.73,86l.57.58a1,1,0,0,0,1,.24,2.58,2.58,0,0,0,1.2-.74l.84-.84A2.43,2.43,0,0,0,86,84,1,1,0,0,0,85.81,83Z" transform="translate(-4.93 -5.09)"/><path class="cls-3" d="M117.28,114.37a1.08,1.08,0,0,0-.91-.36,1.94,1.94,0,0,0-1.05.61L113.91,116a1.9,1.9,0,0,0-.62,1,1,1,0,0,0,.36.92,1.07,1.07,0,0,0,.92.37,1.92,1.92,0,0,0,1.06-.62l1.41-1.42a1.82,1.82,0,0,0,.61-1A1.12,1.12,0,0,0,117.28,114.37Z" transform="translate(-4.93 -5.09)"/><path class="cls-3" d="M113.09,110.31l-.53-.53-1.49,1.49.53.52a.82.82,0,0,0,.66.29,1.13,1.13,0,0,0,.7-.37,1.25,1.25,0,0,0,.4-.72A.79.79,0,0,0,113.09,110.31Z" transform="translate(-4.93 -5.09)"/><polygon class="cls-4" points="45.6 23.98 42.08 20.46 40.07 21.63 36.89 24.81 39.58 27.5 45.6 23.98"/><polygon class="cls-4" points="47.27 35.19 53.3 31.67 49.78 28.15 43.75 31.67 47.27 35.19"/><polygon class="cls-4" points="54.97 42.89 60.99 39.37 57.47 35.85 51.45 39.37 54.97 42.89"/><polygon class="cls-4" points="62.66 50.58 68.69 47.06 65.17 43.54 59.14 47.06 62.66 50.58"/><polygon class="cls-4" points="70.36 58.28 76.39 54.76 72.86 51.24 66.84 54.76 70.36 58.28"/><polygon class="cls-4" points="78.06 65.97 84.08 62.45 80.56 58.93 74.53 62.45 78.06 65.97"/><polygon class="cls-4" points="85.75 73.67 91.78 70.15 88.25 66.63 82.23 70.15 85.75 73.67"/><polygon class="cls-4" points="93.45 81.36 99.47 77.84 95.95 74.32 89.92 77.84 93.45 81.36"/><polygon class="cls-4" points="101.14 89.06 107.17 85.54 103.65 82.02 97.62 85.54 101.14 89.06"/><polygon class="cls-4" points="108.84 96.76 114.86 93.23 111.34 89.71 105.32 93.23 108.84 96.76"/><path class="cls-4" d="M36.51,38.06l.83-.83a3.15,3.15,0,0,0,1-2A2.37,2.37,0,0,0,38,33.74l-.86.86a1.21,1.21,0,0,1,0,.46,2.5,2.5,0,0,1-.72,1.19l-.84.83a2.53,2.53,0,0,1-1.2.74,1.15,1.15,0,0,1-.45,0l-.86.85a2.37,2.37,0,0,0,1.46.37A3.15,3.15,0,0,0,36.51,38.06Z" transform="translate(-4.93 -5.09)"/><path class="cls-4" d="M41.92,37.47a2.49,2.49,0,0,0-1.83-.82,2.66,2.66,0,0,0-1.88.89l-1.4,1.4a2.66,2.66,0,0,0-.89,1.88,2.88,2.88,0,0,0,2.67,2.66,2.6,2.6,0,0,0,1.88-.88l1.4-1.4a2.66,2.66,0,0,0,.89-1.89A2.56,2.56,0,0,0,41.92,37.47ZM39.5,41.63a1.92,1.92,0,0,1-1.06.62,1.07,1.07,0,0,1-.92-.37,1.09,1.09,0,0,1-.36-.92,1.9,1.9,0,0,1,.62-1.05l1.41-1.41a1.9,1.9,0,0,1,1.05-.62,1.07,1.07,0,0,1,.91.36,1.1,1.1,0,0,1,.37.93,1.88,1.88,0,0,1-.61,1Z" transform="translate(-4.93 -5.09)"/><polygon class="cls-4" points="40.39 42.34 40.37 42.32 41.98 37.51 41.01 36.54 35.98 41.57 36.95 42.54 40.16 39.34 40.18 39.35 38.57 44.16 39.54 45.13 44.57 40.1 43.6 39.13 40.39 42.34"/><path class="cls-4" d="M52.07,47.62a2.51,2.51,0,0,0-1.83-.83,2.74,2.74,0,0,0-1.88.89L47,49.09A2.66,2.66,0,0,0,46.07,51a2.88,2.88,0,0,0,2.66,2.66,2.65,2.65,0,0,0,1.89-.88L52,51.34a2.61,2.61,0,0,0,.88-1.88A2.53,2.53,0,0,0,52.07,47.62Zm-2.42,4.16a2,2,0,0,1-1.06.62,1.1,1.1,0,0,1-.92-.37,1.07,1.07,0,0,1-.37-.92,2,2,0,0,1,.63-1l1.41-1.42a1.94,1.94,0,0,1,1-.61,1.08,1.08,0,0,1,.91.36,1.12,1.12,0,0,1,.37.92,1.82,1.82,0,0,1-.61,1Z" transform="translate(-4.93 -5.09)"/><polygon class="cls-4" points="48.45 45.51 49.6 46.66 45.34 50.92 46.31 51.9 50.58 47.63 51.76 48.82 52.52 48.05 49.21 44.75 48.45 45.51"/><path class="cls-4" d="M61.17,56.72A2.31,2.31,0,0,0,59.44,56a2.64,2.64,0,0,0-1.82.9l-1.49,1.49a2.59,2.59,0,0,0-.88,1.83A2.47,2.47,0,0,0,56.06,62a2.44,2.44,0,0,0,1.62.82A2.21,2.21,0,0,0,59.3,62l0,0-1-.94a1.52,1.52,0,0,1-.84.52.92.92,0,0,1-.71-.33,1,1,0,0,1-.33-.86,1.92,1.92,0,0,1,.62-1l1.49-1.49a2,2,0,0,1,1-.63.87.87,0,0,1,.81.28,1,1,0,0,1,.38.77,1.55,1.55,0,0,1-.51.85l.95.94h0A2.13,2.13,0,0,0,62,58.39,2.6,2.6,0,0,0,61.17,56.72Z" transform="translate(-4.93 -5.09)"/><path class="cls-4" d="M62.37,66.42l.37-.37a2.24,2.24,0,0,0,.59-.93,1.43,1.43,0,0,0-.13-1,1.8,1.8,0,0,0,1,.06,1.71,1.71,0,0,0,.86-.49,2,2,0,0,0,.66-1.52,2.4,2.4,0,0,0-.79-1.57l-1.5-1.5-5,5,1,1,2-2,.59.58a.74.74,0,0,1,.24.67,1.27,1.27,0,0,1-.43.75l-.35.35a6.06,6.06,0,0,0-.47.54.87.87,0,0,0-.21.51l1,1,.07-.07a.84.84,0,0,1,.17-.51A2.8,2.8,0,0,1,62.37,66.42Zm.94-3.29a.83.83,0,0,1-.66-.29l-.53-.52,1.49-1.49.53.53a.79.79,0,0,1,.27.68,1.2,1.2,0,0,1-.4.72A1.08,1.08,0,0,1,63.31,63.13Z" transform="translate(-4.93 -5.09)"/><path class="cls-4" d="M69.1,64.65a2.49,2.49,0,0,0-1.83-.82,2.66,2.66,0,0,0-1.88.89L64,66.12A2.66,2.66,0,0,0,63.1,68a2.86,2.86,0,0,0,2.66,2.66,2.65,2.65,0,0,0,1.89-.88l1.4-1.4a2.66,2.66,0,0,0,.89-1.89A2.56,2.56,0,0,0,69.1,64.65Zm-2.42,4.16a1.92,1.92,0,0,1-1.06.62,1.07,1.07,0,0,1-.92-.37,1,1,0,0,1-.36-.92,1.9,1.9,0,0,1,.62-1l1.41-1.41a1.9,1.9,0,0,1,1-.62,1.08,1.08,0,0,1,.91.36,1.1,1.1,0,0,1,.37.92,1.87,1.87,0,0,1-.61,1.06Z" transform="translate(-4.93 -5.09)"/><path class="cls-4" d="M71.15,71.06a3.56,3.56,0,0,1-.24-1,.77.77,0,0,1,.24-.6,1,1,0,0,1,.62-.31.78.78,0,0,1,.62.25.87.87,0,0,1,.3.7,1.27,1.27,0,0,1-.42.77l1,1,0,0a2,2,0,0,0,.68-1.54,2.34,2.34,0,0,0-.76-1.59A2.37,2.37,0,0,0,71.64,68a1.82,1.82,0,0,0-1.46.56,1.75,1.75,0,0,0-.57,1.36,5.08,5.08,0,0,0,.54,1.78,2,2,0,0,1,.21.89,1,1,0,0,1-.32.63.91.91,0,0,1-.61.3.87.87,0,0,1-.65-.3,1,1,0,0,1-.36-.77,1.47,1.47,0,0,1,.49-.87l-1-1h0a2,2,0,0,0-.73,1.71A2.76,2.76,0,0,0,68,73.93a2.43,2.43,0,0,0,1.53.79A1.75,1.75,0,0,0,71,74.15a1.87,1.87,0,0,0,.62-1.37A3.87,3.87,0,0,0,71.15,71.06Z" transform="translate(-4.93 -5.09)"/><path class="cls-4" d="M75,74.88a3.47,3.47,0,0,1-.24-1,.78.78,0,0,1,.25-.6,1,1,0,0,1,.61-.31.78.78,0,0,1,.62.26.85.85,0,0,1,.3.7,1.25,1.25,0,0,1-.42.76l1,1h0a2,2,0,0,0,.68-1.55,2.67,2.67,0,0,0-2.29-2.34,1.79,1.79,0,0,0-1.45.56,1.73,1.73,0,0,0-.58,1.36A4.92,4.92,0,0,0,74,75.48a2.31,2.31,0,0,1,.21.89,1,1,0,0,1-.33.63.91.91,0,0,1-.61.3.87.87,0,0,1-.65-.3,1,1,0,0,1-.35-.77,1.4,1.4,0,0,1,.49-.87l-.95-1,0,0a2,2,0,0,0-.73,1.7,2.76,2.76,0,0,0,.83,1.62,2.43,2.43,0,0,0,1.53.79A1.78,1.78,0,0,0,74.85,78a1.88,1.88,0,0,0,.61-1.37A3.87,3.87,0,0,0,75,74.88Z" transform="translate(-4.93 -5.09)"/><rect class="cls-4" x="78.29" y="79.03" width="1.08" height="2.47" transform="translate(-38.59 74.16) rotate(-45)"/><path class="cls-4" d="M86.57,82.26,85,80.71l-5,5,1.55,1.55a2.4,2.4,0,0,0,1.89.72,3.15,3.15,0,0,0,2-1l.83-.83a3.16,3.16,0,0,0,1-2A2.33,2.33,0,0,0,86.57,82.26ZM84.48,86a2.58,2.58,0,0,1-1.2.74,1,1,0,0,1-1-.24L81.73,86l3.5-3.5.58.58A1,1,0,0,1,86,84a2.43,2.43,0,0,1-.72,1.18Z" transform="translate(-4.93 -5.09)"/><path class="cls-4" d="M90.87,86.42A2.54,2.54,0,0,0,89,85.59a2.71,2.71,0,0,0-1.88.9l-1.4,1.4a2.66,2.66,0,0,0-.89,1.88,2.86,2.86,0,0,0,2.66,2.66,2.65,2.65,0,0,0,1.89-.88l1.4-1.4a2.65,2.65,0,0,0,.88-1.89A2.53,2.53,0,0,0,90.87,86.42Zm-2.42,4.16a1.92,1.92,0,0,1-1.06.62,1.07,1.07,0,0,1-.92-.37,1,1,0,0,1-.36-.92,1.9,1.9,0,0,1,.62-1l1.41-1.41a1.9,1.9,0,0,1,1-.62,1.08,1.08,0,0,1,.91.36,1.12,1.12,0,0,1,.37.92,1.82,1.82,0,0,1-.61,1Z" transform="translate(-4.93 -5.09)"/><polygon class="cls-4" points="89.34 91.28 89.31 91.27 90.93 86.46 89.95 85.49 84.93 90.51 85.9 91.49 89.11 88.28 89.13 88.3 87.52 93.1 88.49 94.08 93.52 89.05 92.55 88.08 89.34 91.28"/><path class="cls-4" d="M101,96.57a2.52,2.52,0,0,0-1.83-.83,2.68,2.68,0,0,0-1.88.89L95.91,98A2.64,2.64,0,0,0,95,99.92a2.88,2.88,0,0,0,2.66,2.66,2.64,2.64,0,0,0,1.89-.89l1.4-1.4a2.65,2.65,0,0,0,.88-1.89A2.54,2.54,0,0,0,101,96.57Zm-2.42,4.15a1.89,1.89,0,0,1-1.06.62,1.11,1.11,0,0,1-.93-.36,1.09,1.09,0,0,1-.36-.92,1.93,1.93,0,0,1,.63-1l1.41-1.42a1.89,1.89,0,0,1,1-.61,1,1,0,0,1,.92.36,1.09,1.09,0,0,1,.36.92,1.79,1.79,0,0,1-.6,1Z" transform="translate(-4.93 -5.09)"/><polygon class="cls-4" points="97.4 94.46 98.55 95.61 94.28 99.87 95.26 100.85 99.53 96.58 100.71 97.77 101.47 97 98.16 93.69 97.4 94.46"/><path class="cls-4" d="M110.12,105.67a2.31,2.31,0,0,0-1.73-.76,2.64,2.64,0,0,0-1.82.9l-1.49,1.49a2.59,2.59,0,0,0-.88,1.83,2.47,2.47,0,0,0,.81,1.77,2.34,2.34,0,0,0,1.62.81,2.19,2.19,0,0,0,1.62-.79v0l-.94-.94a1.59,1.59,0,0,1-.84.52.92.92,0,0,1-.71-.33,1,1,0,0,1-.33-.86,1.92,1.92,0,0,1,.61-1l1.5-1.5a2,2,0,0,1,1-.62.88.88,0,0,1,.81.28,1.08,1.08,0,0,1,.38.77,1.5,1.5,0,0,1-.51.84l1,.95h0a2.18,2.18,0,0,0,.79-1.64A2.58,2.58,0,0,0,110.12,105.67Z" transform="translate(-4.93 -5.09)"/><path class="cls-4" d="M111.32,115.36l.37-.36a2.3,2.3,0,0,0,.59-.93,1.41,1.41,0,0,0-.14-1,1.75,1.75,0,0,0,1,.07,1.71,1.71,0,0,0,.86-.49,2,2,0,0,0,.66-1.52,2.4,2.4,0,0,0-.79-1.57L112.34,108l-5,5,1,1,2-2,.59.58a.74.74,0,0,1,.24.67,1.36,1.36,0,0,1-.43.75l-.35.35a4.78,4.78,0,0,0-.47.54.81.81,0,0,0-.21.51l1,1,.07-.07a.89.89,0,0,1,.17-.52A3.23,3.23,0,0,1,111.32,115.36Zm.94-3.28a.82.82,0,0,1-.66-.29l-.53-.52,1.49-1.49.53.53a.79.79,0,0,1,.27.68,1.25,1.25,0,0,1-.4.72A1.13,1.13,0,0,1,112.26,112.08Z" transform="translate(-4.93 -5.09)"/><path class="cls-4" d="M118.05,113.6a2.51,2.51,0,0,0-1.83-.83,2.71,2.71,0,0,0-1.88.9l-1.4,1.4a2.66,2.66,0,0,0-.89,1.88,2.86,2.86,0,0,0,2.66,2.66,2.65,2.65,0,0,0,1.89-.88l1.4-1.41a2.61,2.61,0,0,0,.88-1.88A2.53,2.53,0,0,0,118.05,113.6Zm-2.42,4.16a1.92,1.92,0,0,1-1.06.62,1.07,1.07,0,0,1-.92-.37,1,1,0,0,1-.36-.92,1.9,1.9,0,0,1,.62-1l1.41-1.42a1.94,1.94,0,0,1,1.05-.61,1.08,1.08,0,0,1,.91.36,1.12,1.12,0,0,1,.37.92,1.82,1.82,0,0,1-.61,1Z" transform="translate(-4.93 -5.09)"/><path class="cls-4" d="M120.58,116.91a1.8,1.8,0,0,0-1.45.56,1.74,1.74,0,0,0-.57,1.36,5.08,5.08,0,0,0,.54,1.78,2.32,2.32,0,0,1,.16.49l.92-.92c0-.05-.05-.11-.08-.17a3,3,0,0,1-.24-1,.76.76,0,0,1,.24-.59,1,1,0,0,1,.62-.31.78.78,0,0,1,.62.25.9.9,0,0,1,.24.39l.8-.8a2.69,2.69,0,0,0-.27-.32A2.37,2.37,0,0,0,120.58,116.91Z" transform="translate(-4.93 -5.09)"/><path class="cls-4" d="M117.73,122.13a1,1,0,0,1-.36-.77,1.4,1.4,0,0,1,.49-.87l-1-.95h0a2,2,0,0,0-.72,1.71,2.75,2.75,0,0,0,.82,1.62l.27.23.77-.77A1.06,1.06,0,0,1,117.73,122.13Z" transform="translate(-4.93 -5.09)"/><polygon class="cls-4" points="116.53 104.45 122.56 100.93 119.04 97.41 113.01 100.93 116.53 104.45"/><polygon class="cls-4" points="121.22 109.13 123.15 107.2 120.71 108.63 121.22 109.13"/><polygon class="cls-4" points="24.94 37.6 22.93 38.78 19.75 41.96 22.43 44.65 28.46 41.12 24.94 37.6"/><polygon class="cls-4" points="32.63 45.3 26.61 48.82 30.13 52.34 36.15 48.82 32.63 45.3"/><polygon class="cls-4" points="40.33 52.99 34.3 56.52 37.82 60.04 43.85 56.52 40.33 52.99"/><polygon class="cls-4" points="48.02 60.69 42 64.21 45.52 67.73 51.54 64.21 48.02 60.69"/><polygon class="cls-4" points="55.72 68.39 49.69 71.91 53.21 75.43 59.24 71.91 55.72 68.39"/><polygon class="cls-4" points="63.41 76.08 57.39 79.6 60.91 83.12 66.93 79.6 63.41 76.08"/><polygon class="cls-4" points="71.11 83.78 65.08 87.3 68.6 90.82 74.63 87.3 71.11 83.78"/><polygon class="cls-4" points="78.8 91.47 72.78 94.99 76.3 98.51 82.32 94.99 78.8 91.47"/><polygon class="cls-4" points="86.5 99.17 80.47 102.69 83.99 106.21 90.02 102.69 86.5 99.17"/><polygon class="cls-4" points="94.19 106.86 88.17 110.38 91.69 113.9 97.72 110.38 94.19 106.86"/><polygon class="cls-4" points="101.89 114.56 95.86 118.08 99.39 121.6 105.41 118.08 101.89 114.56"/><polygon class="cls-4" points="103.56 125.77 104.07 126.28 106 124.34 103.56 125.77"/><path class="cls-5" d="M46.59,25.12l84.32,84.33L109,131.37,24.67,47.05,46.59,25.12m0-4.24L44.47,23,22.55,44.92l-2.12,2.13,2.12,2.12,84.32,84.32,2.12,2.12,2.12-2.12L133,111.57l2.13-2.12L133,107.33,48.71,23l-2.12-2.12Z" transform="translate(-4.93 -5.09)"/></g></svg>