<svg xmlns="http://www.w3.org/2000/svg" viewBox="0 0 145.73 145.73"><defs><style>.cls-1{fill:#ea504f;}.cls-2{fill:#f4c4a4;}.cls-12,.cls-3{fill:#5b5b5a;}.cls-3{opacity:0.2;}.cls-4{fill:#f8ac1a;}.cls-5{fill:#fff;}.cls-6{fill:#626261;}.cls-7{fill:#bdbcbc;}.cls-8{fill:#e0e0e0;}.cls-9{fill:#9a9b9c;}.cls-10,.cls-13,.cls-15,.cls-17{fill:none;}.cls-10{stroke:#4e7a92;}.cls-10,.cls-13,.cls-17{stroke-miterlimit:10;}.cls-10,.cls-13{stroke-width:2px;}.cls-11{fill:#fcd6b7;}.cls-13{stroke:#f5ad1f;}.cls-14{fill:#3c3c3b;opacity:0.4;}.cls-16{fill:#4e7a92;}.cls-17{stroke:#eaeaea;stroke-width:4px;}</style></defs><title>G11_11</title><g id="Mobile"><circle class="cls-1" cx="72.87" cy="72.87" r="70.87"/><path class="cls-2" d="M68.63,90.77l-.38-2.69A1.32,1.32,0,0,0,66.74,87l-.57-3.91a1.36,1.36,0,0,0-1.54-1.16l-.19,0-.5-3.51a2.21,2.21,0,0,0-2.51-1.87l-11.09,1.6a1.87,1.87,0,0,0-.59.2l-10,5.38L39,86.11l16.69,12.6A1.91,1.91,0,0,1,57,97.76l8.06-1.17a2.62,2.62,0,0,0,2.22-2.91l-.12-.91a.46.46,0,0,1,.37-.51A1.31,1.31,0,0,0,68.63,90.77Z" transform="translate(-5.09 -5.09)"/><path class="cls-3" d="M115,107.73a1.39,1.39,0,0,1-.35-.41,1.28,1.28,0,0,1-.14-.37L113,99.64l-.5-2.3a2.65,2.65,0,0,0-1-1.58l-2.08-1.58V53.73a2.56,2.56,0,0,0-2.57-2.56H95.73v-.74a1,1,0,0,0-1-1H89.58v-.41a5,5,0,0,0-10.08,0v.41H74.32a1,1,0,0,0-1,1v.74H62.27a2.56,2.56,0,0,0-2.57,2.56v39l-.7.1a1.72,1.72,0,0,0-.54.18l-9.1,4.87-2.94,1.58a1.6,1.6,0,0,0-.83,1.11l-2.85,14.21a1.4,1.4,0,0,0,0,.54l1.87,10.19L44.23,128l-2.59-.46-.79,4.51-.63-.1-.89,4,4.8,3.11,7,3.83,5.94,1.42,1.18-9.2L57,134.9l.8-4.5-1.94-.34c1.25-1.72,1.77-2.27,2.42-3.3a27.27,27.27,0,0,0,3.45-7.64l.61-2.29H98.74l.88,3.46-2.09.46,3.15,23.57,20.79-11.94ZM86.27,48.17v.68H82.81v-.68a1.72,1.72,0,0,1,1.73-1.73,1.68,1.68,0,0,1,1.22.51A1.72,1.72,0,0,1,86.27,48.17Z" transform="translate(-5.09 -5.09)"/><rect class="cls-4" x="42.54" y="15.52" width="65.85" height="87.05" rx="3.4" ry="3.4"/><rect class="cls-5" x="45.49" y="18.92" width="59.95" height="80.25"/><path class="cls-6" d="M71.94,34.55H70.58l-.31,1.18h-1.1l1.55-5.46h1.09l1.55,5.46H72.25Zm-1.15-.83h.93L71.27,32h0Z" transform="translate(-5.09 -5.09)"/><path class="cls-6" d="M75.22,35a.38.38,0,0,0,.34-.16.81.81,0,0,0,.12-.48h1v0a1.41,1.41,0,0,1-.4,1,1.39,1.39,0,0,1-1,.41A1.44,1.44,0,0,1,74,35.24a2.45,2.45,0,0,1-.42-1.48v-.11A2.47,2.47,0,0,1,74,32.17a1.44,1.44,0,0,1,1.22-.57,1.36,1.36,0,0,1,1,.42,1.6,1.6,0,0,1,.38,1.14v0h-1a1.09,1.09,0,0,0-.12-.55.37.37,0,0,0-.34-.2.47.47,0,0,0-.46.33,2.7,2.7,0,0,0-.13.89v.11a2.62,2.62,0,0,0,.13.89A.47.47,0,0,0,75.22,35Z" transform="translate(-5.09 -5.09)"/><path class="cls-6" d="M78.42,30.67v1H79v.76h-.55v2.06a.77.77,0,0,0,.07.37.25.25,0,0,0,.21.11h.12l.12,0,.09.78-.29.08-.31,0a1,1,0,0,1-.79-.32,1.45,1.45,0,0,1-.28-1V32.43h-.49v-.76h.49v-1Z" transform="translate(-5.09 -5.09)"/><path class="cls-6" d="M80.67,30.69H79.61v-.81h1.06Zm0,5H79.61V31.67h1.06Z" transform="translate(-5.09 -5.09)"/><path class="cls-6" d="M81.3,33.66a2.42,2.42,0,0,1,.43-1.49A1.46,1.46,0,0,1,83,31.6a1.48,1.48,0,0,1,1.23.57,2.42,2.42,0,0,1,.44,1.49v.09a2.34,2.34,0,0,1-.44,1.49,1.45,1.45,0,0,1-1.22.57,1.49,1.49,0,0,1-1.24-.57,2.4,2.4,0,0,1-.43-1.49Zm1,.09a2.42,2.42,0,0,0,.14.9A.48.48,0,0,0,83,35a.48.48,0,0,0,.46-.33,2.23,2.23,0,0,0,.14-.9v-.09a2.21,2.21,0,0,0-.14-.89.49.49,0,0,0-.94,0,2.44,2.44,0,0,0-.14.89Z" transform="translate(-5.09 -5.09)"/><path class="cls-6" d="M86.17,31.67l0,.57a1.28,1.28,0,0,1,.42-.47,1,1,0,0,1,.56-.17A1,1,0,0,1,88,32a2.22,2.22,0,0,1,.29,1.27v2.46H87.24V33.27a1.31,1.31,0,0,0-.11-.65.35.35,0,0,0-.33-.19.69.69,0,0,0-.32.08.91.91,0,0,0-.24.24v3h-1V31.67Z" transform="translate(-5.09 -5.09)"/><path class="cls-6" d="M90.79,34.67a.39.39,0,0,0-.14-.3,2.2,2.2,0,0,0-.54-.32,2.68,2.68,0,0,1-.93-.52,1,1,0,0,1-.31-.74,1.06,1.06,0,0,1,.4-.84,1.52,1.52,0,0,1,1-.35A1.58,1.58,0,0,1,91.4,32a1.13,1.13,0,0,1,.39.91v0h-1a.64.64,0,0,0-.11-.41.38.38,0,0,0-.34-.16.45.45,0,0,0-.31.12.4.4,0,0,0-.12.29A.37.37,0,0,0,90,33a2.18,2.18,0,0,0,.54.31,2.53,2.53,0,0,1,.95.52,1,1,0,0,1,.32.77,1,1,0,0,1-.42.85,1.69,1.69,0,0,1-1.09.33,1.53,1.53,0,0,1-1.12-.41,1.13,1.13,0,0,1-.39-.91v0h1a.66.66,0,0,0,.15.48.61.61,0,0,0,.42.14.5.5,0,0,0,.34-.11A.38.38,0,0,0,90.79,34.67Z" transform="translate(-5.09 -5.09)"/><path class="cls-7" d="M87.23,17.81a6.68,6.68,0,0,0-13.36,0v2.8H87.23v-2.8Zm-9-1.18a2.29,2.29,0,1,1,4.58,0v.91H78.26Z" transform="translate(-5.09 -5.09)"/><rect class="cls-7" x="73.18" y="12.46" width="4.58" height="0.23"/><path class="cls-8" d="M87.23,17.81a6.68,6.68,0,0,0-13.36,0V18a6.68,6.68,0,0,1,13.36,0v-.23Z" transform="translate(-5.09 -5.09)"/><path class="cls-9" d="M87.23,18v2.65H73.87v-2.8H87.23Z" transform="translate(-5.09 -5.09)"/><rect class="cls-7" x="60.63" y="13.26" width="29.68" height="8.93" rx="3.72" ry="3.72"/><path class="cls-8" d="M94.11,18.34H67a1.29,1.29,0,0,0-1.29,1.29v.23A1.28,1.28,0,0,1,67,18.58H94.11a1.28,1.28,0,0,1,1.28,1.28v-.23A1.28,1.28,0,0,0,94.11,18.34Z" transform="translate(-5.09 -5.09)"/><path class="cls-9" d="M94.11,25.67H67a1.28,1.28,0,0,1-1.29-1.28V26A1.28,1.28,0,0,0,67,27.27H94.11A1.28,1.28,0,0,0,95.39,26v-1.6A1.28,1.28,0,0,1,94.11,25.67Z" transform="translate(-5.09 -5.09)"/><path class="cls-8" d="M92.53,20.62h-24a.34.34,0,0,1-.33-.34h0a.33.33,0,0,1,.33-.33h24a.34.34,0,0,1,.34.33h0A.34.34,0,0,1,92.53,20.62Z" transform="translate(-5.09 -5.09)"/><path class="cls-8" d="M92.53,22.65h-24a.33.33,0,0,1-.33-.33h0a.34.34,0,0,1,.33-.34h24a.34.34,0,0,1,.34.34h0A.34.34,0,0,1,92.53,22.65Z" transform="translate(-5.09 -5.09)"/><path class="cls-8" d="M92.53,24.68h-24a.33.33,0,0,1-.33-.33h0a.33.33,0,0,1,.33-.33h24a.34.34,0,0,1,.34.33h0A.34.34,0,0,1,92.53,24.68Z" transform="translate(-5.09 -5.09)"/><rect class="cls-9" x="63.15" y="14.58" width="24.63" height="0.67" rx="0.28" ry="0.28"/><path class="cls-9" d="M92.53,22.37h-24a.33.33,0,0,1-.33-.33h0a.34.34,0,0,1,.33-.34h24a.34.34,0,0,1,.34.34h0A.34.34,0,0,1,92.53,22.37Z" transform="translate(-5.09 -5.09)"/><path class="cls-9" d="M92.53,24.4h-24a.33.33,0,0,1-.33-.33h0a.34.34,0,0,1,.33-.34h24a.34.34,0,0,1,.34.34h0A.34.34,0,0,1,92.53,24.4Z" transform="translate(-5.09 -5.09)"/><path class="cls-6" d="M56,46.85h-.82V43.31l-.78,0v-.64l1.6-.16Z" transform="translate(-5.09 -5.09)"/><path class="cls-6" d="M58.2,46.85h-.82v-.74h.82Z" transform="translate(-5.09 -5.09)"/><path class="cls-6" d="M60.27,46.85V42.59h1.31a1.39,1.39,0,0,1,1.11.5,1.87,1.87,0,0,1,.43,1.28v.71a1.87,1.87,0,0,1-.43,1.28,1.41,1.41,0,0,1-1.11.49Zm.82-3.61v3h.49a.59.59,0,0,0,.52-.32,1.52,1.52,0,0,0,.2-.81v-.72a1.52,1.52,0,0,0-.2-.81.58.58,0,0,0-.52-.31Z" transform="translate(-5.09 -5.09)"/><path class="cls-6" d="M65.23,46.85a1.42,1.42,0,0,1-.07-.22,2.38,2.38,0,0,1,0-.26,1,1,0,0,1-.28.39.57.57,0,0,1-.42.16.84.84,0,0,1-.66-.26,1,1,0,0,1-.24-.69.9.9,0,0,1,.31-.72,1.4,1.4,0,0,1,.92-.26h.36v-.26a.65.65,0,0,0-.09-.37.31.31,0,0,0-.26-.12.26.26,0,0,0-.23.1.42.42,0,0,0-.08.29h-.8v0a.85.85,0,0,1,.31-.7,1.25,1.25,0,0,1,.86-.28,1.16,1.16,0,0,1,.81.28,1.06,1.06,0,0,1,.31.82V46a3,3,0,0,0,0,.43c0,.13.06.26.1.39Zm-.6-.55a.45.45,0,0,0,.29-.1A.59.59,0,0,0,65.1,46v-.5h-.36a.36.36,0,0,0-.31.13.62.62,0,0,0-.09.34.4.4,0,0,0,.08.27A.24.24,0,0,0,64.63,46.3Z" transform="translate(-5.09 -5.09)"/><path class="cls-6" d="M67.42,42.9v.78h.43v.59h-.43v1.62a.48.48,0,0,0,.06.28.18.18,0,0,0,.16.09h.1l.09,0,.07.61-.23.06-.24,0a.8.8,0,0,1-.62-.25,1.17,1.17,0,0,1-.21-.78V44.27h-.39v-.59h.39V42.9Z" transform="translate(-5.09 -5.09)"/><path class="cls-6" d="M69.53,46.92a1.17,1.17,0,0,1-1-.44,1.73,1.73,0,0,1-.35-1.11v-.12a1.93,1.93,0,0,1,.33-1.17,1.1,1.1,0,0,1,.94-.45,1,1,0,0,1,.86.38,1.65,1.65,0,0,1,.3,1v.45H69a1,1,0,0,0,.16.56.47.47,0,0,0,.43.21,1.22,1.22,0,0,0,.41-.06,1.06,1.06,0,0,0,.35-.18l.22.52a1.54,1.54,0,0,1-.46.26A1.8,1.8,0,0,1,69.53,46.92Zm0-2.65a.33.33,0,0,0-.31.19A1.25,1.25,0,0,0,69,45h.79v-.07a1.12,1.12,0,0,0-.08-.46A.3.3,0,0,0,69.48,44.27Z" transform="translate(-5.09 -5.09)"/><path class="cls-6" d="M56.79,57.85H54.18V57.3l1.18-1.49a2.89,2.89,0,0,0,.36-.58,1.22,1.22,0,0,0,.11-.45.79.79,0,0,0-.11-.44.37.37,0,0,0-.33-.17.38.38,0,0,0-.35.21,1,1,0,0,0-.13.53H54.1v0a1.35,1.35,0,0,1,.35-1,1.22,1.22,0,0,1,1-.39,1.15,1.15,0,0,1,1.27,1.25,1.35,1.35,0,0,1-.19.71,7.84,7.84,0,0,1-.64.88l-.58.84h1.54Z" transform="translate(-5.09 -5.09)"/><path class="cls-6" d="M58.2,57.85h-.82v-.74h.82Z" transform="translate(-5.09 -5.09)"/><path class="cls-6" d="M62.83,54.24h-1v3.61H61V54.24H60v-.65h2.8Z" transform="translate(-5.09 -5.09)"/><path class="cls-6" d="M64.05,53.91h-.83v-.63h.83Zm0,3.94h-.83V54.68h.83Z" transform="translate(-5.09 -5.09)"/><path class="cls-6" d="M65.41,54.68l0,.41a1,1,0,0,1,.33-.34.84.84,0,0,1,.45-.12.73.73,0,0,1,.43.13.76.76,0,0,1,.27.39,1.27,1.27,0,0,1,.33-.39.78.78,0,0,1,.46-.13.74.74,0,0,1,.63.33,1.83,1.83,0,0,1,.23,1v1.87h-.83V56a1.19,1.19,0,0,0-.08-.55.28.28,0,0,0-.26-.15.37.37,0,0,0-.23.07.49.49,0,0,0-.16.21v.12a.41.41,0,0,1,0,.11v2.06h-.83V56a1.24,1.24,0,0,0-.08-.55.28.28,0,0,0-.26-.15.4.4,0,0,0-.22.06.49.49,0,0,0-.16.16v2.35h-.83V54.68Z" transform="translate(-5.09 -5.09)"/><path class="cls-6" d="M70.34,57.92a1.19,1.19,0,0,1-1-.44A1.73,1.73,0,0,1,69,56.37v-.12a1.93,1.93,0,0,1,.33-1.17,1.09,1.09,0,0,1,.94-.45,1,1,0,0,1,.86.38,1.71,1.71,0,0,1,.29,1v.45h-1.6a1.09,1.09,0,0,0,.17.56.46.46,0,0,0,.42.21,1.18,1.18,0,0,0,.41-.06A1.1,1.1,0,0,0,71.2,57l.22.52a1.54,1.54,0,0,1-.46.26A1.84,1.84,0,0,1,70.34,57.92Zm0-2.65a.33.33,0,0,0-.31.19,1.25,1.25,0,0,0-.13.5h.79v-.07a1.12,1.12,0,0,0-.08-.46A.3.3,0,0,0,70.29,55.27Z" transform="translate(-5.09 -5.09)"/><path class="cls-6" d="M55.42,66.36a.46.46,0,0,0,.37-.16.69.69,0,0,0,.13-.45.61.61,0,0,0-.13-.41.45.45,0,0,0-.37-.17.39.39,0,0,0-.31.15.51.51,0,0,0-.13.37h-.82a1,1,0,0,1,.36-.83,1.29,1.29,0,0,1,.9-.32,1.41,1.41,0,0,1,1,.31,1.13,1.13,0,0,1,.37.89,1.07,1.07,0,0,1-.16.55,1.13,1.13,0,0,1-.43.38,1,1,0,0,1,.47.38,1.16,1.16,0,0,1,.17.63,1.12,1.12,0,0,1-.39.91,1.44,1.44,0,0,1-1,.34,1.48,1.48,0,0,1-.93-.32,1.06,1.06,0,0,1-.38-.9h.81a.64.64,0,0,0,.14.41.44.44,0,0,0,.36.17.55.55,0,0,0,.41-.17.65.65,0,0,0,.15-.44.8.8,0,0,0-.14-.51.54.54,0,0,0-.42-.16H55v-.63Z" transform="translate(-5.09 -5.09)"/><path class="cls-6" d="M58.2,68.85h-.82v-.74h.82Z" transform="translate(-5.09 -5.09)"/><path class="cls-6" d="M61.14,68.85h-.83V64.59h.83Z" transform="translate(-5.09 -5.09)"/><path class="cls-6" d="M62.76,64.9v.78h.43v.59h-.43v1.62a.48.48,0,0,0,.06.28.18.18,0,0,0,.16.09h.09l.1,0,.06.61L63,68.9l-.24,0a.79.79,0,0,1-.62-.25,1.12,1.12,0,0,1-.22-.78V66.27h-.38v-.59h.38V64.9Z" transform="translate(-5.09 -5.09)"/><path class="cls-6" d="M64.86,68.92a1.18,1.18,0,0,1-1-.44,1.73,1.73,0,0,1-.34-1.11v-.12a1.93,1.93,0,0,1,.33-1.17,1.09,1.09,0,0,1,.93-.45,1,1,0,0,1,.86.38,1.65,1.65,0,0,1,.3,1v.45h-1.6a1.2,1.2,0,0,0,.16.56.48.48,0,0,0,.43.21,1.18,1.18,0,0,0,.41-.06,1.21,1.21,0,0,0,.36-.18l.21.52a1.32,1.32,0,0,1-.46.26A1.75,1.75,0,0,1,64.86,68.92Zm0-2.65a.31.31,0,0,0-.3.19,1.25,1.25,0,0,0-.13.5h.78v-.07a1,1,0,0,0-.08-.46A.28.28,0,0,0,64.81,66.27Z" transform="translate(-5.09 -5.09)"/><path class="cls-6" d="M67.17,65.68l0,.41a1,1,0,0,1,.32-.34.84.84,0,0,1,.45-.12.69.69,0,0,1,.43.13.84.84,0,0,1,.28.39,1.12,1.12,0,0,1,.32-.39.8.8,0,0,1,.46-.13.72.72,0,0,1,.63.33,1.74,1.74,0,0,1,.24,1v1.87H69.5V67a1.16,1.16,0,0,0-.09-.55.27.27,0,0,0-.26-.15.39.39,0,0,0-.23.07.58.58,0,0,0-.16.21s0,.09,0,.12v2.17H68V67a1.21,1.21,0,0,0-.09-.55.27.27,0,0,0-.26-.15.43.43,0,0,0-.22.06.61.61,0,0,0-.16.16v2.35H66.4V65.68Z" transform="translate(-5.09 -5.09)"/><path class="cls-6" d="M56.44,78.27h.41v.65h-.41v.93h-.83v-.93H54.07l0-.51,1.57-2.82h.84Zm-1.68,0h.85V76.73h0l-.08.17Z" transform="translate(-5.09 -5.09)"/><path class="cls-6" d="M58.2,79.85h-.82v-.74h.82Z" transform="translate(-5.09 -5.09)"/><path class="cls-6" d="M63.29,79.85h-.82l-1.36-2.72h0v2.71h-.82V75.59h.82l1.36,2.72h0V75.59h.82Z" transform="translate(-5.09 -5.09)"/><path class="cls-6" d="M65.48,79.85a1.43,1.43,0,0,1-.08-.22,2.38,2.38,0,0,1-.05-.26,1.13,1.13,0,0,1-.27.39.6.6,0,0,1-.42.16.86.86,0,0,1-.67-.26,1,1,0,0,1-.23-.69.89.89,0,0,1,.3-.72A1.42,1.42,0,0,1,65,78h.36v-.26a.65.65,0,0,0-.09-.37.3.3,0,0,0-.26-.12.26.26,0,0,0-.23.1.48.48,0,0,0-.08.29h-.8v0a.87.87,0,0,1,.3-.7,1.27,1.27,0,0,1,.86-.28,1.13,1.13,0,0,1,.81.28,1.06,1.06,0,0,1,.32.82V79a3,3,0,0,0,0,.43,1.86,1.86,0,0,0,.1.39Zm-.61-.55a.43.43,0,0,0,.29-.1.47.47,0,0,0,.18-.24v-.5H65a.33.33,0,0,0-.3.13.55.55,0,0,0-.1.34.46.46,0,0,0,.08.27A.24.24,0,0,0,64.87,79.3Z" transform="translate(-5.09 -5.09)"/><path class="cls-6" d="M67.47,76.68l0,.41a.9.9,0,0,1,.33-.34.78.78,0,0,1,.44-.12.69.69,0,0,1,.43.13.78.78,0,0,1,.28.39,1.12,1.12,0,0,1,.32-.39.83.83,0,0,1,.47-.13.74.74,0,0,1,.63.33,1.83,1.83,0,0,1,.23,1v1.87H69.8V78a1.34,1.34,0,0,0-.08-.55.29.29,0,0,0-.26-.15.35.35,0,0,0-.23.07.6.6,0,0,0-.17.21s0,.09,0,.12v2.17h-.82V78a1.41,1.41,0,0,0-.08-.55.29.29,0,0,0-.27-.15.37.37,0,0,0-.21.06.52.52,0,0,0-.17.16v2.35H66.7V76.68Z" transform="translate(-5.09 -5.09)"/><path class="cls-6" d="M72.39,79.92a1.18,1.18,0,0,1-1-.44,1.73,1.73,0,0,1-.34-1.11v-.12a1.93,1.93,0,0,1,.33-1.17,1.09,1.09,0,0,1,.93-.45,1,1,0,0,1,.86.38,1.65,1.65,0,0,1,.3,1v.45H71.9a1.2,1.2,0,0,0,.16.56.48.48,0,0,0,.43.21,1.22,1.22,0,0,0,.41-.06,1.21,1.21,0,0,0,.36-.18l.21.52a1.32,1.32,0,0,1-.46.26A1.8,1.8,0,0,1,72.39,79.92Zm0-2.65a.34.34,0,0,0-.31.19,1.26,1.26,0,0,0-.12.5h.78v-.07a1,1,0,0,0-.08-.46A.28.28,0,0,0,72.34,77.27Z" transform="translate(-5.09 -5.09)"/><path class="cls-6" d="M54.23,89l.22-2.38h2.19v.66H55.13l-.1,1a.87.87,0,0,1,.27-.15.81.81,0,0,1,.35-.07,1,1,0,0,1,.83.36,1.73,1.73,0,0,1,.29,1.06,1.59,1.59,0,0,1-.32,1,1.19,1.19,0,0,1-1,.41,1.44,1.44,0,0,1-.93-.32,1,1,0,0,1-.37-.85v0l.8,0a.63.63,0,0,0,.13.43.46.46,0,0,0,.36.15.39.39,0,0,0,.37-.2,1.24,1.24,0,0,0,.11-.58,1.16,1.16,0,0,0-.13-.6.4.4,0,0,0-.38-.22.48.48,0,0,0-.31.09A.56.56,0,0,0,55,89Z" transform="translate(-5.09 -5.09)"/><path class="cls-6" d="M58.2,90.85h-.82v-.74h.82Z" transform="translate(-5.09 -5.09)"/><path class="cls-6" d="M63.29,89.32a1.58,1.58,0,0,1-.42,1.17,1.7,1.7,0,0,1-2.26,0,1.58,1.58,0,0,1-.42-1.17V88.13A1.62,1.62,0,0,1,60.61,87a1.52,1.52,0,0,1,1.13-.42,1.55,1.55,0,0,1,1.13.42,1.62,1.62,0,0,1,.42,1.18Zm-.82-1.2a1.08,1.08,0,0,0-.19-.7.64.64,0,0,0-.54-.24.65.65,0,0,0-.55.24,1.13,1.13,0,0,0-.18.7v1.2a1.09,1.09,0,0,0,.19.71.63.63,0,0,0,.54.24.66.66,0,0,0,.55-.24,1.16,1.16,0,0,0,.18-.71Z" transform="translate(-5.09 -5.09)"/><path class="cls-6" d="M64,90.85V88.27h-.4v-.59H64v-.35a1.14,1.14,0,0,1,.27-.82,1.06,1.06,0,0,1,.78-.29l.2,0,.22,0-.06.63-.12,0h-.13a.28.28,0,0,0-.25.12.55.55,0,0,0-.09.34v.35h.51v.59h-.51v2.58Z" transform="translate(-5.09 -5.09)"/><path class="cls-6" d="M65.88,90.85V88.27h-.4v-.59h.4v-.35a1.14,1.14,0,0,1,.27-.82,1.06,1.06,0,0,1,.78-.29l.2,0,.22,0-.07.63-.11,0H67a.28.28,0,0,0-.25.12.55.55,0,0,0-.09.34v.35h.51v.59H66.7v2.58Z" transform="translate(-5.09 -5.09)"/><path class="cls-6" d="M68.7,90.92a1.17,1.17,0,0,1-1-.44,1.73,1.73,0,0,1-.35-1.11v-.12a1.93,1.93,0,0,1,.33-1.17,1.1,1.1,0,0,1,.94-.45,1,1,0,0,1,.86.38,1.65,1.65,0,0,1,.3,1v.45h-1.6a1,1,0,0,0,.16.56.47.47,0,0,0,.43.21,1.22,1.22,0,0,0,.41-.06,1.06,1.06,0,0,0,.35-.18l.22.52a1.54,1.54,0,0,1-.46.26A1.8,1.8,0,0,1,68.7,90.92Zm0-2.65a.33.33,0,0,0-.31.19,1.25,1.25,0,0,0-.13.5H69v-.07a1.12,1.12,0,0,0-.08-.46A.3.3,0,0,0,68.65,88.27Z" transform="translate(-5.09 -5.09)"/><path class="cls-6" d="M71,87.68l0,.45a1.08,1.08,0,0,1,.33-.37.76.76,0,0,1,.44-.13.73.73,0,0,1,.63.31,1.72,1.72,0,0,1,.23,1v1.92h-.82V88.93a1.05,1.05,0,0,0-.09-.51.3.3,0,0,0-.26-.14.49.49,0,0,0-.25.06.54.54,0,0,0-.19.18v2.33h-.82V87.68Z" transform="translate(-5.09 -5.09)"/><path class="cls-6" d="M74.35,90.27a.3.3,0,0,0,.27-.13.65.65,0,0,0,.09-.37h.75v0a1,1,0,0,1-.3.81,1.13,1.13,0,0,1-.81.32,1.11,1.11,0,0,1-.95-.45,1.84,1.84,0,0,1-.34-1.16v-.08a1.83,1.83,0,0,1,.34-1.15,1.11,1.11,0,0,1,.95-.45,1.06,1.06,0,0,1,.82.33,1.19,1.19,0,0,1,.29.88v0h-.75a.89.89,0,0,0-.09-.43.3.3,0,0,0-.27-.16.37.37,0,0,0-.36.27,1.86,1.86,0,0,0-.1.69v.08a1.89,1.89,0,0,0,.1.7A.36.36,0,0,0,74.35,90.27Z" transform="translate(-5.09 -5.09)"/><path class="cls-6" d="M77.1,90.92a1.19,1.19,0,0,1-1-.44,1.73,1.73,0,0,1-.34-1.11v-.12a1.93,1.93,0,0,1,.33-1.17,1.09,1.09,0,0,1,.94-.45,1,1,0,0,1,.85.38,1.65,1.65,0,0,1,.3,1v.45H76.6a1.2,1.2,0,0,0,.16.56.49.49,0,0,0,.43.21,1.18,1.18,0,0,0,.41-.06A1.21,1.21,0,0,0,78,90l.21.52a1.37,1.37,0,0,1-.45.26A1.84,1.84,0,0,1,77.1,90.92Zm0-2.65a.32.32,0,0,0-.31.19,1.25,1.25,0,0,0-.13.5h.78v-.07a1,1,0,0,0-.08-.46A.28.28,0,0,0,77.05,88.27Z" transform="translate(-5.09 -5.09)"/><line class="cls-10" x1="80.54" y1="37.31" x2="75.78" y2="37.31"/><line class="cls-10" x1="95.13" y1="37.31" x2="82.63" y2="37.31"/><line class="cls-10" x1="99.97" y1="37.31" x2="96.58" y2="37.31"/><line class="cls-10" x1="78.52" y1="40.7" x2="75.78" y2="40.7"/><line class="cls-10" x1="88.84" y1="40.7" x2="80.54" y2="40.7"/><line class="cls-10" x1="99.97" y1="40.7" x2="90.7" y2="40.7"/><line class="cls-10" x1="80.21" y1="43.6" x2="75.78" y2="43.6"/><line class="cls-10" x1="91.75" y1="43.6" x2="82.15" y2="43.6"/><line class="cls-10" x1="81.54" y1="49.31" x2="75.78" y2="49.31"/><line class="cls-10" x1="96.13" y1="49.31" x2="83.63" y2="49.31"/><line class="cls-10" x1="99.97" y1="49.31" x2="97.58" y2="49.31"/><line class="cls-10" x1="83.52" y1="52.7" x2="75.78" y2="52.7"/><line class="cls-10" x1="93.84" y1="52.7" x2="85.54" y2="52.7"/><line class="cls-10" x1="99.97" y1="52.7" x2="95.7" y2="52.7"/><line class="cls-10" x1="78.54" y1="60.31" x2="75.78" y2="60.31"/><line class="cls-10" x1="93.13" y1="60.31" x2="80.63" y2="60.31"/><line class="cls-10" x1="99.97" y1="60.31" x2="94.58" y2="60.31"/><line class="cls-10" x1="80.52" y1="63.7" x2="75.78" y2="63.7"/><line class="cls-10" x1="90.84" y1="63.7" x2="82.54" y2="63.7"/><line class="cls-10" x1="99.97" y1="63.7" x2="92.7" y2="63.7"/><line class="cls-10" x1="78.21" y1="66.6" x2="75.78" y2="66.6"/><path class="cls-11" d="M62.68,84.1a3,3,0,0,0-4.78-3.71L50,89.5a1.92,1.92,0,0,1-2.37.44l-3.9-2.08A8.2,8.2,0,0,1,41,85.49L39.7,83.72l-3.25,1.74a1.77,1.77,0,0,0-.91,1.23l-3.16,15.7a1.47,1.47,0,0,0,0,.59l2.06,11.26-1.14,7.54,12.93-1.69c1.85-2.6,2.47-3.21,3.3-4.5a30.29,30.29,0,0,0,3.81-8.44l2.14-8a1.7,1.7,0,0,1,.18-.44l.79-5.57Z" transform="translate(-5.09 -5.09)"/><rect class="cls-8" x="37.12" y="111.47" width="5.06" height="18.1" transform="matrix(-0.17, 0.98, -0.98, -0.17, 160.14, 97.38)"/><path class="cls-12" d="M29.6,121.32l-1.54,7a71.18,71.18,0,0,0,19.27,13.61l2.18-17.06Z" transform="translate(-5.09 -5.09)"/><line class="cls-13" x1="23.94" y1="118.81" x2="44.08" y2="122.41"/><line class="cls-13" x1="23.44" y1="121.06" x2="43.79" y2="124.7"/><line class="cls-13" x1="22.95" y1="123.29" x2="43.5" y2="126.97"/><path class="cls-14" d="M42.75,123.69l1.49.22.95-5,3.42-2-1.75,2.3,2.14.4-.88,5,1.39.24-2.18,17.06a71.75,71.75,0,0,1-7.17-4Z" transform="translate(-5.09 -5.09)"/><path class="cls-15" d="M90.14,89.28l-.8,1a.39.39,0,0,0,.11.56l3.92,2.31.06,0L95.5,94a.34.34,0,0,0,.35,0l1.79-1.34a.38.38,0,0,0,.15-.24l.57-3.08a.39.39,0,0,0-.39-.45l-.48,0,.16.77-.16-.77-7.06.3A.36.36,0,0,0,90.14,89.28Z" transform="translate(-5.09 -5.09)"/><rect class="cls-8" x="107.19" y="108.01" width="6.7" height="17.9" transform="translate(196.45 -20.86) rotate(77.81)"/><path class="cls-11" d="M113.53,77.73a.51.51,0,0,0-.37-.27L94.45,74.29A1.37,1.37,0,0,0,92.89,76l.65,2.68a.65.65,0,0,1,0,.24l2.21-.09L108.89,84l2.41,4.8-1.83,3.29-1.1,2,.37.3a.38.38,0,0,1,0,.59l-2.45,2A.38.38,0,0,1,106,97l-.4,0c1.16,4.77,5.36,8.75,10.13,10.51a1.53,1.53,0,0,1,.14-.41l4-7.24,1.26-2.28a3,3,0,0,0,.3-2.05l-.94-4.41Z" transform="translate(-5.09 -5.09)"/><path class="cls-12" d="M124.65,132,121,117.9l-19.55,4.2L105,143.77C112.32,143.33,117.74,134.69,124.65,132Z" transform="translate(-5.09 -5.09)"/><path class="cls-2" d="M97.66,87.25l3.71,3.37c-.07-.23,8,4,8,4L112.51,89l-2.59-5.16L95.81,78.2l-2.37.1C93.43,78.69,97.66,87.25,97.66,87.25Z" transform="translate(-5.09 -5.09)"/><path class="cls-16" d="M118,94.75l-30.25-23-2.89,3.73L115.08,98.7a1.51,1.51,0,0,0,2.16-.34l1.08-1.55A1.52,1.52,0,0,0,118,94.75Z" transform="translate(-5.09 -5.09)"/><polygon class="cls-11" points="79.76 70.39 77.14 65.78 82.66 66.65 79.76 70.39"/><polygon class="cls-16" points="77.14 65.78 78.16 67.56 79.2 66.11 77.14 65.78"/><line class="cls-13" x1="96.56" y1="119.32" x2="116.56" y2="114.99"/><line class="cls-13" x1="96.95" y1="121.59" x2="117.15" y2="117.21"/><line class="cls-13" x1="97.34" y1="123.84" x2="117.75" y2="119.42"/><path class="cls-11" d="M105.62,97l-1.83-.13a.37.37,0,0,1-.3-.19l-1.08-1.92,0-.06L101.51,92l-2-5.67-2.2-4.72a3.39,3.39,0,0,0-3.78-1.88l-.81.17a3.25,3.25,0,0,0-1.29,4.35l1,1.81,1.45,5.27.94,8.9a2.46,2.46,0,0,0,.1.47l1.75,5.57a2.85,2.85,0,0,0,.69,1.14l3.25,3.32a1.56,1.56,0,0,1,.36.62l1.14,4,14.59-3.11-.89-4.17a1.51,1.51,0,0,1,0-.6C111,105.71,106.78,101.73,105.62,97Z" transform="translate(-5.09 -5.09)"/><path class="cls-14" d="M106.41,121l-.73.16-1.22-6.36-.7.16-.53-2.2-2.33-1.4,1.14,4-1,.23,1.36,6.29-1,.23L105,143.77c2.27-.14,4.53-.38,6.77-.74Z" transform="translate(-5.09 -5.09)"/><circle class="cls-17" cx="72.87" cy="72.87" r="70.87"/></g></svg>