<svg id="Livello_1" data-name="Livello 1" xmlns="http://www.w3.org/2000/svg" viewBox="0 0 145.73 145.73"><defs><style>.cls-1{fill:#ea504f;stroke:#eaeaea;stroke-width:4px;}.cls-1,.cls-3,.cls-4,.cls-5{stroke-miterlimit:10;}.cls-2{fill:#fff;}.cls-3,.cls-4,.cls-5{fill:none;}.cls-3{stroke:#706f6f;stroke-width:0.99px;}.cls-4{stroke:#e30613;}.cls-5{stroke:#5b5b5a;stroke-width:1.42px;}.cls-6{fill:#e30613;}</style></defs><title>G11_10_02</title><circle class="cls-1" cx="72.87" cy="72.87" r="70.87"/><rect class="cls-2" x="36.65" y="20.44" width="72.44" height="104.53"/><rect class="cls-3" x="40.27" y="25.67" width="65.2" height="94.07"/><rect class="cls-4" x="43.1" y="65.7" width="59.53" height="33.95"/><line class="cls-4" x1="43.34" y1="77.91" x2="102.39" y2="77.91"/><line class="cls-4" x1="43.34" y1="87.91" x2="102.39" y2="87.91"/><line class="cls-4" x1="72.87" y1="65.87" x2="72.87" y2="99.65"/><line class="cls-5" x1="90.73" y1="36.71" x2="102.39" y2="36.71"/><line class="cls-5" x1="59.7" y1="36.71" x2="86.78" y2="36.71"/><line class="cls-5" x1="43.09" y1="36.71" x2="54.95" y2="36.71"/><line class="cls-5" x1="95.67" y1="42.71" x2="102.39" y2="42.71"/><line class="cls-5" x1="66.81" y1="42.71" x2="90.73" y2="42.71"/><line class="cls-5" x1="43.09" y1="42.71" x2="62.27" y2="42.71"/><line class="cls-5" x1="91.52" y1="48.71" x2="102.39" y2="48.71"/><line class="cls-5" x1="66.81" y1="48.71" x2="86.78" y2="48.71"/><line class="cls-5" x1="43.09" y1="48.71" x2="61.67" y2="48.71"/><line class="cls-5" x1="43.09" y1="51.71" x2="66.81" y2="51.71"/><line class="cls-5" x1="87.73" y1="39.71" x2="102.39" y2="39.71"/><line class="cls-5" x1="79.3" y1="39.71" x2="83.78" y2="39.71"/><line class="cls-5" x1="56.7" y1="39.71" x2="75.71" y2="39.71"/><line class="cls-5" x1="43.09" y1="39.71" x2="51.95" y2="39.71"/><line class="cls-5" x1="90.73" y1="45.71" x2="102.39" y2="45.71"/><line class="cls-5" x1="59.7" y1="45.71" x2="86.78" y2="45.71"/><line class="cls-5" x1="43.09" y1="45.71" x2="54.95" y2="45.71"/><line class="cls-5" x1="91.52" y1="61.71" x2="102.39" y2="61.71"/><line class="cls-5" x1="66.81" y1="61.71" x2="86.78" y2="61.71"/><line class="cls-5" x1="43.09" y1="61.71" x2="61.67" y2="61.71"/><line class="cls-5" x1="90.73" y1="58.71" x2="102.39" y2="58.71"/><line class="cls-5" x1="59.7" y1="58.71" x2="86.78" y2="58.71"/><line class="cls-5" x1="43.09" y1="58.71" x2="54.95" y2="58.71"/><path class="cls-6" d="M56,38.81a2.43,2.43,0,0,1-.87.13c-1.46,0-2.16-1.21-2.16-2.83,0-2.16,1.2-3,2.31-3a1.62,1.62,0,0,1,.78.15l-.19.94a1.12,1.12,0,0,0-.52-.11c-.63,0-1.2.54-1.2,2S54.64,38,55.32,38a2.1,2.1,0,0,0,.54-.09Z" transform="translate(-6.54 -5.34)"/><path class="cls-6" d="M57.63,37.58l-.26,1.31H56.29l1.24-5.73h1.34L60,38.89H58.9l-.24-1.31Zm.92-.87-.18-1.19c-.06-.35-.14-.92-.19-1.3h0c0,.38-.14,1-.2,1.3l-.21,1.19Z" transform="translate(-6.54 -5.34)"/><path class="cls-6" d="M60.61,33.25a6.51,6.51,0,0,1,1.22-.11,2.22,2.22,0,0,1,1.53.42,1.46,1.46,0,0,1,.45,1.19,1.53,1.53,0,0,1-.89,1.44v0c.4.15.59.51.7,1.13A9.3,9.3,0,0,0,64,38.89H62.82a8.22,8.22,0,0,1-.28-1.37c-.1-.71-.28-.92-.65-.92h-.16v2.29H60.61Zm1.12,2.5h.19a.8.8,0,0,0,.77-.9c0-.48-.2-.83-.7-.85a.68.68,0,0,0-.26,0Z" transform="translate(-6.54 -5.34)"/><path class="cls-6" d="M67.79,38.74a3.87,3.87,0,0,1-1.19.2,2,2,0,0,1-1.53-.57,3.13,3.13,0,0,1-.74-2.31c0-2.08,1.21-3,2.43-3a2.31,2.31,0,0,1,.93.17l-.19,1a1.45,1.45,0,0,0-.66-.13c-.75,0-1.36.52-1.36,2S66,38,66.54,38a.57.57,0,0,0,.22,0V36.59h-.51v-.91h1.54Z" transform="translate(-6.54 -5.34)"/><path class="cls-6" d="M72,35.92c0,2.16-.77,3-1.86,3-1.3,0-1.81-1.38-1.81-3s.62-2.92,1.89-2.92S72,34.62,72,35.92ZM69.5,36c0,1.3.24,2,.7,2s.64-.85.64-2c0-1-.15-1.92-.65-1.92S69.5,34.79,69.5,36Z" transform="translate(-6.54 -5.34)"/><path class="cls-6" d="M77.57,36.88c0-.54-.07-1.28,0-1.89h0c-.1.61-.25,1.32-.36,1.76l-.5,2h-.79l-.47-2A15.8,15.8,0,0,1,75,35h0c0,.62,0,1.34-.08,1.91l-.1,2h-1l.42-5.73h1.17l.46,2.08c.16.72.31,1.36.41,2h0c.08-.64.21-1.28.36-2l.45-2.08h1.17l.35,5.73h-1Z" transform="translate(-6.54 -5.34)"/><path class="cls-6" d="M80.39,37.58l-.25,1.31H79.06l1.24-5.73h1.33l1.12,5.73H81.67l-.25-1.31Zm.93-.87-.19-1.19c-.06-.35-.13-.92-.19-1.3h0c-.06.38-.15,1-.21,1.3l-.21,1.19Z" transform="translate(-6.54 -5.34)"/><path class="cls-6" d="M83.38,38.89V33.16h1l.88,2.25c.17.44.45,1.18.61,1.67h0c0-.6-.11-1.6-.11-2.65V33.16h1v5.73h-1l-.88-2.18A15.78,15.78,0,0,1,84.3,35h0c0,.58.06,1.46.06,2.61v1.29Z" transform="translate(-6.54 -5.34)"/><path class="cls-6" d="M88.88,33.16v5.73H87.77V33.16Z" transform="translate(-6.54 -5.34)"/><path class="cls-6" d="M89.87,33.16h2.49v1H91V35.6h1.29v.93H91v2.36H89.87Z" transform="translate(-6.54 -5.34)"/><path class="cls-6" d="M95.63,36.38H94.32v1.54H95.8v1H93.21V33.16H95.7v1H94.32v1.32h1.31Z" transform="translate(-6.54 -5.34)"/><path class="cls-6" d="M96.43,37.75a2.14,2.14,0,0,0,.94.22c.53,0,.79-.27.79-.64s-.26-.62-.74-.94a1.91,1.91,0,0,1-1.08-1.6,1.64,1.64,0,0,1,1.81-1.68,2,2,0,0,1,.9.2l-.18,1a1.3,1.3,0,0,0-.73-.2c-.48,0-.71.29-.71.6s.17.51.79.89a1.86,1.86,0,0,1,1,1.64,1.72,1.72,0,0,1-1.89,1.73,2.55,2.55,0,0,1-1.1-.23Z" transform="translate(-6.54 -5.34)"/><path class="cls-6" d="M100.53,34.19h-1v-1h3.14v1h-1v4.7h-1.11Z" transform="translate(-6.54 -5.34)"/><path class="cls-6" d="M103.09,37.75A2.14,2.14,0,0,0,104,38c.53,0,.78-.27.78-.64s-.25-.62-.73-.94a1.91,1.91,0,0,1-1.08-1.6,1.64,1.64,0,0,1,1.81-1.68,2,2,0,0,1,.9.2l-.18,1a1.3,1.3,0,0,0-.73-.2c-.48,0-.71.29-.71.6s.17.51.79.89a1.86,1.86,0,0,1,1,1.64,1.72,1.72,0,0,1-1.9,1.73,2.46,2.46,0,0,1-1.09-.23Z" transform="translate(-6.54 -5.34)"/><line class="cls-5" x1="95.67" y1="107.71" x2="102.39" y2="107.71"/><line class="cls-5" x1="66.81" y1="107.71" x2="90.73" y2="107.71"/><line class="cls-5" x1="43.09" y1="107.71" x2="62.27" y2="107.71"/><line class="cls-5" x1="87.73" y1="104.71" x2="102.39" y2="104.71"/><line class="cls-5" x1="79.3" y1="104.71" x2="83.78" y2="104.71"/><line class="cls-5" x1="56.7" y1="104.71" x2="75.71" y2="104.71"/><line class="cls-5" x1="43.09" y1="104.71" x2="51.95" y2="104.71"/><line class="cls-5" x1="43.1" y1="116.83" x2="62.27" y2="116.83"/><line class="cls-5" x1="78.78" y1="116.83" x2="102.39" y2="116.83"/></svg>