<svg xmlns="http://www.w3.org/2000/svg" viewBox="0 0 147.4 147.4"><defs><style>.cls-1{fill:#e87818;}.cls-2{fill:none;stroke:#201b18;stroke-linecap:round;stroke-linejoin:round;stroke-width:0.9px;}.cls-3{fill:#1d1d1b;}</style></defs><title>G11_08_06</title><g id="Mobile"><path id="path109" class="cls-1" d="M4.25,77.74l73.86,73.64,73.54-73.64L78.11,4,4.25,77.74" transform="translate(-4.25 -3.98)"/><path id="path273" class="cls-2" d="M13.76,77.63,78.22,142l64.13-64.32L78.22,13.42Z" transform="translate(-4.25 -3.98)"/><path class="cls-3" d="M80.46,109.77l-1.84,2.16,0,0,2.71-.55v1.72l-2.73-.47v0l1.85,2.09L79,115.7l-1-2.63h0l-1,2.62-1.47-.88,1.82-2.13v0l-2.67.49v-1.72l2.64.53,0,0-1.81-2.15,1.52-.86.95,2.6h0l1-2.6Z" transform="translate(-4.25 -3.98)"/><path class="cls-3" d="M77.29,123.15h0l-2.11,1-.42-1.94,2.93-1.36h2.14v11.06h-2.5Z" transform="translate(-4.25 -3.98)"/><path class="cls-3" d="M51.53,60.89h-.11l-7,3.34L43,57.77l9.75-4.54h7.14V90.08H51.53Z" transform="translate(-4.25 -3.98)"/><path class="cls-3" d="M72.45,85.49a5,5,0,0,1,5.1-5.27,5.24,5.24,0,0,1,0,10.48A5,5,0,0,1,72.45,85.49Z" transform="translate(-4.25 -3.98)"/><path class="cls-3" d="M111.34,60.32H97.05L96.26,66a15,15,0,0,1,2.38-.12,16.84,16.84,0,0,1,9.69,2.67c2.78,1.87,4.48,4.93,4.48,9.24,0,6.86-5.89,12.92-15.81,12.92a23.52,23.52,0,0,1-10.26-2.09l1.53-6.47A21,21,0,0,0,96.6,84c3.57,0,7.37-1.7,7.37-5.61s-3-6.13-10.37-6.13a32.58,32.58,0,0,0-5,.34L91,53.23h20.3Z" transform="translate(-4.25 -3.98)"/></g></svg>