<svg xmlns="http://www.w3.org/2000/svg" viewBox="0 0 127.56 112.43"><defs><style>.cls-1{fill:#ad1917;}.cls-2{fill:#fff;}.cls-3{fill:#1d1d1b;}</style></defs><title>G11_01_03</title><g id="Mobile"><path id="_Tracciato_" data-name="&lt;Tracciato&gt;" class="cls-1" d="M21.24,114.53a7.31,7.31,0,0,1-6.34-11L71.37,5.76A7.31,7.31,0,0,1,84,5.76l56.46,97.8a7.31,7.31,0,0,1-6.33,11Z" transform="translate(-13.92 -2.1)"/><polygon id="_Tracciato_2" data-name="&lt;Tracciato&gt;" class="cls-2" points="12.28 102.25 63.78 13.04 115.28 102.25 12.28 102.25"/><path id="_Tracciato_composto_" data-name="&lt;Tracciato composto&gt;" class="cls-3" d="M65.59,74.89c2.09,0,3.24-1,3.74-.9s.68.83.68,1.86h0v5a1.16,1.16,0,0,0,2.27,0V78.93h1v1.89a1.16,1.16,0,0,0,2.27,0V78.93h1v1.89a1.15,1.15,0,0,0,1.11.91h0a1.25,1.25,0,0,0,.8-.32.89.89,0,0,0,.33-.6V78.93h1v1.89a.87.87,0,0,0,.34.6,1.21,1.21,0,0,0,.8.32,1.16,1.16,0,0,0,1.13-.92V78.93h1v1.89a.87.87,0,0,0,.34.6,1.16,1.16,0,0,0,1.6,0,.86.86,0,0,0,.33-.6v-5a2.64,2.64,0,0,1,.35-1.66.63.63,0,0,1,.33-.2,1,1,0,0,1,.51.09,7.86,7.86,0,0,0,3.24.81c2,0,4.53-2.19,5.89-5.69.12-.31.24-.64.34-1a14.35,14.35,0,0,0,.48-2.15,15,15,0,0,0,.18-2.36c0-1.27,0-2.52,0-3.74,0-3-.13-5.85-1.1-8.19a10,10,0,0,0-.69-1.34c-2.53-4.06-8.21-6.33-17.22-6.33h0c-9,0-14.7,2.27-17.22,6.33-2.13,3.42-1.77,8.19-1.77,13.27C58.7,70.26,62.63,74.89,65.59,74.89Zm19.76-15c4.4-.8,6.86-1.28,7.23,2.08a12.49,12.49,0,0,1,0,3.18,11.35,11.35,0,0,1-.27,1.34,10.11,10.11,0,0,1-.67,1.78,4.88,4.88,0,0,1-3.22,2.88A3.6,3.6,0,0,1,87.09,71a12,12,0,0,1-1.25-.37,18.27,18.27,0,0,1-2.11-.88c-1.91-.92-3.7-2.16-3.94-3.31C78.45,60.17,80.48,60.79,85.35,59.91Zm-6.92,9.84c.89,0,3.76,3.48,3.76,4.56s-3.76,1.74-3.76,0ZM77,74.31c0,1.74-3.77,1.08-3.77,0s2.88-4.56,3.77-4.56ZM62.83,62c.37-3.36,2.82-2.88,7.23-2.08,4.86.88,6.9.26,5.56,6.57-.49,2.31-7.16,5-8.58,4.69C64.15,70.6,62.35,66.32,62.83,62ZM81,88.71l-1.12.11c-.68.05-1.4.08-2.16.08h0c-6,0-9.87-1.75-9.76-4l.29-9.53.77-.47.7,10.65.35.26V83.93a1.16,1.16,0,0,1,2.27,0v1.89h1V83.93a1.16,1.16,0,0,1,2.27,0v1.89h1V83.93A1.15,1.15,0,0,1,77.7,83h0a1.23,1.23,0,0,1,1,.61.61.61,0,0,1,.09.3v1.89h1V83.93a.61.61,0,0,1,.09-.3A1.25,1.25,0,0,1,81,83a1.2,1.2,0,0,1,.91.45.78.78,0,0,1,.22.46v1.89h1V83.93a.73.73,0,0,1,.09-.3,1.21,1.21,0,0,1,2.1,0,.71.71,0,0,1,.08.3v1.89l.35-.26.71-10.65.77.47.28,9.53h0a2.06,2.06,0,0,1-.56,1.48l-.06.09a7.16,7.16,0,0,1-3.37,1.75c-.3.08-.62.15-1,.22C82.07,88.55,81.55,88.64,81,88.71Zm17.6,5.58a1.49,1.49,0,0,1-.39.44,1.81,1.81,0,0,1-.36.23c-.72.35-1.42.13-1.74.34a.33.33,0,0,0-.12.14c-.09.19,0,.37.15.59s.23.3.35.49a3,3,0,0,1,.16.31,2.09,2.09,0,0,1,.17.79h0a2.38,2.38,0,0,1-2,2.11,2.24,2.24,0,0,1-1.92-.44,5,5,0,0,1-.42-.36,8.9,8.9,0,0,1-2-3.48c0-.1-.09-.19-.13-.27a2.25,2.25,0,0,0-.33-.46,1.64,1.64,0,0,0-.44-.33l-8-3.88h0a12.06,12.06,0,0,0,5-1.67l4.65,2.25a1.7,1.7,0,0,0,1.09.11,7.29,7.29,0,0,0,1.06-.28A7.27,7.27,0,0,1,96,90.47a7,7,0,0,1,1,.15,2.21,2.21,0,0,1,1.32.91A2.59,2.59,0,0,1,98.6,94.29ZM68.87,88.83a12,12,0,0,0,5,1.68l-8,3.88c-1.39.68-.92,3-3.29,4.9a2.48,2.48,0,0,1-3.92-1.67c0-1.22,1.07-1.68.83-2.18s-1.26,0-2.22-.71a2.48,2.48,0,0,1,1.12-4.11c3-.67,4.49,1.14,5.89.47ZM55,81a2.48,2.48,0,0,1-1.12-4.11c1-.75,2-.21,2.22-.71s-.82-1-.83-2.18a2.48,2.48,0,0,1,3.92-1.67c2.37,1.9,1.9,4.22,3.29,4.9l4.25,2-.12,4L60.85,80.5C59.45,79.83,57.93,81.64,55,81Zm47.32-2.5a2.59,2.59,0,0,1-1.18,2.24,1.94,1.94,0,0,1-.66.26,7.35,7.35,0,0,1-4.19-.44,2.3,2.3,0,0,0-1.69,0l-5.69,2.75-.13-4,4.22-2a1.73,1.73,0,0,0,.77-.79c.52-.94.72-2.41,2.11-3.75.13-.12.27-.25.41-.36A2.48,2.48,0,0,1,100.17,74c0,1.22-1.06,1.68-.82,2.18s1.26,0,2.22.71a1.49,1.49,0,0,1,.39.44A2.33,2.33,0,0,1,102.28,78.47Z" transform="translate(-13.92 -2.1)"/></g></svg>