<svg xmlns="http://www.w3.org/2000/svg" xmlns:xlink="http://www.w3.org/1999/xlink" viewBox="0 0 145.73 147"><defs><style>.cls-1,.cls-10,.cls-8{fill:none;}.cls-1{opacity:0.8;}.cls-2{clip-path:url(#clip-path);}.cls-3{fill:#ea5050;stroke-width:4px;}.cls-3,.cls-8{stroke:#eaeaea;}.cls-10,.cls-3,.cls-8{stroke-miterlimit:10;}.cls-4{fill:#5d737b;}.cls-5{fill:#798c91;}.cls-6{fill:#87cdd3;opacity:0.5;}.cls-7{fill:#fff;}.cls-8{stroke-width:3.92px;}.cls-9{fill:#be1622;}.cls-10{stroke:#1d1d1b;}</style><clipPath id="clip-path" transform="translate(-5.09 -5.09)"><circle class="cls-1" cx="77.95" cy="77.95" r="70.87"/></clipPath></defs><title>G11_09_03</title><g id="Mobile"><g class="cls-2"><circle class="cls-3" cx="72.87" cy="72.87" r="70.87"/><g id="_4" data-name="4"><polygon class="cls-4" points="60.1 62.98 59.1 51.35 45.77 51.92 46.77 63.55 60.1 62.98"/><polygon class="cls-4" points="66.95 143.39 65.95 131.76 52.62 132.32 53.62 143.95 66.95 143.39"/><path class="cls-5" d="M119.86,143.78,119.48,130a3.92,3.92,0,0,0-2.71-3.56l-6.57-2.31,1.72,19.64,4.54,2A2.38,2.38,0,0,0,119.86,143.78Z" transform="translate(-5.09 -5.09)"/><polygon class="cls-5" points="50.46 140.86 43.17 56.27 49.75 55.99 57.05 140.58 50.46 140.86"/><path class="cls-4" d="M83.86,135.2c-6-.81-10.73,10-10.73,10l-11,.47L54.84,61.08l8.63-.36a6.92,6.92,0,0,1,6.9,6.49l3.57,41.35,38,13.9a4.08,4.08,0,0,1,3,3.64l1.08,16a3.51,3.51,0,0,1-4.84,3.75C100.88,141.33,87.61,135.7,83.86,135.2Z" transform="translate(-5.09 -5.09)"/><path class="cls-5" d="M81.53,116.78l25.59,7.34a5.31,5.31,0,0,1,3.72,4.93l.19,5c.12,3.42-2.87,5.86-6,4.83-7.43-2.48-19.55-6.14-25.49-7.91A5.32,5.32,0,0,1,75.93,126l-.17-4.37A4.6,4.6,0,0,1,81.53,116.78Z" transform="translate(-5.09 -5.09)"/><path class="cls-4" d="M69.09,85c4.72-.56,10.71,2.17,15.29,3.61C96,92.31,95.88,108.89,96.75,119l-6.41-3.56c2-.09-.67-10.71-1.07-12.12C85.78,91.13,72.84,90.39,63.2,90.39,64.73,86.74,66.73,85.32,69.09,85Z" transform="translate(-5.09 -5.09)"/><path class="cls-4" d="M71,105.52s7.89-2.68,12.91-6.88a1.55,1.55,0,0,1,2.41,1.53c-.46,5.87-7.11,9.27-13.46,11.68C65.34,114.71,71,105.52,71,105.52Z" transform="translate(-5.09 -5.09)"/><path class="cls-5" d="M72.14,131.44l-1.86-21.55a4.07,4.07,0,0,0-4.23-3.72h0a4.06,4.06,0,0,0-3.88,4.42L64,132.14a4.08,4.08,0,0,0,4.23,3.72h0A4.08,4.08,0,0,0,72.14,131.44Z" transform="translate(-5.09 -5.09)"/><polygon class="cls-5" points="62.55 90.12 59.58 55.58 55.57 55.75 58.54 90.28 62.55 90.12"/></g><rect class="cls-6" x="29.44" y="27.23" width="89.2" height="119.77"/><rect class="cls-7" x="29.44" y="39.1" width="89.2" height="3.78"/><path class="cls-6" d="M34.52,152.09h0V54.77h0c5.95,0,10.78,14.83,10.78,20.77v55.77C45.3,137.26,40.47,152.09,34.52,152.09Z" transform="translate(-5.09 -5.09)"/><path class="cls-6" d="M123.72,54.77h0v67.3h0c-6,0-10.77-17.83-10.77-23.78V75.54C113,69.6,117.77,54.77,123.72,54.77Z" transform="translate(-5.09 -5.09)"/></g><circle class="cls-8" cx="72.87" cy="72.87" r="70.87"/><rect class="cls-9" x="44.03" y="78.33" width="65.48" height="42.8" rx="2.27" ry="2.27"/><rect class="cls-7" x="47.58" y="88.45" width="58.68" height="29.76" rx="2.27" ry="2.27"/><line class="cls-10" x1="50.13" y1="93.21" x2="102.71" y2="93.21"/><line class="cls-10" x1="50.13" y1="97.21" x2="102.71" y2="97.21"/><line class="cls-10" x1="50.13" y1="101.22" x2="102.71" y2="101.22"/><line class="cls-10" x1="50.13" y1="105.22" x2="102.71" y2="105.22"/><line class="cls-10" x1="50.13" y1="109.22" x2="102.71" y2="109.22"/><line class="cls-10" x1="50.13" y1="113.22" x2="102.71" y2="113.22"/><path class="cls-7" d="M69.49,88.8H67.75v1.12h1.94v.87h-3V86.07h2.91V87H67.75v1h1.74Z" transform="translate(-5.09 -5.09)"/><path class="cls-7" d="M71.58,90.79l-1.52-4.72h1.17l.58,2c.16.56.31,1.1.42,1.69h0c.12-.57.27-1.13.43-1.67l.6-2h1.13l-1.59,4.72Z" transform="translate(-5.09 -5.09)"/><path class="cls-7" d="M76,86.07v4.72H74.92V86.07Z" transform="translate(-5.09 -5.09)"/><path class="cls-7" d="M76.91,86.14a8.62,8.62,0,0,1,1.44-.1,3.08,3.08,0,0,1,1.94.5,2.1,2.1,0,0,1,.8,1.78,2.36,2.36,0,0,1-.79,1.91,3.35,3.35,0,0,1-2.18.61,8.48,8.48,0,0,1-1.21-.07ZM78,90a2.06,2.06,0,0,0,.37,0A1.46,1.46,0,0,0,80,88.36a1.35,1.35,0,0,0-1.48-1.5,2.39,2.39,0,0,0-.49,0Z" transform="translate(-5.09 -5.09)"/><path class="cls-7" d="M84.59,88.8H82.85v1.12h1.94v.87h-3V86.07H84.7V87H82.85v1h1.74Z" transform="translate(-5.09 -5.09)"/><path class="cls-7" d="M85.52,90.79V86.07h1.25l1,1.73a14.11,14.11,0,0,1,.77,1.62h0a17.5,17.5,0,0,1-.09-2V86.07h1v4.72H88.31L87.3,89a17.07,17.07,0,0,1-.82-1.66h0c0,.63,0,1.29,0,2.06v1.42Z" transform="translate(-5.09 -5.09)"/><path class="cls-7" d="M93.82,90.66a3,3,0,0,1-1.21.21,2.25,2.25,0,0,1-2.48-2.37A2.4,2.4,0,0,1,92.71,86a2.75,2.75,0,0,1,1.16.21l-.21.84a2.36,2.36,0,0,0-.9-.17,1.55,1.55,0,0,0,0,3.1,2.8,2.8,0,0,0,.89-.15Z" transform="translate(-5.09 -5.09)"/><path class="cls-7" d="M97.32,88.8H95.59v1.12h1.94v.87h-3V86.07h2.91V87H95.59v1h1.73Z" transform="translate(-5.09 -5.09)"/></g></svg>