<svg id="Livello_1" data-name="Livello 1" xmlns="http://www.w3.org/2000/svg" viewBox="0 0 145.73 145.73"><defs><style>.cls-1{fill:#ea504f;stroke:#eaeaea;stroke-miterlimit:10;stroke-width:4px;}.cls-2{fill:#26642c;}.cls-3{fill:#64ad45;}.cls-4{fill:#9fbe4e;}.cls-5{fill:#e2ca9c;}.cls-6{fill:#8d7e60;}.cls-7{fill:#349036;}.cls-8{fill:#c3ab7e;}</style></defs><title>G11_10_04</title><circle class="cls-1" cx="72.87" cy="72.87" r="70.87"/><path class="cls-2" d="M70.44,65,50.52,76.56l0,5.64,40,23.1,19.91-11.57,0-5.64" transform="translate(-5.28 -5.34)"/><ellipse class="cls-3" cx="80.49" cy="82.32" rx="4.88" ry="8.43" transform="translate(-7.34 157.24) rotate(-89.84)"/><path class="cls-4" d="M101.68,85.45c-2.51,1.46-2.5,3.82,0,5.28l-6.63,3.86a10,10,0,0,0-9.12,0L59.3,79.2c2.51-1.46,2.5-3.82,0-5.28l6.64-3.86a10,10,0,0,0,9.11,0Zm-27.13.32a13.11,13.11,0,0,0,11.92,0c3.28-1.9,3.26-5,0-6.9a13.18,13.18,0,0,0-11.92,0c-3.28,1.91-3.26,5,0,6.9" transform="translate(-5.28 -5.34)"/><path class="cls-3" d="M70.44,65l40,23.1L90.54,99.66l-40-23.1Zm24.63,29.6,6.63-3.86c-2.52-1.46-2.53-3.82,0-5.28L75,70.06a10,10,0,0,1-9.11,0l-6.64,3.86c2.53,1.46,2.54,3.82,0,5.28L86,94.59a10,10,0,0,1,9.12,0" transform="translate(-5.28 -5.34)"/><polygon class="cls-5" points="87.91 72.77 68 84.34 61.9 80.83 81.81 69.25 87.91 72.77"/><polygon class="cls-6" points="67.98 84.35 67.95 89.99 61.85 86.47 61.88 80.83 67.98 84.35"/><polygon class="cls-7" points="85.26 94.32 85.26 99.96 105.14 88.39 105.14 82.75 85.26 94.32"/><path class="cls-2" d="M70.93,58.54,51,70.11l0,5.64L91,98.86l19.91-11.58,0-5.64" transform="translate(-5.28 -5.34)"/><ellipse class="cls-3" cx="80.98" cy="75.88" rx="4.88" ry="8.43" transform="translate(-0.4 151.31) rotate(-89.84)"/><path class="cls-4" d="M102.17,79c-2.51,1.45-2.49,3.82,0,5.27l-6.64,3.86a10,10,0,0,0-9.11,0L59.8,72.75c2.51-1.45,2.49-3.82,0-5.28l6.63-3.85a10.07,10.07,0,0,0,9.12,0ZM75,79.33a13.11,13.11,0,0,0,11.92,0c3.28-1.91,3.27-5,0-6.9a13.09,13.09,0,0,0-11.91,0c-3.28,1.9-3.27,5,0,6.9" transform="translate(-5.28 -5.34)"/><path class="cls-3" d="M70.93,58.54l40,23.1L91,93.22,51,70.11Zm24.63,29.6,6.64-3.86c-2.52-1.45-2.54-3.82,0-5.27L75.52,63.62a10.07,10.07,0,0,1-9.12,0l-6.63,3.85c2.52,1.46,2.54,3.83,0,5.28L86.45,88.14a10,10,0,0,1,9.11,0" transform="translate(-5.28 -5.34)"/><polygon class="cls-5" points="88.41 66.33 68.49 77.9 62.4 74.38 82.31 62.81 88.41 66.33"/><polygon class="cls-6" points="68.47 77.91 68.45 83.55 62.35 80.03 62.38 74.39 68.47 77.91"/><polygon class="cls-7" points="85.75 87.88 85.75 93.52 105.64 81.95 105.64 76.31 85.75 87.88"/><path class="cls-2" d="M69.94,52.35,50,63.92l0,5.64,40,23.1,19.92-11.57,0-5.64" transform="translate(-5.28 -5.34)"/><ellipse class="cls-3" cx="79.99" cy="69.68" rx="4.88" ry="8.43" transform="translate(4.8 144.14) rotate(-89.84)"/><path class="cls-4" d="M101.18,72.81c-2.51,1.46-2.49,3.82,0,5.28l-6.64,3.85a10.05,10.05,0,0,0-9.11,0L58.81,66.56c2.5-1.46,2.49-3.82,0-5.28l6.63-3.86a10,10,0,0,0,9.12,0Zm-27.13.32a13.11,13.11,0,0,0,11.92,0c3.28-1.9,3.26-5,0-6.9a13.11,13.11,0,0,0-11.92,0c-3.28,1.91-3.26,5,0,6.9" transform="translate(-5.28 -5.34)"/><path class="cls-3" d="M69.94,52.35l40,23.1L90,87,50,63.92ZM94.57,81.94l6.64-3.85c-2.52-1.46-2.54-3.82,0-5.28L74.53,57.42a10,10,0,0,1-9.12,0l-6.63,3.86c2.52,1.46,2.53,3.82,0,5.28L85.46,82a10.05,10.05,0,0,1,9.11,0" transform="translate(-5.28 -5.34)"/><polygon class="cls-5" points="87.41 60.13 67.5 71.7 61.41 68.19 81.32 56.61 87.41 60.13"/><polygon class="cls-6" points="67.48 71.71 67.45 77.35 61.36 73.83 61.39 68.19 67.48 71.71"/><polygon class="cls-7" points="84.76 81.68 84.76 87.32 104.65 75.75 104.65 70.11 84.76 81.68"/><path class="cls-2" d="M69.94,46.4,50,58l0,5.64,40,23.1,19.92-11.57,0-5.64" transform="translate(-5.28 -5.34)"/><ellipse class="cls-3" cx="79.99" cy="63.73" rx="4.88" ry="8.43" transform="translate(10.75 138.21) rotate(-89.84)"/><path class="cls-4" d="M101.18,66.86c-2.51,1.46-2.49,3.82,0,5.28L94.57,76a10,10,0,0,0-9.11,0L58.81,60.61c2.5-1.46,2.49-3.82,0-5.28l6.63-3.86a10,10,0,0,0,9.12,0Zm-27.13.33a13.18,13.18,0,0,0,11.92,0c3.28-1.91,3.26-5,0-6.91a13.18,13.18,0,0,0-11.92,0c-3.28,1.91-3.26,5,0,6.91" transform="translate(-5.28 -5.34)"/><path class="cls-3" d="M69.94,46.4l40,23.1L90,81.07,50,58ZM94.57,76l6.64-3.86c-2.52-1.46-2.54-3.82,0-5.28L74.53,51.47a10,10,0,0,1-9.12,0l-6.63,3.86c2.52,1.46,2.53,3.82,0,5.28L85.46,76a10,10,0,0,1,9.11,0" transform="translate(-5.28 -5.34)"/><polygon class="cls-5" points="87.41 54.18 67.5 65.76 61.41 62.24 81.32 50.66 87.41 54.18"/><polygon class="cls-6" points="67.48 65.76 67.45 71.4 61.36 67.88 61.39 62.24 67.48 65.76"/><polygon class="cls-7" points="84.76 75.73 84.76 81.37 104.65 69.8 104.65 64.16 84.76 75.73"/><path class="cls-2" d="M70.93,39.46,51,51l0,5.64,40,23.1L110.92,68.2l0-5.64" transform="translate(-5.28 -5.34)"/><ellipse class="cls-3" cx="80.98" cy="56.79" rx="4.88" ry="8.43" transform="translate(18.68 132.28) rotate(-89.84)"/><path class="cls-4" d="M102.17,59.92c-2.51,1.46-2.49,3.82,0,5.28l-6.64,3.86a10,10,0,0,0-9.11,0L59.8,53.67c2.51-1.46,2.49-3.82,0-5.28l6.63-3.86a10,10,0,0,0,9.12,0ZM75,60.25a13.18,13.18,0,0,0,11.92,0c3.28-1.91,3.27-5,0-6.91a13.16,13.16,0,0,0-11.91,0c-3.28,1.91-3.27,5,0,6.91" transform="translate(-5.28 -5.34)"/><path class="cls-3" d="M70.93,39.46l40,23.1L91,74.13,51,51Zm24.63,29.6,6.64-3.86c-2.52-1.46-2.54-3.82,0-5.28L75.52,44.53a10,10,0,0,1-9.12,0l-6.63,3.86c2.52,1.46,2.54,3.82,0,5.28L86.45,69.06a10,10,0,0,1,9.11,0" transform="translate(-5.28 -5.34)"/><polygon class="cls-5" points="88.41 47.24 68.49 58.82 62.4 55.3 82.31 43.73 88.41 47.24"/><polygon class="cls-6" points="68.47 58.82 68.45 64.46 62.35 60.94 62.38 55.3 68.47 58.82"/><polygon class="cls-7" points="85.75 68.79 85.75 74.43 105.64 62.86 105.64 57.22 85.75 68.79"/><path class="cls-2" d="M71.92,33.18,52,44.75l0,5.64,40,23.1,19.91-11.57,0-5.64" transform="translate(-5.28 -5.34)"/><ellipse class="cls-3" cx="81.98" cy="50.52" rx="4.88" ry="8.43" transform="translate(25.95 127.01) rotate(-89.84)"/><path class="cls-4" d="M103.16,53.64c-2.5,1.46-2.49,3.82,0,5.28l-6.64,3.86a10,10,0,0,0-9.11,0L60.79,47.39c2.51-1.46,2.49-3.82,0-5.28l6.64-3.86a10,10,0,0,0,9.11,0ZM76,54A13.16,13.16,0,0,0,88,54c3.28-1.91,3.27-5,0-6.91a13.16,13.16,0,0,0-11.91,0c-3.28,1.91-3.27,5,0,6.91" transform="translate(-5.28 -5.34)"/><path class="cls-3" d="M71.92,33.18l40,23.1L92,67.85,52,44.75Zm24.63,29.6,6.64-3.86c-2.52-1.46-2.53-3.82,0-5.28L76.51,38.25a10,10,0,0,1-9.11,0l-6.64,3.86c2.52,1.46,2.54,3.82,0,5.28L87.44,62.78a10,10,0,0,1,9.11,0" transform="translate(-5.28 -5.34)"/><polygon class="cls-5" points="89.4 40.97 69.48 52.54 63.39 49.02 83.3 37.45 89.4 40.97"/><polygon class="cls-6" points="69.47 52.54 69.44 58.19 63.34 54.66 63.37 49.02 69.47 52.54"/><polygon class="cls-7" points="86.75 62.52 86.75 68.16 106.63 56.58 106.63 50.94 86.75 62.52"/><path class="cls-2" d="M69.94,26.9,50,38.47l0,5.64L90,67.22l19.92-11.58L110,50" transform="translate(-5.28 -5.34)"/><ellipse class="cls-3" cx="79.99" cy="44.24" rx="4.88" ry="8.43" transform="translate(30.25 118.77) rotate(-89.84)"/><path class="cls-4" d="M101.18,47.36c-2.51,1.46-2.49,3.82,0,5.28L94.57,56.5a10,10,0,0,0-9.11,0L58.81,41.11c2.5-1.46,2.49-3.82,0-5.28L65.41,32a10.1,10.1,0,0,0,9.12,0Zm-27.13.33a13.11,13.11,0,0,0,11.92,0c3.28-1.91,3.26-5,0-6.9a13.11,13.11,0,0,0-11.92,0c-3.28,1.9-3.26,5,0,6.9" transform="translate(-5.28 -5.34)"/><path class="cls-3" d="M69.94,26.9,110,50,90,61.58,50,38.47ZM94.57,56.5l6.64-3.86c-2.52-1.46-2.54-3.82,0-5.28L74.53,32a10.1,10.1,0,0,1-9.12,0l-6.63,3.85c2.52,1.46,2.53,3.82,0,5.28L85.46,56.5a10,10,0,0,1,9.11,0" transform="translate(-5.28 -5.34)"/><polygon class="cls-5" points="87.41 34.69 67.5 46.26 61.41 42.74 81.32 31.17 87.41 34.69"/><polygon class="cls-6" points="67.48 46.27 67.45 51.91 61.36 48.39 61.39 42.75 67.48 46.27"/><polygon class="cls-7" points="84.76 56.24 84.76 61.88 104.65 50.3 104.65 44.66 84.76 56.24"/><path class="cls-2" d="M47.49,77.75,27.57,89.32l0,5.64,40,23.11,19.91-11.58,0-5.64" transform="translate(-5.28 -5.34)"/><ellipse class="cls-3" cx="57.54" cy="95.09" rx="4.88" ry="8.43" transform="translate(-42.99 147.02) rotate(-89.84)"/><path class="cls-4" d="M78.73,98.21c-2.51,1.46-2.5,3.82,0,5.28l-6.63,3.86a10,10,0,0,0-9.12,0L36.35,92c2.51-1.46,2.49-3.82,0-5.28L43,82.83a10.08,10.08,0,0,0,9.11,0Zm-27.13.33a13.11,13.11,0,0,0,11.92,0c3.27-1.91,3.26-5,0-6.9a13.11,13.11,0,0,0-11.92,0c-3.28,1.9-3.26,5,0,6.9" transform="translate(-5.28 -5.34)"/><path class="cls-3" d="M47.49,77.75l40,23.1L67.59,112.42l-40-23.1Zm24.63,29.6,6.63-3.86c-2.52-1.46-2.53-3.82,0-5.28L52.07,82.83a10.08,10.08,0,0,1-9.11,0l-6.64,3.85c2.52,1.46,2.54,3.82,0,5.28L63,107.35a10,10,0,0,1,9.12,0" transform="translate(-5.28 -5.34)"/><polygon class="cls-5" points="64.96 85.54 45.05 97.11 38.95 93.59 58.86 82.02 64.96 85.54"/><polygon class="cls-6" points="45.03 97.11 45 102.76 38.9 99.24 38.93 93.6 45.03 97.11"/><polygon class="cls-7" points="62.31 107.09 62.31 112.73 82.19 101.16 82.19 95.51 62.31 107.09"/><path class="cls-2" d="M47,71.55,27.08,83.13l0,5.64,40,23.1L87,100.3l0-5.64" transform="translate(-5.28 -5.34)"/><ellipse class="cls-3" cx="57.04" cy="88.89" rx="4.88" ry="8.43" transform="translate(-37.29 140.34) rotate(-89.84)"/><path class="cls-4" d="M78.23,92c-2.51,1.45-2.49,3.82,0,5.28l-6.64,3.85a10.08,10.08,0,0,0-9.11,0L35.85,85.77c2.51-1.46,2.5-3.83,0-5.28l6.64-3.86a10,10,0,0,0,9.12,0Zm-27.13.32a13.11,13.11,0,0,0,11.92,0c3.28-1.9,3.26-5,0-6.9a13.11,13.11,0,0,0-11.92,0c-3.28,1.91-3.26,5,0,6.9" transform="translate(-5.28 -5.34)"/><path class="cls-3" d="M47,71.55,87,94.66,67.09,106.23l-40-23.1Zm24.63,29.6,6.64-3.85c-2.52-1.46-2.54-3.83,0-5.28L51.58,76.63a10,10,0,0,1-9.12,0l-6.64,3.86c2.53,1.45,2.54,3.82,0,5.28l26.66,15.38a10.08,10.08,0,0,1,9.11,0" transform="translate(-5.28 -5.34)"/><polygon class="cls-5" points="64.46 79.34 44.55 90.91 38.45 87.39 58.37 75.82 64.46 79.34"/><polygon class="cls-6" points="44.53 90.92 44.5 96.56 38.41 93.04 38.44 87.4 44.53 90.92"/><polygon class="cls-7" points="61.81 100.89 61.81 106.53 81.7 94.96 81.7 89.32 61.81 100.89"/><path class="cls-2" d="M47,65.11,27.08,76.68l0,5.64,40,23.11L87,93.85l0-5.64" transform="translate(-5.28 -5.34)"/><ellipse class="cls-3" cx="57.04" cy="82.45" rx="4.88" ry="8.43" transform="translate(-30.85 133.92) rotate(-89.84)"/><path class="cls-4" d="M78.23,85.57c-2.51,1.46-2.49,3.82,0,5.28l-6.64,3.86a10,10,0,0,0-9.11,0L35.85,79.32c2.51-1.46,2.5-3.82,0-5.28l6.64-3.85a10.1,10.1,0,0,0,9.12,0ZM51.1,85.9A13.15,13.15,0,0,0,63,85.9c3.28-1.91,3.26-5,0-6.9a13.11,13.11,0,0,0-11.92,0c-3.28,1.9-3.26,5,0,6.9" transform="translate(-5.28 -5.34)"/><path class="cls-3" d="M47,65.11l40,23.1L67.09,99.78l-40-23.1Zm24.63,29.6,6.64-3.86c-2.52-1.46-2.54-3.82,0-5.28L51.58,70.19a10.1,10.1,0,0,1-9.12,0L35.82,74c2.53,1.46,2.54,3.82,0,5.28L62.51,94.71a10,10,0,0,1,9.11,0" transform="translate(-5.28 -5.34)"/><polygon class="cls-5" points="64.46 72.9 44.55 84.47 38.45 80.95 58.37 69.38 64.46 72.9"/><polygon class="cls-6" points="44.53 84.47 44.5 90.12 38.41 86.6 38.44 80.96 44.53 84.47"/><polygon class="cls-7" points="61.81 94.45 61.81 100.09 81.7 88.51 81.7 82.87 61.81 94.45"/><path class="cls-2" d="M48.73,58.42,28.81,70l0,5.64,40,23.1L88.71,87.16l0-5.64" transform="translate(-5.28 -5.34)"/><ellipse class="cls-3" cx="58.78" cy="75.75" rx="4.88" ry="8.43" transform="translate(-22.42 128.98) rotate(-89.84)"/><path class="cls-4" d="M80,78.88c-2.5,1.46-2.49,3.82,0,5.28L73.35,88a10,10,0,0,0-9.11,0L37.59,72.63c2.51-1.46,2.49-3.82,0-5.28l6.64-3.86a10,10,0,0,0,9.11,0Zm-27.12.33a13.16,13.16,0,0,0,11.91,0c3.28-1.91,3.27-5,0-6.91a13.18,13.18,0,0,0-11.92,0c-3.28,1.91-3.26,5,0,6.91" transform="translate(-5.28 -5.34)"/><path class="cls-3" d="M48.73,58.42l40,23.1L68.83,93.09,28.81,70ZM73.35,88,80,84.16c-2.52-1.46-2.53-3.82,0-5.28L53.31,63.49a10,10,0,0,1-9.11,0l-6.64,3.86c2.52,1.46,2.54,3.82,0,5.28L64.24,88a10,10,0,0,1,9.11,0" transform="translate(-5.28 -5.34)"/><polygon class="cls-5" points="66.2 66.2 46.28 77.78 40.19 74.26 60.1 62.69 66.2 66.2"/><polygon class="cls-6" points="46.27 77.78 46.24 83.42 40.14 79.9 40.17 74.26 46.27 77.78"/><polygon class="cls-7" points="63.55 87.75 63.55 93.39 83.43 81.82 83.43 76.18 63.55 87.75"/><path class="cls-2" d="M48,52.22,28.07,63.79l0,5.64,40,23.11L88,81l0-5.64" transform="translate(-5.28 -5.34)"/><ellipse class="cls-3" cx="58.03" cy="69.56" rx="4.88" ry="8.43" transform="translate(-16.97 122.05) rotate(-89.84)"/><path class="cls-4" d="M79.22,72.68c-2.51,1.46-2.49,3.82,0,5.28l-6.64,3.86a10,10,0,0,0-9.11,0L36.85,66.43c2.5-1.46,2.49-3.82,0-5.28l6.63-3.85a10.1,10.1,0,0,0,9.12,0ZM52.09,73A13.11,13.11,0,0,0,64,73c3.28-1.91,3.26-5,0-6.9a13.11,13.11,0,0,0-11.92,0c-3.28,1.9-3.26,5,0,6.9" transform="translate(-5.28 -5.34)"/><path class="cls-3" d="M48,52.22l40,23.1L68.08,86.9l-40-23.11Zm24.63,29.6L79.25,78c-2.52-1.46-2.54-3.82,0-5.27L52.57,57.3a10.1,10.1,0,0,1-9.12,0l-6.63,3.85c2.52,1.46,2.53,3.82,0,5.28L63.5,81.82a10,10,0,0,1,9.11,0" transform="translate(-5.28 -5.34)"/><polygon class="cls-5" points="65.45 60.01 45.54 71.58 39.45 68.06 59.36 56.49 65.45 60.01"/><polygon class="cls-6" points="45.52 71.59 45.49 77.23 39.4 73.71 39.43 68.07 45.52 71.59"/><polygon class="cls-7" points="62.8 81.56 62.8 87.2 82.69 75.63 82.69 69.98 62.8 81.56"/><path class="cls-7" d="M71.1,113.77l0,5.64L91,131l40-23.1,0-5.64L111.11,90.67" transform="translate(-5.28 -5.34)"/><ellipse class="cls-3" cx="101.06" cy="108.01" rx="8.43" ry="4.88" transform="translate(-5.59 -5.05) rotate(-0.16)"/><path class="cls-4" d="M106.53,95.74a10,10,0,0,0,9.11,0l6.64,3.86c-2.52,1.46-2.54,3.82,0,5.28L95.6,120.27a10,10,0,0,0-9.12,0l-6.63-3.86c2.52-1.46,2.53-3.82,0-5.28Zm.47,15.72c3.3-1.91,3.32-5,0-6.91a13.18,13.18,0,0,0-11.92,0c-3.3,1.91-3.32,5,0,6.91a13.18,13.18,0,0,0,11.92,0" transform="translate(-5.28 -5.34)"/><path class="cls-3" d="M131,102.24l-40,23.1L71.1,113.77l40-23.1Zm-44.55,18a10,10,0,0,1,9.12,0l26.65-15.39c-2.51-1.46-2.49-3.82,0-5.28l-6.64-3.86a10,10,0,0,1-9.11,0L79.87,111.13c2.51,1.46,2.5,3.82,0,5.28l6.63,3.86" transform="translate(-5.28 -5.34)"/><polygon class="cls-5" points="83.08 98.46 103 110.03 109.09 106.51 89.18 94.94 83.08 98.46"/><polygon class="cls-8" points="103.01 110.03 103.04 115.67 109.14 112.16 109.11 106.52 103.01 110.03"/><polygon class="cls-2" points="85.73 120 85.73 125.64 65.85 114.07 65.85 108.43 85.73 120"/><path class="cls-7" d="M72,107.15l0,5.64,19.92,11.57,40-23.1,0-5.64L112,84.05" transform="translate(-5.28 -5.34)"/><ellipse class="cls-3" cx="101.94" cy="101.39" rx="8.43" ry="4.88" transform="translate(-5.57 -5.05) rotate(-0.16)"/><path class="cls-4" d="M107.4,89.12a10,10,0,0,0,9.12,0L123.15,93c-2.52,1.46-2.53,3.82,0,5.28L96.47,113.65a10,10,0,0,0-9.11,0l-6.64-3.86c2.52-1.46,2.54-3.82,0-5.28Zm.48,15.72c3.3-1.91,3.32-5,0-6.9a13.15,13.15,0,0,0-11.92,0c-3.3,1.91-3.32,5,0,6.91a13.15,13.15,0,0,0,11.92,0" transform="translate(-5.28 -5.34)"/><path class="cls-3" d="M131.9,95.62l-40,23.1L72,107.15l40-23.1Zm-44.54,18a10,10,0,0,1,9.11,0l26.65-15.39c-2.5-1.46-2.49-3.82,0-5.28l-6.63-3.86a10,10,0,0,1-9.12,0L80.75,104.51c2.51,1.46,2.49,3.82,0,5.28l6.64,3.86" transform="translate(-5.28 -5.34)"/><polygon class="cls-5" points="83.96 91.84 103.87 103.41 109.97 99.89 90.05 88.32 83.96 91.84"/><polygon class="cls-8" points="103.89 103.42 103.92 109.06 110.01 105.54 109.98 99.89 103.89 103.42"/><polygon class="cls-2" points="86.61 113.39 86.61 119.03 66.72 107.45 66.72 101.81 86.61 113.39"/><path class="cls-7" d="M71.1,100.63l0,5.65L91,117.85l40-23.1,0-5.65L111.11,77.53" transform="translate(-5.28 -5.34)"/><ellipse class="cls-3" cx="101.06" cy="94.87" rx="8.43" ry="4.88" transform="translate(-5.55 -5.05) rotate(-0.16)"/><path class="cls-4" d="M106.53,82.61a10,10,0,0,0,9.11,0l6.64,3.86c-2.52,1.45-2.54,3.82,0,5.27L95.6,107.13a10.1,10.1,0,0,0-9.12,0l-6.63-3.86c2.52-1.45,2.53-3.82,0-5.27ZM107,98.32c3.3-1.9,3.32-5,0-6.9a13.11,13.11,0,0,0-11.92,0c-3.3,1.9-3.32,5,0,6.9a13.11,13.11,0,0,0,11.92,0" transform="translate(-5.28 -5.34)"/><path class="cls-3" d="M131,89.1,91,112.21,71.1,100.63l40-23.1Zm-44.55,18a10.1,10.1,0,0,1,9.12,0l26.65-15.39c-2.51-1.45-2.49-3.82,0-5.27l-6.64-3.86a10,10,0,0,1-9.11,0L79.87,98c2.51,1.45,2.5,3.82,0,5.27l6.63,3.86" transform="translate(-5.28 -5.34)"/><polygon class="cls-5" points="83.08 85.32 103 96.89 109.09 93.37 89.18 81.8 83.08 85.32"/><polygon class="cls-8" points="103.01 96.9 103.04 102.54 109.14 99.02 109.11 93.38 103.01 96.9"/><polygon class="cls-2" points="85.73 106.87 85.73 112.51 65.85 100.94 65.85 95.3 85.73 106.87"/></svg>