<svg xmlns="http://www.w3.org/2000/svg" viewBox="0 0 147.4 147.4"><defs><style>.cls-1{fill:#e87818;}.cls-2{fill:none;stroke:#201b18;stroke-linecap:round;stroke-linejoin:round;stroke-width:0.9px;}.cls-3{fill:#1d1d1b;}</style></defs><title>G11_08_07</title><g id="Mobile"><path id="path109" class="cls-1" d="M4.25,77.74l73.86,73.64,73.54-73.64L78.11,4,4.25,77.74" transform="translate(-4.25 -3.98)"/><path id="path273" class="cls-2" d="M13.76,77.63,78.22,142l64.13-64.32L78.22,13.42Z" transform="translate(-4.25 -3.98)"/><path class="cls-3" d="M80.46,109.77l-1.84,2.16,0,0,2.71-.55v1.72l-2.73-.47v0l1.85,2.09L79,115.7l-1-2.63h0l-1,2.62-1.47-.88,1.82-2.13v0l-2.67.49v-1.72l2.64.53,0,0-1.81-2.15,1.52-.86.95,2.6h0l1-2.6Z" transform="translate(-4.25 -3.98)"/><path class="cls-3" d="M77.29,123.15h0l-2.11,1-.42-1.94,2.93-1.36h2.14v11.06h-2.5Z" transform="translate(-4.25 -3.98)"/><path class="cls-3" d="M51.53,60.89h-.11l-7,3.34L43,57.77l9.75-4.54h7.14V90.08H51.53Z" transform="translate(-4.25 -3.98)"/><path class="cls-3" d="M72.45,85.49a5,5,0,0,1,5.1-5.27,5.24,5.24,0,0,1,0,10.48A5,5,0,0,1,72.45,85.49Z" transform="translate(-4.25 -3.98)"/><path class="cls-3" d="M110.26,59.36a23.58,23.58,0,0,0-3.34.11c-7.66.62-11.06,4.53-12,8.84h.17a10.36,10.36,0,0,1,7.82-2.94c6.18,0,11.4,4.36,11.4,12A13.2,13.2,0,0,1,100.68,90.7c-9.81,0-14.62-7.31-14.62-16.1,0-6.91,2.55-12.69,6.52-16.38,3.68-3.34,8.44-5.16,14.22-5.44a26.45,26.45,0,0,1,3.46-.06Zm-4.7,18.48c0-3.41-1.82-6.35-5.5-6.35A5.61,5.61,0,0,0,95,74.77a5,5,0,0,0-.34,2.16c.17,3.91,2,7.42,5.95,7.42C103.63,84.35,105.56,81.58,105.56,77.84Z" transform="translate(-4.25 -3.98)"/></g></svg>