<svg xmlns="http://www.w3.org/2000/svg" viewBox="0 0 127.56 112.43"><defs><style>.cls-1{fill:#ad1917;}.cls-2{fill:#fff;}.cls-3{fill:#1d1d1b;}</style></defs><title>G11_01_04</title><g id="Mobile"><path id="_Tracciato_" data-name="&lt;Tracciato&gt;" class="cls-1" d="M23.14,115.28a7.31,7.31,0,0,1-6.34-11L73.27,6.51a7.32,7.32,0,0,1,12.67,0l56.46,97.8a7.31,7.31,0,0,1-6.33,11Z" transform="translate(-15.82 -2.86)"/><polygon id="_Tracciato_2" data-name="&lt;Tracciato&gt;" class="cls-2" points="12.28 102.25 63.78 13.04 115.28 102.25 12.28 102.25"/><path id="_Tracciato_composto_" data-name="&lt;Tracciato composto&gt;" class="cls-3" d="M63.74,59.89a2.4,2.4,0,0,0,3.06,1.45l19.11-6.77,0,.09A1.07,1.07,0,0,0,88,54l-2.63-7.39A1.06,1.06,0,0,0,84,45.9a1,1,0,0,0-.64,1.33l0,.11L64.24,54.12a2.39,2.39,0,0,0-1.46,3.05Zm.84-4.79L83.7,48.32l1.86,5.27L66.45,60.36a1.36,1.36,0,0,1-1.73-.82l-1-2.71A1.36,1.36,0,0,1,64.58,55.1Zm-.45,1.59a1,1,0,0,1,.59-1.22l5.64-2H84.7L66.32,60A1.19,1.19,0,0,1,66,60a.94.94,0,0,1-.9-.63Zm21.21,9.72c0-1.5,2.7-5.3,2.7-5.3s2.7,3.8,2.7,5.3a2.7,2.7,0,1,1-5.4,0ZM103.54,84a2.38,2.38,0,0,1-2.38,2.38H83.89V88H98.77a2.38,2.38,0,1,1,0,4.76H83.89v1.6h9.57a2.38,2.38,0,1,1,0,4.76H57.87v.37h0a1.1,1.1,0,0,1-2.19,0h0V74.92h0a1.1,1.1,0,0,1,2.19,0h0v.37h3.92l14.71-10a3.35,3.35,0,1,1,3.78,5.54l-6.6,4.5H85.49a2.69,2.69,0,0,0,5.1,0h8.18a2.38,2.38,0,1,1,0,4.76H83.89v1.6h17.27A2.38,2.38,0,0,1,103.54,84Z" transform="translate(-15.82 -2.86)"/></g></svg>