<svg xmlns="http://www.w3.org/2000/svg" viewBox="0 0 186.85 174.46"><defs><style>.cls-1{isolation:isolate;}.cls-2{fill:#ad1917;}.cls-3{fill:#ea504e;}.cls-4{fill:#e6332a;}.cls-5{fill:#ed7706;}.cls-6{fill:#fff;}.cls-7{fill:#2d5972;}.cls-8{fill:#3d7495;}.cls-9{fill:#103140;}.cls-10{fill:#18465d;}.cls-11{fill:#cdcccc;}.cls-12{fill:#fdca07;}.cls-13{fill:#bbbdbf;mix-blend-mode:multiply;}.cls-14{fill:#cdcbbb;}.cls-15{fill:#496e45;}.cls-16{fill:#2b2c2c;}.cls-17{fill:#404042;}.cls-18{fill:#737373;}.cls-19{fill:#010101;}.cls-20{fill:#231f20;}.cls-21{fill:#313131;}.cls-22{fill:#4d4d4d;}.cls-23{fill:#87bf59;}.cls-24{fill:#525252;}.cls-25{fill:#f6f6d3;}.cls-26{fill:#fffdef;}.cls-27{fill:#a19988;}.cls-28{fill:#919086;}.cls-29{fill:#a9cb5a;}.cls-30{fill:#d9d8c8;}.cls-31{fill:#a14551;}.cls-32{fill:#e7e8e9;}.cls-33{fill:#8fc14a;}.cls-34{fill:#afcd59;}.cls-35{fill:#63b22f;}.cls-36{fill:#736d63;}.cls-37{fill:#afa594;}.cls-38{fill:#5f5252;}.cls-39{fill:#bbd256;}.cls-40{fill:#454544;}.cls-41{fill:#f9b233;}.cls-42{fill:#be1622;}.cls-43{fill:#f39200;}.cls-44{fill:none;}.cls-45{fill:#ef8c29;}.cls-46{fill:#d37811;}.cls-47{fill:#6eb02d;}.cls-48{fill:#8bbf4b;}.cls-49{fill:#7fbb42;}</style></defs><title>G11_15_03</title><g class="cls-1"><g id="Livello_1" data-name="Livello 1"><polygon class="cls-2" points="186.85 116.52 186.85 121.3 96.8 174.46 96.8 169.69 186.85 116.52"/><polygon class="cls-3" points="96.8 169.69 96.8 174.46 0 118.06 0 113.28 96.8 169.69"/><polygon class="cls-4" points="96.65 169.6 0 113.28 90.82 61.08 186.85 116.52 96.8 169.69 96.65 169.6"/><polygon class="cls-5" points="44.19 49.68 72.32 33.34 72.31 37.39 44.18 53.73 44.19 49.68"/><polygon class="cls-5" points="44.18 53.73 72.31 37.39 85.02 44.72 56.88 61.07 44.18 53.73"/><polygon class="cls-6" points="56.9 57.02 85.03 40.67 85.02 44.72 56.88 61.07 56.9 57.02"/><polygon class="cls-5" points="61.09 59.44 89.22 43.09 89.2 47.14 61.07 63.49 61.09 59.44"/><polygon class="cls-6" points="56.92 48.69 85.05 32.34 85.04 36.4 56.91 52.74 56.92 48.69"/><polygon class="cls-5" points="61.11 51.11 89.24 34.76 89.23 38.81 61.1 55.16 61.11 51.11"/><polygon class="cls-5" points="61.07 63.49 89.2 47.14 101.91 54.48 73.78 70.83 61.07 63.49"/><polygon class="cls-6" points="73.79 66.77 101.92 50.43 101.91 54.48 73.78 70.83 73.79 66.77"/><polygon class="cls-6" points="61.09 59.44 89.22 43.09 101.92 50.43 73.79 66.77 61.09 59.44"/><polygon class="cls-6" points="73.79 66.77 73.78 70.83 61.07 63.49 61.09 59.44 73.79 66.77"/><polygon class="cls-5" points="61.1 55.16 89.23 38.81 101.94 46.15 73.8 62.5 61.1 55.16"/><polygon class="cls-5" points="77.98 69.19 106.11 52.84 106.1 56.9 77.97 73.24 77.98 69.19"/><polygon class="cls-6" points="73.82 58.45 101.95 42.1 101.94 46.15 73.8 62.5 73.82 58.45"/><polygon class="cls-6" points="61.11 51.11 89.24 34.76 101.95 42.1 73.82 58.45 61.11 51.11"/><polygon class="cls-6" points="73.82 58.45 73.8 62.5 61.1 55.16 61.11 51.11 73.82 58.45"/><polygon class="cls-7" points="57.33 26.55 57.89 39.56 53.46 36.99 54.09 24.68 57.33 26.55"/><polygon class="cls-8" points="86.49 23.48 86.49 23.48 61.87 9.28 33.74 25.63 57.89 39.56 68.47 45.67 96.61 29.32 86.49 23.48"/><polygon class="cls-9" points="68.47 45.67 96.61 29.32 96.6 31.56 68.47 47.91 68.47 45.67"/><polygon class="cls-10" points="68.47 47.91 96.6 31.56 99.14 33.03 71.01 49.38 68.47 47.91"/><polygon class="cls-5" points="78 60.87 106.14 44.52 106.12 48.57 77.99 64.92 78 60.87"/><polygon class="cls-5" points="77.97 73.24 106.1 56.9 118.81 64.23 90.68 80.58 77.97 73.24"/><polygon class="cls-9" points="73.84 48.77 101.97 32.42 101.97 34.66 73.84 51.01 73.84 48.77"/><polygon class="cls-8" points="71.02 47.13 99.15 30.78 101.97 32.42 73.84 48.77 71.02 47.13"/><polygon class="cls-10" points="73.84 51.01 101.97 34.66 104.52 36.13 76.39 52.48 73.84 51.01"/><polygon class="cls-6" points="77.98 69.19 106.11 52.84 118.82 60.18 90.69 76.53 77.98 69.19"/><polygon class="cls-6" points="90.69 76.53 118.82 60.18 118.81 64.23 90.68 80.58 90.69 76.53"/><polygon class="cls-6" points="90.69 76.53 90.68 80.58 77.97 73.24 77.98 69.19 90.69 76.53"/><polygon class="cls-5" points="77.99 64.92 106.12 48.57 118.83 55.91 90.7 72.25 77.99 64.92"/><polygon class="cls-9" points="79.22 51.87 107.35 35.52 107.35 37.77 79.22 54.12 79.22 51.87"/><polygon class="cls-8" points="76.39 50.24 104.52 33.89 107.35 35.52 79.22 51.87 76.39 50.24"/><polygon class="cls-10" points="79.22 54.12 107.35 37.77 109.89 39.24 81.76 55.59 79.22 54.12"/><polygon class="cls-6" points="90.71 68.2 90.7 72.25 77.99 64.92 78 60.87 90.71 68.2"/><polygon class="cls-6" points="90.71 68.2 118.84 51.86 118.83 55.91 90.7 72.25 90.71 68.2"/><polygon class="cls-6" points="78 60.87 106.14 44.52 118.84 51.86 90.71 68.2 78 60.87"/><polygon class="cls-9" points="84.6 54.98 112.73 38.63 112.72 40.87 84.59 57.22 84.6 54.98"/><polygon class="cls-8" points="81.77 53.34 109.9 36.99 112.73 38.63 84.6 54.98 81.77 53.34"/><polygon class="cls-10" points="84.59 57.22 112.72 40.87 115.27 42.34 87.14 58.69 84.59 57.22"/><polygon class="cls-8" points="87.15 56.45 115.28 40.1 122.07 44.02 93.94 60.37 87.15 56.45"/><path class="cls-7" d="M91.5,64.56l6.79,3.92-.11,80.08L38,113.82l.12-80.08,34.74,20V56l2.54,1.46V55.25l2.82,1.63v2.25l2.55,1.47V58.35L83.57,60v2.25l2.54,1.47V61.46L89,63.09v2.24l2.55,1.48ZM95,88.7V84.64L82.33,77.31v4L95,88.7Zm-16.9-9.76v-4l-12.7-7.34,0,4,12.71,7.34Zm16.92,1.43V76.32L82.35,69v4l12.71,7.34Zm-16.9-9.76,0-4L65.46,59.23v4.05l12.7,7.33Z" transform="translate(-4.35 -8.11)"/><polygon class="cls-9" points="93.94 60.37 122.07 44.02 121.96 124.1 93.83 140.45 93.94 60.37"/><polygon class="cls-11" points="109.97 65.13 109.96 61.08 97.25 68.42 97.26 72.47 109.97 65.13"/><polygon class="cls-11" points="118.85 60.72 118.84 56.67 113.37 59.64 113.38 63.69 118.85 60.72"/><polygon class="cls-11" points="118.85 69.28 118.84 65.23 113.37 68.2 113.38 72.25 118.85 69.28"/><polygon class="cls-11" points="109.97 73.86 109.96 69.81 97.25 77.15 97.26 81.2 109.97 73.86"/><g class="cls-1"><path class="cls-10" d="M67.19,29.79c2.31,1.39,2.23,3.61-.18,5a9.42,9.42,0,0,1-8.54-.09c-2.31-1.39-2.23-3.6.18-4.95A9.41,9.41,0,0,1,67.19,29.79Z" transform="translate(-4.35 -8.11)"/><path class="cls-10" d="M68.87,32a3.1,3.1,0,0,0-1.68-2.23l-1.48-21a2.09,2.09,0,0,1,1.13,1.51Q67.85,21.17,68.87,32Z" transform="translate(-4.35 -8.11)"/><path class="cls-10" d="M58.71,10.36A2.11,2.11,0,0,1,60,8.78a6.35,6.35,0,0,1,5.76.05l1.48,21a9.41,9.41,0,0,0-8.54-.09,3.23,3.23,0,0,0-1.85,2.35Q57.76,21.21,58.71,10.36Z" transform="translate(-4.35 -8.11)"/><path class="cls-10" d="M56.8,32.05q1-10.84,1.91-21.69a1.93,1.93,0,0,0,1.12,1.75,6.35,6.35,0,0,0,5.76.06,2,2,0,0,0,1.25-1.83h0q.5,5.41,1,10.84l1,10.84A3,3,0,0,1,67,34.74a9.42,9.42,0,0,1-8.54-.09A2.86,2.86,0,0,1,56.8,32.05Z" transform="translate(-4.35 -8.11)"/><path class="cls-9" d="M65.71,8.83c1.56.94,1.5,2.43-.12,3.34a6.35,6.35,0,0,1-5.76-.06c-1.55-.94-1.5-2.43.12-3.33A6.35,6.35,0,0,1,65.71,8.83Z" transform="translate(-4.35 -8.11)"/><path class="cls-8" d="M62.79,8.6h0a5.38,5.38,0,0,1,2.67.65,1.52,1.52,0,0,1,.9,1.23,1.69,1.69,0,0,1-1,1.27,5.87,5.87,0,0,1-5.27-.05,1.57,1.57,0,0,1-.9-1.23,1.66,1.66,0,0,1,1-1.27,5.37,5.37,0,0,1,2.6-.6Zm0-.49A5.9,5.9,0,0,0,60,8.78c-1.62.9-1.67,2.39-.12,3.33a5.81,5.81,0,0,0,2.93.72,5.94,5.94,0,0,0,2.83-.66c1.62-.91,1.68-2.4.12-3.34a5.9,5.9,0,0,0-2.92-.72Z" transform="translate(-4.35 -8.11)"/></g><g class="cls-1"><path class="cls-10" d="M78.1,37.57c1.89,1.14,1.82,3-.15,4a7.65,7.65,0,0,1-7-.07c-1.89-1.13-1.82-2.94.14-4A7.73,7.73,0,0,1,78.1,37.57Z" transform="translate(-4.35 -8.11)"/><path class="cls-10" d="M79.47,39.39a2.57,2.57,0,0,0-1.37-1.82L76.89,20.46a1.7,1.7,0,0,1,.92,1.23Q78.63,30.54,79.47,39.39Z" transform="translate(-4.35 -8.11)"/><path class="cls-10" d="M71.17,21.71a1.75,1.75,0,0,1,1-1.3,5.19,5.19,0,0,1,4.7.05L78.1,37.57a7.73,7.73,0,0,0-7-.07,2.61,2.61,0,0,0-1.51,1.92Z" transform="translate(-4.35 -8.11)"/><path class="cls-10" d="M69.61,39.42l1.56-17.71a1.57,1.57,0,0,0,.92,1.43,5.19,5.19,0,0,0,4.7,0,1.62,1.62,0,0,0,1-1.49h0c.28,2.95.55,5.9.83,8.85s.55,5.9.83,8.85A2.42,2.42,0,0,1,78,41.61a7.65,7.65,0,0,1-7-.07A2.35,2.35,0,0,1,69.61,39.42Z" transform="translate(-4.35 -8.11)"/><path class="cls-9" d="M76.89,20.46c1.27.77,1.23,2-.1,2.72a5.19,5.19,0,0,1-4.7,0c-1.27-.77-1.23-2,.1-2.73A5.19,5.19,0,0,1,76.89,20.46Z" transform="translate(-4.35 -8.11)"/><path class="cls-8" d="M74.5,20.27h0a4.38,4.38,0,0,1,2.19.53,1.25,1.25,0,0,1,.73,1,1.38,1.38,0,0,1-.82,1,4.81,4.81,0,0,1-4.31,0,1.24,1.24,0,0,1-.73-1,1.37,1.37,0,0,1,.82-1,4.4,4.4,0,0,1,2.12-.49Zm0-.4a4.86,4.86,0,0,0-2.31.54c-1.33.74-1.37,2-.1,2.73a5.21,5.21,0,0,0,4.7,0c1.33-.74,1.37-1.95.1-2.72a4.76,4.76,0,0,0-2.39-.59Z" transform="translate(-4.35 -8.11)"/></g><path class="cls-12" d="M58.88,69.49l4,10.3a1.26,1.26,0,0,1,0,1.13c-.17.24-.49.27-.84.07l-5.93-3.42v1l-3.21-4,3.22-.28v1l4.23,2.44-3.15-8.13Z" transform="translate(-4.35 -8.11)"/><path class="cls-12" d="M45.4,62.14v4.27l-.76-1L43,67.76l7.5,4.33v2.25L41.3,69A2.17,2.17,0,0,1,40.45,68a1.28,1.28,0,0,1,0-1.12l2.49-3.49-.76-.94Z" transform="translate(-4.35 -8.11)"/><path class="cls-12" d="M51.72,52.14a2.15,2.15,0,0,1,.85,1l3.69,9.53.76-.06v4.26l-3.21-4,.76-.06-2.85-7.36-4.52,6.36-1.7-2.11,5.38-7.55C51.05,52,51.37,51.94,51.72,52.14Z" transform="translate(-4.35 -8.11)"/><polygon class="cls-6" points="73.79 83.77 73.78 87.83 61.07 80.49 61.09 76.44 73.79 83.77"/><polygon class="cls-6" points="73.82 75.45 73.8 79.5 61.1 72.16 61.11 68.11 73.82 75.45"/><polygon class="cls-6" points="90.69 93.53 90.68 97.58 77.97 90.24 77.98 86.19 90.69 93.53"/><polygon class="cls-6" points="90.71 85.2 90.7 89.25 77.99 81.92 78 77.87 90.71 85.2"/><polygon class="cls-11" points="109.97 82.13 109.96 78.08 97.25 85.42 97.26 89.47 109.97 82.13"/><polygon class="cls-11" points="118.85 77.72 118.84 73.67 113.37 76.64 113.38 80.69 118.85 77.72"/><polygon class="cls-11" points="118.85 86.28 118.84 82.23 113.37 85.2 113.38 89.25 118.85 86.28"/><polygon class="cls-11" points="109.97 90.86 109.96 86.81 97.25 94.15 97.26 98.2 109.97 90.86"/><polygon class="cls-6" points="73.79 92.77 73.78 96.83 61.07 89.49 61.09 85.44 73.79 92.77"/><polygon class="cls-6" points="90.69 102.53 90.68 106.58 77.97 99.24 77.98 95.19 90.69 102.53"/><polygon class="cls-6" points="73.79 109.77 73.78 113.83 61.07 106.49 61.09 102.44 73.79 109.77"/><polygon class="cls-6" points="73.82 101.45 73.8 105.5 61.1 98.16 61.11 94.11 73.82 101.45"/><polygon class="cls-6" points="90.69 119.53 90.68 123.58 77.97 116.24 77.98 112.19 90.69 119.53"/><polygon class="cls-6" points="90.71 111.2 90.7 115.25 77.99 107.92 78 103.87 90.71 111.2"/><polygon class="cls-11" points="118.85 95.28 118.84 91.23 113.37 94.2 113.38 98.25 118.85 95.28"/><polygon class="cls-11" points="109.97 99.86 109.96 95.81 97.25 103.15 97.26 107.2 109.97 99.86"/><polygon class="cls-11" points="109.97 108.13 109.96 104.08 97.25 111.42 97.26 115.47 109.97 108.13"/><polygon class="cls-11" points="118.85 103.72 118.84 99.67 113.37 102.64 113.38 106.69 118.85 103.72"/><polygon class="cls-11" points="118.85 112.28 118.84 108.23 113.37 111.2 113.38 115.25 118.85 112.28"/><polygon class="cls-11" points="109.97 116.86 109.96 112.81 97.25 120.15 97.26 124.2 109.97 116.86"/><g id="truck_1"><g id="_Gruppo_" data-name="&lt;Gruppo&gt;"><g id="_Gruppo_2" data-name="&lt;Gruppo&gt;"><path id="_Tracciato_" data-name="&lt;Tracciato&gt;" class="cls-13" d="M177.4,121.09l-13.94-8c-.36-.21-10.17,4-10.53,4.18L87.48,155a.25.25,0,0,0,0,.43l15.78,9.1a.21.21,0,0,0,.24,0l14,0,49.42-28.52h-5.57l5.24-3h5.56l9.35-5.4C182.3,127.19,178.17,121.54,177.4,121.09Z" transform="translate(-4.35 -8.11)"/></g><g id="_Gruppo_3" data-name="&lt;Gruppo&gt;"><polygon id="_Tracciato_2" data-name="&lt;Tracciato&gt;" class="cls-14" points="142.46 109.4 153.3 115.63 153.3 99.59 142.46 93.37 142.46 109.4"/><polygon id="_Tracciato_3" data-name="&lt;Tracciato&gt;" class="cls-13" points="142.46 109.4 153.3 115.63 153.3 105.13 142.46 98.91 142.46 109.4"/><polygon id="_Tracciato_4" data-name="&lt;Tracciato&gt;" class="cls-14" points="149.62 115.37 151.56 116.5 152.42 115.12 149.63 113.52 149.62 115.37"/><polygon id="_Tracciato_5" data-name="&lt;Tracciato&gt;" class="cls-14" points="152.42 117.01 151.56 116.5 152.42 115.12 153.3 115.63 152.42 117.01"/><polygon id="_Tracciato_6" data-name="&lt;Tracciato&gt;" class="cls-13" points="149.62 115.37 151.56 116.5 152.42 115.12 149.63 113.52 149.62 115.37"/><polygon id="_Tracciato_7" data-name="&lt;Tracciato&gt;" class="cls-13" points="152.42 117.01 151.56 116.5 152.42 115.12 153.3 115.63 152.42 117.01"/></g><path id="_Tracciato_8" data-name="&lt;Tracciato&gt;" class="cls-15" d="M144.16,132.33l4.18,2.81a.71.71,0,0,1-.13-.48v-2.73a1.65,1.65,0,0,1,.21-.67,1.12,1.12,0,0,1,.41-.43l-1-.59Z" transform="translate(-4.35 -8.11)"/><g id="_Gruppo_4" data-name="&lt;Gruppo&gt;"><g id="_Gruppo_5" data-name="&lt;Gruppo&gt;"><g id="_Gruppo_6" data-name="&lt;Gruppo&gt;"><path id="_Tracciato_9" data-name="&lt;Tracciato&gt;" class="cls-16" d="M125.37,145.48l-4.19,7s-1.32-.78-1.84-1.07a2,2,0,0,1-.87-1.88,6.4,6.4,0,0,1,2.89-5,2,2,0,0,1,2.16-.13Z" transform="translate(-4.35 -8.11)"/><path id="_Tracciato_10" data-name="&lt;Tracciato&gt;" class="cls-17" d="M125,148a3.82,3.82,0,0,1-1.72,3c-1,.54-1.72.1-1.72-1a3.78,3.78,0,0,1,1.72-3C124.18,146.42,125,146.86,125,148Z" transform="translate(-4.35 -8.11)"/><ellipse id="_Tracciato_11" data-name="&lt;Tracciato&gt;" class="cls-18" cx="122.79" cy="148.59" rx="2.43" ry="1.4" transform="translate(-71.63 172.52) rotate(-60)"/><path id="_Tracciato_composto_" data-name="&lt;Tracciato composto&gt;" class="cls-19" d="M123.23,145.62a6.37,6.37,0,0,0-2.89,5c0,1.84,1.29,2.59,2.89,1.67a6.41,6.41,0,0,0,2.89-5C126.12,145.44,124.82,144.7,123.23,145.62Zm0,5.32c-1,.54-1.72.1-1.72-1a3.78,3.78,0,0,1,1.72-3c1-.55,1.72-.11,1.72,1A3.82,3.82,0,0,1,123.23,150.94Z" transform="translate(-4.35 -8.11)"/><path id="_Tracciato_12" data-name="&lt;Tracciato&gt;" class="cls-20" d="M123.34,148.27a1.19,1.19,0,0,1-.55.95c-.3.18-.55,0-.55-.32a1.23,1.23,0,0,1,.55-1C123.1,147.78,123.34,147.92,123.34,148.27Z" transform="translate(-4.35 -8.11)"/></g><g id="_Gruppo_7" data-name="&lt;Gruppo&gt;"><path id="_Tracciato_13" data-name="&lt;Tracciato&gt;" class="cls-16" d="M118.14,149.66l-4.19,7-1.84-1.06a2,2,0,0,1-.87-1.88,6.37,6.37,0,0,1,2.89-5,2,2,0,0,1,2.16-.13Z" transform="translate(-4.35 -8.11)"/><ellipse id="_Tracciato_14" data-name="&lt;Tracciato&gt;" class="cls-17" cx="116" cy="153.13" rx="2.43" ry="1.4" transform="translate(-78.97 168.9) rotate(-60)"/><ellipse id="_Tracciato_15" data-name="&lt;Tracciato&gt;" class="cls-18" cx="115.56" cy="152.76" rx="2.43" ry="1.4" transform="translate(-78.87 168.35) rotate(-60)"/><path id="_Tracciato_composto_2" data-name="&lt;Tracciato composto&gt;" class="cls-19" d="M116,149.79a6.37,6.37,0,0,0-2.89,5c0,1.85,1.29,2.59,2.89,1.67a6.39,6.39,0,0,0,2.88-5C118.88,149.62,117.59,148.87,116,149.79Zm0,5.32c-1,.55-1.72.11-1.72-1a3.8,3.8,0,0,1,1.72-3c1-.55,1.72-.1,1.72,1A3.8,3.8,0,0,1,116,155.11Z" transform="translate(-4.35 -8.11)"/><path id="_Tracciato_16" data-name="&lt;Tracciato&gt;" class="cls-20" d="M116.11,152.45a1.2,1.2,0,0,1-.55,1c-.3.18-.55,0-.55-.32a1.21,1.21,0,0,1,.55-1C115.87,152,116.11,152.09,116.11,152.45Z" transform="translate(-4.35 -8.11)"/></g><g id="_Gruppo_8" data-name="&lt;Gruppo&gt;"><path id="_Tracciato_17" data-name="&lt;Tracciato&gt;" class="cls-16" d="M110.91,153.79l-4.19,7s-1.33-.78-1.85-1.06a2,2,0,0,1-.87-1.89,6.4,6.4,0,0,1,2.89-5,2,2,0,0,1,2.16-.13Z" transform="translate(-4.35 -8.11)"/><ellipse id="_Tracciato_18" data-name="&lt;Tracciato&gt;" class="cls-17" cx="108.76" cy="157.26" rx="2.43" ry="1.4" transform="translate(-86.17 164.71) rotate(-60)"/><path id="_Tracciato_19" data-name="&lt;Tracciato&gt;" class="cls-18" d="M110,155.91a3.81,3.81,0,0,1-1.71,3c-1,.54-1.72.1-1.72-1a3.82,3.82,0,0,1,1.72-3C109.28,154.37,110,154.81,110,155.91Z" transform="translate(-4.35 -8.11)"/><path id="_Tracciato_composto_3" data-name="&lt;Tracciato composto&gt;" class="cls-19" d="M108.76,153.93a6.37,6.37,0,0,0-2.89,5c0,1.84,1.29,2.59,2.89,1.67a6.4,6.4,0,0,0,2.89-5C111.65,153.76,110.35,153,108.76,153.93Zm0,5.32c-1,.55-1.72.1-1.72-1a3.8,3.8,0,0,1,1.72-3c.95-.55,1.72-.11,1.72,1A3.8,3.8,0,0,1,108.76,159.25Z" transform="translate(-4.35 -8.11)"/><path id="_Tracciato_20" data-name="&lt;Tracciato&gt;" class="cls-20" d="M108.88,156.58a1.25,1.25,0,0,1-.55,1c-.31.17-.56,0-.56-.32a1.23,1.23,0,0,1,.56-1C108.63,156.09,108.88,156.23,108.88,156.58Z" transform="translate(-4.35 -8.11)"/></g></g><g id="_Gruppo_9" data-name="&lt;Gruppo&gt;"><path id="_Tracciato_21" data-name="&lt;Tracciato&gt;" class="cls-16" d="M162.94,123.77l-4.19,7-1.84-1.06a2,2,0,0,1-.87-1.88,6.39,6.39,0,0,1,2.89-5,2,2,0,0,1,2.16-.12Z" transform="translate(-4.35 -8.11)"/><path id="_Tracciato_22" data-name="&lt;Tracciato&gt;" class="cls-17" d="M162.52,126.24a3.8,3.8,0,0,1-1.72,3c-1,.55-1.72.11-1.72-1a3.8,3.8,0,0,1,1.72-3C161.75,124.7,162.52,125.15,162.52,126.24Z" transform="translate(-4.35 -8.11)"/><ellipse id="_Tracciato_23" data-name="&lt;Tracciato&gt;" class="cls-18" cx="160.36" cy="126.87" rx="2.43" ry="1.4" transform="translate(-34.05 194.2) rotate(-60)"/><path id="_Tracciato_composto_4" data-name="&lt;Tracciato composto&gt;" class="cls-19" d="M160.8,123.9a6.37,6.37,0,0,0-2.89,5c0,1.85,1.29,2.59,2.89,1.67a6.39,6.39,0,0,0,2.88-5C163.68,123.73,162.39,123,160.8,123.9Zm0,5.32c-1,.55-1.72.11-1.72-1a3.8,3.8,0,0,1,1.72-3c.95-.55,1.72-.1,1.72,1A3.8,3.8,0,0,1,160.8,129.22Z" transform="translate(-4.35 -8.11)"/><path id="_Tracciato_24" data-name="&lt;Tracciato&gt;" class="cls-20" d="M160.91,126.55a1.21,1.21,0,0,1-.55,1c-.3.17-.55,0-.55-.32a1.21,1.21,0,0,1,.55-1C160.67,126.06,160.91,126.2,160.91,126.55Z" transform="translate(-4.35 -8.11)"/></g><g id="_Gruppo_10" data-name="&lt;Gruppo&gt;"><path id="_Tracciato_25" data-name="&lt;Tracciato&gt;" class="cls-16" d="M147.27,132.8l-4.19,7-1.84-1.06a2,2,0,0,1-.87-1.88,6.43,6.43,0,0,1,2.89-5,2,2,0,0,1,2.16-.12Z" transform="translate(-4.35 -8.11)"/><path id="_Tracciato_26" data-name="&lt;Tracciato&gt;" class="cls-17" d="M146.85,135.27a3.8,3.8,0,0,1-1.72,3c-.95.55-1.72.11-1.72-1a3.8,3.8,0,0,1,1.72-3C146.08,133.73,146.85,134.18,146.85,135.27Z" transform="translate(-4.35 -8.11)"/><path id="_Tracciato_27" data-name="&lt;Tracciato&gt;" class="cls-18" d="M146.41,134.91a3.8,3.8,0,0,1-1.72,3c-.95.55-1.72.1-1.72-1a3.8,3.8,0,0,1,1.72-3C145.64,133.37,146.41,133.81,146.41,134.91Z" transform="translate(-4.35 -8.11)"/><path id="_Tracciato_composto_5" data-name="&lt;Tracciato composto&gt;" class="cls-19" d="M145.13,132.93a6.37,6.37,0,0,0-2.89,5c0,1.85,1.29,2.59,2.89,1.67a6.4,6.4,0,0,0,2.89-5C148,132.76,146.72,132,145.13,132.93Zm0,5.32c-.95.55-1.72.11-1.72-1a3.8,3.8,0,0,1,1.72-3c1-.55,1.72-.1,1.72,1A3.8,3.8,0,0,1,145.13,138.25Z" transform="translate(-4.35 -8.11)"/><path id="_Tracciato_28" data-name="&lt;Tracciato&gt;" class="cls-20" d="M145.24,135.58a1.21,1.21,0,0,1-.55,1c-.3.17-.55,0-.55-.32a1.21,1.21,0,0,1,.55-.95C145,135.09,145.24,135.23,145.24,135.58Z" transform="translate(-4.35 -8.11)"/></g></g><g id="_Gruppo_11" data-name="&lt;Gruppo&gt;"><path id="_Tracciato_29" data-name="&lt;Tracciato&gt;" class="cls-17" d="M126.93,145.22l14.55-8.39a6.73,6.73,0,0,1,1.46-3.4v-1.14L125.3,142.47Z" transform="translate(-4.35 -8.11)"/><g id="_Gruppo_12" data-name="&lt;Gruppo&gt;"><path id="_Tracciato_composto_6" data-name="&lt;Tracciato composto&gt;" class="cls-21" d="M136,137.69v-1.91l-.84.48v1.91l-5.19,3v-1.91l-1,.58v1.91l-1.84,1.06v3.87l.73.38L138.3,141v-3.86l-.74-.39Zm-.84,1.51v2.13l-5.32,3.08v-2.13Zm-7.24,4.1,1-.6v2.2l-1,.61Zm9.27-3.14-1.17.71v-2.29l1.17-.71Z" transform="translate(-4.35 -8.11)"/><path id="_Tracciato_composto_7" data-name="&lt;Tracciato composto&gt;" class="cls-22" d="M136.46,138.2v-1.91l-.62.35v1.91l-5.57,3.22v-1.91l-.61.36v1.91l-1.85,1.06v3.87L138.3,141v-3.86Zm-.62,1.06v2.45l-5.57,3.22v-2.45Zm-7.23,4.18,1-.61v2.46l-1,.6Zm9.26-2.9-1.41.82v-2.45l1.41-.82Z" transform="translate(-4.35 -8.11)"/></g></g><path id="_Tracciato_30" data-name="&lt;Tracciato&gt;" class="cls-23" d="M157.57,125.59a10.47,10.47,0,0,0-1.26,5.23l-7.45,4.3c-.34.19-.65.14-.65-.46v-2.73a1.43,1.43,0,0,1,.62-1.1l7.85-4.42S157.3,125.27,157.57,125.59Z" transform="translate(-4.35 -8.11)"/><path id="_Tracciato_31" data-name="&lt;Tracciato&gt;" class="cls-24" d="M157.57,125.59l-3.6-2.11s-5.84,6.56-6.18,6.76l1,.59,7.85-4.42S157.3,125.27,157.57,125.59Z" transform="translate(-4.35 -8.11)"/><g id="_Gruppo_13" data-name="&lt;Gruppo&gt;"><polygon id="_Tracciato_32" data-name="&lt;Tracciato&gt;" class="cls-25" points="152.06 89.49 161.73 95.07 161.53 95.31 150.31 88.85 152.06 89.49"/><polygon id="_Tracciato_33" data-name="&lt;Tracciato&gt;" class="cls-26" points="142.46 93.37 150.31 88.83 161.14 95.06 153.29 99.6 142.46 93.37"/><g id="_Gruppo_14" data-name="&lt;Gruppo&gt;"><path id="_Tracciato_34" data-name="&lt;Tracciato&gt;" class="cls-14" d="M156.17,106.87v-2.36L148.31,100a5.65,5.65,0,0,0-.45,1.91l.45.27v.17Z" transform="translate(-4.35 -8.11)"/><polygon id="_Tracciato_35" data-name="&lt;Tracciato&gt;" class="cls-26" points="153.79 95.25 145.94 90.74 149.4 91.1 157.26 95.61 153.79 95.25"/><polygon id="_Tracciato_36" data-name="&lt;Tracciato&gt;" class="cls-26" points="153.79 95.25 145.94 90.74 143.96 91.88 151.81 96.39 153.79 95.25"/><polygon id="_Tracciato_37" data-name="&lt;Tracciato&gt;" class="cls-27" points="151.82 98.75 151.82 98.1 157.26 95.61 151.82 98.75"/><path id="_Tracciato_38" data-name="&lt;Tracciato&gt;" class="cls-27" d="M156.17,104.51l2-1.14c1.06-.61,3.47.36,3.47.36l-5.89,2.69A5.57,5.57,0,0,1,156.17,104.51Z" transform="translate(-4.35 -8.11)"/></g></g><g id="_Gruppo_15" data-name="&lt;Gruppo&gt;"><path id="_Tracciato_39" data-name="&lt;Tracciato&gt;" class="cls-21" d="M124.68,145.31l1.67,1.11c-.36-1.91-1.49-2-1.69-2l-1.23.7Z" transform="translate(-4.35 -8.11)"/><g id="_Gruppo_16" data-name="&lt;Gruppo&gt;"><path id="_Tracciato_40" data-name="&lt;Tracciato&gt;" class="cls-21" d="M87.4,151.67a12.27,12.27,0,0,0-1,3.25l4.26,2.53,1-3.28Z" transform="translate(-4.35 -8.11)"/><path id="_Tracciato_41" data-name="&lt;Tracciato&gt;" class="cls-22" d="M93.05,152l.82-.47a10.6,10.6,0,0,0-2.74,5.8l-.45.16A11.36,11.36,0,0,1,93.05,152Z" transform="translate(-4.35 -8.11)"/></g><path id="_Tracciato_42" data-name="&lt;Tracciato&gt;" class="cls-22" d="M105.26,155.21l19.55-11.29c.23,0,1.51.1,1.9,2.21l-.36.29c-.36-1.91-1.49-2-1.69-2l-19.25,11.11a8.36,8.36,0,0,0-1.69,4l-.36.12A9.22,9.22,0,0,1,105.26,155.21Z" transform="translate(-4.35 -8.11)"/><path id="_Tracciato_43" data-name="&lt;Tracciato&gt;" class="cls-21" d="M105.26,155.21l19.55-11.29a1.59,1.59,0,0,1,.88.31,5.23,5.23,0,0,0-1.07-.62l-22.24,12.84s-.76.26-1.35,1.8l2.33,1.35A9.22,9.22,0,0,1,105.26,155.21Z" transform="translate(-4.35 -8.11)"/><path id="_Tracciato_44" data-name="&lt;Tracciato&gt;" class="cls-21" d="M99,158.42l-3.07-1.79a12.27,12.27,0,0,0-1,3.25l4.26,2.53a14.48,14.48,0,0,1,2.37-5.49Z" transform="translate(-4.35 -8.11)"/><path id="_Tracciato_45" data-name="&lt;Tracciato&gt;" class="cls-22" d="M101.56,156.92l.82-.47a10.67,10.67,0,0,0-2.74,5.8l-.45.16A11.47,11.47,0,0,1,101.56,156.92Z" transform="translate(-4.35 -8.11)"/></g><g id="_Gruppo_17" data-name="&lt;Gruppo&gt;"><polygon id="_Tracciato_46" data-name="&lt;Tracciato&gt;" class="cls-24" points="82.4 142.61 94.12 149.43 94.13 133.48 82.38 126.7 82.4 142.61"/></g><g id="_Gruppo_18" data-name="&lt;Gruppo&gt;"><polygon id="_Tracciato_47" data-name="&lt;Tracciato&gt;" class="cls-24" points="94.12 149.43 94.13 133.48 82.38 126.7 94.12 149.43"/></g><polygon id="_Tracciato_48" data-name="&lt;Tracciato&gt;" class="cls-28" points="94.12 149.43 82.4 142.61 94.13 135.85 94.12 149.43"/><polygon id="_Tracciato_49" data-name="&lt;Tracciato&gt;" class="cls-13" points="94.12 142.61 82.4 142.61 94.13 135.85 94.12 142.61"/><path id="_Tracciato_composto_8" data-name="&lt;Tracciato composto&gt;" class="cls-29" d="M86.23,133.94l0,17.07L99,158.42V141.3Zm12.24,23.6-11.72-6.82,0-15.9,11.75,6.77Z" transform="translate(-4.35 -8.11)"/><g id="_Gruppo_19" data-name="&lt;Gruppo&gt;"><g id="_Gruppo_20" data-name="&lt;Gruppo&gt;"><polygon id="_Tracciato_50" data-name="&lt;Tracciato&gt;" class="cls-30" points="94.65 152.47 82.03 145.17 82.03 143.63 94.65 150.93 94.65 152.47"/><polygon id="_Tracciato_51" data-name="&lt;Tracciato&gt;" class="cls-30" points="95.03 150.69 82.42 143.39 82.03 143.63 94.65 150.93 95.03 150.69"/><polygon id="_Tracciato_52" data-name="&lt;Tracciato&gt;" class="cls-27" points="94.65 152.47 95.03 152.22 95.03 150.69 94.65 150.93 94.65 152.47"/></g><g id="_Gruppo_21" data-name="&lt;Gruppo&gt;"><polygon id="_Tracciato_53" data-name="&lt;Tracciato&gt;" class="cls-31" points="94.2 152.01 91.53 150.47 91.53 149.32 94.2 150.86 94.2 152.01"/><polygon id="_Tracciato_54" data-name="&lt;Tracciato&gt;" class="cls-32" points="93.91 151.67 93.22 151.27 93.22 150.46 93.91 150.86 93.91 151.67"/><polygon id="_Tracciato_55" data-name="&lt;Tracciato&gt;" class="cls-31" points="82.48 145.24 85.15 146.78 85.15 145.63 82.48 144.09 82.48 145.24"/><polygon id="_Tracciato_56" data-name="&lt;Tracciato&gt;" class="cls-32" points="82.77 145.24 83.46 145.64 83.46 144.83 82.77 144.43 82.77 145.24"/></g></g><g id="_Gruppo_22" data-name="&lt;Gruppo&gt;"><g id="_Gruppo_23" data-name="&lt;Gruppo&gt;"><polygon id="_Tracciato_57" data-name="&lt;Tracciato&gt;" class="cls-33" points="75.16 139.39 81.51 143.07 81.5 126 75.11 122.37 75.16 139.39"/><polygon id="_Tracciato_58" data-name="&lt;Tracciato&gt;" class="cls-29" points="75.91 138.95 75.87 123.67 80.74 126.44 80.76 141.75 75.91 138.95"/></g><g id="_Gruppo_24" data-name="&lt;Gruppo&gt;"><polygon id="_Tracciato_59" data-name="&lt;Tracciato&gt;" class="cls-34" points="75.52 122.15 81.88 125.83 81.5 126 75.11 122.37 75.52 122.15"/></g><g id="_Gruppo_25" data-name="&lt;Gruppo&gt;"><polygon id="_Tracciato_60" data-name="&lt;Tracciato&gt;" class="cls-35" points="81.87 142.85 81.51 143.07 81.5 126 81.88 125.83 81.87 142.85"/></g></g><polygon id="_Tracciato_61" data-name="&lt;Tracciato&gt;" class="cls-36" points="153.78 111.41 160.43 115.25 160.43 111.84 153.78 108.01 153.78 111.41"/><g id="_Gruppo_26" data-name="&lt;Gruppo&gt;"><path id="_Tracciato_62" data-name="&lt;Tracciato&gt;" class="cls-27" d="M165.51,103.17l-7.86,4.53v16l4.36-2.51c2-1.15,2.48,1.33,2.61,1.89s.76.16.76.16l3-1.75V112C168.42,109.56,167.07,102.26,165.51,103.17Z" transform="translate(-4.35 -8.11)"/></g><g id="_Gruppo_27" data-name="&lt;Gruppo&gt;"><path id="_Tracciato_63" data-name="&lt;Tracciato&gt;" class="cls-37" d="M165.54,105l-5.17,2.91v11.72s1-.52,2.21-1.2c1.68-1,2.1,1.13,2.21,1.61s.65.13.65.13l2.57-1.48v-6.18C168,110.36,166.86,104.18,165.54,105Z" transform="translate(-4.35 -8.11)"/></g><g id="_Gruppo_28" data-name="&lt;Gruppo&gt;"><polygon id="_Tracciato_64" data-name="&lt;Tracciato&gt;" class="cls-38" points="157.38 107.75 158.03 107.38 158.03 106.28 157.38 106.47 157.38 107.75"/></g><g id="_Gruppo_29" data-name="&lt;Gruppo&gt;"><path id="_Tracciato_65" data-name="&lt;Tracciato&gt;" class="cls-38" d="M166.83,109.4l-.52-3.06c0-.29-.2-.41-.45-.26l-4.26,2.46a1,1,0,0,0-.45.78v.18l.14-.11,4.26-2.46c.25-.15.45,0,.45.26l.5,2.9.06,0A1,1,0,0,0,166.83,109.4Z" transform="translate(-4.35 -8.11)"/><path id="_Tracciato_66" data-name="&lt;Tracciato&gt;" class="cls-13" d="M166.83,109.4l-.52-3.06c0-.29-.2-.41-.45-.26l-4.26,2.46a1,1,0,0,0-.45.78v.18l.14-.11,4.26-2.46c.25-.15.45,0,.45.26l.5,2.9.06,0A1,1,0,0,0,166.83,109.4Z" transform="translate(-4.35 -8.11)"/><path id="_Tracciato_67" data-name="&lt;Tracciato&gt;" class="cls-38" d="M165.55,106.93l-4.26,2.46-.14.11v2.14c0,.25.16.36.36.29l.09,0,2.37-1.36a.29.29,0,0,1,.34,0l.52.38a.3.3,0,0,0,.34,0l1.21-.7.12-.09-.5-2.9C166,106.9,165.8,106.78,165.55,106.93Z" transform="translate(-4.35 -8.11)"/></g><polygon id="_Tracciato_68" data-name="&lt;Tracciato&gt;" class="cls-39" points="136.87 94.06 149.62 101.42 94.63 133.19 81.88 125.83 136.87 94.06"/><path id="_Tracciato_69" data-name="&lt;Tracciato&gt;" class="cls-13" d="M161.61,103.73l-5.44,3.14h2.42l2.64-1.53C162.54,104.58,161.61,103.73,161.61,103.73Z" transform="translate(-4.35 -8.11)"/><path class="cls-40" d="M94.4,142a.16.16,0,0,1,0,.09c0,.12-.15.22-.35.22s-.35-.1-.35-.21a.13.13,0,0,1,0-.1.4.4,0,0,1,.31-.12A.41.41,0,0,1,94.4,142Z" transform="translate(-4.35 -8.11)"/><path class="cls-41" d="M95.27,140.62H95.1l-.22,0h-.1s0,0,0,0a3.77,3.77,0,0,0-.62.13.72.72,0,0,0-.4.16,1.68,1.68,0,0,0-.52.39.76.76,0,0,0-.2.5c0,.44.44.83,1.09,1l.46.11.3,0,.23,0h.16a3.37,3.37,0,0,0,1.62-.37,1.88,1.88,0,0,0,.37-.28.82.82,0,0,0,.25-.56C97.51,141.16,96.51,140.62,95.27,140.62Zm-1.19,1.91c-.26,0-.46-.12-.46-.28a.88.88,0,0,1,0-.23h0c0-.14.22-.25.46-.25s.45.12.47.26h0a1.77,1.77,0,0,1,0,.23C94.55,142.4,94.34,142.53,94.08,142.53Z" transform="translate(-4.35 -8.11)"/><path class="cls-42" d="M94.55,142.25c0,.15-.21.28-.47.28s-.46-.12-.46-.28a.88.88,0,0,1,0-.23h0c0-.14.22-.25.46-.25s.45.12.47.26h0A1.77,1.77,0,0,1,94.55,142.25Zm-.12-.21a.16.16,0,0,0,0-.09.41.41,0,0,0-.32-.12.4.4,0,0,0-.31.12.13.13,0,0,0,0,.1c0,.11.16.21.35.21S94.43,142.16,94.43,142Z" transform="translate(-4.35 -8.11)"/><path class="cls-43" d="M97,140.87a3.61,3.61,0,0,0-1.91-.41h-.22l-.33.05a2.92,2.92,0,0,0-1,.36,1.27,1.27,0,0,0-.27.18,1.56,1.56,0,0,0-.28.3,1,1,0,0,0-.17.49v.07a1.23,1.23,0,0,0,.72,1l.25.13a3.11,3.11,0,0,0,.46.16,4.35,4.35,0,0,0,.52.1l.16,0h.21a3.7,3.7,0,0,0,1.9-.42,1.64,1.64,0,0,0,.29-.2,1.33,1.33,0,0,0,.28-.31.84.84,0,0,0,.15-.47v-.06A1.23,1.23,0,0,0,97,140.87Zm-2.13,2.27v0Zm.39-.1h-.16l-.23,0-.3,0-.46-.11c-.65-.21-1.09-.6-1.09-1a.76.76,0,0,1,.2-.5,1.68,1.68,0,0,1,.52-.39,3.7,3.7,0,0,1,.4-.16,3.77,3.77,0,0,1,.62-.13h.11l.22,0h.17c1.24,0,2.24.54,2.24,1.21a.82.82,0,0,1-.25.56,1.88,1.88,0,0,1-.37.28A3.37,3.37,0,0,1,95.27,143Z" transform="translate(-4.35 -8.11)"/><path class="cls-44" d="M92.79,143.37v0Z" transform="translate(-4.35 -8.11)"/><path class="cls-44" d="M92.79,145.88v0Z" transform="translate(-4.35 -8.11)"/><path class="cls-45" d="M97.24,144.9l-.14.09-.15.08v2.13h0a1.54,1.54,0,0,0,.78-1.33h0V144.4A1.83,1.83,0,0,1,97.24,144.9Z" transform="translate(-4.35 -8.11)"/><path class="cls-45" d="M97.49,147.21a2,2,0,0,1-.39.29l-.15.08v2l.07,0a1.23,1.23,0,0,0,.72-1v-1.65A1.18,1.18,0,0,1,97.49,147.21Z" transform="translate(-4.35 -8.11)"/><path class="cls-41" d="M97,142.92a3.74,3.74,0,0,1-1.84.39H94.9l-.16,0a4.35,4.35,0,0,1-.52-.1,3.11,3.11,0,0,1-.46-.16l-.25-.13a1.23,1.23,0,0,1-.72-1v3.31s0,1,0,1.58h0v1.75a1.23,1.23,0,0,0,.72,1,3.9,3.9,0,0,0,3.43,0v-2h0c0-.5,0-1,0-1Z" transform="translate(-4.35 -8.11)"/><path class="cls-45" d="M97.72,143.36h0v-1.46a.84.84,0,0,1-.15.47,1.33,1.33,0,0,1-.28.31,1.64,1.64,0,0,1-.29.2l-.06,0v1.77A1.49,1.49,0,0,0,97.72,143.36Z" transform="translate(-4.35 -8.11)"/><path class="cls-46" d="M97.91,146.3c0-.3-.13-.4-.17-.42h0A1.54,1.54,0,0,1,97,147.2h0v.38l.15-.08a2,2,0,0,0,.39-.29,1.18,1.18,0,0,0,.25-.3,1.11,1.11,0,0,0,.17-.53Z" transform="translate(-4.35 -8.11)"/><path class="cls-46" d="M97,144.69v.38l.15-.08.14-.09a1.83,1.83,0,0,0,.5-.5,1.05,1.05,0,0,0,.16-.53v-.08c0-.3-.13-.4-.16-.42h0A1.49,1.49,0,0,1,97,144.69Z" transform="translate(-4.35 -8.11)"/><path class="cls-43" d="M93.43,145a3,3,0,0,0,.82.32,3.55,3.55,0,0,0,.47.09h.16l.23,0h.16a4,4,0,0,0,1.47-.27l.21-.09a.26.26,0,0,0,.09-.19.23.23,0,0,0-.09-.19h0l-.26.14a3.13,3.13,0,0,1-.54.19,3.8,3.8,0,0,1-1,.1h-.23l-.3,0a2.74,2.74,0,0,1-1-.37,1.68,1.68,0,0,1-.79-1.21.74.74,0,0,1,0-.12v-.11s-.1,0-.13.23a.08.08,0,0,0,0,0,1.71,1.71,0,0,0,0,.35,2.49,2.49,0,0,0,.14.41A1.51,1.51,0,0,0,93.43,145Z" transform="translate(-4.35 -8.11)"/><path class="cls-43" d="M93.43,147.51a3.32,3.32,0,0,0,.82.31,3.55,3.55,0,0,0,.47.09l.16,0h.39a4,4,0,0,0,1.47-.27,1.89,1.89,0,0,0,.21-.09.26.26,0,0,0,.09-.19.23.23,0,0,0-.09-.19h0a1.3,1.3,0,0,1-.26.14,3.13,3.13,0,0,1-.54.19,3.8,3.8,0,0,1-1,.1h-.23l-.3,0a2.93,2.93,0,0,1-1-.36,1.71,1.71,0,0,1-.79-1.22.6.6,0,0,1,0-.12v-.1s-.1,0-.13.23c0,0,0,0,0,0a1.63,1.63,0,0,0,0,.34,2.58,2.58,0,0,0,.14.42A1.51,1.51,0,0,0,93.43,147.51Z" transform="translate(-4.35 -8.11)"/><path class="cls-40" d="M98.21,144a.16.16,0,0,1,0,.09c0,.12-.15.21-.35.21s-.35-.09-.35-.21a.14.14,0,0,1,0-.1.46.46,0,0,1,.31-.11A.41.41,0,0,1,98.21,144Z" transform="translate(-4.35 -8.11)"/><path class="cls-41" d="M99.08,142.62h-.39l-.1,0s0,0,0,0a3,3,0,0,0-.62.13.72.72,0,0,0-.4.16,1.54,1.54,0,0,0-.52.39.76.76,0,0,0-.2.5c0,.44.44.82,1.09,1a3.09,3.09,0,0,0,.46.12l.3,0h.39a3.37,3.37,0,0,0,1.62-.38,1.34,1.34,0,0,0,.37-.28.78.78,0,0,0,.25-.56C101.32,143.16,100.32,142.61,99.08,142.62Zm-1.19,1.91c-.25,0-.46-.13-.46-.28a1,1,0,0,1,0-.24h0c0-.14.22-.25.46-.25s.45.11.47.26h0a1.77,1.77,0,0,1,0,.23C98.36,144.4,98.15,144.53,97.89,144.53Z" transform="translate(-4.35 -8.11)"/><path class="cls-42" d="M98.36,144.25c0,.15-.21.28-.47.28s-.46-.13-.46-.28a1,1,0,0,1,0-.24h0c0-.14.22-.25.46-.25s.45.11.47.26h0A1.77,1.77,0,0,1,98.36,144.25Zm-.12-.21a.16.16,0,0,0,0-.09.41.41,0,0,0-.32-.12.46.46,0,0,0-.31.11.14.14,0,0,0,0,.1c0,.12.16.21.35.21S98.25,144.16,98.24,144Z" transform="translate(-4.35 -8.11)"/><path class="cls-43" d="M100.82,142.87a3.61,3.61,0,0,0-1.91-.41h-.22l-.33,0a3.37,3.37,0,0,0-1,.36,1.85,1.85,0,0,0-.27.19,1.32,1.32,0,0,0-.28.3.93.93,0,0,0-.17.49v.07a1.25,1.25,0,0,0,.72,1,1.15,1.15,0,0,0,.25.12,2.27,2.27,0,0,0,.46.16,4.36,4.36,0,0,0,.52.11h.37a3.6,3.6,0,0,0,1.9-.41,1.67,1.67,0,0,0,.29-.21,1.13,1.13,0,0,0,.28-.3,1,1,0,0,0,.16-.47v-.07A1.26,1.26,0,0,0,100.82,142.87Zm-2.13,2.27v0Zm.39-.1h-.39l-.3,0a3.09,3.09,0,0,1-.46-.12c-.65-.21-1.09-.59-1.09-1a.76.76,0,0,1,.2-.5,1.54,1.54,0,0,1,.52-.39,2.38,2.38,0,0,1,.4-.16,3,3,0,0,1,.62-.13h0l.1,0h.39c1.24,0,2.24.54,2.24,1.2a.78.78,0,0,1-.25.56,1.34,1.34,0,0,1-.37.28A3.37,3.37,0,0,1,99.08,145Z" transform="translate(-4.35 -8.11)"/><path class="cls-44" d="M96.6,145.36v0Z" transform="translate(-4.35 -8.11)"/><path class="cls-44" d="M96.6,147.87v0Z" transform="translate(-4.35 -8.11)"/><path class="cls-45" d="M101.05,146.9l-.14.08-.15.08v2.14h0a1.52,1.52,0,0,0,.78-1.32h0V146.4A1.7,1.7,0,0,1,101.05,146.9Z" transform="translate(-4.35 -8.11)"/><path class="cls-45" d="M101.3,149.21a2.47,2.47,0,0,1-.39.29l-.15.08v2l.07,0a1.23,1.23,0,0,0,.72-1v-1.64A1.37,1.37,0,0,1,101.3,149.21Z" transform="translate(-4.35 -8.11)"/><path class="cls-41" d="M100.76,144.92a3.63,3.63,0,0,1-1.84.38h-.37a4.36,4.36,0,0,1-.52-.11,2.27,2.27,0,0,1-.46-.16,1.15,1.15,0,0,1-.25-.12,1.25,1.25,0,0,1-.72-1v3.31s0,1,0,1.58h0v1.76a1.21,1.21,0,0,0,.72,1,3.87,3.87,0,0,0,3.43,0v-2h0c0-.5,0-1,0-1Z" transform="translate(-4.35 -8.11)"/><path class="cls-45" d="M101.54,145.36h0v-1.45a1,1,0,0,1-.16.47,1.13,1.13,0,0,1-.28.3,1.67,1.67,0,0,1-.29.21l-.06,0v1.76A1.52,1.52,0,0,0,101.54,145.36Z" transform="translate(-4.35 -8.11)"/><path class="cls-46" d="M101.72,148.3c0-.3-.13-.4-.17-.42h0a1.52,1.52,0,0,1-.78,1.32h0v.38l.15-.08a2.47,2.47,0,0,0,.39-.29,1.37,1.37,0,0,0,.25-.3,1.18,1.18,0,0,0,.17-.53Z" transform="translate(-4.35 -8.11)"/><path class="cls-46" d="M100.76,146.68v.38l.15-.08.14-.08a1.7,1.7,0,0,0,.5-.5,1.05,1.05,0,0,0,.16-.53v-.08a.51.51,0,0,0-.16-.43h0A1.52,1.52,0,0,1,100.76,146.68Z" transform="translate(-4.35 -8.11)"/><path class="cls-43" d="M97.24,147a3.34,3.34,0,0,0,.82.32l.47.08.16,0h.39a4.17,4.17,0,0,0,1.47-.26l.21-.1a.26.26,0,0,0,.09-.19.23.23,0,0,0-.09-.19l0,0-.26.14a2.45,2.45,0,0,1-.54.18,3.44,3.44,0,0,1-1,.1h-.23l-.3-.05a2.73,2.73,0,0,1-1-.36,1.68,1.68,0,0,1-.79-1.21.69.69,0,0,1,0-.13v-.1s-.1,0-.13.23a.06.06,0,0,0,0,0,1.63,1.63,0,0,0,0,.34,3.45,3.45,0,0,0,.14.42A1.57,1.57,0,0,0,97.24,147Z" transform="translate(-4.35 -8.11)"/><path class="cls-43" d="M97.24,149.5a3,3,0,0,0,.82.32,3.55,3.55,0,0,0,.47.08l.16,0h.39a4,4,0,0,0,1.47-.27l.21-.09a.28.28,0,0,0,.09-.19.21.21,0,0,0-.09-.19h0l-.26.14a3.13,3.13,0,0,1-.54.19,3.44,3.44,0,0,1-1,.09h-.23l-.3,0a2.74,2.74,0,0,1-1-.37,1.68,1.68,0,0,1-.79-1.21.74.74,0,0,1,0-.12v-.11s-.1,0-.13.23a.06.06,0,0,0,0,0,1.74,1.74,0,0,0,0,.35,4,4,0,0,0,.14.41A1.57,1.57,0,0,0,97.24,149.5Z" transform="translate(-4.35 -8.11)"/><path class="cls-40" d="M102.2,146a.17.17,0,0,1,0,.1c0,.11-.16.21-.35.21s-.36-.1-.36-.21a.18.18,0,0,1,0-.1.49.49,0,0,1,.64,0Z" transform="translate(-4.35 -8.11)"/><path class="cls-41" d="M103.06,144.66h-.16l-.23,0h-.11a3.65,3.65,0,0,0-.61.13.88.88,0,0,0-.41.16,2,2,0,0,0-.52.39.86.86,0,0,0-.2.5c0,.44.44.83,1.09,1a3.43,3.43,0,0,0,.46.11l.3,0,.23,0h.17a3.33,3.33,0,0,0,1.61-.37,1.56,1.56,0,0,0,.37-.28.79.79,0,0,0,.26-.56C105.31,145.2,104.3,144.66,103.06,144.66Zm-1.18,1.91c-.26,0-.47-.12-.47-.28a1.76,1.76,0,0,1,0-.23h0c0-.14.23-.25.47-.25s.44.12.46.26h0a.81.81,0,0,1,0,.22C102.34,146.45,102.13,146.57,101.88,146.57Z" transform="translate(-4.35 -8.11)"/><path class="cls-42" d="M102.34,146.29c0,.16-.21.28-.46.28s-.47-.12-.47-.28a1.76,1.76,0,0,1,0-.23h0c0-.14.23-.25.47-.25s.44.12.46.26h0A.81.81,0,0,1,102.34,146.29Zm-.11-.2a.17.17,0,0,0,0-.1.49.49,0,0,0-.64,0,.18.18,0,0,0,0,.1c0,.11.16.21.36.21S102.23,146.2,102.23,146.09Z" transform="translate(-4.35 -8.11)"/><path class="cls-43" d="M104.8,144.91a3.6,3.6,0,0,0-1.9-.41h-.23l-.32.05a2.92,2.92,0,0,0-1,.36,1.81,1.81,0,0,0-.27.18,1.36,1.36,0,0,0-.29.3,1.07,1.07,0,0,0-.17.49V146a1.28,1.28,0,0,0,.73,1l.24.12a3.57,3.57,0,0,0,.46.16,3.1,3.1,0,0,0,.53.1l.15,0h.21a3.76,3.76,0,0,0,1.91-.42l.29-.2a1.54,1.54,0,0,0,.27-.31,1,1,0,0,0,.16-.47v-.06A1.26,1.26,0,0,0,104.8,144.91Zm-2.13,2.27v0Zm.4-.1h-.17l-.23,0-.3,0a3.43,3.43,0,0,1-.46-.11c-.65-.21-1.08-.6-1.09-1a.86.86,0,0,1,.2-.5,2,2,0,0,1,.52-.39l.41-.16a3.65,3.65,0,0,1,.61-.13h.11l.23,0h.16c1.24,0,2.25.54,2.25,1.21a.79.79,0,0,1-.26.56,1.56,1.56,0,0,1-.37.28A3.33,3.33,0,0,1,103.07,147.08Z" transform="translate(-4.35 -8.11)"/><path class="cls-44" d="M100.59,147.41v-.11S100.58,147.35,100.59,147.41Z" transform="translate(-4.35 -8.11)"/><path class="cls-44" d="M100.59,149.92v-.1A.27.27,0,0,0,100.59,149.92Z" transform="translate(-4.35 -8.11)"/><path class="cls-45" d="M105,148.94l-.14.09-.15.08v2.13h0a1.49,1.49,0,0,0,.77-1.33h0v-1.48A1.7,1.7,0,0,1,105,148.94Z" transform="translate(-4.35 -8.11)"/><path class="cls-45" d="M105.29,151.25a2.06,2.06,0,0,1-.4.29l-.15.08v2l.07,0a1.25,1.25,0,0,0,.73-1V151A1.13,1.13,0,0,1,105.29,151.25Z" transform="translate(-4.35 -8.11)"/><path class="cls-41" d="M104.74,147a3.69,3.69,0,0,1-1.84.39h-.21l-.15,0a3.1,3.1,0,0,1-.53-.1,3.57,3.57,0,0,1-.46-.16l-.24-.12a1.28,1.28,0,0,1-.73-1v4.89h0v1.75a1.26,1.26,0,0,0,.73,1,3.88,3.88,0,0,0,3.42,0v-2h0c0-.5,0-1,0-1Z" transform="translate(-4.35 -8.11)"/><path class="cls-45" d="M105.52,147.4h0V146a1,1,0,0,1-.16.47,1.54,1.54,0,0,1-.27.31l-.29.2-.07,0v1.77A1.53,1.53,0,0,0,105.52,147.4Z" transform="translate(-4.35 -8.11)"/><path class="cls-46" d="M105.7,150.35c0-.31-.13-.41-.17-.43h0a1.49,1.49,0,0,1-.77,1.33h0v.38l.15-.08a2.06,2.06,0,0,0,.4-.29,1.13,1.13,0,0,0,.24-.3,1,1,0,0,0,.17-.53Z" transform="translate(-4.35 -8.11)"/><path class="cls-46" d="M104.74,148.73v.38l.15-.08.14-.09a1.7,1.7,0,0,0,.5-.5,1.18,1.18,0,0,0,.17-.53v-.08c0-.3-.13-.4-.17-.42h0A1.53,1.53,0,0,1,104.74,148.73Z" transform="translate(-4.35 -8.11)"/><path class="cls-43" d="M101.23,149a2.92,2.92,0,0,0,.81.32,3.41,3.41,0,0,0,.48.09h.16l.22,0h.16a3.92,3.92,0,0,0,1.47-.27l.21-.09a.26.26,0,0,0,.09-.19.23.23,0,0,0-.09-.19h0a1.59,1.59,0,0,1-.26.14,2.76,2.76,0,0,1-.53.19,3.92,3.92,0,0,1-1,.1h-.22l-.31,0a2.81,2.81,0,0,1-1-.37,1.71,1.71,0,0,1-.79-1.21.57.57,0,0,1,0-.12c0-.06,0-.1,0-.11s-.11,0-.14.23v0a1.71,1.71,0,0,0,0,.35,1.81,1.81,0,0,0,.14.41A1.46,1.46,0,0,0,101.23,149Z" transform="translate(-4.35 -8.11)"/><path class="cls-43" d="M101.23,151.55a2.9,2.9,0,0,0,.81.31,3.41,3.41,0,0,0,.48.09l.16,0h.38a3.92,3.92,0,0,0,1.47-.27,1.33,1.33,0,0,0,.21-.09.26.26,0,0,0,.09-.19.23.23,0,0,0-.09-.19h0a1.08,1.08,0,0,1-.26.14,2.22,2.22,0,0,1-.53.19,3.92,3.92,0,0,1-1,.1h-.22l-.31,0a3,3,0,0,1-1-.36,1.74,1.74,0,0,1-.79-1.22.53.53,0,0,1,0-.12c0-.06,0-.1,0-.1s-.11,0-.14.23v0a1.63,1.63,0,0,0,0,.34,1.88,1.88,0,0,0,.14.42A1.46,1.46,0,0,0,101.23,151.55Z" transform="translate(-4.35 -8.11)"/><path class="cls-40" d="M89.4,144a.16.16,0,0,1,0,.09c0,.12-.15.22-.35.22s-.35-.1-.35-.21a.13.13,0,0,1,0-.1.4.4,0,0,1,.31-.12A.41.41,0,0,1,89.4,144Z" transform="translate(-4.35 -8.11)"/><path class="cls-41" d="M90.27,142.62H90.1l-.22,0h-.1s0,0,0,0a3.77,3.77,0,0,0-.62.13.72.72,0,0,0-.4.16,1.68,1.68,0,0,0-.52.39.76.76,0,0,0-.2.5c0,.44.44.83,1.09,1l.46.11.3,0,.23,0h.16a3.37,3.37,0,0,0,1.62-.37,1.88,1.88,0,0,0,.37-.28.82.82,0,0,0,.25-.56C92.51,143.16,91.51,142.62,90.27,142.62Zm-1.19,1.91c-.26,0-.46-.12-.46-.28a.88.88,0,0,1,0-.23h0c0-.14.22-.25.46-.25s.45.12.47.26h0a1.77,1.77,0,0,1,0,.23C89.55,144.4,89.34,144.53,89.08,144.53Z" transform="translate(-4.35 -8.11)"/><path class="cls-42" d="M89.55,144.25c0,.15-.21.28-.47.28s-.46-.12-.46-.28a.88.88,0,0,1,0-.23h0c0-.14.22-.25.46-.25s.45.12.47.26h0A1.77,1.77,0,0,1,89.55,144.25Zm-.12-.21a.16.16,0,0,0,0-.09.41.41,0,0,0-.32-.12.4.4,0,0,0-.31.12.13.13,0,0,0,0,.1c0,.11.16.21.35.21S89.43,144.16,89.43,144Z" transform="translate(-4.35 -8.11)"/><path class="cls-43" d="M92,142.87a3.61,3.61,0,0,0-1.91-.41h-.22l-.33.05a2.92,2.92,0,0,0-1,.36,1.27,1.27,0,0,0-.27.18,1.56,1.56,0,0,0-.28.3,1,1,0,0,0-.17.49v.07a1.23,1.23,0,0,0,.72,1l.25.13a3.11,3.11,0,0,0,.46.16,4.35,4.35,0,0,0,.52.1l.16,0h.21a3.7,3.7,0,0,0,1.9-.42,1.64,1.64,0,0,0,.29-.2,1.33,1.33,0,0,0,.28-.31.84.84,0,0,0,.15-.47v-.06A1.23,1.23,0,0,0,92,142.87Zm-2.13,2.27v0Zm.39-.1h-.16l-.23,0-.3,0-.46-.11c-.65-.21-1.09-.6-1.09-1a.76.76,0,0,1,.2-.5,1.68,1.68,0,0,1,.52-.39,3.7,3.7,0,0,1,.4-.16,3.77,3.77,0,0,1,.62-.13h.11l.22,0h.17c1.24,0,2.24.54,2.24,1.21a.82.82,0,0,1-.25.56,1.88,1.88,0,0,1-.37.28A3.37,3.37,0,0,1,90.27,145Z" transform="translate(-4.35 -8.11)"/><path class="cls-44" d="M87.79,145.37v0Z" transform="translate(-4.35 -8.11)"/><path class="cls-44" d="M87.79,147.88v0Z" transform="translate(-4.35 -8.11)"/><path class="cls-45" d="M92.24,146.9l-.14.09-.15.08v2.13h0a1.54,1.54,0,0,0,.78-1.33h0V146.4A1.83,1.83,0,0,1,92.24,146.9Z" transform="translate(-4.35 -8.11)"/><path class="cls-45" d="M92.49,149.21a2,2,0,0,1-.39.29l-.15.08v2l.07,0a1.23,1.23,0,0,0,.72-1v-1.65A1.18,1.18,0,0,1,92.49,149.21Z" transform="translate(-4.35 -8.11)"/><path class="cls-41" d="M92,144.92a3.74,3.74,0,0,1-1.84.39H89.9l-.16,0a4.35,4.35,0,0,1-.52-.1,3.11,3.11,0,0,1-.46-.16l-.25-.13a1.23,1.23,0,0,1-.72-1v3.31s0,1,0,1.58h0v1.75a1.23,1.23,0,0,0,.72,1,3.9,3.9,0,0,0,3.43,0v-2h0c0-.5,0-1,0-1Z" transform="translate(-4.35 -8.11)"/><path class="cls-45" d="M92.72,145.36h0v-1.46a.84.84,0,0,1-.15.47,1.33,1.33,0,0,1-.28.31,1.64,1.64,0,0,1-.29.2l-.06,0v1.77A1.49,1.49,0,0,0,92.72,145.36Z" transform="translate(-4.35 -8.11)"/><path class="cls-46" d="M92.91,148.3c0-.3-.13-.4-.17-.42h0A1.54,1.54,0,0,1,92,149.2h0v.38l.15-.08a2,2,0,0,0,.39-.29,1.18,1.18,0,0,0,.25-.3,1.11,1.11,0,0,0,.17-.53Z" transform="translate(-4.35 -8.11)"/><path class="cls-46" d="M92,146.69v.38l.15-.08.14-.09a1.83,1.83,0,0,0,.5-.5,1.05,1.05,0,0,0,.16-.53v-.08c0-.3-.13-.4-.16-.42h0A1.49,1.49,0,0,1,92,146.69Z" transform="translate(-4.35 -8.11)"/><path class="cls-43" d="M88.43,147a3,3,0,0,0,.82.32,3.55,3.55,0,0,0,.47.09h.16l.23,0h.16a4,4,0,0,0,1.47-.27l.21-.09a.26.26,0,0,0,.09-.19.23.23,0,0,0-.09-.19h0l-.26.14a3.13,3.13,0,0,1-.54.19,3.8,3.8,0,0,1-1,.1h-.23l-.3,0a2.74,2.74,0,0,1-1-.37,1.68,1.68,0,0,1-.79-1.21.74.74,0,0,1,0-.12v-.11s-.1,0-.13.23a.08.08,0,0,0,0,0,1.71,1.71,0,0,0,0,.35,2.49,2.49,0,0,0,.14.41A1.51,1.51,0,0,0,88.43,147Z" transform="translate(-4.35 -8.11)"/><path class="cls-43" d="M88.43,149.51a3.32,3.32,0,0,0,.82.31,3.55,3.55,0,0,0,.47.09l.16,0h.39a4,4,0,0,0,1.47-.27,1.89,1.89,0,0,0,.21-.09.26.26,0,0,0,.09-.19.23.23,0,0,0-.09-.19h0a1.3,1.3,0,0,1-.26.14,3.13,3.13,0,0,1-.54.19,3.8,3.8,0,0,1-1,.1h-.23l-.3,0a2.93,2.93,0,0,1-1-.36,1.71,1.71,0,0,1-.79-1.22.6.6,0,0,1,0-.12v-.1s-.1,0-.13.23c0,0,0,0,0,0a1.63,1.63,0,0,0,0,.34,2.58,2.58,0,0,0,.14.42A1.51,1.51,0,0,0,88.43,149.51Z" transform="translate(-4.35 -8.11)"/><path class="cls-40" d="M93.21,146a.16.16,0,0,1,0,.09c0,.12-.15.21-.35.21s-.35-.09-.35-.21a.14.14,0,0,1,0-.1.46.46,0,0,1,.31-.11A.41.41,0,0,1,93.21,146Z" transform="translate(-4.35 -8.11)"/><path class="cls-41" d="M94.08,144.62h-.39l-.1,0s0,0,0,0a3,3,0,0,0-.62.13.72.72,0,0,0-.4.16,1.54,1.54,0,0,0-.52.39.76.76,0,0,0-.2.5c0,.44.44.82,1.09,1a3.09,3.09,0,0,0,.46.12l.3,0h.39a3.37,3.37,0,0,0,1.62-.38,1.34,1.34,0,0,0,.37-.28.78.78,0,0,0,.25-.56C96.32,145.16,95.32,144.61,94.08,144.62Zm-1.19,1.91c-.25,0-.46-.13-.46-.28a1,1,0,0,1,0-.24h0c0-.14.22-.25.46-.25s.45.11.47.26h0a1.77,1.77,0,0,1,0,.23C93.36,146.4,93.15,146.53,92.89,146.53Z" transform="translate(-4.35 -8.11)"/><path class="cls-42" d="M93.36,146.25c0,.15-.21.28-.47.28s-.46-.13-.46-.28a1,1,0,0,1,0-.24h0c0-.14.22-.25.46-.25s.45.11.47.26h0A1.77,1.77,0,0,1,93.36,146.25Zm-.12-.21a.16.16,0,0,0,0-.09.41.41,0,0,0-.32-.12.46.46,0,0,0-.31.11.14.14,0,0,0,0,.1c0,.12.16.21.35.21S93.25,146.16,93.24,146Z" transform="translate(-4.35 -8.11)"/><path class="cls-43" d="M95.82,144.87a3.61,3.61,0,0,0-1.91-.41h-.22l-.33,0a3.37,3.37,0,0,0-1,.36,1.85,1.85,0,0,0-.27.19,1.32,1.32,0,0,0-.28.3.93.93,0,0,0-.17.49v.07a1.25,1.25,0,0,0,.72,1,1.15,1.15,0,0,0,.25.12,2.27,2.27,0,0,0,.46.16,4.36,4.36,0,0,0,.52.11h.37a3.6,3.6,0,0,0,1.9-.41,1.67,1.67,0,0,0,.29-.21,1.13,1.13,0,0,0,.28-.3,1,1,0,0,0,.16-.47v-.07A1.26,1.26,0,0,0,95.82,144.87Zm-2.13,2.27v0Zm.39-.1h-.39l-.3,0a3.09,3.09,0,0,1-.46-.12c-.65-.21-1.09-.59-1.09-1a.76.76,0,0,1,.2-.5,1.54,1.54,0,0,1,.52-.39,2.38,2.38,0,0,1,.4-.16,3,3,0,0,1,.62-.13h0l.1,0h.39c1.24,0,2.24.54,2.24,1.2a.78.78,0,0,1-.25.56,1.34,1.34,0,0,1-.37.28A3.37,3.37,0,0,1,94.08,147Z" transform="translate(-4.35 -8.11)"/><path class="cls-44" d="M91.6,147.36v0Z" transform="translate(-4.35 -8.11)"/><path class="cls-44" d="M91.6,149.87v0Z" transform="translate(-4.35 -8.11)"/><path class="cls-45" d="M96.05,148.9l-.14.08-.15.08v2.14h0a1.52,1.52,0,0,0,.78-1.32h0V148.4A1.7,1.7,0,0,1,96.05,148.9Z" transform="translate(-4.35 -8.11)"/><path class="cls-45" d="M96.3,151.21a2.47,2.47,0,0,1-.39.29l-.15.08v2l.07,0a1.23,1.23,0,0,0,.72-1v-1.64A1.37,1.37,0,0,1,96.3,151.21Z" transform="translate(-4.35 -8.11)"/><path class="cls-41" d="M95.76,146.92a3.63,3.63,0,0,1-1.84.38h-.37a4.36,4.36,0,0,1-.52-.11,2.27,2.27,0,0,1-.46-.16,1.15,1.15,0,0,1-.25-.12,1.25,1.25,0,0,1-.72-1v3.31s0,1,0,1.58h0v1.76a1.21,1.21,0,0,0,.72,1,3.87,3.87,0,0,0,3.43,0v-2h0c0-.5,0-1,0-1Z" transform="translate(-4.35 -8.11)"/><path class="cls-45" d="M96.54,147.36h0v-1.45a1,1,0,0,1-.16.47,1.13,1.13,0,0,1-.28.3,1.67,1.67,0,0,1-.29.21l-.06,0v1.76A1.52,1.52,0,0,0,96.54,147.36Z" transform="translate(-4.35 -8.11)"/><path class="cls-46" d="M96.72,150.3c0-.3-.13-.4-.17-.42h0a1.52,1.52,0,0,1-.78,1.32h0v.38l.15-.08a2.47,2.47,0,0,0,.39-.29,1.37,1.37,0,0,0,.25-.3,1.18,1.18,0,0,0,.17-.53Z" transform="translate(-4.35 -8.11)"/><path class="cls-46" d="M95.76,148.68v.38l.15-.08.14-.08a1.7,1.7,0,0,0,.5-.5,1.05,1.05,0,0,0,.16-.53v-.08a.51.51,0,0,0-.16-.43h0A1.52,1.52,0,0,1,95.76,148.68Z" transform="translate(-4.35 -8.11)"/><path class="cls-43" d="M92.24,149a3.34,3.34,0,0,0,.82.32l.47.08.16,0h.39a4.17,4.17,0,0,0,1.47-.26l.21-.1a.26.26,0,0,0,.09-.19.23.23,0,0,0-.09-.19l0,0-.26.14a2.45,2.45,0,0,1-.54.18,3.44,3.44,0,0,1-1,.1h-.23l-.3-.05a2.73,2.73,0,0,1-1-.36,1.68,1.68,0,0,1-.79-1.21.69.69,0,0,1,0-.13v-.1s-.1,0-.13.23a.06.06,0,0,0,0,0,1.63,1.63,0,0,0,0,.34,3.45,3.45,0,0,0,.14.42A1.57,1.57,0,0,0,92.24,149Z" transform="translate(-4.35 -8.11)"/><path class="cls-43" d="M92.24,151.5a3,3,0,0,0,.82.32,3.55,3.55,0,0,0,.47.08l.16,0h.39a4,4,0,0,0,1.47-.27l.21-.09a.28.28,0,0,0,.09-.19.21.21,0,0,0-.09-.19h0l-.26.14a3.13,3.13,0,0,1-.54.19,3.44,3.44,0,0,1-1,.09h-.23l-.3,0a2.74,2.74,0,0,1-1-.37,1.68,1.68,0,0,1-.79-1.21.74.74,0,0,1,0-.12v-.11s-.1,0-.13.23a.06.06,0,0,0,0,0,1.74,1.74,0,0,0,0,.35,4,4,0,0,0,.14.41A1.57,1.57,0,0,0,92.24,151.5Z" transform="translate(-4.35 -8.11)"/><path class="cls-40" d="M97.2,148a.17.17,0,0,1,0,.1c0,.11-.16.21-.35.21s-.36-.1-.36-.21a.18.18,0,0,1,0-.1.49.49,0,0,1,.64,0Z" transform="translate(-4.35 -8.11)"/><path class="cls-41" d="M98.06,146.66H97.9l-.23,0h-.11a3.65,3.65,0,0,0-.61.13.88.88,0,0,0-.41.16,2,2,0,0,0-.52.39.86.86,0,0,0-.2.5c0,.44.44.83,1.09,1a3.43,3.43,0,0,0,.46.11l.3,0,.23,0h.17a3.33,3.33,0,0,0,1.61-.37,1.56,1.56,0,0,0,.37-.28.79.79,0,0,0,.26-.56C100.31,147.2,99.3,146.66,98.06,146.66Zm-1.18,1.91c-.26,0-.47-.12-.47-.28a1.76,1.76,0,0,1,0-.23h0c0-.14.23-.25.47-.25s.44.12.46.26h0a.81.81,0,0,1,0,.22C97.34,148.45,97.13,148.57,96.88,148.57Z" transform="translate(-4.35 -8.11)"/><path class="cls-42" d="M97.34,148.29c0,.16-.21.28-.46.28s-.47-.12-.47-.28a1.76,1.76,0,0,1,0-.23h0c0-.14.23-.25.47-.25s.44.12.46.26h0A.81.81,0,0,1,97.34,148.29Zm-.11-.2a.17.17,0,0,0,0-.1.49.49,0,0,0-.64,0,.18.18,0,0,0,0,.1c0,.11.16.21.36.21S97.23,148.2,97.23,148.09Z" transform="translate(-4.35 -8.11)"/><path class="cls-43" d="M99.8,146.91a3.6,3.6,0,0,0-1.9-.41h-.23l-.32.05a2.92,2.92,0,0,0-1,.36,1.81,1.81,0,0,0-.27.18,1.36,1.36,0,0,0-.29.3,1.07,1.07,0,0,0-.17.49V148a1.28,1.28,0,0,0,.73,1l.24.12a3.57,3.57,0,0,0,.46.16,3.1,3.1,0,0,0,.53.1l.15,0h.21a3.76,3.76,0,0,0,1.91-.42l.29-.2a1.54,1.54,0,0,0,.27-.31,1,1,0,0,0,.16-.47v-.06A1.26,1.26,0,0,0,99.8,146.91Zm-2.13,2.27v0Zm.4-.1H97.9l-.23,0-.3,0a3.43,3.43,0,0,1-.46-.11c-.65-.21-1.08-.6-1.09-1a.86.86,0,0,1,.2-.5,2,2,0,0,1,.52-.39l.41-.16a3.65,3.65,0,0,1,.61-.13h.11l.23,0h.16c1.24,0,2.25.54,2.25,1.21a.79.79,0,0,1-.26.56,1.56,1.56,0,0,1-.37.28A3.33,3.33,0,0,1,98.07,149.08Z" transform="translate(-4.35 -8.11)"/><path class="cls-44" d="M95.59,149.41v-.11S95.58,149.35,95.59,149.41Z" transform="translate(-4.35 -8.11)"/><path class="cls-44" d="M95.59,151.92v-.1A.27.27,0,0,0,95.59,151.92Z" transform="translate(-4.35 -8.11)"/><path class="cls-45" d="M100,150.94l-.14.09-.15.08v2.13h0a1.49,1.49,0,0,0,.77-1.33h0v-1.48A1.7,1.7,0,0,1,100,150.94Z" transform="translate(-4.35 -8.11)"/><path class="cls-45" d="M100.29,153.25a2.06,2.06,0,0,1-.4.29l-.15.08v2l.07,0a1.25,1.25,0,0,0,.73-1V153A1.13,1.13,0,0,1,100.29,153.25Z" transform="translate(-4.35 -8.11)"/><path class="cls-41" d="M99.74,149a3.69,3.69,0,0,1-1.84.39h-.21l-.15,0a3.1,3.1,0,0,1-.53-.1,3.57,3.57,0,0,1-.46-.16l-.24-.12a1.28,1.28,0,0,1-.73-1v4.89h0v1.75a1.26,1.26,0,0,0,.73,1,3.88,3.88,0,0,0,3.42,0v-2h0c0-.5,0-1,0-1Z" transform="translate(-4.35 -8.11)"/><path class="cls-45" d="M100.52,149.4h0V148a1,1,0,0,1-.16.47,1.54,1.54,0,0,1-.27.31l-.29.2-.07,0v1.77A1.53,1.53,0,0,0,100.52,149.4Z" transform="translate(-4.35 -8.11)"/><path class="cls-46" d="M100.7,152.35c0-.31-.13-.41-.17-.43h0a1.49,1.49,0,0,1-.77,1.33h0v.38l.15-.08a2.06,2.06,0,0,0,.4-.29,1.13,1.13,0,0,0,.24-.3,1,1,0,0,0,.17-.53Z" transform="translate(-4.35 -8.11)"/><path class="cls-46" d="M99.74,150.73v.38l.15-.08.14-.09a1.7,1.7,0,0,0,.5-.5,1.18,1.18,0,0,0,.17-.53v-.08c0-.3-.13-.4-.17-.42h0A1.53,1.53,0,0,1,99.74,150.73Z" transform="translate(-4.35 -8.11)"/><path class="cls-43" d="M96.23,151a2.92,2.92,0,0,0,.81.32,3.41,3.41,0,0,0,.48.09h.16l.22,0h.16a3.92,3.92,0,0,0,1.47-.27l.21-.09a.26.26,0,0,0,.09-.19.23.23,0,0,0-.09-.19h0a1.59,1.59,0,0,1-.26.14,2.76,2.76,0,0,1-.53.19,3.92,3.92,0,0,1-1,.1h-.22l-.31,0a2.81,2.81,0,0,1-1-.37,1.71,1.71,0,0,1-.79-1.21.57.57,0,0,1,0-.12c0-.06,0-.1,0-.11s-.11,0-.14.23v0a1.71,1.71,0,0,0,0,.35,1.81,1.81,0,0,0,.14.41A1.46,1.46,0,0,0,96.23,151Z" transform="translate(-4.35 -8.11)"/><path class="cls-43" d="M96.23,153.55a2.9,2.9,0,0,0,.81.31,3.41,3.41,0,0,0,.48.09l.16,0h.38a3.92,3.92,0,0,0,1.47-.27,1.33,1.33,0,0,0,.21-.09.26.26,0,0,0,.09-.19.23.23,0,0,0-.09-.19h0a1.08,1.08,0,0,1-.26.14,2.22,2.22,0,0,1-.53.19,3.92,3.92,0,0,1-1,.1h-.22l-.31,0a3,3,0,0,1-1-.36A1.74,1.74,0,0,1,95.6,152a.53.53,0,0,1,0-.12c0-.06,0-.1,0-.1s-.11,0-.14.23v0a1.63,1.63,0,0,0,0,.34,1.88,1.88,0,0,0,.14.42A1.46,1.46,0,0,0,96.23,153.55Z" transform="translate(-4.35 -8.11)"/><g id="_Gruppo_30" data-name="&lt;Gruppo&gt;"><polygon id="_Tracciato_70" data-name="&lt;Tracciato&gt;" class="cls-47" points="94.63 150.3 149.63 118.55 149.63 101.44 94.63 133.19 94.63 150.3"/><polygon id="_Tracciato_71" data-name="&lt;Tracciato&gt;" class="cls-48" points="95.38 133.63 148.87 102.75 148.87 118.11 95.38 148.99 95.38 133.63"/><polygon id="_Tracciato_72" data-name="&lt;Tracciato&gt;" class="cls-49" points="95.38 133.63 148.24 103.12 148.24 117.66 94.75 148.55 95.38 133.63"/></g><g id="_Gruppo_31" data-name="&lt;Gruppo&gt;"><g id="_Gruppo_32" data-name="&lt;Gruppo&gt;"><polygon id="_Tracciato_73" data-name="&lt;Tracciato&gt;" class="cls-33" points="94.27 150.43 100.62 154.11 100.61 137.04 94.22 133.41 94.27 150.43"/><polygon id="_Tracciato_74" data-name="&lt;Tracciato&gt;" class="cls-29" points="95.02 149.99 94.98 134.71 99.85 137.48 99.87 152.79 95.02 149.99"/></g><g id="_Gruppo_33" data-name="&lt;Gruppo&gt;"><polygon id="_Tracciato_75" data-name="&lt;Tracciato&gt;" class="cls-34" points="94.63 133.19 100.99 136.87 100.61 137.04 94.22 133.41 94.63 133.19"/></g><g id="_Gruppo_34" data-name="&lt;Gruppo&gt;"><polygon id="_Tracciato_76" data-name="&lt;Tracciato&gt;" class="cls-35" points="100.98 153.89 100.62 154.11 100.61 137.04 100.99 136.87 100.98 153.89"/></g></g></g></g></g></g></svg>