<svg xmlns="http://www.w3.org/2000/svg" viewBox="0 0 145.73 145.73"><defs><style>.cls-1{fill:#ea504f;stroke:#eaeaea;stroke-miterlimit:10;stroke-width:4px;}.cls-2{fill:#323232;}.cls-3{fill:#f5ad1f;}.cls-4{fill:#3c3c3b;}</style></defs><title>G11_09_02</title><g id="Marine"><circle class="cls-1" cx="72.87" cy="72.87" r="70.87"/><path class="cls-2" d="M48.54,30.53V60a3.25,3.25,0,0,1-.8,2.15l-7.06,8.15a3.27,3.27,0,0,0-.8,2.15V83.61h5.48v17.67l-5.48,6.2v16a3.29,3.29,0,0,0,3.29,3.29h69.42a3.3,3.3,0,0,0,3.29-3.29V30.53a3.29,3.29,0,0,0-3.29-3.29H51.84A3.29,3.29,0,0,0,48.54,30.53Z" transform="translate(-5.09 -5.09)"/><rect class="cls-3" x="47.46" y="26.15" width="5.67" height="13.83"/><rect class="cls-3" x="101.12" y="26.15" width="5.67" height="17.83"/><rect class="cls-3" x="92.18" y="26.15" width="5.67" height="17.83"/><rect class="cls-3" x="83.23" y="26.15" width="5.67" height="17.83"/><rect class="cls-3" x="74.29" y="26.15" width="5.67" height="13.83"/><rect class="cls-3" x="65.35" y="26.15" width="5.67" height="17.83"/><rect class="cls-3" x="56.4" y="26.15" width="5.67" height="17.83"/><path class="cls-4" d="M47.46,51.73h59.33a0,0,0,0,1,0,0v62.44a2.31,2.31,0,0,1-2.31,2.31h-57a0,0,0,0,1,0,0V51.73A0,0,0,0,1,47.46,51.73Z"/></g></svg>