<svg xmlns="http://www.w3.org/2000/svg" viewBox="0 0 145.73 145.73"><defs><style>.a{fill:#ea504f;}.b{fill:#f4c4a4;}.c{fill:#c23636;}.d{fill:#f8ac1a;}.e{fill:#fff;}.f{fill:#bdbcbc;}.g{fill:#e0e0e0;}.h{fill:#9a9b9c;}.i{fill:#626261;}.j,.m,.o,.q{fill:none;}.j{stroke:#4e7a92;}.j,.m,.q{stroke-miterlimit:10;}.j,.m{stroke-width:2px;}.k{fill:#fcd6b7;}.l{fill:#5b5b5a;}.m{stroke:#f5ad1f;}.n{fill:#3c3c3b;opacity:0.4;}.p{fill:#4e7a92;}.q{stroke:#eaeaea;stroke-width:4px;}</style></defs><title>G11_11</title><circle class="a" cx="72.87" cy="72.87" r="70.87"/><path class="b" d="M68.63,90.77l-.38-2.69A1.32,1.32,0,0,0,66.74,87l-.57-3.91a1.36,1.36,0,0,0-1.54-1.16l-.19,0-.5-3.51a2.21,2.21,0,0,0-2.51-1.87l-11.09,1.6a1.87,1.87,0,0,0-.59.2l-10,5.38L39,86.11l16.69,12.6A1.91,1.91,0,0,1,57,97.76l8.06-1.17a2.62,2.62,0,0,0,2.22-2.91l-.12-.91a.46.46,0,0,1,.37-.51A1.31,1.31,0,0,0,68.63,90.77Z" transform="translate(-5.09 -5.09)"/><path class="c" d="M115,107.73a1.39,1.39,0,0,1-.35-.41,1.28,1.28,0,0,1-.14-.37L113,99.64l-.5-2.3a2.65,2.65,0,0,0-1-1.58l-2.08-1.58V53.73a2.56,2.56,0,0,0-2.57-2.56H95.73v-.74a1,1,0,0,0-1-1H89.58v-.41a5,5,0,0,0-10.08,0v.41H74.32a1,1,0,0,0-1,1v.74H62.27a2.56,2.56,0,0,0-2.57,2.56v39l-.7.1a1.72,1.72,0,0,0-.54.18l-9.1,4.87-2.94,1.58a1.6,1.6,0,0,0-.83,1.11l-2.85,14.21a1.4,1.4,0,0,0,0,.54l1.87,10.19L44.23,128l-2.59-.46-.79,4.51-.63-.1-.89,4,4.8,3.11,7,3.83,5.94,1.42,1.18-9.2L57,134.9l.8-4.5-1.94-.34c1.25-1.72,1.77-2.27,2.42-3.3a27.27,27.27,0,0,0,3.45-7.64l.61-2.29H98.74l.88,3.46-2.09.46,3.15,23.57,20.79-11.94ZM86.27,48.17v.68H82.81v-.68a1.72,1.72,0,0,1,1.73-1.73,1.68,1.68,0,0,1,1.22.51A1.72,1.72,0,0,1,86.27,48.17Z" transform="translate(-5.09 -5.09)"/><rect class="d" x="42.54" y="15.52" width="65.85" height="87.05" rx="3.4"/><rect class="e" x="45.49" y="18.92" width="59.95" height="80.25"/><path class="f" d="M87.23,17.81a6.68,6.68,0,0,0-13.36,0v2.8H87.23v-2.8Zm-9-1.18a2.29,2.29,0,1,1,4.58,0v.91H78.26Z" transform="translate(-5.09 -5.09)"/><rect class="f" x="73.18" y="12.46" width="4.58" height="0.23"/><path class="g" d="M87.23,17.81a6.68,6.68,0,0,0-13.36,0V18a6.68,6.68,0,0,1,13.36,0v-.23Z" transform="translate(-5.09 -5.09)"/><path class="h" d="M87.23,18v2.65H73.87v-2.8H87.23Z" transform="translate(-5.09 -5.09)"/><rect class="f" x="60.63" y="13.26" width="29.68" height="8.93" rx="3.72"/><path class="g" d="M94.11,18.34H67a1.29,1.29,0,0,0-1.29,1.29v.23A1.28,1.28,0,0,1,67,18.58H94.11a1.28,1.28,0,0,1,1.28,1.28v-.23A1.28,1.28,0,0,0,94.11,18.34Z" transform="translate(-5.09 -5.09)"/><path class="h" d="M94.11,25.67H67a1.28,1.28,0,0,1-1.29-1.28V26A1.28,1.28,0,0,0,67,27.27H94.11A1.28,1.28,0,0,0,95.39,26v-1.6A1.28,1.28,0,0,1,94.11,25.67Z" transform="translate(-5.09 -5.09)"/><path class="g" d="M92.53,20.62h-24a.34.34,0,0,1-.33-.34h0a.33.33,0,0,1,.33-.33h24a.34.34,0,0,1,.34.33h0A.34.34,0,0,1,92.53,20.62Z" transform="translate(-5.09 -5.09)"/><path class="g" d="M92.53,22.65h-24a.33.33,0,0,1-.33-.33h0a.34.34,0,0,1,.33-.34h24a.34.34,0,0,1,.34.34h0A.34.34,0,0,1,92.53,22.65Z" transform="translate(-5.09 -5.09)"/><path class="g" d="M92.53,24.68h-24a.33.33,0,0,1-.33-.33h0a.33.33,0,0,1,.33-.33h24a.34.34,0,0,1,.34.33h0A.34.34,0,0,1,92.53,24.68Z" transform="translate(-5.09 -5.09)"/><rect class="h" x="63.15" y="14.58" width="24.63" height="0.67" rx="0.28"/><path class="h" d="M92.53,22.37h-24a.33.33,0,0,1-.33-.33h0a.34.34,0,0,1,.33-.34h24a.34.34,0,0,1,.34.34h0A.34.34,0,0,1,92.53,22.37Z" transform="translate(-5.09 -5.09)"/><path class="h" d="M92.53,24.4h-24a.33.33,0,0,1-.33-.33h0a.34.34,0,0,1,.33-.34h24a.34.34,0,0,1,.34.34h0A.34.34,0,0,1,92.53,24.4Z" transform="translate(-5.09 -5.09)"/><path class="i" d="M56,46.85h-.82V43.31l-.78,0v-.64l1.6-.16Z" transform="translate(-5.09 -5.09)"/><path class="i" d="M58.2,46.85h-.82v-.74h.82Z" transform="translate(-5.09 -5.09)"/><path class="i" d="M56.79,57.85H54.18V57.3l1.18-1.49a2.89,2.89,0,0,0,.36-.58,1.22,1.22,0,0,0,.11-.45.79.79,0,0,0-.11-.44.37.37,0,0,0-.33-.17.38.38,0,0,0-.35.21,1,1,0,0,0-.13.53H54.1v0a1.35,1.35,0,0,1,.35-1,1.22,1.22,0,0,1,1-.39,1.15,1.15,0,0,1,1.27,1.25,1.35,1.35,0,0,1-.19.71,7.84,7.84,0,0,1-.64.88l-.58.84h1.54Z" transform="translate(-5.09 -5.09)"/><path class="i" d="M58.2,57.85h-.82v-.74h.82Z" transform="translate(-5.09 -5.09)"/><path class="i" d="M55.42,66.36a.46.46,0,0,0,.37-.16.69.69,0,0,0,.13-.45.61.61,0,0,0-.13-.41.45.45,0,0,0-.37-.17.39.39,0,0,0-.31.15.51.51,0,0,0-.13.37h-.82a1,1,0,0,1,.36-.83,1.29,1.29,0,0,1,.9-.32,1.41,1.41,0,0,1,1,.31,1.13,1.13,0,0,1,.37.89,1.07,1.07,0,0,1-.16.55,1.13,1.13,0,0,1-.43.38,1,1,0,0,1,.47.38,1.16,1.16,0,0,1,.17.63,1.12,1.12,0,0,1-.39.91,1.44,1.44,0,0,1-1,.34,1.48,1.48,0,0,1-.93-.32,1.06,1.06,0,0,1-.38-.9h.81a.64.64,0,0,0,.14.41.44.44,0,0,0,.36.17.55.55,0,0,0,.41-.17.65.65,0,0,0,.15-.44.8.8,0,0,0-.14-.51.54.54,0,0,0-.42-.16H55v-.63Z" transform="translate(-5.09 -5.09)"/><path class="i" d="M58.2,68.85h-.82v-.74h.82Z" transform="translate(-5.09 -5.09)"/><path class="i" d="M56.44,78.27h.41v.65h-.41v.93h-.83v-.93H54.07l0-.51,1.57-2.82h.84Zm-1.68,0h.85V76.73h0l-.08.17Z" transform="translate(-5.09 -5.09)"/><path class="i" d="M58.2,79.85h-.82v-.74h.82Z" transform="translate(-5.09 -5.09)"/><path class="i" d="M54.23,89l.22-2.38h2.19v.66H55.13l-.1,1a.87.87,0,0,1,.27-.15.81.81,0,0,1,.35-.07,1,1,0,0,1,.83.36,1.73,1.73,0,0,1,.29,1.06,1.59,1.59,0,0,1-.32,1,1.19,1.19,0,0,1-1,.41,1.44,1.44,0,0,1-.93-.32,1,1,0,0,1-.37-.85v0l.8,0a.63.63,0,0,0,.13.43.46.46,0,0,0,.36.15.39.39,0,0,0,.37-.2,1.24,1.24,0,0,0,.11-.58,1.16,1.16,0,0,0-.13-.6.4.4,0,0,0-.38-.22.48.48,0,0,0-.31.09A.56.56,0,0,0,55,89Z" transform="translate(-5.09 -5.09)"/><path class="i" d="M58.2,90.85h-.82v-.74h.82Z" transform="translate(-5.09 -5.09)"/><line class="j" x1="80.54" y1="37.31" x2="75.78" y2="37.31"/><line class="j" x1="95.13" y1="37.31" x2="82.63" y2="37.31"/><line class="j" x1="99.97" y1="37.31" x2="96.58" y2="37.31"/><line class="j" x1="78.52" y1="40.7" x2="75.78" y2="40.7"/><line class="j" x1="88.84" y1="40.7" x2="80.54" y2="40.7"/><line class="j" x1="99.97" y1="40.7" x2="90.7" y2="40.7"/><line class="j" x1="80.21" y1="43.6" x2="75.78" y2="43.6"/><line class="j" x1="91.75" y1="43.6" x2="82.15" y2="43.6"/><line class="j" x1="81.54" y1="49.31" x2="75.78" y2="49.31"/><line class="j" x1="96.13" y1="49.31" x2="83.63" y2="49.31"/><line class="j" x1="99.97" y1="49.31" x2="97.58" y2="49.31"/><line class="j" x1="83.52" y1="52.7" x2="75.78" y2="52.7"/><line class="j" x1="93.84" y1="52.7" x2="85.54" y2="52.7"/><line class="j" x1="99.97" y1="52.7" x2="95.7" y2="52.7"/><line class="j" x1="78.54" y1="60.31" x2="75.78" y2="60.31"/><line class="j" x1="93.13" y1="60.31" x2="80.63" y2="60.31"/><line class="j" x1="99.97" y1="60.31" x2="94.58" y2="60.31"/><line class="j" x1="80.52" y1="63.7" x2="75.78" y2="63.7"/><line class="j" x1="90.84" y1="63.7" x2="82.54" y2="63.7"/><line class="j" x1="99.97" y1="63.7" x2="92.7" y2="63.7"/><line class="j" x1="78.21" y1="66.6" x2="75.78" y2="66.6"/><rect class="i" x="64.08" y="25.19" width="22.64" height="5.54"/><rect class="i" x="54.34" y="37.44" width="13.31" height="4.33"/><rect class="i" x="54.34" y="48.44" width="13.98" height="4.33"/><rect class="i" x="54.34" y="59.47" width="13.06" height="4.33"/><rect class="i" x="54.34" y="70.37" width="15.67" height="4.33"/><rect class="i" x="54.34" y="81.47" width="19.53" height="4.33"/><path class="k" d="M62.68,84.1a3,3,0,0,0-4.78-3.71L50,89.5a1.92,1.92,0,0,1-2.37.44l-3.9-2.08A8.2,8.2,0,0,1,41,85.49L39.7,83.72l-3.25,1.74a1.77,1.77,0,0,0-.91,1.23l-3.16,15.7a1.47,1.47,0,0,0,0,.59l2.06,11.26-1.14,7.54,12.93-1.69c1.85-2.6,2.47-3.21,3.3-4.5a30.29,30.29,0,0,0,3.81-8.44l2.14-8a1.7,1.7,0,0,1,.18-.44l.79-5.57Z" transform="translate(-5.09 -5.09)"/><rect class="g" x="37.12" y="111.47" width="5.06" height="18.1" transform="matrix(-0.17, 0.98, -0.98, -0.17, 160.14, 97.38)"/><path class="l" d="M29.6,121.32l-1.54,7a71.18,71.18,0,0,0,19.27,13.61l2.18-17.06Z" transform="translate(-5.09 -5.09)"/><line class="m" x1="23.94" y1="118.81" x2="44.08" y2="122.41"/><line class="m" x1="23.44" y1="121.06" x2="43.79" y2="124.7"/><line class="m" x1="22.95" y1="123.29" x2="43.5" y2="126.97"/><path class="n" d="M42.75,123.69l1.49.22.95-5,3.42-2-1.75,2.3,2.14.4-.88,5,1.39.24-2.18,17.06a71.75,71.75,0,0,1-7.17-4Z" transform="translate(-5.09 -5.09)"/><path class="o" d="M90.14,89.28l-.8,1a.39.39,0,0,0,.11.56l3.92,2.31.06,0L95.5,94a.34.34,0,0,0,.35,0l1.79-1.34a.38.38,0,0,0,.15-.24l.57-3.08a.39.39,0,0,0-.39-.45l-.48,0,.16.77-.16-.77-7.06.3A.36.36,0,0,0,90.14,89.28Z" transform="translate(-5.09 -5.09)"/><rect class="g" x="107.19" y="108.01" width="6.7" height="17.9" transform="translate(196.45 -20.86) rotate(77.81)"/><path class="k" d="M113.53,77.73a.51.51,0,0,0-.37-.27L94.45,74.29A1.37,1.37,0,0,0,92.89,76l.65,2.68a.65.65,0,0,1,0,.24l2.21-.09L108.89,84l2.41,4.8-1.83,3.29-1.1,2,.37.3a.38.38,0,0,1,0,.59l-2.45,2A.38.38,0,0,1,106,97l-.4,0c1.16,4.77,5.36,8.75,10.13,10.51a1.53,1.53,0,0,1,.14-.41l4-7.24,1.26-2.28a3,3,0,0,0,.3-2.05l-.94-4.41Z" transform="translate(-5.09 -5.09)"/><path class="l" d="M124.65,132,121,117.9l-19.55,4.2L105,143.77C112.32,143.33,117.74,134.69,124.65,132Z" transform="translate(-5.09 -5.09)"/><path class="b" d="M97.66,87.25l3.71,3.37c-.07-.23,8,4,8,4L112.51,89l-2.59-5.16L95.81,78.2l-2.37.1C93.43,78.69,97.66,87.25,97.66,87.25Z" transform="translate(-5.09 -5.09)"/><path class="p" d="M118,94.75l-30.25-23-2.89,3.73L115.08,98.7a1.51,1.51,0,0,0,2.16-.34l1.08-1.55A1.52,1.52,0,0,0,118,94.75Z" transform="translate(-5.09 -5.09)"/><polygon class="k" points="79.76 70.39 77.14 65.78 82.66 66.65 79.76 70.39"/><polygon class="p" points="77.14 65.78 78.16 67.56 79.2 66.11 77.14 65.78"/><line class="m" x1="96.56" y1="119.32" x2="116.56" y2="114.99"/><line class="m" x1="96.95" y1="121.59" x2="117.15" y2="117.21"/><line class="m" x1="97.34" y1="123.84" x2="117.75" y2="119.42"/><path class="k" d="M105.62,97l-1.83-.13a.37.37,0,0,1-.3-.19l-1.08-1.92,0-.06L101.51,92l-2-5.67-2.2-4.72a3.39,3.39,0,0,0-3.78-1.88l-.81.17a3.25,3.25,0,0,0-1.29,4.35l1,1.81,1.45,5.27.94,8.9a2.46,2.46,0,0,0,.1.47l1.75,5.57a2.85,2.85,0,0,0,.69,1.14l3.25,3.32a1.56,1.56,0,0,1,.36.62l1.14,4,14.59-3.11-.89-4.17a1.51,1.51,0,0,1,0-.6C111,105.71,106.78,101.73,105.62,97Z" transform="translate(-5.09 -5.09)"/><path class="n" d="M106.41,121l-.73.16-1.22-6.36-.7.16-.53-2.2-2.33-1.4,1.14,4-1,.23,1.36,6.29-1,.23L105,143.77c2.27-.14,4.53-.38,6.77-.74Z" transform="translate(-5.09 -5.09)"/><circle class="q" cx="72.87" cy="72.87" r="70.87"/></svg>