<svg xmlns="http://www.w3.org/2000/svg" viewBox="0 0 186.85 113.39"><defs><style>.cls-1{isolation:isolate;}.cls-2{fill:#ad1917;}.cls-3{fill:#ea504e;}.cls-4{fill:#e6332a;}.cls-5{fill:#bbbdbf;}.cls-22,.cls-30,.cls-5{mix-blend-mode:multiply;}.cls-6{fill:#2b2c2c;}.cls-7{fill:#404042;}.cls-8{fill:#737373;}.cls-9{fill:#010101;}.cls-10{fill:#231f20;}.cls-11{fill:#4d4d4d;}.cls-12{fill:#313131;}.cls-13{fill:#87bf59;}.cls-14{fill:#525252;}.cls-15{fill:#496e45;}.cls-16{fill:#81bd4f;}.cls-17{fill:#afcd59;}.cls-18{fill:#7fbb42;}.cls-19{fill:#a19988;}.cls-20{fill:#f6f6d3;}.cls-21{fill:#d9d8c8;}.cls-22{fill:#808284;}.cls-23{fill:#716a65;}.cls-24{fill:#5f5252;}.cls-25{fill:#afa594;}.cls-26{fill:#fff;}.cls-27{fill:#ded6cf;}.cls-28{fill:#a4a5a9;}.cls-29{fill:#c27524;}.cls-30{fill:#909294;}.cls-31{fill:#ae6319;}.cls-32{fill:#6eb02d;}.cls-33{fill:#8bbf4b;}.cls-34{fill:#cdcbbb;}.cls-35{fill:#fffdef;}.cls-36{fill:#919086;}.cls-37{fill:#a9cb5a;}.cls-38{fill:#a14551;}.cls-39{fill:#e7e8e9;}.cls-40{fill:#8fc14a;}.cls-41{fill:#63b22f;}.cls-42{fill:#736d63;}.cls-43{fill:#bbd256;}.cls-44{fill:#454544;}.cls-45{fill:#f9b233;}.cls-46{fill:#be1622;}.cls-47{fill:#f39200;}.cls-48{fill:none;}.cls-49{fill:#ef8c29;}.cls-50{fill:#d37811;}</style></defs><title>G11_15_01</title><g class="cls-1"><g id="Livello_1" data-name="Livello 1"><polygon class="cls-2" points="186.85 55.44 186.85 60.22 96.8 113.39 96.8 108.61 186.85 55.44"/><polygon class="cls-3" points="96.8 108.61 96.8 113.39 0 56.98 0 52.2 96.8 108.61"/><polygon class="cls-4" points="96.65 108.52 0 52.2 90.82 0 186.85 55.44 96.8 108.61 96.65 108.52"/><g id="truck"><g id="_Gruppo_" data-name="&lt;Gruppo&gt;"><path id="_Tracciato_" data-name="&lt;Tracciato&gt;" class="cls-5" d="M52.85,83.65l-13.93-8c-.36-.21,6.87-5.87,7.23-6.08l65.49-37.79a1,1,0,0,1,.73,0l13.1,7.57V37.2l2.68,1.56,0,10.33L81.52,76H76l-5.23,3h5.55l-12.1,7C63.41,86.48,53.63,84.1,52.85,83.65Z" transform="translate(-4.35 -10.15)"/></g><g id="_Gruppo_2" data-name="&lt;Gruppo&gt;"><g id="_Gruppo_3" data-name="&lt;Gruppo&gt;"><g id="_Gruppo_4" data-name="&lt;Gruppo&gt;"><path id="_Tracciato_2" data-name="&lt;Tracciato&gt;" class="cls-6" d="M112.34,43.73l-4.13,6.9-1.81-1.05a2,2,0,0,1-.86-1.85,6.31,6.31,0,0,1,2.85-4.93,1.92,1.92,0,0,1,2.12-.12Z" transform="translate(-4.35 -10.15)"/><ellipse id="_Tracciato_3" data-name="&lt;Tracciato&gt;" class="cls-7" cx="110.23" cy="47.15" rx="2.39" ry="1.38" transform="translate(9.93 108.89) rotate(-60)"/><ellipse id="_Tracciato_4" data-name="&lt;Tracciato&gt;" class="cls-8" cx="109.8" cy="46.79" rx="2.39" ry="1.38" transform="translate(10.03 108.34) rotate(-60)"/><path id="_Tracciato_composto_" data-name="&lt;Tracciato composto&gt;" class="cls-9" d="M110.23,43.86a6.31,6.31,0,0,0-2.85,4.93c0,1.81,1.28,2.55,2.85,1.64a6.27,6.27,0,0,0,2.84-4.92C113.07,43.69,111.8,43,110.23,43.86Zm0,5.24c-.94.54-1.7.11-1.7-1a3.75,3.75,0,0,1,1.7-2.94c.93-.54,1.69-.1,1.69,1A3.75,3.75,0,0,1,110.23,49.1Z" transform="translate(-4.35 -10.15)"/><path id="_Tracciato_5" data-name="&lt;Tracciato&gt;" class="cls-10" d="M110.34,46.48a1.22,1.22,0,0,1-.54.94c-.3.17-.54,0-.54-.32a1.22,1.22,0,0,1,.54-.94C110.1,46,110.34,46.13,110.34,46.48Z" transform="translate(-4.35 -10.15)"/></g><g id="_Gruppo_5" data-name="&lt;Gruppo&gt;"><path id="_Tracciato_6" data-name="&lt;Tracciato&gt;" class="cls-6" d="M105.22,47.84l-4.13,6.9s-1.3-.76-1.82-1a2,2,0,0,1-.85-1.86,6.25,6.25,0,0,1,2.85-4.92,1.92,1.92,0,0,1,2.12-.13Z" transform="translate(-4.35 -10.15)"/><ellipse id="_Tracciato_7" data-name="&lt;Tracciato&gt;" class="cls-7" cx="103.1" cy="51.26" rx="2.39" ry="1.38" transform="translate(2.81 104.78) rotate(-60)"/><ellipse id="_Tracciato_8" data-name="&lt;Tracciato&gt;" class="cls-8" cx="102.68" cy="50.9" rx="2.39" ry="1.38" transform="translate(2.9 104.23) rotate(-60)"/><path id="_Tracciato_composto_2" data-name="&lt;Tracciato composto&gt;" class="cls-9" d="M103.1,48a6.27,6.27,0,0,0-2.84,4.92c0,1.82,1.27,2.55,2.84,1.65A6.29,6.29,0,0,0,106,49.62C106,47.81,104.68,47.07,103.1,48Zm0,5.24c-.93.54-1.69.1-1.69-1a3.75,3.75,0,0,1,1.69-2.93c.94-.54,1.7-.11,1.7,1A3.75,3.75,0,0,1,103.1,53.22Z" transform="translate(-4.35 -10.15)"/><path id="_Tracciato_9" data-name="&lt;Tracciato&gt;" class="cls-10" d="M103.22,50.59a1.19,1.19,0,0,1-.54.94c-.3.17-.55,0-.55-.31a1.2,1.2,0,0,1,.55-.94C103,50.1,103.22,50.24,103.22,50.59Z" transform="translate(-4.35 -10.15)"/></g><g id="_Gruppo_6" data-name="&lt;Gruppo&gt;"><path id="_Tracciato_10" data-name="&lt;Tracciato&gt;" class="cls-6" d="M98.09,51.92,94,58.82s-1.31-.77-1.82-1a2,2,0,0,1-.85-1.85A6.29,6.29,0,0,1,94.14,51a1.92,1.92,0,0,1,2.12-.13Z" transform="translate(-4.35 -10.15)"/><path id="_Tracciato_11" data-name="&lt;Tracciato&gt;" class="cls-7" d="M97.67,54.36A3.75,3.75,0,0,1,96,57.29c-.94.54-1.7.1-1.7-1A3.73,3.73,0,0,1,96,53.38C96.91,52.84,97.67,53.28,97.67,54.36Z" transform="translate(-4.35 -10.15)"/><path id="_Tracciato_12" data-name="&lt;Tracciato&gt;" class="cls-8" d="M97.24,54a3.72,3.72,0,0,1-1.69,2.93c-.93.54-1.69.1-1.69-1A3.75,3.75,0,0,1,95.55,53C96.49,52.48,97.24,52.92,97.24,54Z" transform="translate(-4.35 -10.15)"/><path id="_Tracciato_composto_3" data-name="&lt;Tracciato composto&gt;" class="cls-9" d="M96,52.05A6.3,6.3,0,0,0,93.13,57c0,1.81,1.28,2.55,2.85,1.64a6.29,6.29,0,0,0,2.84-4.93C98.82,51.88,97.55,51.14,96,52.05Zm0,5.24c-.94.54-1.7.1-1.7-1A3.73,3.73,0,0,1,96,53.38c.93-.54,1.69-.1,1.69,1A3.75,3.75,0,0,1,96,57.29Z" transform="translate(-4.35 -10.15)"/><path id="_Tracciato_13" data-name="&lt;Tracciato&gt;" class="cls-10" d="M96.09,54.66a1.19,1.19,0,0,1-.54.94c-.3.18-.54,0-.54-.31a1.19,1.19,0,0,1,.54-.94C95.85,54.18,96.09,54.32,96.09,54.66Z" transform="translate(-4.35 -10.15)"/></g></g><g id="_Gruppo_7" data-name="&lt;Gruppo&gt;"><path id="_Tracciato_14" data-name="&lt;Tracciato&gt;" class="cls-11" d="M112.77,41.63,93.52,52.74a8.88,8.88,0,0,0-1.87,4.33L92,57A8.07,8.07,0,0,1,93.67,53l19-10.95c.2,0,1.31.12,1.66,2l.36-.28C114.25,41.72,113,41.63,112.77,41.63Z" transform="translate(-4.35 -10.15)"/><path id="_Tracciato_15" data-name="&lt;Tracciato&gt;" class="cls-12" d="M112.77,41.63,93.52,52.74a8.88,8.88,0,0,0-1.87,4.33L88.54,55.2l24.18-14,.84.64A1.52,1.52,0,0,0,112.77,41.63Z" transform="translate(-4.35 -10.15)"/><path id="_Tracciato_16" data-name="&lt;Tracciato&gt;" class="cls-12" d="M111.75,42.6l.87-.51c.2,0,1.31.12,1.66,2Z" transform="translate(-4.35 -10.15)"/><path id="_Tracciato_17" data-name="&lt;Tracciato&gt;" class="cls-11" d="M116.41,39.11l-.8.46c1-.06,2.25.26,2.69,2.61l.45-.36C118.26,39.23,116.68,39.11,116.41,39.11Z" transform="translate(-4.35 -10.15)"/><path id="_Tracciato_18" data-name="&lt;Tracciato&gt;" class="cls-12" d="M115.61,39.57c1-.06,2.25.26,2.69,2.61l-3.61-2.08Z" transform="translate(-4.35 -10.15)"/></g></g><g id="_Gruppo_8" data-name="&lt;Gruppo&gt;"><g id="_Gruppo_9" data-name="&lt;Gruppo&gt;"><path id="_Tracciato_19" data-name="&lt;Tracciato&gt;" class="cls-7" d="M89.84,57.35,77.1,64.71A1.69,1.69,0,0,0,75.66,63V61.9l15.78-9.11Z" transform="translate(-4.35 -10.15)"/><path id="_Tracciato_20" data-name="&lt;Tracciato&gt;" class="cls-12" d="M77.1,64.71A1.69,1.69,0,0,0,75.66,63V61.9l-1.73,1Z" transform="translate(-4.35 -10.15)"/></g><g id="_Gruppo_10" data-name="&lt;Gruppo&gt;"><path id="_Tracciato_composto_4" data-name="&lt;Tracciato composto&gt;" class="cls-12" d="M88.65,55.71V53.83l-.83.48v1.88l-5.11,3V57.26l-1,.57v1.88l-1.81,1v3.8l.72.38L91,59V55.17l-.72-.38Zm-.83,1.49v2.1l-5.23,3v-2.1Zm-7.13,4,1-.6v2.18l-1,.59Zm9.12-3.09-1.14.7V56.59l1.14-.7Z" transform="translate(-4.35 -10.15)"/><path id="_Tracciato_composto_5" data-name="&lt;Tracciato composto&gt;" class="cls-11" d="M89.15,56.22V54.34l-.61.34v1.88l-5.49,3.17V57.85l-.6.35v1.88l-1.82,1.05v3.81L91,59V55.17Zm-.61,1v2.42l-5.49,3.16V60.43Zm-7.12,4.12,1-.6v2.41l-1,.6Zm9.12-2.86-1.39.81V56.91l1.39-.8Z" transform="translate(-4.35 -10.15)"/></g></g><g id="_Gruppo_11" data-name="&lt;Gruppo&gt;"><path id="_Tracciato_21" data-name="&lt;Tracciato&gt;" class="cls-6" d="M76,64.64l-4.12,6.91s-1.31-.77-1.82-1a2,2,0,0,1-.85-1.86,6.28,6.28,0,0,1,2.84-4.92,1.94,1.94,0,0,1,2.13-.13Z" transform="translate(-4.35 -10.15)"/><path id="_Tracciato_22" data-name="&lt;Tracciato&gt;" class="cls-7" d="M75.62,67.09A3.72,3.72,0,0,1,73.93,70c-.93.54-1.69.1-1.69-1a3.75,3.75,0,0,1,1.69-2.93C74.87,65.57,75.62,66,75.62,67.09Z" transform="translate(-4.35 -10.15)"/><path id="_Tracciato_23" data-name="&lt;Tracciato&gt;" class="cls-8" d="M75.2,66.73a3.73,3.73,0,0,1-1.7,2.93c-.93.54-1.69.1-1.69-1a3.75,3.75,0,0,1,1.69-2.93C74.44,65.21,75.2,65.65,75.2,66.73Z" transform="translate(-4.35 -10.15)"/><path id="_Tracciato_composto_6" data-name="&lt;Tracciato composto&gt;" class="cls-9" d="M73.93,64.78a6.29,6.29,0,0,0-2.84,4.93c0,1.81,1.27,2.54,2.84,1.64a6.3,6.3,0,0,0,2.84-4.93C76.77,64.61,75.5,63.87,73.93,64.78Zm0,5.24c-.93.54-1.69.1-1.69-1a3.75,3.75,0,0,1,1.69-2.93c.94-.54,1.69-.1,1.69,1A3.72,3.72,0,0,1,73.93,70Z" transform="translate(-4.35 -10.15)"/><path id="_Tracciato_24" data-name="&lt;Tracciato&gt;" class="cls-10" d="M74.05,67.39a1.2,1.2,0,0,1-.55.94c-.3.17-.54,0-.54-.31a1.19,1.19,0,0,1,.54-.94C73.8,66.91,74.05,67.05,74.05,67.39Z" transform="translate(-4.35 -10.15)"/></g><path id="_Tracciato_25" data-name="&lt;Tracciato&gt;" class="cls-13" d="M61.09,72s1.23.53,1.23,3.72l7.34-4.23a1.34,1.34,0,0,0,.64-1.19V67.64s0-.71-.61-.38L62,71.83S61.35,71.42,61.09,72Z" transform="translate(-4.35 -10.15)"/><path id="_Tracciato_26" data-name="&lt;Tracciato&gt;" class="cls-14" d="M61.09,72l-1.55-.87L61,70.31V66.92L64.62,69l4.32-2.49,1.16.69a.4.4,0,0,0-.41.05L62,71.83S61.35,71.42,61.09,72Z" transform="translate(-4.35 -10.15)"/><path id="_Tracciato_27" data-name="&lt;Tracciato&gt;" class="cls-15" d="M61.09,72s1.23.53,1.23,3.72l-5.39-3.09,2.61-1.5Z" transform="translate(-4.35 -10.15)"/><g id="_Gruppo_12" data-name="&lt;Gruppo&gt;"><path id="_Tracciato_28" data-name="&lt;Tracciato&gt;" class="cls-6" d="M60.61,73.54l-4.12,6.9-1.82-1a2,2,0,0,1-.85-1.85,6.29,6.29,0,0,1,2.84-4.93,1.92,1.92,0,0,1,2.13-.12Z" transform="translate(-4.35 -10.15)"/><ellipse id="_Tracciato_29" data-name="&lt;Tracciato&gt;" class="cls-7" cx="58.5" cy="76.96" rx="2.39" ry="1.38" transform="translate(-41.75 78.99) rotate(-60)"/><path id="_Tracciato_30" data-name="&lt;Tracciato&gt;" class="cls-8" d="M59.77,75.62a3.73,3.73,0,0,1-1.7,2.93c-.93.54-1.69.11-1.69-1a3.77,3.77,0,0,1,1.69-2.94C59,74.1,59.77,74.54,59.77,75.62Z" transform="translate(-4.35 -10.15)"/><path id="_Tracciato_composto_7" data-name="&lt;Tracciato composto&gt;" class="cls-9" d="M58.5,73.67a6.29,6.29,0,0,0-2.84,4.93c0,1.81,1.27,2.55,2.84,1.64a6.29,6.29,0,0,0,2.84-4.93C61.34,73.5,60.07,72.77,58.5,73.67Zm0,5.24c-.93.54-1.69.1-1.69-1A3.75,3.75,0,0,1,58.5,75c.94-.54,1.69-.1,1.69,1A3.72,3.72,0,0,1,58.5,78.91Z" transform="translate(-4.35 -10.15)"/><path id="_Tracciato_31" data-name="&lt;Tracciato&gt;" class="cls-10" d="M58.62,76.28a1.2,1.2,0,0,1-.55.94c-.3.18-.54,0-.54-.31a1.2,1.2,0,0,1,.54-.94C58.37,75.8,58.62,75.94,58.62,76.28Z" transform="translate(-4.35 -10.15)"/></g><polygon id="_Tracciato_32" data-name="&lt;Tracciato&gt;" class="cls-16" points="47.72 51.88 60.27 59.12 60.27 42.02 47.72 34.78 47.72 51.88"/><polygon id="_Tracciato_33" data-name="&lt;Tracciato&gt;" class="cls-5" points="47.72 51.88 60.27 59.12 60.27 48.81 47.72 41.57 47.72 51.88"/><g id="_Gruppo_13" data-name="&lt;Gruppo&gt;"><polygon id="_Tracciato_34" data-name="&lt;Tracciato&gt;" class="cls-17" points="101.88 3.49 114.44 10.74 60.28 42.02 47.72 34.77 101.88 3.49"/><polygon id="_Tracciato_35" data-name="&lt;Tracciato&gt;" class="cls-18" points="114.44 27.59 60.27 58.87 60.27 42.02 114.44 10.74 114.44 27.59"/></g><path id="_Tracciato_36" data-name="&lt;Tracciato&gt;" class="cls-19" d="M53.27,59h0c-1.53.94-2.85,9.61-2.85,12v9.35l3-1.73a1.55,1.55,0,0,0,.75-1c.13-.7.62-3.7,2.57-4.83L61,70.31V54.52Z" transform="translate(-4.35 -10.15)"/><path id="_Tracciato_37" data-name="&lt;Tracciato&gt;" class="cls-20" d="M53.25,59h0L61,54.52,50.33,48.38,42.6,52.84c-1.54.89-2.87,9.61-2.87,12v9.35l2.84,1.63.2-.46,4.57,2.64.21.69,2.85,1.64V71C50.4,68.6,51.72,59.93,53.25,59Z" transform="translate(-4.35 -10.15)"/><polygon id="_Tracciato_38" data-name="&lt;Tracciato&gt;" class="cls-20" points="55.2 41.2 47.46 36.76 45.51 37.88 53.25 42.33 55.2 41.2"/><path id="_Tracciato_39" data-name="&lt;Tracciato&gt;" class="cls-21" d="M57.6,52.48,49.87,48c-1,.6-3.42,4.3-3.42,4.3l7.74,4.44S56.57,53.07,57.6,52.48Z" transform="translate(-4.35 -10.15)"/><path id="_Tracciato_40" data-name="&lt;Tracciato&gt;" class="cls-20" d="M49.26,51.78c-.54.69-1.08,1.53-1.08,1.53l4.28,2.46s.53-.83,1.07-1.52Z" transform="translate(-4.35 -10.15)"/><g id="_Gruppo_14" data-name="&lt;Gruppo&gt;"><path class="cls-22" d="M49.26,51.78c-.54.69-1.08,1.53-1.08,1.53H51.9Z" transform="translate(-4.35 -10.15)"/></g><path id="_Tracciato_41" data-name="&lt;Tracciato&gt;" class="cls-19" d="M60,52.72a2.15,2.15,0,0,0-.44-1.37L57.6,52.48c-1,.59-3.41,4.29-3.41,4.29l5.36-3.09V53Z" transform="translate(-4.35 -10.15)"/><path id="_Tracciato_42" data-name="&lt;Tracciato&gt;" class="cls-19" d="M50.19,52.32l-2,1c.46-.72,1.08-1.53,1.08-1.53Z" transform="translate(-4.35 -10.15)"/><path id="_Tracciato_43" data-name="&lt;Tracciato&gt;" class="cls-21" d="M53.25,59,42.6,52.84a1.83,1.83,0,0,0-.56.68h0c-1.29,2.3-2.31,9.24-2.31,11.37v9.35l2.84,1.63.2-.46,4.57,2.64.21.69,2.85,1.64V71C50.4,68.6,51.72,59.93,53.25,59Z" transform="translate(-4.35 -10.15)"/><g id="_Gruppo_15" data-name="&lt;Gruppo&gt;"><path id="_Tracciato_44" data-name="&lt;Tracciato&gt;" class="cls-23" d="M51.31,62.28c0-.11.06-.22.08-.32l-9.83-5.69a41,41,0,0,0-1.29,7.23l.23.19a44.43,44.43,0,0,1,1.28-6.92Z" transform="translate(-4.35 -10.15)"/><path id="_Tracciato_45" data-name="&lt;Tracciato&gt;" class="cls-5" d="M51.31,62.28c0-.11.06-.22.08-.32l-9.83-5.69a41,41,0,0,0-1.29,7.23l.23.19a44.43,44.43,0,0,1,1.28-6.92Z" transform="translate(-4.35 -10.15)"/><path id="_Tracciato_46" data-name="&lt;Tracciato&gt;" class="cls-23" d="M44.53,66.49a40.11,40.11,0,0,0,5.28,2.59l.31,0a62.36,62.36,0,0,1,1.19-6.85l-9.53-5.51a44.43,44.43,0,0,0-1.28,6.92h0A20.4,20.4,0,0,0,44.53,66.49Z" transform="translate(-4.35 -10.15)"/></g><polygon id="_Tracciato_47" data-name="&lt;Tracciato&gt;" class="cls-24" points="46.05 65.69 35.38 59.54 35.38 60.4 37.77 61.78 37.78 63.94 43.5 67.24 43.66 65.17 46.05 66.56 46.05 65.69"/><g id="_Gruppo_16" data-name="&lt;Gruppo&gt;"><polygon class="cls-22" points="56.65 44.37 55.2 43.53 49.84 46.62 52.74 46.62 56.65 44.37"/></g><g id="_Gruppo_17" data-name="&lt;Gruppo&gt;"><g id="_Gruppo_18" data-name="&lt;Gruppo&gt;"><path id="_Tracciato_48" data-name="&lt;Tracciato&gt;" class="cls-25" d="M53.6,61.53l5.16-3.06V70.19s-1.38.86-2.55,1.53c-1.68,1-2.1,3.56-2.21,4.16a1.31,1.31,0,0,1-.65.88l-2.22,1.31V71.89C51.13,69.79,52.27,62.29,53.6,61.53Z" transform="translate(-4.35 -10.15)"/></g><g id="_Gruppo_19" data-name="&lt;Gruppo&gt;"><path id="_Tracciato_49" data-name="&lt;Tracciato&gt;" class="cls-24" d="M52.3,67.48l.52-3.67a1,1,0,0,1,.45-.78l4.27-2.46c.24-.14.45,0,.45.26V61a.42.42,0,0,0-.15,0l-4.26,2.47a1,1,0,0,0-.45.77l-.49,3.47-.06,0C52.42,67.81,52.3,67.69,52.3,67.48Z" transform="translate(-4.35 -10.15)"/><path id="_Tracciato_50" data-name="&lt;Tracciato&gt;" class="cls-5" d="M52.3,67.48l.52-3.67a1,1,0,0,1,.45-.78l4.27-2.46c.24-.14.45,0,.45.26V61a.42.42,0,0,0-.15,0l-4.26,2.47a1,1,0,0,0-.45.77l-.49,3.47-.06,0C52.42,67.81,52.3,67.69,52.3,67.48Z" transform="translate(-4.35 -10.15)"/><path id="_Tracciato_51" data-name="&lt;Tracciato&gt;" class="cls-24" d="M53.58,63.53l4.26-2.47A.42.42,0,0,1,58,61v2.14a1,1,0,0,1-.37.7s0,.06-.08.07L55.17,65.3a1,1,0,0,0-.34.37l-.52,1A1,1,0,0,1,54,67l-1.22.7a.25.25,0,0,1-.11,0l.49-3.47A1,1,0,0,1,53.58,63.53Z" transform="translate(-4.35 -10.15)"/></g></g><polygon id="_Tracciato_52" data-name="&lt;Tracciato&gt;" class="cls-24" points="53.03 56.25 53.03 56.25 52.73 56.5 52.73 57.5 53.32 57.16 53.32 55.99 53.03 56.25"/><polygon id="_Tracciato_53" data-name="&lt;Tracciato&gt;" class="cls-26" points="46.19 68.2 43.5 66.65 43.5 65.26 46.19 66.82 46.19 68.2"/><polygon id="_Tracciato_54" data-name="&lt;Tracciato&gt;" class="cls-27" points="46.19 68.2 46.82 67.85 46.82 66.47 46.19 66.82 46.19 68.2"/><polygon id="_Tracciato_55" data-name="&lt;Tracciato&gt;" class="cls-28" points="45.89 66.65 46.52 66.3 46.82 66.47 46.19 66.82 45.89 66.65"/><polygon id="_Tracciato_56" data-name="&lt;Tracciato&gt;" class="cls-29" points="46.19 68.2 43.5 66.65 43.5 67.43 46.19 68.98 46.19 68.2"/><polygon id="_Tracciato_57" data-name="&lt;Tracciato&gt;" class="cls-30" points="46.19 69.41 46.82 69.06 46.82 68.63 46.19 68.98 46.19 69.41"/><polygon id="_Tracciato_58" data-name="&lt;Tracciato&gt;" class="cls-31" points="46.19 68.2 46.82 67.85 46.82 68.63 46.19 68.98 46.19 68.2"/><polygon id="_Tracciato_59" data-name="&lt;Tracciato&gt;" class="cls-30" points="46.19 69.41 43.5 67.85 43.5 67.43 46.19 68.98 46.19 69.41"/><polygon id="_Tracciato_60" data-name="&lt;Tracciato&gt;" class="cls-28" points="46.35 66.73 43.66 65.17 43.5 65.26 46.19 66.82 46.35 66.73"/><polygon id="_Tracciato_61" data-name="&lt;Tracciato&gt;" class="cls-28" points="34.92 60.32 35.38 60.06 35.38 60.4 35.22 60.49 34.92 60.32"/><g id="_Gruppo_20" data-name="&lt;Gruppo&gt;"><polygon id="_Tracciato_62" data-name="&lt;Tracciato&gt;" class="cls-30" points="37.78 64.55 35.38 63.16 35.38 62.73 37.62 64.03 37.78 63.94 37.78 64.55"/><polygon id="_Tracciato_63" data-name="&lt;Tracciato&gt;" class="cls-26" points="37.62 63.26 34.92 61.7 34.92 60.32 37.62 61.87 37.62 63.26"/><polygon id="_Tracciato_64" data-name="&lt;Tracciato&gt;" class="cls-29" points="37.62 63.26 34.92 61.7 34.92 62.48 37.62 64.03 37.62 63.26"/><polygon id="_Tracciato_65" data-name="&lt;Tracciato&gt;" class="cls-28" points="37.77 61.78 35.09 60.23 34.92 60.32 37.62 61.87 37.77 61.78"/><polygon id="_Tracciato_66" data-name="&lt;Tracciato&gt;" class="cls-28" points="37.77 61.78 37.78 63.94 37.62 64.03 37.62 61.87 37.77 61.78"/></g><g id="_Gruppo_21" data-name="&lt;Gruppo&gt;"><polygon id="_Tracciato_67" data-name="&lt;Tracciato&gt;" class="cls-32" points="60.27 59.12 114.44 27.84 114.44 10.74 60.27 42.02 60.27 59.12"/><polygon id="_Tracciato_68" data-name="&lt;Tracciato&gt;" class="cls-33" points="60.27 42.88 113.68 12.05 113.68 27.41 60.27 58.26 60.27 42.88"/><polygon id="_Tracciato_69" data-name="&lt;Tracciato&gt;" class="cls-18" points="60.27 42.88 113.05 12.41 113.05 26.96 60.27 57.43 60.27 42.88"/></g><rect id="_Rettangolo_" data-name="&lt;Rettangolo&gt;" class="cls-32" x="60.27" y="42.02" width="0.74" height="16.32"/></g><g id="truck_1"><g id="_Gruppo_22" data-name="&lt;Gruppo&gt;"><g id="_Gruppo_23" data-name="&lt;Gruppo&gt;"><path id="_Tracciato_70" data-name="&lt;Tracciato&gt;" class="cls-5" d="M173.74,56.56l-13.93-8c-.36-.21-10.17,4-10.53,4.18L83.83,90.51a.24.24,0,0,0,0,.42L99.61,100a.25.25,0,0,0,.24,0h14l49.41-28.52h-5.56l5.24-3h5.55l9.36-5.4C178.65,62.66,174.52,57,173.74,56.56Z" transform="translate(-4.35 -10.15)"/></g><g id="_Gruppo_24" data-name="&lt;Gruppo&gt;"><polygon id="_Tracciato_71" data-name="&lt;Tracciato&gt;" class="cls-34" points="138.81 42.84 149.65 49.07 149.65 33.03 138.81 26.81 138.81 42.84"/><polygon id="_Tracciato_72" data-name="&lt;Tracciato&gt;" class="cls-5" points="138.81 42.84 149.65 49.07 149.65 38.57 138.81 32.35 138.81 42.84"/><polygon id="_Tracciato_73" data-name="&lt;Tracciato&gt;" class="cls-34" points="145.97 48.81 147.91 49.94 148.77 48.56 145.98 46.96 145.97 48.81"/><polygon id="_Tracciato_74" data-name="&lt;Tracciato&gt;" class="cls-34" points="148.77 50.45 147.91 49.94 148.77 48.56 149.65 49.07 148.77 50.45"/><polygon id="_Tracciato_75" data-name="&lt;Tracciato&gt;" class="cls-5" points="145.97 48.81 147.91 49.94 148.77 48.56 145.98 46.96 145.97 48.81"/><polygon id="_Tracciato_76" data-name="&lt;Tracciato&gt;" class="cls-5" points="148.77 50.45 147.91 49.94 148.77 48.56 149.65 49.07 148.77 50.45"/></g><path id="_Tracciato_77" data-name="&lt;Tracciato&gt;" class="cls-15" d="M140.51,67.8l4.18,2.81a.71.71,0,0,1-.13-.48V67.4a1.78,1.78,0,0,1,.2-.67,1.21,1.21,0,0,1,.42-.42l-1-.6Z" transform="translate(-4.35 -10.15)"/><g id="_Gruppo_25" data-name="&lt;Gruppo&gt;"><g id="_Gruppo_26" data-name="&lt;Gruppo&gt;"><g id="_Gruppo_27" data-name="&lt;Gruppo&gt;"><path id="_Tracciato_78" data-name="&lt;Tracciato&gt;" class="cls-6" d="M121.72,81l-4.19,7s-1.32-.78-1.84-1.07a2,2,0,0,1-.87-1.88,6.37,6.37,0,0,1,2.89-5,2,2,0,0,1,2.16-.13Z" transform="translate(-4.35 -10.15)"/><path id="_Tracciato_79" data-name="&lt;Tracciato&gt;" class="cls-7" d="M121.3,83.43a3.8,3.8,0,0,1-1.72,3c-1,.55-1.72.1-1.72-1a3.8,3.8,0,0,1,1.72-3C120.53,81.89,121.3,82.33,121.3,83.43Z" transform="translate(-4.35 -10.15)"/><ellipse id="_Tracciato_80" data-name="&lt;Tracciato&gt;" class="cls-8" cx="119.14" cy="84.06" rx="2.43" ry="1.4" transform="translate(-17.58 135.06) rotate(-60)"/><path id="_Tracciato_composto_8" data-name="&lt;Tracciato composto&gt;" class="cls-9" d="M119.58,81.09a6.37,6.37,0,0,0-2.89,5c0,1.84,1.29,2.59,2.89,1.67a6.39,6.39,0,0,0,2.88-5C122.46,80.91,121.17,80.17,119.58,81.09Zm0,5.32c-1,.55-1.72.1-1.72-1a3.8,3.8,0,0,1,1.72-3c1-.55,1.72-.11,1.72,1A3.8,3.8,0,0,1,119.58,86.41Z" transform="translate(-4.35 -10.15)"/><path id="_Tracciato_81" data-name="&lt;Tracciato&gt;" class="cls-10" d="M119.69,83.74a1.22,1.22,0,0,1-.55,1c-.3.17-.55,0-.55-.32a1.25,1.25,0,0,1,.55-1C119.45,83.25,119.69,83.39,119.69,83.74Z" transform="translate(-4.35 -10.15)"/></g><g id="_Gruppo_28" data-name="&lt;Gruppo&gt;"><path id="_Tracciato_82" data-name="&lt;Tracciato&gt;" class="cls-6" d="M114.49,85.13l-4.19,7s-1.32-.78-1.85-1.07a2,2,0,0,1-.86-1.88,6.37,6.37,0,0,1,2.89-5,1.94,1.94,0,0,1,2.15-.13Z" transform="translate(-4.35 -10.15)"/><ellipse id="_Tracciato_83" data-name="&lt;Tracciato&gt;" class="cls-7" cx="112.34" cy="88.6" rx="2.43" ry="1.4" transform="translate(-24.91 131.44) rotate(-60)"/><ellipse id="_Tracciato_84" data-name="&lt;Tracciato&gt;" class="cls-8" cx="111.91" cy="88.24" rx="2.43" ry="1.4" transform="translate(-24.81 130.89) rotate(-60)"/><path id="_Tracciato_composto_9" data-name="&lt;Tracciato composto&gt;" class="cls-9" d="M112.34,85.27a6.39,6.39,0,0,0-2.88,5c0,1.84,1.29,2.59,2.88,1.66a6.37,6.37,0,0,0,2.89-5C115.23,85.09,113.94,84.34,112.34,85.27Zm0,5.32c-1,.54-1.72.1-1.72-1a3.82,3.82,0,0,1,1.72-3c1-.54,1.72-.1,1.72,1A3.82,3.82,0,0,1,112.34,90.59Z" transform="translate(-4.35 -10.15)"/><path id="_Tracciato_85" data-name="&lt;Tracciato&gt;" class="cls-10" d="M112.46,87.92a1.21,1.21,0,0,1-.55,1c-.3.18-.55,0-.55-.32a1.23,1.23,0,0,1,.55-1C112.21,87.42,112.46,87.57,112.46,87.92Z" transform="translate(-4.35 -10.15)"/></g><g id="_Gruppo_29" data-name="&lt;Gruppo&gt;"><path id="_Tracciato_86" data-name="&lt;Tracciato&gt;" class="cls-6" d="M107.25,89.27l-4.19,7-1.84-1.06a2,2,0,0,1-.87-1.88,6.43,6.43,0,0,1,2.89-5,2,2,0,0,1,2.16-.12Z" transform="translate(-4.35 -10.15)"/><ellipse id="_Tracciato_87" data-name="&lt;Tracciato&gt;" class="cls-7" cx="105.11" cy="92.74" rx="2.43" ry="1.4" transform="translate(-32.11 127.25) rotate(-60)"/><path id="_Tracciato_88" data-name="&lt;Tracciato&gt;" class="cls-8" d="M106.39,91.38a3.8,3.8,0,0,1-1.72,3c-1,.55-1.72.1-1.72-1a3.8,3.8,0,0,1,1.72-3C105.62,89.84,106.39,90.28,106.39,91.38Z" transform="translate(-4.35 -10.15)"/><path id="_Tracciato_composto_10" data-name="&lt;Tracciato composto&gt;" class="cls-9" d="M105.11,89.4a6.37,6.37,0,0,0-2.89,5c0,1.85,1.29,2.59,2.89,1.67a6.4,6.4,0,0,0,2.89-5C108,89.23,106.7,88.48,105.11,89.4Zm0,5.32c-1,.55-1.72.11-1.72-1a3.8,3.8,0,0,1,1.72-3c1-.55,1.72-.1,1.72,1A3.8,3.8,0,0,1,105.11,94.72Z" transform="translate(-4.35 -10.15)"/><path id="_Tracciato_89" data-name="&lt;Tracciato&gt;" class="cls-10" d="M105.22,92.05a1.21,1.21,0,0,1-.55,1c-.3.17-.55,0-.55-.32a1.21,1.21,0,0,1,.55-1C105,91.56,105.22,91.7,105.22,92.05Z" transform="translate(-4.35 -10.15)"/></g></g><g id="_Gruppo_30" data-name="&lt;Gruppo&gt;"><path id="_Tracciato_90" data-name="&lt;Tracciato&gt;" class="cls-6" d="M159.29,59.24l-4.19,7s-1.32-.78-1.85-1.07a2,2,0,0,1-.86-1.88,6.37,6.37,0,0,1,2.89-5,1.94,1.94,0,0,1,2.15-.13Z" transform="translate(-4.35 -10.15)"/><path id="_Tracciato_91" data-name="&lt;Tracciato&gt;" class="cls-7" d="M158.86,61.72a3.78,3.78,0,0,1-1.72,3c-.95.55-1.72.11-1.72-1a3.8,3.8,0,0,1,1.72-3C158.09,60.18,158.86,60.62,158.86,61.72Z" transform="translate(-4.35 -10.15)"/><ellipse id="_Tracciato_92" data-name="&lt;Tracciato&gt;" class="cls-8" cx="156.71" cy="62.34" rx="2.43" ry="1.4" transform="translate(20.01 156.74) rotate(-60)"/><path id="_Tracciato_composto_11" data-name="&lt;Tracciato composto&gt;" class="cls-9" d="M157.14,59.37a6.39,6.39,0,0,0-2.88,5c0,1.84,1.29,2.58,2.88,1.66A6.37,6.37,0,0,0,160,61C160,59.2,158.74,58.45,157.14,59.37Zm0,5.32c-.95.55-1.72.11-1.72-1a3.8,3.8,0,0,1,1.72-3c1-.54,1.72-.1,1.72,1A3.78,3.78,0,0,1,157.14,64.69Z" transform="translate(-4.35 -10.15)"/><path id="_Tracciato_93" data-name="&lt;Tracciato&gt;" class="cls-10" d="M157.26,62a1.21,1.21,0,0,1-.55.95c-.3.18-.55,0-.55-.32a1.21,1.21,0,0,1,.55-.95C157,61.53,157.26,61.68,157.26,62Z" transform="translate(-4.35 -10.15)"/></g><g id="_Gruppo_31" data-name="&lt;Gruppo&gt;"><path id="_Tracciato_94" data-name="&lt;Tracciato&gt;" class="cls-6" d="M143.62,68.27l-4.19,7s-1.32-.78-1.84-1.07a2,2,0,0,1-.87-1.88,6.37,6.37,0,0,1,2.89-5,2,2,0,0,1,2.16-.13Z" transform="translate(-4.35 -10.15)"/><path id="_Tracciato_95" data-name="&lt;Tracciato&gt;" class="cls-7" d="M143.2,70.75a3.78,3.78,0,0,1-1.72,3c-.95.55-1.72.11-1.72-1a3.82,3.82,0,0,1,1.72-3C142.43,69.21,143.2,69.65,143.2,70.75Z" transform="translate(-4.35 -10.15)"/><path id="_Tracciato_96" data-name="&lt;Tracciato&gt;" class="cls-8" d="M142.76,70.38a3.8,3.8,0,0,1-1.72,3c-.95.55-1.72.1-1.72-1a3.8,3.8,0,0,1,1.72-3C142,68.84,142.76,69.29,142.76,70.38Z" transform="translate(-4.35 -10.15)"/><path id="_Tracciato_composto_12" data-name="&lt;Tracciato composto&gt;" class="cls-9" d="M141.48,68.4a6.37,6.37,0,0,0-2.89,5c0,1.84,1.29,2.58,2.89,1.66a6.39,6.39,0,0,0,2.88-5C144.36,68.23,143.07,67.48,141.48,68.4Zm0,5.32c-.95.55-1.72.11-1.72-1a3.82,3.82,0,0,1,1.72-3c1-.54,1.72-.1,1.72,1A3.78,3.78,0,0,1,141.48,73.72Z" transform="translate(-4.35 -10.15)"/><path id="_Tracciato_97" data-name="&lt;Tracciato&gt;" class="cls-10" d="M141.59,71.06a1.19,1.19,0,0,1-.55,1c-.3.18-.55,0-.55-.32a1.21,1.21,0,0,1,.55-1C141.35,70.56,141.59,70.71,141.59,71.06Z" transform="translate(-4.35 -10.15)"/></g></g><g id="_Gruppo_32" data-name="&lt;Gruppo&gt;"><path id="_Tracciato_98" data-name="&lt;Tracciato&gt;" class="cls-7" d="M123.28,80.69l14.55-8.39a6.76,6.76,0,0,1,1.46-3.4V67.76L121.65,77.94Z" transform="translate(-4.35 -10.15)"/><g id="_Gruppo_33" data-name="&lt;Gruppo&gt;"><path id="_Tracciato_composto_13" data-name="&lt;Tracciato composto&gt;" class="cls-12" d="M132.3,73.16V71.25l-.84.49v1.91l-5.19,3V74.74l-1,.57v1.91l-1.85,1.06v3.87l.74.38,10.49-6V72.61l-.74-.38Zm-.84,1.51v2.14l-5.32,3.07V77.75Zm-7.24,4.1,1-.6v2.21l-1,.6Zm9.26-3.14-1.16.72v-2.3l1.16-.71Z" transform="translate(-4.35 -10.15)"/><path id="_Tracciato_composto_14" data-name="&lt;Tracciato composto&gt;" class="cls-11" d="M132.8,73.67V71.76l-.61.36V74l-5.57,3.21V75.33l-.62.36V77.6l-1.84,1.06v3.87l10.49-6V72.61Zm-.61,1.07v2.45l-5.57,3.21V78ZM125,78.91l1-.6v2.45l-1,.6ZM134.22,76l-1.42.81V74.38l1.42-.82Z" transform="translate(-4.35 -10.15)"/></g></g><path id="_Tracciato_99" data-name="&lt;Tracciato&gt;" class="cls-13" d="M153.92,61.06a10.47,10.47,0,0,0-1.26,5.23l-7.45,4.3c-.34.2-.65.14-.65-.46V67.4a1.4,1.4,0,0,1,.62-1.09c.58-.34,7.85-4.43,7.85-4.43S153.65,60.74,153.92,61.06Z" transform="translate(-4.35 -10.15)"/><path id="_Tracciato_100" data-name="&lt;Tracciato&gt;" class="cls-14" d="M153.92,61.06l-3.6-2.1s-5.84,6.55-6.18,6.75l1,.6c.58-.34,7.85-4.43,7.85-4.43S153.65,60.74,153.92,61.06Z" transform="translate(-4.35 -10.15)"/><g id="_Gruppo_34" data-name="&lt;Gruppo&gt;"><polygon id="_Tracciato_101" data-name="&lt;Tracciato&gt;" class="cls-20" points="148.4 22.93 158.08 28.51 157.88 28.75 146.66 22.29 148.4 22.93"/><polygon id="_Tracciato_102" data-name="&lt;Tracciato&gt;" class="cls-35" points="138.81 26.81 146.66 22.27 157.49 28.5 149.64 33.04 138.81 26.81"/><g id="_Gruppo_35" data-name="&lt;Gruppo&gt;"><path id="_Tracciato_103" data-name="&lt;Tracciato&gt;" class="cls-34" d="M152.52,42.34V40l-7.85-4.52a5.66,5.66,0,0,0-.45,1.92l.45.26v.18Z" transform="translate(-4.35 -10.15)"/><polygon id="_Tracciato_104" data-name="&lt;Tracciato&gt;" class="cls-35" points="150.14 28.69 142.29 24.18 145.75 24.54 153.6 29.05 150.14 28.69"/><polygon id="_Tracciato_105" data-name="&lt;Tracciato&gt;" class="cls-35" points="150.14 28.69 142.28 24.18 140.31 25.32 148.16 29.83 150.14 28.69"/><polygon id="_Tracciato_106" data-name="&lt;Tracciato&gt;" class="cls-19" points="148.17 32.19 148.17 31.54 153.6 29.05 148.17 32.19"/><path id="_Tracciato_107" data-name="&lt;Tracciato&gt;" class="cls-19" d="M152.52,40l2-1.14c1-.61,3.47.36,3.47.36l-5.89,2.69A5.57,5.57,0,0,1,152.52,40Z" transform="translate(-4.35 -10.15)"/></g></g><g id="_Gruppo_36" data-name="&lt;Gruppo&gt;"><path id="_Tracciato_108" data-name="&lt;Tracciato&gt;" class="cls-12" d="M121,80.78l1.68,1.11c-.36-1.91-1.49-2-1.69-2l-1.23.71Z" transform="translate(-4.35 -10.15)"/><g id="_Gruppo_37" data-name="&lt;Gruppo&gt;"><path id="_Tracciato_109" data-name="&lt;Tracciato&gt;" class="cls-12" d="M83.75,87.15a12.08,12.08,0,0,0-1,3.24L87,92.92l1-3.28Z" transform="translate(-4.35 -10.15)"/><path id="_Tracciato_110" data-name="&lt;Tracciato&gt;" class="cls-11" d="M89.4,87.43l.82-.47a10.6,10.6,0,0,0-2.74,5.8l-.45.16A11.42,11.42,0,0,1,89.4,87.43Z" transform="translate(-4.35 -10.15)"/></g><path id="_Tracciato_111" data-name="&lt;Tracciato&gt;" class="cls-11" d="M101.61,90.68l19.55-11.29c.23,0,1.5.11,1.9,2.21l-.36.29c-.36-1.91-1.49-2-1.69-2L101.76,91a8.36,8.36,0,0,0-1.69,4l-.36.13A9.12,9.12,0,0,1,101.61,90.68Z" transform="translate(-4.35 -10.15)"/><path id="_Tracciato_112" data-name="&lt;Tracciato&gt;" class="cls-12" d="M101.61,90.68l19.55-11.29a1.59,1.59,0,0,1,.88.31,5.23,5.23,0,0,0-1.07-.62L98.73,91.92s-.76.26-1.35,1.81l2.33,1.35A9.12,9.12,0,0,1,101.61,90.68Z" transform="translate(-4.35 -10.15)"/><path id="_Tracciato_113" data-name="&lt;Tracciato&gt;" class="cls-12" d="M95.32,93.89l-3.06-1.78a12.08,12.08,0,0,0-1,3.24l4.26,2.53a14.54,14.54,0,0,1,2.37-5.49Z" transform="translate(-4.35 -10.15)"/><path id="_Tracciato_114" data-name="&lt;Tracciato&gt;" class="cls-11" d="M97.91,92.39l.82-.47A10.6,10.6,0,0,0,96,97.72l-.45.16A11.42,11.42,0,0,1,97.91,92.39Z" transform="translate(-4.35 -10.15)"/></g><g id="_Gruppo_38" data-name="&lt;Gruppo&gt;"><polygon id="_Tracciato_115" data-name="&lt;Tracciato&gt;" class="cls-14" points="78.75 76.05 90.47 82.87 90.48 66.92 78.73 60.14 78.75 76.05"/></g><g id="_Gruppo_39" data-name="&lt;Gruppo&gt;"><polygon id="_Tracciato_116" data-name="&lt;Tracciato&gt;" class="cls-14" points="90.47 82.87 90.48 66.92 78.73 60.14 90.47 82.87"/></g><polygon id="_Tracciato_117" data-name="&lt;Tracciato&gt;" class="cls-36" points="90.47 82.87 78.75 76.05 90.48 69.29 90.47 82.87"/><polygon id="_Tracciato_118" data-name="&lt;Tracciato&gt;" class="cls-5" points="90.47 76.05 78.75 76.05 90.48 69.29 90.47 76.05"/><path id="_Tracciato_composto_15" data-name="&lt;Tracciato composto&gt;" class="cls-37" d="M82.58,69.42V86.48l12.73,7.41V76.78ZM94.82,93,83.1,86.19l0-15.9,11.75,6.78Z" transform="translate(-4.35 -10.15)"/><g id="_Gruppo_40" data-name="&lt;Gruppo&gt;"><g id="_Gruppo_41" data-name="&lt;Gruppo&gt;"><polygon id="_Tracciato_119" data-name="&lt;Tracciato&gt;" class="cls-21" points="91 85.91 78.38 78.61 78.38 77.07 91 84.37 91 85.91"/><polygon id="_Tracciato_120" data-name="&lt;Tracciato&gt;" class="cls-21" points="91.38 84.13 78.76 76.83 78.38 77.07 91 84.37 91.38 84.13"/><polygon id="_Tracciato_121" data-name="&lt;Tracciato&gt;" class="cls-19" points="91 85.91 91.38 85.66 91.38 84.13 91 84.37 91 85.91"/></g><g id="_Gruppo_42" data-name="&lt;Gruppo&gt;"><polygon id="_Tracciato_122" data-name="&lt;Tracciato&gt;" class="cls-38" points="90.55 85.45 87.88 83.91 87.88 82.76 90.55 84.3 90.55 85.45"/><polygon id="_Tracciato_123" data-name="&lt;Tracciato&gt;" class="cls-39" points="90.25 85.11 89.56 84.71 89.56 83.9 90.25 84.3 90.25 85.11"/><polygon id="_Tracciato_124" data-name="&lt;Tracciato&gt;" class="cls-38" points="78.83 78.68 81.5 80.22 81.5 79.07 78.83 77.53 78.83 78.68"/><polygon id="_Tracciato_125" data-name="&lt;Tracciato&gt;" class="cls-39" points="79.12 78.68 79.81 79.08 79.81 78.27 79.12 77.87 79.12 78.68"/></g></g><g id="_Gruppo_43" data-name="&lt;Gruppo&gt;"><g id="_Gruppo_44" data-name="&lt;Gruppo&gt;"><polygon id="_Tracciato_126" data-name="&lt;Tracciato&gt;" class="cls-40" points="71.5 72.83 77.86 76.51 77.84 59.44 71.46 55.81 71.5 72.83"/><polygon id="_Tracciato_127" data-name="&lt;Tracciato&gt;" class="cls-37" points="72.26 72.39 72.22 57.11 77.09 59.88 77.1 75.19 72.26 72.39"/></g><g id="_Gruppo_45" data-name="&lt;Gruppo&gt;"><polygon id="_Tracciato_128" data-name="&lt;Tracciato&gt;" class="cls-17" points="71.87 55.59 78.22 59.27 77.84 59.44 71.46 55.81 71.87 55.59"/></g><g id="_Gruppo_46" data-name="&lt;Gruppo&gt;"><polygon id="_Tracciato_129" data-name="&lt;Tracciato&gt;" class="cls-41" points="78.22 76.29 77.86 76.51 77.84 59.44 78.22 59.27 78.22 76.29"/></g></g><polygon id="_Tracciato_130" data-name="&lt;Tracciato&gt;" class="cls-42" points="150.13 44.85 156.78 48.69 156.78 45.28 150.13 41.45 150.13 44.85"/><g id="_Gruppo_47" data-name="&lt;Gruppo&gt;"><path id="_Tracciato_131" data-name="&lt;Tracciato&gt;" class="cls-19" d="M161.85,38.64,154,43.17v16l4.36-2.52c2-1.14,2.48,1.33,2.6,1.9s.77.15.77.15l3-1.75V47.51C164.77,45,163.42,37.74,161.85,38.64Z" transform="translate(-4.35 -10.15)"/></g><g id="_Gruppo_48" data-name="&lt;Gruppo&gt;"><path id="_Tracciato_132" data-name="&lt;Tracciato&gt;" class="cls-25" d="M161.89,40.42l-5.17,2.91V55.05s1-.52,2.21-1.2c1.68-1,2.1,1.13,2.2,1.61s.65.13.65.13l2.58-1.48V47.93C164.36,45.83,163.21,39.65,161.89,40.42Z" transform="translate(-4.35 -10.15)"/></g><g id="_Gruppo_49" data-name="&lt;Gruppo&gt;"><polygon id="_Tracciato_133" data-name="&lt;Tracciato&gt;" class="cls-24" points="153.73 41.19 154.37 40.82 154.37 39.72 153.73 39.91 153.73 41.19"/></g><g id="_Gruppo_50" data-name="&lt;Gruppo&gt;"><path id="_Tracciato_134" data-name="&lt;Tracciato&gt;" class="cls-24" d="M163.18,44.87l-.52-3.06c0-.29-.2-.4-.45-.26L158,44a1,1,0,0,0-.45.78V45a.53.53,0,0,1,.14-.12l4.26-2.46c.25-.14.45,0,.45.26l.5,2.9.06-.05A1,1,0,0,0,163.18,44.87Z" transform="translate(-4.35 -10.15)"/><path id="_Tracciato_135" data-name="&lt;Tracciato&gt;" class="cls-5" d="M163.18,44.87l-.52-3.06c0-.29-.2-.4-.45-.26L158,44a1,1,0,0,0-.45.78V45a.53.53,0,0,1,.14-.12l4.26-2.46c.25-.14.45,0,.45.26l.5,2.9.06-.05A1,1,0,0,0,163.18,44.87Z" transform="translate(-4.35 -10.15)"/><path id="_Tracciato_136" data-name="&lt;Tracciato&gt;" class="cls-24" d="M161.9,42.4l-4.26,2.46a.53.53,0,0,0-.14.12v2.14c0,.25.16.36.36.28l.09,0L160.32,46a.29.29,0,0,1,.33,0l.53.38c.08.07.2.06.33,0l1.22-.7a.94.94,0,0,0,.12-.09l-.5-2.9C162.35,42.37,162.15,42.26,161.9,42.4Z" transform="translate(-4.35 -10.15)"/></g><polygon id="_Tracciato_137" data-name="&lt;Tracciato&gt;" class="cls-43" points="133.22 27.5 145.97 34.87 90.98 66.63 78.22 59.27 133.22 27.5"/><path id="_Tracciato_138" data-name="&lt;Tracciato&gt;" class="cls-5" d="M158,39.2l-5.44,3.14h2.42l2.64-1.53C158.89,40.05,158,39.2,158,39.2Z" transform="translate(-4.35 -10.15)"/><path class="cls-44" d="M90.75,77.43a.14.14,0,0,1,0,.09c0,.11-.15.21-.35.21s-.35-.09-.35-.21a.13.13,0,0,1,0-.1.39.39,0,0,1,.31-.12A.4.4,0,0,1,90.75,77.43Z" transform="translate(-4.35 -10.15)"/><path class="cls-45" d="M91.62,76.09h-.49s0,0,0,0a5.47,5.47,0,0,0-.61.13.74.74,0,0,0-.4.17,1.42,1.42,0,0,0-.52.39.76.76,0,0,0-.2.5c0,.43.43.82,1.08,1a2.31,2.31,0,0,0,.47.11,1.45,1.45,0,0,0,.3,0l.22,0h.17a3.37,3.37,0,0,0,1.62-.37,1.8,1.8,0,0,0,.37-.28.82.82,0,0,0,.25-.56C93.86,76.63,92.86,76.09,91.62,76.09ZM90.43,78c-.26,0-.47-.12-.47-.28a1.77,1.77,0,0,1,0-.23h0c0-.15.22-.26.46-.26s.44.12.46.26h0a1.61,1.61,0,0,1,0,.22C90.9,77.88,90.69,78,90.43,78Z" transform="translate(-4.35 -10.15)"/><path class="cls-46" d="M90.9,77.72c0,.16-.21.28-.47.28s-.47-.12-.47-.28a1.77,1.77,0,0,1,0-.23h0c0-.15.22-.26.46-.26s.44.12.46.26h0A1.61,1.61,0,0,1,90.9,77.72Zm-.12-.2a.14.14,0,0,0,0-.09.4.4,0,0,0-.32-.13.39.39,0,0,0-.31.12.13.13,0,0,0,0,.1c0,.12.16.21.35.21S90.78,77.63,90.78,77.52Z" transform="translate(-4.35 -10.15)"/><path class="cls-47" d="M93.36,76.35a3.64,3.64,0,0,0-1.91-.42h-.22l-.33,0a2.92,2.92,0,0,0-1,.36l-.27.18a1.33,1.33,0,0,0-.28.31.83.83,0,0,0-.17.48v.07a1.23,1.23,0,0,0,.72,1l.25.12a3.11,3.11,0,0,0,.46.16,3,3,0,0,0,.52.1l.16,0h.2a3.62,3.62,0,0,0,1.91-.42,2.11,2.11,0,0,0,.29-.2,1.24,1.24,0,0,0,.27-.3.88.88,0,0,0,.16-.47v-.07A1.2,1.2,0,0,0,93.36,76.35Zm-2.13,2.26a.29.29,0,0,1,0-.1Zm.39-.1h-.17l-.22,0a1.45,1.45,0,0,1-.3,0,2.31,2.31,0,0,1-.47-.11c-.65-.21-1.08-.6-1.08-1a.76.76,0,0,1,.2-.5,1.42,1.42,0,0,1,.52-.39,2.4,2.4,0,0,1,.4-.17,5.47,5.47,0,0,1,.61-.13h.51c1.24,0,2.24.54,2.24,1.21a.82.82,0,0,1-.25.56,1.8,1.8,0,0,1-.37.28A3.37,3.37,0,0,1,91.62,78.51Z" transform="translate(-4.35 -10.15)"/><path class="cls-48" d="M89.14,78.84v0Z" transform="translate(-4.35 -10.15)"/><path class="cls-48" d="M89.14,81.35v0Z" transform="translate(-4.35 -10.15)"/><path class="cls-49" d="M93.58,80.37l-.14.09-.15.08v2.13h0a1.53,1.53,0,0,0,.78-1.32h0V79.87A1.63,1.63,0,0,1,93.58,80.37Z" transform="translate(-4.35 -10.15)"/><path class="cls-49" d="M93.84,82.68a1.65,1.65,0,0,1-.39.29l-.16.08v2l.08,0a1.26,1.26,0,0,0,.72-1V82.38A1.42,1.42,0,0,1,93.84,82.68Z" transform="translate(-4.35 -10.15)"/><path class="cls-45" d="M93.29,78.4a3.69,3.69,0,0,1-1.84.38h-.2l-.16,0a3,3,0,0,1-.52-.1,3.11,3.11,0,0,1-.46-.16l-.25-.12a1.23,1.23,0,0,1-.72-1V80.7s0,1,0,1.59h0V84a1.23,1.23,0,0,0,.72,1,3.88,3.88,0,0,0,3.42,0v-2h0c0-.5,0-1,0-1Z" transform="translate(-4.35 -10.15)"/><path class="cls-49" d="M94.07,78.83h0V77.39a.88.88,0,0,1-.16.47,1.24,1.24,0,0,1-.27.3,2.11,2.11,0,0,1-.29.2l-.07,0v1.76A1.48,1.48,0,0,0,94.07,78.83Z" transform="translate(-4.35 -10.15)"/><path class="cls-50" d="M94.25,81.78c0-.31-.13-.41-.16-.43h0a1.53,1.53,0,0,1-.78,1.32h0v.38l.16-.08a1.65,1.65,0,0,0,.39-.29,1.42,1.42,0,0,0,.25-.3,1,1,0,0,0,.16-.52Z" transform="translate(-4.35 -10.15)"/><path class="cls-50" d="M93.29,80.16v.38l.15-.08.14-.09a1.63,1.63,0,0,0,.51-.5,1.1,1.1,0,0,0,.16-.53v-.08c0-.3-.13-.4-.17-.42h0A1.48,1.48,0,0,1,93.29,80.16Z" transform="translate(-4.35 -10.15)"/><path class="cls-47" d="M89.78,80.46a3,3,0,0,0,.81.32l.48.09h.16l.23,0h.15a4,4,0,0,0,1.48-.27l.2-.09a.25.25,0,0,0,.1-.19.23.23,0,0,0-.1-.19h0l-.26.14a3.13,3.13,0,0,1-.54.19,3.88,3.88,0,0,1-1,.1h-.23l-.31,0a2.87,2.87,0,0,1-1-.36,1.76,1.76,0,0,1-.8-1.22s0-.09,0-.12v-.1s-.1,0-.14.23v0a1.63,1.63,0,0,0,0,.34,1.88,1.88,0,0,0,.14.42A1.5,1.5,0,0,0,89.78,80.46Z" transform="translate(-4.35 -10.15)"/><path class="cls-47" d="M89.78,83a3,3,0,0,0,.81.31,4,4,0,0,0,.48.09l.16,0h.38a4.18,4.18,0,0,0,1.48-.26,1.24,1.24,0,0,0,.2-.1.25.25,0,0,0,.1-.19.23.23,0,0,0-.1-.19v0l-.26.14a3.11,3.11,0,0,1-.54.18,3.5,3.5,0,0,1-1,.1h-.23l-.31,0a2.87,2.87,0,0,1-1-.36,1.72,1.72,0,0,1-.8-1.22s0-.08,0-.12v-.1s-.1,0-.14.23v0a1.63,1.63,0,0,0,0,.34,1.73,1.73,0,0,0,.14.42A1.51,1.51,0,0,0,89.78,83Z" transform="translate(-4.35 -10.15)"/><path class="cls-44" d="M94.56,79.42a.16.16,0,0,1,0,.09c0,.12-.15.22-.35.22s-.35-.1-.35-.22a.12.12,0,0,1,0-.09.39.39,0,0,1,.31-.12A.43.43,0,0,1,94.56,79.42Z" transform="translate(-4.35 -10.15)"/><path class="cls-45" d="M95.43,78.09h-.17l-.22,0h-.1s0,0,0,0a3.87,3.87,0,0,0-.61.13.72.72,0,0,0-.4.16,1.54,1.54,0,0,0-.52.39.76.76,0,0,0-.2.5c0,.44.43.83,1.09,1a4.46,4.46,0,0,0,.46.11l.3,0h.39a3.37,3.37,0,0,0,1.62-.38,1.77,1.77,0,0,0,.37-.27.82.82,0,0,0,.25-.56C97.67,78.63,96.67,78.09,95.43,78.09ZM94.24,80c-.26,0-.47-.13-.47-.28a1.92,1.92,0,0,1,0-.24h0c0-.14.22-.25.46-.25s.44.11.46.26h0a1.77,1.77,0,0,1,0,.23C94.71,79.87,94.5,80,94.24,80Z" transform="translate(-4.35 -10.15)"/><path class="cls-46" d="M94.71,79.72c0,.15-.21.28-.47.28s-.47-.13-.47-.28a1.92,1.92,0,0,1,0-.24h0c0-.14.22-.25.46-.25s.44.11.46.26h0A1.77,1.77,0,0,1,94.71,79.72Zm-.12-.21a.16.16,0,0,0,0-.09.43.43,0,0,0-.32-.12.39.39,0,0,0-.31.12.12.12,0,0,0,0,.09c0,.12.16.22.35.22S94.59,79.63,94.59,79.51Z" transform="translate(-4.35 -10.15)"/><path class="cls-47" d="M97.17,78.34a3.63,3.63,0,0,0-1.91-.41H95l-.33,0a3.14,3.14,0,0,0-1,.37,1.27,1.27,0,0,0-.27.18,1.3,1.3,0,0,0-.28.3.86.86,0,0,0-.17.49v.07a1.23,1.23,0,0,0,.72,1l.25.13c.14.06.3.11.46.16a4.35,4.35,0,0,0,.52.1h.16l.2,0a3.71,3.71,0,0,0,1.91-.42,2.11,2.11,0,0,0,.29-.2,1.6,1.6,0,0,0,.28-.31.93.93,0,0,0,.15-.47v-.07A1.23,1.23,0,0,0,97.17,78.34ZM95,80.61a.27.27,0,0,1,0-.1Zm.39-.1H95l-.3,0a4.46,4.46,0,0,1-.46-.11c-.66-.21-1.09-.6-1.09-1a.76.76,0,0,1,.2-.5,1.54,1.54,0,0,1,.52-.39,3.7,3.7,0,0,1,.4-.16,3.87,3.87,0,0,1,.61-.13H95l.22,0h.17c1.24,0,2.24.54,2.24,1.21a.82.82,0,0,1-.25.56,1.77,1.77,0,0,1-.37.27A3.37,3.37,0,0,1,95.43,80.51Z" transform="translate(-4.35 -10.15)"/><path class="cls-48" d="M93,80.83v0Z" transform="translate(-4.35 -10.15)"/><path class="cls-48" d="M93,83.35v0Z" transform="translate(-4.35 -10.15)"/><path class="cls-49" d="M97.4,82.37l-.14.09-.16.08v2.13h0a1.52,1.52,0,0,0,.78-1.32h0V81.87A2,2,0,0,1,97.4,82.37Z" transform="translate(-4.35 -10.15)"/><path class="cls-49" d="M97.65,84.68a2,2,0,0,1-.39.29l-.16.08v2l.08,0a1.23,1.23,0,0,0,.72-1V84.38A1.42,1.42,0,0,1,97.65,84.68Z" transform="translate(-4.35 -10.15)"/><path class="cls-45" d="M97.1,80.39a3.69,3.69,0,0,1-1.84.39l-.2,0H94.9a4.35,4.35,0,0,1-.52-.1c-.16-.05-.32-.1-.46-.16l-.25-.13a1.23,1.23,0,0,1-.72-1V82.7s0,1,0,1.58h0V86a1.23,1.23,0,0,0,.72,1,3.88,3.88,0,0,0,3.42,0v-2h0V80.39Z" transform="translate(-4.35 -10.15)"/><path class="cls-49" d="M97.88,80.83h0V79.38a.93.93,0,0,1-.15.47,1.6,1.6,0,0,1-.28.31,2.11,2.11,0,0,1-.29.2l-.07,0v1.77A1.48,1.48,0,0,0,97.88,80.83Z" transform="translate(-4.35 -10.15)"/><path class="cls-50" d="M98.07,83.77c0-.3-.13-.4-.17-.42h0a1.52,1.52,0,0,1-.78,1.32h0v.38l.16-.08a2,2,0,0,0,.39-.29,1.42,1.42,0,0,0,.25-.3,1.11,1.11,0,0,0,.17-.53Z" transform="translate(-4.35 -10.15)"/><path class="cls-50" d="M97.1,82.16v.38l.16-.08.14-.09a2,2,0,0,0,.5-.5,1.16,1.16,0,0,0,.16-.53v-.08c0-.3-.13-.4-.17-.42h0A1.48,1.48,0,0,1,97.1,82.16Z" transform="translate(-4.35 -10.15)"/><path class="cls-47" d="M93.59,82.46a3,3,0,0,0,.81.32,4,4,0,0,0,.48.08l.16,0h.38a4,4,0,0,0,1.48-.27l.2-.09a.28.28,0,0,0,.1-.2.2.2,0,0,0-.1-.18h0l-.26.14a3.13,3.13,0,0,1-.54.19,3.47,3.47,0,0,1-1,.09H95l-.31,0a2.51,2.51,0,0,1-1-.36A1.73,1.73,0,0,1,93,81s0-.09,0-.13v-.1s-.1,0-.14.23v0a1.63,1.63,0,0,0,0,.34,1.73,1.73,0,0,0,.14.42A1.51,1.51,0,0,0,93.59,82.46Z" transform="translate(-4.35 -10.15)"/><path class="cls-47" d="M93.59,85a3,3,0,0,0,.81.32,4,4,0,0,0,.48.09H95l.23,0h.15a4,4,0,0,0,1.48-.27l.2-.09a.25.25,0,0,0,.1-.19.23.23,0,0,0-.1-.19h0l-.26.14a3.13,3.13,0,0,1-.54.19,3.84,3.84,0,0,1-1,.1H95l-.31,0a2.69,2.69,0,0,1-1-.37,1.73,1.73,0,0,1-.8-1.21s0-.09,0-.12v-.11s-.1,0-.14.23v0a1.63,1.63,0,0,0,0,.34,2.07,2.07,0,0,0,.14.42A1.5,1.5,0,0,0,93.59,85Z" transform="translate(-4.35 -10.15)"/><path class="cls-44" d="M98.54,81.47a.11.11,0,0,1,0,.09c0,.12-.16.21-.35.21s-.36-.09-.36-.21a.18.18,0,0,1,0-.1.43.43,0,0,1,.32-.12A.36.36,0,0,1,98.54,81.47Z" transform="translate(-4.35 -10.15)"/><path class="cls-45" d="M99.41,80.13h-.5a3.42,3.42,0,0,0-.61.14.68.68,0,0,0-.41.16,1.65,1.65,0,0,0-.52.39.76.76,0,0,0-.2.5c0,.44.44.82,1.09,1a3.09,3.09,0,0,0,.46.12l.3,0h.4a3.36,3.36,0,0,0,1.61-.37,1.56,1.56,0,0,0,.37-.28.83.83,0,0,0,.26-.56C101.66,80.67,100.65,80.13,99.41,80.13ZM98.23,82c-.26,0-.47-.12-.47-.28a1.77,1.77,0,0,1,0-.23h0c0-.15.22-.25.47-.26s.44.12.46.26h0a1.62,1.62,0,0,1,0,.22C98.69,81.92,98.48,82,98.23,82Z" transform="translate(-4.35 -10.15)"/><path class="cls-46" d="M98.69,81.76c0,.16-.21.28-.46.28s-.47-.12-.47-.28a1.77,1.77,0,0,1,0-.23h0c0-.15.22-.25.47-.26s.44.12.46.26h0A1.62,1.62,0,0,1,98.69,81.76Zm-.11-.2a.11.11,0,0,0,0-.09.36.36,0,0,0-.31-.13.43.43,0,0,0-.32.12.18.18,0,0,0,0,.1c0,.12.16.21.36.21S98.58,81.68,98.58,81.56Z" transform="translate(-4.35 -10.15)"/><path class="cls-47" d="M101.15,80.39a3.6,3.6,0,0,0-1.9-.42H99l-.32,0a3,3,0,0,0-1,.36l-.26.18a1.39,1.39,0,0,0-.29.31.91.91,0,0,0-.17.49v.06a1.26,1.26,0,0,0,.73,1l.24.12a2.51,2.51,0,0,0,.46.16,3.1,3.1,0,0,0,.53.1l.15,0h.21a3.51,3.51,0,0,0,1.9-.42,1.64,1.64,0,0,0,.29-.2,1.3,1.3,0,0,0,.28-.3,1,1,0,0,0,.16-.47v-.07A1.25,1.25,0,0,0,101.15,80.39ZM99,82.65v0Zm.4-.1H99l-.3,0a3.09,3.09,0,0,1-.46-.12c-.65-.21-1.09-.59-1.09-1a.76.76,0,0,1,.2-.5,1.65,1.65,0,0,1,.52-.39,2.19,2.19,0,0,1,.41-.16,3.42,3.42,0,0,1,.61-.14h.5c1.24,0,2.25.54,2.25,1.21a.83.83,0,0,1-.26.56,1.56,1.56,0,0,1-.37.28A3.36,3.36,0,0,1,99.42,82.55Z" transform="translate(-4.35 -10.15)"/><path class="cls-48" d="M96.93,82.88v0Z" transform="translate(-4.35 -10.15)"/><path class="cls-48" d="M96.94,85.39v-.1S96.93,85.33,96.94,85.39Z" transform="translate(-4.35 -10.15)"/><path class="cls-49" d="M101.38,84.41l-.14.09-.15.08v2.13h0a1.52,1.52,0,0,0,.78-1.32h0V83.91A1.49,1.49,0,0,1,101.38,84.41Z" transform="translate(-4.35 -10.15)"/><path class="cls-49" d="M101.63,86.73a2,2,0,0,1-.39.28l-.15.08v2l.07,0a1.24,1.24,0,0,0,.72-1V86.43A1.66,1.66,0,0,1,101.63,86.73Z" transform="translate(-4.35 -10.15)"/><path class="cls-45" d="M101.09,82.44a3.71,3.71,0,0,1-1.84.38H99l-.15,0a3.1,3.1,0,0,1-.53-.1,2.51,2.51,0,0,1-.46-.16l-.24-.12a1.26,1.26,0,0,1-.73-1v3.31s0,1,0,1.59h0v1.76a1.25,1.25,0,0,0,.72,1,3.9,3.9,0,0,0,3.43,0v-2h0c0-.5,0-1,0-1Z" transform="translate(-4.35 -10.15)"/><path class="cls-49" d="M101.87,82.87h0V81.43a1,1,0,0,1-.16.47,1.3,1.3,0,0,1-.28.3,1.64,1.64,0,0,1-.29.2l-.06,0V84.2A1.53,1.53,0,0,0,101.87,82.87Z" transform="translate(-4.35 -10.15)"/><path class="cls-50" d="M102.05,85.82a.48.48,0,0,0-.17-.43h0a1.52,1.52,0,0,1-.78,1.32h0v.38l.15-.08a2,2,0,0,0,.39-.28,1.66,1.66,0,0,0,.25-.3,1.07,1.07,0,0,0,.17-.53Z" transform="translate(-4.35 -10.15)"/><path class="cls-50" d="M101.09,84.2v.38l.15-.08.14-.09a1.49,1.49,0,0,0,.5-.5,1.11,1.11,0,0,0,.17-.53V83.3c0-.3-.13-.4-.17-.42h0A1.53,1.53,0,0,1,101.09,84.2Z" transform="translate(-4.35 -10.15)"/><path class="cls-47" d="M97.57,84.51a3.48,3.48,0,0,0,.82.31,3.55,3.55,0,0,0,.47.09H99l.22,0h.16a4,4,0,0,0,1.47-.27,1.89,1.89,0,0,0,.21-.09.26.26,0,0,0,.09-.19.23.23,0,0,0-.09-.19h0a1.3,1.3,0,0,1-.26.14,2.86,2.86,0,0,1-.54.19,3.8,3.8,0,0,1-1,.1H99l-.3,0a3,3,0,0,1-1-.36A1.74,1.74,0,0,1,97,83s0-.09,0-.12v-.1s-.1,0-.13.23c0,0,0,0,0,0a1.29,1.29,0,0,0,0,.34,2.51,2.51,0,0,0,.13.42A1.57,1.57,0,0,0,97.57,84.51Z" transform="translate(-4.35 -10.15)"/><path class="cls-47" d="M97.57,87a3.5,3.5,0,0,0,.82.32l.47.08.17,0h.38a4,4,0,0,0,1.47-.26l.21-.1a.26.26,0,0,0,.09-.19.23.23,0,0,0-.09-.19l0,0-.26.14a2.28,2.28,0,0,1-.54.18,3.44,3.44,0,0,1-1,.1H99l-.3,0a2.8,2.8,0,0,1-1-.36A1.71,1.71,0,0,1,97,85.52s0-.09,0-.13v-.1s-.1,0-.13.23c0,0,0,0,0,0a1.29,1.29,0,0,0,0,.34,2.25,2.25,0,0,0,.13.42A1.57,1.57,0,0,0,97.57,87Z" transform="translate(-4.35 -10.15)"/><path class="cls-44" d="M85.75,79.43a.14.14,0,0,1,0,.09c0,.11-.15.21-.35.21s-.35-.09-.35-.21a.13.13,0,0,1,0-.1.39.39,0,0,1,.31-.12A.4.4,0,0,1,85.75,79.43Z" transform="translate(-4.35 -10.15)"/><path class="cls-45" d="M86.62,78.09h-.49s0,0,0,0a5.47,5.47,0,0,0-.61.13.74.74,0,0,0-.4.17,1.42,1.42,0,0,0-.52.39.76.76,0,0,0-.2.5c0,.43.43.82,1.08,1a2.31,2.31,0,0,0,.47.11,1.45,1.45,0,0,0,.3,0l.22,0h.17a3.37,3.37,0,0,0,1.62-.37,1.8,1.8,0,0,0,.37-.28.82.82,0,0,0,.25-.56C88.86,78.63,87.86,78.09,86.62,78.09ZM85.43,80c-.26,0-.47-.12-.47-.28a1.77,1.77,0,0,1,0-.23h0c0-.15.22-.26.46-.26s.44.12.46.26h0a1.61,1.61,0,0,1,0,.22C85.9,79.88,85.69,80,85.43,80Z" transform="translate(-4.35 -10.15)"/><path class="cls-46" d="M85.9,79.72c0,.16-.21.28-.47.28s-.47-.12-.47-.28a1.77,1.77,0,0,1,0-.23h0c0-.15.22-.26.46-.26s.44.12.46.26h0A1.61,1.61,0,0,1,85.9,79.72Zm-.12-.2a.14.14,0,0,0,0-.09.4.4,0,0,0-.32-.13.39.39,0,0,0-.31.12.13.13,0,0,0,0,.1c0,.12.16.21.35.21S85.78,79.63,85.78,79.52Z" transform="translate(-4.35 -10.15)"/><path class="cls-47" d="M88.36,78.35a3.64,3.64,0,0,0-1.91-.42h-.22l-.33,0a2.92,2.92,0,0,0-1,.36l-.27.18a1.33,1.33,0,0,0-.28.31.83.83,0,0,0-.17.48v.07a1.23,1.23,0,0,0,.72,1l.25.12a3.11,3.11,0,0,0,.46.16,3,3,0,0,0,.52.1l.16,0h.2a3.62,3.62,0,0,0,1.91-.42,2.11,2.11,0,0,0,.29-.2,1.24,1.24,0,0,0,.27-.3.88.88,0,0,0,.16-.47v-.07A1.2,1.2,0,0,0,88.36,78.35Zm-2.13,2.26a.29.29,0,0,1,0-.1Zm.39-.1h-.17l-.22,0a1.45,1.45,0,0,1-.3,0,2.31,2.31,0,0,1-.47-.11c-.65-.21-1.08-.6-1.08-1a.76.76,0,0,1,.2-.5,1.42,1.42,0,0,1,.52-.39,2.4,2.4,0,0,1,.4-.17,5.47,5.47,0,0,1,.61-.13h.51c1.24,0,2.24.54,2.24,1.21a.82.82,0,0,1-.25.56,1.8,1.8,0,0,1-.37.28A3.37,3.37,0,0,1,86.62,80.51Z" transform="translate(-4.35 -10.15)"/><path class="cls-48" d="M84.14,80.84v0Z" transform="translate(-4.35 -10.15)"/><path class="cls-48" d="M84.14,83.35v0Z" transform="translate(-4.35 -10.15)"/><path class="cls-49" d="M88.58,82.37l-.14.09-.15.08v2.13h0a1.53,1.53,0,0,0,.78-1.32h0V81.87A1.63,1.63,0,0,1,88.58,82.37Z" transform="translate(-4.35 -10.15)"/><path class="cls-49" d="M88.84,84.68a1.65,1.65,0,0,1-.39.29l-.16.08v2l.08,0a1.26,1.26,0,0,0,.72-1V84.38A1.42,1.42,0,0,1,88.84,84.68Z" transform="translate(-4.35 -10.15)"/><path class="cls-45" d="M88.29,80.4a3.69,3.69,0,0,1-1.84.38h-.2l-.16,0a3,3,0,0,1-.52-.1,3.11,3.11,0,0,1-.46-.16l-.25-.12a1.23,1.23,0,0,1-.72-1V82.7s0,1,0,1.59h0V86a1.23,1.23,0,0,0,.72,1,3.88,3.88,0,0,0,3.42,0v-2h0c0-.5,0-1,0-1Z" transform="translate(-4.35 -10.15)"/><path class="cls-49" d="M89.07,80.83h0V79.39a.88.88,0,0,1-.16.47,1.24,1.24,0,0,1-.27.3,2.11,2.11,0,0,1-.29.2l-.07,0v1.76A1.48,1.48,0,0,0,89.07,80.83Z" transform="translate(-4.35 -10.15)"/><path class="cls-50" d="M89.25,83.78c0-.31-.13-.41-.16-.43h0a1.53,1.53,0,0,1-.78,1.32h0v.38l.16-.08a1.65,1.65,0,0,0,.39-.29,1.42,1.42,0,0,0,.25-.3,1,1,0,0,0,.16-.52Z" transform="translate(-4.35 -10.15)"/><path class="cls-50" d="M88.29,82.16v.38l.15-.08.14-.09a1.63,1.63,0,0,0,.51-.5,1.1,1.1,0,0,0,.16-.53v-.08c0-.3-.13-.4-.17-.42h0A1.48,1.48,0,0,1,88.29,82.16Z" transform="translate(-4.35 -10.15)"/><path class="cls-47" d="M84.78,82.46a3,3,0,0,0,.81.32l.48.09h.16l.23,0h.15a4,4,0,0,0,1.48-.27l.2-.09a.25.25,0,0,0,.1-.19.23.23,0,0,0-.1-.19h0l-.26.14a3.13,3.13,0,0,1-.54.19,3.88,3.88,0,0,1-1,.1h-.23l-.31,0a2.87,2.87,0,0,1-1-.36,1.76,1.76,0,0,1-.8-1.22s0-.09,0-.12v-.1s-.1,0-.14.23v0a1.63,1.63,0,0,0,0,.34,1.88,1.88,0,0,0,.14.42A1.5,1.5,0,0,0,84.78,82.46Z" transform="translate(-4.35 -10.15)"/><path class="cls-47" d="M84.78,85a3,3,0,0,0,.81.31,4,4,0,0,0,.48.09l.16,0h.38a4.18,4.18,0,0,0,1.48-.26,1.24,1.24,0,0,0,.2-.1.25.25,0,0,0,.1-.19.23.23,0,0,0-.1-.19v0l-.26.14a3.11,3.11,0,0,1-.54.18,3.5,3.5,0,0,1-1,.1h-.23l-.31,0a2.87,2.87,0,0,1-1-.36,1.72,1.72,0,0,1-.8-1.22s0-.08,0-.12v-.1s-.1,0-.14.23v0a1.63,1.63,0,0,0,0,.34,1.73,1.73,0,0,0,.14.42A1.51,1.51,0,0,0,84.78,85Z" transform="translate(-4.35 -10.15)"/><path class="cls-44" d="M89.56,81.42a.16.16,0,0,1,0,.09c0,.12-.15.22-.35.22s-.35-.1-.35-.22a.12.12,0,0,1,0-.09.39.39,0,0,1,.31-.12A.43.43,0,0,1,89.56,81.42Z" transform="translate(-4.35 -10.15)"/><path class="cls-45" d="M90.43,80.09h-.17l-.22,0h-.1s0,0,0,0a3.87,3.87,0,0,0-.61.13.72.72,0,0,0-.4.16,1.54,1.54,0,0,0-.52.39.76.76,0,0,0-.2.5c0,.44.43.83,1.09,1a4.46,4.46,0,0,0,.46.11l.3,0h.39a3.37,3.37,0,0,0,1.62-.38,1.77,1.77,0,0,0,.37-.27.82.82,0,0,0,.25-.56C92.67,80.63,91.67,80.09,90.43,80.09ZM89.24,82c-.26,0-.47-.13-.47-.28a1.92,1.92,0,0,1,0-.24h0c0-.14.22-.25.46-.25s.44.11.46.26h0a1.77,1.77,0,0,1,0,.23C89.71,81.87,89.5,82,89.24,82Z" transform="translate(-4.35 -10.15)"/><path class="cls-46" d="M89.71,81.72c0,.15-.21.28-.47.28s-.47-.13-.47-.28a1.92,1.92,0,0,1,0-.24h0c0-.14.22-.25.46-.25s.44.11.46.26h0A1.77,1.77,0,0,1,89.71,81.72Zm-.12-.21a.16.16,0,0,0,0-.09.43.43,0,0,0-.32-.12.39.39,0,0,0-.31.12.12.12,0,0,0,0,.09c0,.12.16.22.35.22S89.59,81.63,89.59,81.51Z" transform="translate(-4.35 -10.15)"/><path class="cls-47" d="M92.17,80.34a3.63,3.63,0,0,0-1.91-.41H90l-.33,0a3.14,3.14,0,0,0-1,.37,1.27,1.27,0,0,0-.27.18,1.3,1.3,0,0,0-.28.3.86.86,0,0,0-.17.49v.07a1.23,1.23,0,0,0,.72,1l.25.13c.14.06.3.11.46.16a4.35,4.35,0,0,0,.52.1h.16l.2,0a3.71,3.71,0,0,0,1.91-.42,2.11,2.11,0,0,0,.29-.2,1.6,1.6,0,0,0,.28-.31.93.93,0,0,0,.15-.47v-.07A1.23,1.23,0,0,0,92.17,80.34ZM90,82.61a.27.27,0,0,1,0-.1Zm.39-.1H90l-.3,0a4.46,4.46,0,0,1-.46-.11c-.66-.21-1.09-.6-1.09-1a.76.76,0,0,1,.2-.5,1.54,1.54,0,0,1,.52-.39,3.7,3.7,0,0,1,.4-.16,3.87,3.87,0,0,1,.61-.13H90l.22,0h.17c1.24,0,2.24.54,2.24,1.21a.82.82,0,0,1-.25.56,1.77,1.77,0,0,1-.37.27A3.37,3.37,0,0,1,90.43,82.51Z" transform="translate(-4.35 -10.15)"/><path class="cls-48" d="M88,82.83v0Z" transform="translate(-4.35 -10.15)"/><path class="cls-48" d="M88,85.35v0Z" transform="translate(-4.35 -10.15)"/><path class="cls-49" d="M92.4,84.37l-.14.09-.16.08v2.13h0a1.52,1.52,0,0,0,.78-1.32h0V83.87A2,2,0,0,1,92.4,84.37Z" transform="translate(-4.35 -10.15)"/><path class="cls-49" d="M92.65,86.68a2,2,0,0,1-.39.29l-.16.08v2l.08,0a1.23,1.23,0,0,0,.72-1V86.38A1.42,1.42,0,0,1,92.65,86.68Z" transform="translate(-4.35 -10.15)"/><path class="cls-45" d="M92.1,82.39a3.69,3.69,0,0,1-1.84.39l-.2,0H89.9a4.35,4.35,0,0,1-.52-.1c-.16-.05-.32-.1-.46-.16l-.25-.13a1.23,1.23,0,0,1-.72-1V84.7s0,1,0,1.58h0V88a1.23,1.23,0,0,0,.72,1,3.88,3.88,0,0,0,3.42,0v-2h0V82.39Z" transform="translate(-4.35 -10.15)"/><path class="cls-49" d="M92.88,82.83h0V81.38a.93.93,0,0,1-.15.47,1.6,1.6,0,0,1-.28.31,2.11,2.11,0,0,1-.29.2l-.07,0v1.77A1.48,1.48,0,0,0,92.88,82.83Z" transform="translate(-4.35 -10.15)"/><path class="cls-50" d="M93.07,85.77c0-.3-.13-.4-.17-.42h0a1.52,1.52,0,0,1-.78,1.32h0v.38l.16-.08a2,2,0,0,0,.39-.29,1.42,1.42,0,0,0,.25-.3,1.11,1.11,0,0,0,.17-.53Z" transform="translate(-4.35 -10.15)"/><path class="cls-50" d="M92.1,84.16v.38l.16-.08.14-.09a2,2,0,0,0,.5-.5,1.16,1.16,0,0,0,.16-.53v-.08c0-.3-.13-.4-.17-.42h0A1.48,1.48,0,0,1,92.1,84.16Z" transform="translate(-4.35 -10.15)"/><path class="cls-47" d="M88.59,84.46a3,3,0,0,0,.81.32,4,4,0,0,0,.48.08l.16,0h.38a4,4,0,0,0,1.48-.27l.2-.09a.28.28,0,0,0,.1-.2.2.2,0,0,0-.1-.18h0l-.26.14a3.13,3.13,0,0,1-.54.19,3.47,3.47,0,0,1-1,.09H90l-.31,0a2.51,2.51,0,0,1-1-.36A1.73,1.73,0,0,1,88,83s0-.09,0-.13v-.1s-.1,0-.14.23v0a1.63,1.63,0,0,0,0,.34,1.73,1.73,0,0,0,.14.42A1.51,1.51,0,0,0,88.59,84.46Z" transform="translate(-4.35 -10.15)"/><path class="cls-47" d="M88.59,87a3,3,0,0,0,.81.32,4,4,0,0,0,.48.09H90l.23,0h.15a4,4,0,0,0,1.48-.27l.2-.09a.25.25,0,0,0,.1-.19.23.23,0,0,0-.1-.19h0l-.26.14a3.13,3.13,0,0,1-.54.19,3.84,3.84,0,0,1-1,.1H90l-.31,0a2.69,2.69,0,0,1-1-.37,1.73,1.73,0,0,1-.8-1.21s0-.09,0-.12v-.11s-.1,0-.14.23v0a1.63,1.63,0,0,0,0,.34,2.07,2.07,0,0,0,.14.42A1.5,1.5,0,0,0,88.59,87Z" transform="translate(-4.35 -10.15)"/><path class="cls-44" d="M93.54,83.47a.11.11,0,0,1,0,.09c0,.12-.16.21-.35.21s-.36-.09-.36-.21a.18.18,0,0,1,0-.1.43.43,0,0,1,.32-.12A.36.36,0,0,1,93.54,83.47Z" transform="translate(-4.35 -10.15)"/><path class="cls-45" d="M94.41,82.13h-.5a3.42,3.42,0,0,0-.61.14.68.68,0,0,0-.41.16,1.65,1.65,0,0,0-.52.39.76.76,0,0,0-.2.5c0,.44.44.82,1.09,1a3.09,3.09,0,0,0,.46.12l.3,0h.4A3.36,3.36,0,0,0,96,84.18a1.56,1.56,0,0,0,.37-.28.83.83,0,0,0,.26-.56C96.66,82.67,95.65,82.13,94.41,82.13ZM93.23,84c-.26,0-.47-.12-.47-.28a1.77,1.77,0,0,1,0-.23h0c0-.15.22-.25.47-.26s.44.12.46.26h0a1.62,1.62,0,0,1,0,.22C93.69,83.92,93.48,84,93.23,84Z" transform="translate(-4.35 -10.15)"/><path class="cls-46" d="M93.69,83.76c0,.16-.21.28-.46.28s-.47-.12-.47-.28a1.77,1.77,0,0,1,0-.23h0c0-.15.22-.25.47-.26s.44.12.46.26h0A1.62,1.62,0,0,1,93.69,83.76Zm-.11-.2a.11.11,0,0,0,0-.09.36.36,0,0,0-.31-.13.43.43,0,0,0-.32.12.18.18,0,0,0,0,.1c0,.12.16.21.36.21S93.58,83.68,93.58,83.56Z" transform="translate(-4.35 -10.15)"/><path class="cls-47" d="M96.15,82.39a3.6,3.6,0,0,0-1.9-.42H94l-.32,0a3,3,0,0,0-1,.36l-.26.18a1.39,1.39,0,0,0-.29.31.91.91,0,0,0-.17.49v.06a1.26,1.26,0,0,0,.73,1l.24.12a2.51,2.51,0,0,0,.46.16,3.1,3.1,0,0,0,.53.1l.15,0h.21a3.51,3.51,0,0,0,1.9-.42,1.64,1.64,0,0,0,.29-.2,1.3,1.3,0,0,0,.28-.3,1,1,0,0,0,.16-.47v-.07A1.25,1.25,0,0,0,96.15,82.39ZM94,84.65v0Zm.4-.1H94l-.3,0a3.09,3.09,0,0,1-.46-.12c-.65-.21-1.09-.59-1.09-1a.76.76,0,0,1,.2-.5,1.65,1.65,0,0,1,.52-.39,2.19,2.19,0,0,1,.41-.16,3.42,3.42,0,0,1,.61-.14h.5c1.24,0,2.25.54,2.25,1.21a.83.83,0,0,1-.26.56,1.56,1.56,0,0,1-.37.28A3.36,3.36,0,0,1,94.42,84.55Z" transform="translate(-4.35 -10.15)"/><path class="cls-48" d="M91.93,84.88v0Z" transform="translate(-4.35 -10.15)"/><path class="cls-48" d="M91.94,87.39v-.1S91.93,87.33,91.94,87.39Z" transform="translate(-4.35 -10.15)"/><path class="cls-49" d="M96.38,86.41l-.14.09-.15.08v2.13h0a1.52,1.52,0,0,0,.78-1.32h0V85.91A1.49,1.49,0,0,1,96.38,86.41Z" transform="translate(-4.35 -10.15)"/><path class="cls-49" d="M96.63,88.73a2,2,0,0,1-.39.28l-.15.08v2l.07,0a1.24,1.24,0,0,0,.72-1V88.43A1.66,1.66,0,0,1,96.63,88.73Z" transform="translate(-4.35 -10.15)"/><path class="cls-45" d="M96.09,84.44a3.71,3.71,0,0,1-1.84.38H94l-.15,0a3.1,3.1,0,0,1-.53-.1,2.51,2.51,0,0,1-.46-.16l-.24-.12a1.26,1.26,0,0,1-.73-1v3.31s0,1,0,1.59h0v1.76a1.25,1.25,0,0,0,.72,1,3.9,3.9,0,0,0,3.43,0v-2h0c0-.5,0-1,0-1Z" transform="translate(-4.35 -10.15)"/><path class="cls-49" d="M96.87,84.87h0V83.43a1,1,0,0,1-.16.47,1.3,1.3,0,0,1-.28.3,1.64,1.64,0,0,1-.29.2l-.06,0V86.2A1.53,1.53,0,0,0,96.87,84.87Z" transform="translate(-4.35 -10.15)"/><path class="cls-50" d="M97.05,87.82a.48.48,0,0,0-.17-.43h0a1.52,1.52,0,0,1-.78,1.32h0v.38l.15-.08a2,2,0,0,0,.39-.28,1.66,1.66,0,0,0,.25-.3,1.07,1.07,0,0,0,.17-.53Z" transform="translate(-4.35 -10.15)"/><path class="cls-50" d="M96.09,86.2v.38l.15-.08.14-.09a1.49,1.49,0,0,0,.5-.5,1.11,1.11,0,0,0,.17-.53V85.3c0-.3-.13-.4-.17-.42h0A1.53,1.53,0,0,1,96.09,86.2Z" transform="translate(-4.35 -10.15)"/><path class="cls-47" d="M92.57,86.51a3.48,3.48,0,0,0,.82.31,3.55,3.55,0,0,0,.47.09H94l.22,0h.16a4,4,0,0,0,1.47-.27,1.89,1.89,0,0,0,.21-.09.26.26,0,0,0,.09-.19.23.23,0,0,0-.09-.19h0a1.3,1.3,0,0,1-.26.14,2.86,2.86,0,0,1-.54.19,3.8,3.8,0,0,1-1,.1H94l-.3,0a3,3,0,0,1-1-.36A1.74,1.74,0,0,1,92,85s0-.09,0-.12v-.1s-.1,0-.13.23c0,0,0,0,0,0a1.29,1.29,0,0,0,0,.34,2.51,2.51,0,0,0,.13.42A1.57,1.57,0,0,0,92.57,86.51Z" transform="translate(-4.35 -10.15)"/><path class="cls-47" d="M92.57,89a3.5,3.5,0,0,0,.82.32l.47.08.17,0h.38a4,4,0,0,0,1.47-.26l.21-.1a.26.26,0,0,0,.09-.19.23.23,0,0,0-.09-.19l0,0-.26.14a2.28,2.28,0,0,1-.54.18,3.44,3.44,0,0,1-1,.1H94l-.3,0a2.8,2.8,0,0,1-1-.36A1.71,1.71,0,0,1,92,87.52s0-.09,0-.13v-.1s-.1,0-.13.23c0,0,0,0,0,0a1.29,1.29,0,0,0,0,.34,2.25,2.25,0,0,0,.13.42A1.57,1.57,0,0,0,92.57,89Z" transform="translate(-4.35 -10.15)"/><g id="_Gruppo_51" data-name="&lt;Gruppo&gt;"><polygon id="_Tracciato_139" data-name="&lt;Tracciato&gt;" class="cls-32" points="90.97 83.74 145.98 51.99 145.98 34.88 90.97 66.63 90.97 83.74"/><polygon id="_Tracciato_140" data-name="&lt;Tracciato&gt;" class="cls-33" points="91.73 67.07 145.22 36.19 145.22 51.55 91.73 82.43 91.73 67.07"/><polygon id="_Tracciato_141" data-name="&lt;Tracciato&gt;" class="cls-18" points="91.73 67.07 144.59 36.56 144.59 51.1 91.09 81.99 91.73 67.07"/></g><g id="_Gruppo_52" data-name="&lt;Gruppo&gt;"><g id="_Gruppo_53" data-name="&lt;Gruppo&gt;"><polygon id="_Tracciato_142" data-name="&lt;Tracciato&gt;" class="cls-40" points="90.61 83.87 96.97 87.55 96.95 70.48 90.57 66.85 90.61 83.87"/><polygon id="_Tracciato_143" data-name="&lt;Tracciato&gt;" class="cls-37" points="91.37 83.43 91.33 68.15 96.2 70.92 96.21 86.23 91.37 83.43"/></g><g id="_Gruppo_54" data-name="&lt;Gruppo&gt;"><polygon id="_Tracciato_144" data-name="&lt;Tracciato&gt;" class="cls-17" points="90.98 66.63 97.33 70.31 96.95 70.48 90.57 66.85 90.98 66.63"/></g><g id="_Gruppo_55" data-name="&lt;Gruppo&gt;"><polygon id="_Tracciato_145" data-name="&lt;Tracciato&gt;" class="cls-41" points="97.33 87.33 96.97 87.55 96.95 70.48 97.33 70.31 97.33 87.33"/></g></g></g></g></g></g></svg>